<svg xmlns="http://www.w3.org/2000/svg" width="1500" height="1000" fill="none" viewBox="0 0 1500 1000"><g clip-path="url(#clip0_51_2)"><rect width="1500" height="1000" fill="#fff"/><path fill="#E41E20" d="M-2 1075H1503V0H-2V1075Z"/><path fill="#000" fill-rule="evenodd" d="M643.202 208.99C632.749 208.814 615.401 212.322 615.789 220.344C586.674 215.354 583.643 227.381 585.353 238.082C588.123 233.835 591.496 231.529 594.088 231.094C597.97 230.45 602.033 231.704 606.182 234.252C610.33 236.801 614.901 240.913 616.932 243.457C606.656 245.913 598.717 244.327 590.661 242.919C586.69 242.224 581.132 239.99 577.829 237.678C574.525 235.366 573.484 233.19 568.288 227.869C562.161 221.595 555.64 223.362 557.672 233.109C562.371 242.163 570.221 246.2 580.113 247.824C584.873 248.605 591.964 250.302 600 250.31C608.037 250.318 617.061 249.149 621.971 250.175C619.021 252.027 615.683 255.219 609.071 256.491C602.346 257.783 592.122 252.492 585.891 251.049C586.682 256.291 593.296 261.193 606.316 263.747C627.712 268.406 645.491 271.947 657.244 278.327C668.997 284.707 676.408 292.694 681.7 298.953C692.232 311.408 692.786 320.97 693.458 323.074C695.625 342.973 688.686 354.167 675.788 357.608C669.339 359.328 657.883 356.089 653.683 351.158C649.483 346.228 645.397 337.754 646.561 324.485C647.693 319.279 653.646 305.719 648.577 302.917C625.225 290.01 596.867 276.957 576.35 269.19C570.743 267.067 566.123 274.688 564.324 277.655C529.47 273.411 498.046 249.825 483.9 224.712C474.266 207.607 458.387 224.747 461.056 240.904C465.366 258.937 479.106 271.975 495.591 281.216C512.51 290.532 533.659 299.7 555.052 299.222C566.577 301.403 566.463 316.314 552.633 319.11C525.584 319.281 504.005 318.607 483.631 298.954C468.178 284.844 459.478 301.656 463.946 311.182C471.516 340.547 513.409 348.77 555.791 339.266C572.203 336.548 562.375 354.134 557.739 354.316C540.03 367.013 508.326 379.437 480.406 354.182C467.63 344.399 458.992 352.622 463.744 366.746C476.133 403.57 523.522 395.836 556.06 377.697C564.434 373.029 572.035 383.89 561.838 392.143C521.374 420.416 501.143 420.738 482.892 409.88C460.043 400.869 458.033 426.212 471.605 434.538C486.689 443.792 525.076 436.854 553.238 419.152C565.311 410.176 565.857 424.211 558.209 429.768C524.789 458.649 511.617 466.255 476.778 461.547C459.503 460.201 459.762 481.499 473.352 489.833C491.906 501.212 528.14 482.325 556.261 458.994C568.097 452.67 570.041 463.042 564.189 475.321C547.006 497 530.879 509.781 515.344 515.701C499.809 521.62 484.867 520.677 474.292 517.043C461.392 512.611 459.774 526.018 466.902 538.207C471.198 545.555 489.003 547.911 508.222 541.097C527.441 534.283 548.074 518.301 562.241 499.575C574.567 488.784 573.034 503.281 567.414 513.483C539.046 558.329 513.101 574.965 478.928 572.137C463.776 569.564 460.335 581.347 469.992 592.226C486.95 606.29 508.154 605.849 526.699 591.957C543.185 576.062 574.725 541.834 591.266 523.493C602.922 514.201 606.645 523.362 603.225 542.239C600.115 553.049 592.329 564.434 571.11 572.742C556.614 581.015 567.5 592.417 578.366 592.629C584.346 592.746 596.489 585.755 605.778 575.295C618 561.534 618.726 552.295 625.464 530.884C631.83 520.447 643.201 525.319 643.202 536.259C637.749 557.706 633.063 561.551 622.038 570.323C611.493 580.224 629.381 583.523 635.408 579.461C652.846 567.707 659.212 552.503 665.038 538.678C669.243 528.698 681.443 533.536 675.788 549.831C662.273 588.773 640.065 604.107 601.21 611.979C597.272 612.68 594.87 615.004 596.238 619.571C601.453 624.985 606.678 629.898 611.893 635.293C587.866 642.289 568.347 646.219 544.302 653.233C532.505 645.499 522.975 638.938 511.178 631.196C508.068 623.924 506.617 612.824 489.208 620.647C477.411 615.199 471.97 617.197 465.424 622.663C474.874 623.015 478.985 625.546 482.691 629.852C487.529 642.593 498.684 643.824 510.103 640.199C517.532 646.457 521.488 651.258 528.916 657.533C515.05 657.059 505.39 656.814 491.56 656.392C478.357 642.216 467.819 642.992 458.369 654.107C451.166 655.214 448.113 655.369 443.185 664.118C450.936 660.937 455.812 659.984 459.175 663.447C473.212 671.585 482.382 669.768 489.342 663.447C502.885 664.275 515.088 664.976 528.647 665.866C523.666 670.099 516.831 672.345 511.85 676.616C491.51 670.797 480.895 678.63 477.316 695.227C474.59 701.926 473.314 708.822 474.494 715.988C476.463 709.434 479.628 703.799 485.445 700.266C503.574 704.871 510.391 697.47 511.38 686.627C520.118 679.497 533.296 677.924 542.017 670.703C552.215 673.968 557.144 675.99 567.414 679.236C571.066 690.332 579.328 694.725 592.744 691.867C608.714 692.369 605.895 698.921 607.189 704.163C611.433 696.635 611.315 689.315 601.478 682.663C597.899 672.94 589.97 668.518 579.575 674.13C569.791 671.352 567.218 667.359 557.471 664.589C582.127 656.73 599.617 654.962 624.255 647.12C630.422 652.938 635.31 657.115 641.522 662.305C644.796 664.259 647.93 664.751 649.853 662.305C665.292 639.959 672.187 620.266 686.538 605.531C692.02 599.435 698.947 591.21 706.627 589.205C710.467 588.203 715.176 588.814 718.183 592.094C721.19 595.374 723.552 601.418 722.55 610.436C721.113 623.381 717.985 627.468 714.353 635.228C710.722 642.989 706.284 647.762 701.722 653.705C692.599 665.59 680.561 672.508 673.436 677.153C659.187 686.445 653.16 682.378 642.127 681.789C627.866 683.389 624.072 690.335 635.744 699.93C646.655 705.607 656.463 706.308 664.433 704.835C671.277 703.569 679.286 694.736 684.992 689.986C691.416 682.565 702.066 691.366 694.802 699.997C681.602 715.681 668.413 726.021 652.138 725.797C635.035 728.099 638.234 737.708 649.585 742.392C670.012 750.823 688.456 735.032 697.825 724.655C705.054 716.746 710.188 716.438 708.911 728.686C701.735 750.86 691.928 759.426 675.922 760.533C662.939 759.327 662.799 769.349 672.294 776.12C693.924 791.091 709.588 765.597 716.907 750.186C722.122 736.285 730.121 742.896 730.949 754.352C731.057 769.658 724.14 782.156 705.619 797.822C719.79 820.4 736.311 843.365 750.5 866.017C764.689 843.364 781.21 820.399 795.381 797.821C776.86 782.155 769.944 769.657 770.052 754.351C770.88 742.894 778.879 736.284 784.094 750.185C791.413 765.596 807.077 791.09 828.706 776.119C838.201 769.348 838.061 759.326 825.078 760.532C809.072 759.425 799.265 750.859 792.089 728.685C790.812 716.437 795.946 716.745 803.175 724.654C812.545 735.031 830.988 750.822 851.416 742.391C862.766 737.707 865.965 728.098 848.863 725.796C832.587 726.02 819.398 715.68 806.199 699.996C798.935 691.365 809.585 682.564 816.008 689.985C821.714 694.735 829.724 703.568 836.567 704.833C844.538 706.306 854.345 705.605 865.256 699.929C876.928 690.334 873.134 683.388 858.874 681.788C847.84 682.378 841.814 686.444 827.564 677.152C820.439 672.506 808.402 665.589 799.278 653.704C794.717 647.761 790.279 642.988 786.647 635.227C783.015 627.467 779.888 623.38 778.45 610.435C777.448 601.417 779.811 595.372 782.818 592.093C785.824 588.813 790.534 588.201 794.374 589.204C802.054 591.208 808.98 599.434 814.463 605.53C828.813 620.265 835.708 639.958 851.147 662.304C853.07 664.75 856.204 664.258 859.478 662.304C865.691 657.113 870.578 652.937 876.746 647.119C901.384 654.961 918.874 656.729 943.53 664.588C933.782 667.358 931.21 671.351 921.425 674.129C911.031 668.516 903.101 672.939 899.522 682.662C889.685 689.314 889.567 696.634 893.811 704.162C895.106 698.92 892.286 692.367 908.257 691.866C921.673 694.724 929.935 690.33 933.586 679.235C943.856 675.989 948.786 673.967 958.983 670.702C967.705 677.923 980.882 679.496 989.621 686.626C990.609 697.469 997.426 704.87 1015.55 700.265C1021.37 703.797 1024.54 709.433 1026.51 715.987C1027.69 708.821 1026.41 701.924 1023.68 695.226C1020.11 678.628 1009.49 670.796 989.15 676.615C984.169 672.344 977.334 670.098 972.353 665.865C985.912 664.974 998.116 664.274 1011.66 663.446C1018.62 669.767 1027.79 671.583 1041.83 663.446C1045.19 659.983 1050.06 660.936 1057.82 664.117C1052.89 655.368 1049.83 655.213 1042.63 654.106C1033.18 642.991 1022.64 642.215 1009.44 656.391C995.61 656.813 985.95 657.058 972.085 657.532C979.512 651.257 983.468 646.456 990.897 640.198C1002.32 643.823 1013.47 642.592 1018.31 629.851C1022.01 625.545 1026.13 623.014 1035.58 622.662C1029.03 617.196 1023.59 615.198 1011.79 620.646C994.383 612.823 992.933 623.923 989.822 631.195C978.025 638.937 968.495 645.498 956.699 653.232C932.654 646.218 913.134 642.288 889.108 635.293C894.323 629.898 899.548 624.985 904.763 619.571C906.131 615.004 903.729 612.68 899.791 611.979C860.935 604.108 838.728 588.774 825.213 549.832C819.557 533.537 831.757 528.699 835.963 538.679C841.789 552.504 848.155 567.708 865.592 579.462C871.62 583.524 889.508 580.224 878.962 570.324C867.937 561.552 863.252 557.707 857.799 536.26C857.8 525.319 869.17 520.448 875.536 530.885C882.274 552.296 883.001 561.535 895.222 575.296C904.512 585.756 916.655 592.747 922.635 592.63C933.501 592.417 944.387 581.016 929.891 572.743C908.672 564.435 900.886 553.05 897.775 542.24C894.355 523.363 898.079 514.202 909.734 523.494C926.275 541.835 957.815 576.063 974.302 591.958C992.847 605.85 1014.05 606.291 1031.01 592.227C1040.67 581.348 1037.22 569.565 1022.07 572.138C987.899 574.966 961.954 558.33 933.586 513.484C927.967 503.282 926.434 488.785 938.759 499.576C952.926 518.302 973.559 534.284 992.778 541.098C1012 547.912 1029.8 545.556 1034.1 538.208C1041.23 526.019 1039.61 512.612 1026.71 517.044C1016.13 520.677 1001.19 521.62 985.656 515.702C970.122 509.781 953.994 497 936.811 475.321C930.959 463.042 932.903 452.67 944.739 458.994C972.861 482.325 1009.09 501.212 1027.65 489.833C1041.24 481.499 1041.5 460.201 1024.22 461.547C989.383 466.256 976.211 458.649 942.791 429.768C935.143 424.211 935.69 410.176 947.763 419.152C975.925 436.854 1014.31 443.792 1029.4 434.538C1042.97 426.213 1040.96 400.869 1018.11 409.88C999.857 420.738 979.626 420.416 939.163 392.143C928.965 383.89 936.566 373.029 944.941 377.697C977.479 395.836 1024.87 403.57 1037.26 366.746C1042.01 352.622 1033.37 344.399 1020.59 354.182C992.674 379.437 960.97 367.013 943.261 354.316C938.625 354.134 928.798 336.548 945.21 339.266C987.591 348.77 1029.48 340.547 1037.05 311.182C1041.52 301.656 1032.82 284.844 1017.37 298.954C996.995 318.607 975.416 319.281 948.367 319.11C934.537 316.314 934.423 301.403 945.949 299.222C967.342 299.7 988.49 290.532 1005.41 281.216C1021.89 271.975 1035.63 258.937 1039.94 240.904C1042.61 224.747 1026.73 207.607 1017.1 224.711C1002.95 249.825 971.531 273.411 936.677 277.655C934.877 274.688 930.258 267.066 924.65 269.189C904.134 276.957 875.776 290.01 852.424 302.918C847.354 305.719 853.308 319.279 854.439 324.485C855.604 337.755 851.517 346.228 847.318 351.158C843.118 356.089 831.662 359.329 825.213 357.608C812.314 354.168 805.376 342.974 807.542 323.074C808.214 320.97 808.767 311.409 819.3 298.954C824.593 292.695 832.003 284.707 843.756 278.327C855.51 271.947 873.289 268.406 894.685 263.748C907.705 261.193 914.318 256.292 915.11 251.049C908.878 252.493 898.655 257.784 891.93 256.491C885.317 255.22 881.979 252.027 879.03 250.176C883.94 249.148 892.963 250.319 901 250.31C909.037 250.302 916.128 248.605 920.888 247.824C930.78 246.201 938.629 242.163 943.328 233.11C945.36 223.362 938.839 221.596 932.713 227.869C927.516 233.191 926.476 235.367 923.172 237.679C919.868 239.99 914.311 242.225 910.339 242.919C902.283 244.328 894.345 245.914 884.069 243.457C886.099 240.913 890.67 236.801 894.819 234.253C898.968 231.704 903.03 230.451 906.913 231.095C909.504 231.53 912.877 233.835 915.647 238.082C917.358 227.381 914.326 215.355 885.211 220.345C885.6 212.322 868.252 208.814 857.799 208.99C851.879 209.09 839.735 212.561 830.991 216.65C817.161 220.84 803.415 223.906 787.319 225.048C796.614 232.855 798.44 233.302 807.811 239.964C793.622 245.125 782.632 255.823 777.711 262.807C790.105 263.401 794.198 262.358 798.405 264.15C781.141 269.15 773.326 272.08 764.207 281.216C767.435 281.804 772.234 282.665 774.285 283.433C776.404 284.228 775.527 285.318 774.083 286.859C770.126 289.336 754.979 307.181 750.501 311.316C746.022 307.181 730.875 289.336 726.918 286.859C725.474 285.317 724.596 284.228 726.716 283.433C728.767 282.665 733.566 281.804 736.794 281.216C727.675 272.081 719.86 269.151 702.596 264.151C706.803 262.359 710.895 263.402 723.289 262.808C718.369 255.823 707.379 245.124 693.189 239.963C702.56 233.301 704.386 232.855 713.681 225.048C697.585 223.906 683.84 220.84 670.01 216.649C661.266 212.561 649.121 209.089 643.202 208.99ZM644.748 227.735C653.254 227.735 658.521 230.651 658.521 234.185C658.521 237.781 653.254 240.702 644.748 240.702C636.277 240.702 630.907 237.514 630.907 233.916C630.909 230.382 636.277 227.735 644.748 227.735ZM856.254 227.735C864.725 227.735 870.093 230.382 870.095 233.916C870.095 237.514 864.725 240.702 856.254 240.702C847.748 240.702 842.481 237.781 842.481 234.185C842.481 230.651 847.748 227.735 856.254 227.735Z" clip-rule="evenodd"/></g><defs><clipPath id="clip0_51_2"><rect width="1500" height="1000" fill="#fff"/></clipPath></defs></svg>