<svg xmlns="http://www.w3.org/2000/svg" width="1500" height="1000" fill="none" viewBox="0 0 1500 1000"><g clip-path="url(#clip0_51_3)"><rect width="1500" height="1000" fill="#fff"/><path fill="#008D33" d="M-55.0002 999.466L750.265 1000L750.926 2.1781L-54.339 1.64444L-55.0002 999.466Z"/><path fill="#fff" d="M748.522 997.822L1553.79 998.354L1554.45 0.532593L749.181 0.000465696L748.522 997.822Z"/><path fill="red" d="M875.455 842.178C689.614 842.178 538.962 688.619 538.962 499.177C538.962 309.735 689.617 156.175 875.455 156.175C916.948 156.175 956.673 163.852 993.371 177.848C930.293 127.224 851.839 97.2046 766.801 97.2046C558.552 97.2046 389.743 277.175 389.743 499.189C389.743 721.194 558.565 901.174 766.801 901.174C851.839 901.174 930.293 871.155 993.371 820.528C956.692 834.523 916.948 842.2 875.467 842.2L875.455 842.178Z"/><path fill="red" d="M748.105 590.068L816.44 498.07L750.032 404.65L858.648 441.172L926.951 349.174L925.782 463.76L1034.4 500.313L925.055 534.591L923.855 649.177L857.479 555.79L748.105 590.068Z"/></g><defs><clipPath id="clip0_51_3"><rect width="1500" height="1000" fill="#fff"/></clipPath></defs></svg>