<svg xmlns="http://www.w3.org/2000/svg" width="1500" height="1000" fill="none" viewBox="0 0 1500 1000"><g clip-path="url(#clip0_51_4)"><rect width="1500" height="1000" fill="#fff"/><path fill="#002395" d="M-250 0H1750V1000H-250V0Z"/><path fill="#FECB00" d="M250 0H1250V1000L250 0Z"/><path fill="#fff" d="M569.5 460.875L625.375 289L681.25 460.875L535 354.625H715.75L569.5 460.875Z"/><path fill="#fff" d="M694.5 585.875L750.375 414L806.25 585.875L660 479.625H840.75L694.5 585.875Z"/><path fill="#fff" d="M819.5 710.875L875.375 539L931.25 710.875L785 604.625H965.75L819.5 710.875Z"/><path fill="#fff" d="M569.5 460.875L625.375 289L681.25 460.875L535 354.625H715.75L569.5 460.875Z"/><path fill="#fff" d="M694.5 585.875L750.375 414L806.25 585.875L660 479.625H840.75L694.5 585.875Z"/><path fill="#fff" d="M819.5 710.875L875.375 539L931.25 710.875L785 604.625H965.75L819.5 710.875Z"/><path fill="#fff" d="M569.5 460.875L625.375 289L681.25 460.875L535 354.625H715.75L569.5 460.875Z"/><path fill="#fff" d="M694.5 585.875L750.375 414L806.25 585.875L660 479.625H840.75L694.5 585.875Z"/><path fill="#fff" d="M819.5 710.875L875.375 539L931.25 710.875L785 604.625H965.75L819.5 710.875Z"/></g><defs><clipPath id="clip0_51_4"><rect width="1500" height="1000" fill="#fff"/></clipPath></defs></svg>