<svg width="1500" height="1000" viewBox="0 0 1500 1000" fill="none" xmlns="http://www.w3.org/2000/svg">
<g clip-path="url(#clip0_51_7)">
<rect width="1500" height="1000" fill="white"/>
<g clip-path="url(#clip1_51_7)">
<path d="M1721.87 338.85H-221V640.427H1721.87V338.85Z" fill="white"/>
<path d="M1727.33 607.109H-219.231V1001.82H1727.33V607.109Z" fill="#003E9F"/>
<path d="M1726.02 5.88037H-223.682V336.857H1726.02V5.88037Z" fill="#D61517"/>
<path fill-rule="evenodd" clip-rule="evenodd" d="M591.315 327.831C642.224 309.721 698.667 299.949 753.835 299.812C809.002 299.67 865.264 308.33 920.855 328.247L962.236 244.767L933.151 194.104C933.151 194.104 881.256 215.417 880.831 215.417C880.407 215.417 844.241 175.619 844.241 175.619L797.801 203.677L754.192 170.327L713.168 203.163L665.282 175.484L630.35 216.995L577.988 194.605L549.957 244.805L591.312 327.831H591.315Z" fill="white" stroke="#E5141D" stroke-width="1.09738" stroke-linecap="round"/>
<path fill-rule="evenodd" clip-rule="evenodd" d="M856.609 304.675L880.306 220.911L931.051 200.319L957.785 245.207L919.396 323.717C897.336 314.901 885.511 311.122 856.609 304.675Z" fill="#00A7BD" stroke="#0084FD" stroke-width="0.365825"/>
<path fill-rule="evenodd" clip-rule="evenodd" d="M722.982 295.606L714.984 208.852L755.31 176.798L797.446 208.777L789.995 295.684C766.782 294.458 750.202 294.492 722.982 295.606Z" fill="#00A7BD" stroke="#0084FD" stroke-width="0.365805"/>
<path fill-rule="evenodd" clip-rule="evenodd" d="M593.311 323.668L555.719 244.153L580.841 200.261L632.916 222.927L654.922 304.956C631.146 309.875 618.555 313.89 593.311 323.668Z" fill="#00A7BD" stroke="#0084FD" stroke-opacity="0.99608" stroke-width="0.365793"/>
<path fill-rule="evenodd" clip-rule="evenodd" d="M581.622 279.627C593.455 282.021 601.892 282.108 612.507 279.194C625.187 274.007 629.666 267.012 633.792 261.392C635.713 273.262 633.708 284.02 619.224 291.607C606.225 297.599 588.689 293.831 581.622 279.627Z" fill="white" stroke="white" stroke-width="0.365793"/>
<path fill-rule="evenodd" clip-rule="evenodd" d="M765.189 222.319L762.922 222.878L763.006 226.986L760.214 227.589L758.26 231.209L759.466 232.327C759.527 232.447 758.517 235.005 758.561 235.005C758.606 235.005 759.298 235.975 759.298 235.975L760.041 238.199L761.917 238.456L762.397 241.064L765.362 241.535L768.109 243.463L768.283 244.663L771.426 244.745L773.565 245.43L781.025 244.575L782.024 243.036L782.113 240.938L786.128 240.812L786.497 237.465H788.619L788.356 233.702L790.132 233.855L789.674 232.053L788.568 230.579L788.351 228.268L785.212 225.189L784.514 221.169C784.514 221.169 782.504 220.27 782.504 220.227C782.504 220.183 782.376 217.532 782.376 217.532L784.643 214.404L784.425 213.166L782.331 213.122L780.762 214.404C780.762 214.404 778.668 214.617 778.668 214.661V215.603C778.668 215.603 779.193 217.356 779.193 217.4C779.193 217.444 776.792 217.4 776.792 217.4L776.703 214.617L773.302 212.952C773.302 212.952 770.12 215.088 770.12 215.132C770.12 215.176 769.941 217.614 769.941 217.614L768.417 218.041L766.848 215.729L764.095 214.705L762.615 214.617L762.57 216.414L765.452 220.139L765.189 222.319Z" fill="#FAF703" fill-opacity="0.99608" stroke="#544B20" stroke-opacity="0.99608" stroke-width="0.365793"/>
<path d="M786.569 237.372L785.955 235.131" stroke="#544B20" stroke-width="0.365793"/>
<path d="M788.3 233.68L787.25 232.168" stroke="#544B20" stroke-width="0.365793"/>
<path fill-rule="evenodd" clip-rule="evenodd" d="M759.55 231.987L762.822 231.801L763.436 234.71L764.547 235.674L764.731 241.004L765.781 241.425L766.088 239.306L768.618 239.125L769.115 243.425L768.495 243.967L768.741 244.635L771.767 244.575C771.767 244.575 772.443 243.425 772.504 243.425C772.565 243.425 774.235 243.244 774.235 243.304C774.235 243.364 774.911 244.575 774.911 244.575L775.408 242.937C775.408 242.937 777.01 242.274 777.01 242.335C777.01 242.395 778.306 244.394 778.306 244.394L780.528 244.088L779.171 242.817L778.613 240.034L781.695 238.402L782.934 240.456C782.934 240.456 784.101 240.516 784.04 240.456C783.979 240.396 782.683 238.095 782.683 238.095V233.258L785.028 230.108L788.3 229.747V228.416L785.028 225.447L784.163 221.333L782.315 220.424L781.823 220.972L779.785 221.152L781.823 224.116V226.055L782.745 226.537L782.56 231.861C782.56 231.861 780.277 232.168 780.277 232.228C780.277 232.289 780.092 235.192 780.092 235.192L778.674 236.583C778.674 236.583 777.876 239.366 777.809 239.366C777.747 239.366 776.452 241.064 776.452 241.064L773.922 241.124C773.922 241.124 772.443 239.733 772.443 239.673C772.443 239.612 772.197 237.613 772.197 237.613C772.197 237.613 771.209 237.312 771.147 237.312C771.086 237.312 770.594 235.071 770.594 235.071L768.863 234.102L768.741 232.771L767.077 232.048C767.077 232.048 766.892 230.837 766.831 230.777C766.77 230.711 766.027 230.229 765.965 230.229C765.904 230.229 765.904 226.898 765.904 226.898L767.384 226.657L766.557 225.595L766.273 224.664V223.694L767.507 222.483C767.507 222.483 765.29 222.182 765.29 222.242C765.29 222.303 763.129 223.207 763.129 223.152C763.19 223.152 763.068 227.085 763.068 227.085L760.538 227.868L758.5 231.078L759.55 231.987Z" fill="#544B20" stroke="#544B21" stroke-opacity="0.99999" stroke-width="0.365793"/>
<path fill-rule="evenodd" clip-rule="evenodd" d="M772.319 237.372L773.989 236.402L773.922 234.529L772.319 234.162L771.705 233.559L773.492 233.861L775.714 233.68L776.451 233.318C776.144 234.102 775.898 234.041 775.837 234.041C775.776 234.041 774.603 234.649 774.603 234.649L774.664 236.463C774.664 236.463 778.489 236.945 778.428 236.945C778.366 236.945 778.428 237.673 778.305 237.673C778.182 237.673 774.357 236.824 774.357 236.824L771.951 238.281L772.319 237.372Z" fill="#544B20" stroke="#544B20" stroke-width="0.365793"/>
<path fill-rule="evenodd" clip-rule="evenodd" d="M781.946 226.115L779.724 227.808L778.306 230.289L777.563 230.41L775.408 227.567L772.94 227.627C772.94 227.627 771.583 230.958 771.583 231.018C771.583 231.078 770.594 230.897 770.594 230.897L768.004 228.115C768.004 228.115 767.199 226.718 767.322 226.718C767.445 226.718 773.799 226.778 773.799 226.778L773.738 223.754C773.738 223.754 772.75 223.453 772.258 223.152C772.627 223.026 775.776 223.026 775.776 223.026L774.419 223.935V226.537L780.031 226.597L781.946 226.115Z" fill="#544B20" stroke="#544B20" stroke-width="0.365793"/>
<path d="M771.455 228.293C771.455 227.892 771.124 227.567 770.715 227.567C770.306 227.567 769.975 227.892 769.975 228.293C769.975 228.694 770.306 229.019 770.715 229.019C771.124 229.019 771.455 228.694 771.455 228.293Z" fill="#796A3A" fill-opacity="0.99608"/>
<path d="M778.49 227.992C778.49 227.591 778.159 227.266 777.75 227.266C777.341 227.266 777.01 227.591 777.01 227.992C777.01 228.393 777.341 228.718 777.75 228.718C778.159 228.718 778.49 228.393 778.49 227.992Z" fill="#7A6B3A"/>
<path d="M766.646 222.725C768.986 221.799 770.656 221.048 773.554 220.791C776.29 220.506 778.406 220.889 780.835 221.333" stroke="#544B20" stroke-width="0.365793"/>
<path fill-rule="evenodd" clip-rule="evenodd" d="M767.942 217.822H766.027L763.313 214.979L764.855 215.16L766.647 215.949L767.942 217.822Z" fill="#544B20" stroke="#544B20" stroke-width="0.365793"/>
<path fill-rule="evenodd" clip-rule="evenodd" d="M779.478 216.732L783.794 213.467L782.376 213.286L780.774 214.738L778.858 215.039L779.478 216.732Z" fill="#544B20" stroke="#544B20" stroke-width="0.365793"/>
<path fill-rule="evenodd" clip-rule="evenodd" d="M776.931 217.335L770.158 217.581L770.225 216.852L772.693 216.611L773 215.647C773 215.647 773.737 215.582 773.737 215.647C773.737 215.708 774.296 216.551 774.296 216.551L776.702 216.973L776.931 217.335Z" fill="#544B20" stroke="#544B20" stroke-width="0.365793"/>
<path fill-rule="evenodd" clip-rule="evenodd" d="M776.58 214.798L774.235 214.858L774.045 213.587L776.58 214.798Z" fill="#544B20" stroke="#544B20" stroke-width="0.365793"/>
<path fill-rule="evenodd" clip-rule="evenodd" d="M772.626 213.648L772.442 214.919L770.158 215.28L772.626 213.648Z" fill="#544B20" stroke="#544B20" stroke-width="0.365793"/>
<path fill-rule="evenodd" clip-rule="evenodd" d="M759.672 236.824L760.845 233.921L759.795 231.927L758.745 234.89L759.672 236.824Z" fill="#544B20" stroke="#544B20" stroke-width="0.365793"/>
<path fill-rule="evenodd" clip-rule="evenodd" d="M762.017 238.402L763.435 234.951L760.722 237.733L762.017 238.402Z" fill="#544B20" stroke="#544B20" stroke-width="0.365793"/>
<path fill-rule="evenodd" clip-rule="evenodd" d="M727.745 223.529L725.478 224.087L725.562 228.196L722.77 228.798L720.815 232.419L722.022 233.536C722.083 233.657 721.072 236.215 721.117 236.215C721.162 236.215 721.854 237.184 721.854 237.184L722.597 239.408L724.473 239.666L724.953 242.273L727.918 242.744L730.665 244.672L730.838 245.872L733.982 245.954L736.12 246.639L743.58 245.784L744.58 244.245L744.669 242.147L748.684 242.021L749.052 238.674H751.174L750.912 234.911L752.687 235.065L752.23 233.262L751.124 231.789L750.906 229.477L747.768 226.399L747.07 222.378C747.07 222.378 745.06 221.48 745.06 221.436C745.06 221.392 744.932 218.741 744.932 218.741L747.199 215.613L746.981 214.375L744.887 214.331L743.318 215.613C743.318 215.613 741.224 215.827 741.224 215.871V216.813C741.224 216.813 741.749 218.566 741.749 218.61C741.749 218.653 739.348 218.61 739.348 218.61L739.258 215.827L735.858 214.162C735.858 214.162 732.675 216.298 732.675 216.342C732.675 216.386 732.497 218.823 732.497 218.823L730.972 219.25L729.403 216.939L726.65 215.914L725.171 215.827L725.126 217.624L728.007 221.348L727.745 223.529Z" fill="#FAF703" fill-opacity="0.99608" stroke="#544B20" stroke-opacity="0.99608" stroke-width="0.365793"/>
<path d="M749.125 238.581L748.511 236.341" stroke="#544B20" stroke-width="0.365793"/>
<path d="M750.856 234.889L749.807 233.377" stroke="#544B20" stroke-width="0.365793"/>
<path fill-rule="evenodd" clip-rule="evenodd" d="M722.105 233.197L725.377 233.011L725.992 235.919L727.103 236.883L727.287 242.213L728.337 242.635L728.644 240.515L731.173 240.334L731.67 244.634L731.051 245.177L731.296 245.845L734.323 245.785C734.323 245.785 734.998 244.634 735.06 244.634C735.121 244.634 736.791 244.453 736.791 244.514C736.791 244.574 737.466 245.785 737.466 245.785L737.963 244.147C737.963 244.147 739.566 243.484 739.566 243.544C739.566 243.604 740.861 245.604 740.861 245.604L743.083 245.297L741.727 244.026L741.168 241.244L744.25 239.611L745.49 241.665C745.49 241.665 746.657 241.726 746.596 241.665C746.534 241.605 745.239 239.304 745.239 239.304V234.468L747.584 231.318L750.856 230.956V229.625L747.584 226.656L746.719 222.543L744.87 221.633L744.379 222.181L742.341 222.362L744.379 225.325V227.264L745.3 227.746L745.116 233.071C745.116 233.071 742.832 233.378 742.832 233.438C742.832 233.498 742.648 236.401 742.648 236.401L741.23 237.793C741.23 237.793 740.431 240.575 740.364 240.575C740.303 240.575 739.007 242.273 739.007 242.273L736.478 242.334C736.478 242.334 734.998 240.942 734.998 240.882C734.998 240.822 734.753 238.822 734.753 238.822C734.753 238.822 733.764 238.521 733.703 238.521C733.641 238.521 733.15 236.281 733.15 236.281L731.419 235.311L731.296 233.98L729.632 233.257C729.632 233.257 729.448 232.046 729.387 231.986C729.325 231.92 728.583 231.438 728.521 231.438C728.46 231.438 728.46 228.108 728.46 228.108L729.939 227.867L729.113 226.804L728.828 225.873V224.903L730.062 223.693C730.062 223.693 727.845 223.392 727.845 223.452C727.845 223.512 725.685 224.416 725.685 224.361C725.746 224.361 725.623 228.294 725.623 228.294L723.094 229.078L721.056 232.287L722.105 233.197Z" fill="#544B20" stroke="#544B21" stroke-opacity="0.99999" stroke-width="0.365793"/>
<path fill-rule="evenodd" clip-rule="evenodd" d="M734.875 238.581L736.545 237.612L736.477 235.738L734.875 235.371L734.261 234.769L736.048 235.07L738.27 234.889L739.007 234.528C738.7 235.311 738.454 235.251 738.393 235.251C738.331 235.251 737.159 235.859 737.159 235.859L737.22 237.672C737.22 237.672 741.045 238.154 740.984 238.154C740.922 238.154 740.984 238.883 740.861 238.883C740.738 238.883 736.913 238.034 736.913 238.034L734.506 239.491L734.875 238.581Z" fill="#544B20" stroke="#544B20" stroke-width="0.365793"/>
<path fill-rule="evenodd" clip-rule="evenodd" d="M744.502 227.325L742.279 229.017L740.861 231.499L740.119 231.619L737.963 228.776L735.495 228.837C735.495 228.837 734.138 232.167 734.138 232.227C734.138 232.288 733.15 232.107 733.15 232.107L730.559 229.324C730.559 229.324 729.755 227.927 729.878 227.927C730.001 227.927 736.355 227.988 736.355 227.988L736.294 224.964C736.294 224.964 735.305 224.663 734.814 224.361C735.183 224.235 738.332 224.235 738.332 224.235L736.975 225.145V227.747L742.587 227.807L744.502 227.325Z" fill="#544B20" stroke="#544B20" stroke-width="0.365793"/>
<path d="M734.011 229.503C734.011 229.102 733.679 228.776 733.271 228.776C732.862 228.776 732.53 229.102 732.53 229.503C732.53 229.904 732.862 230.229 733.271 230.229C733.679 230.229 734.011 229.904 734.011 229.503Z" fill="#796A3A" fill-opacity="0.99608"/>
<path d="M741.046 229.201C741.046 228.8 740.715 228.475 740.306 228.475C739.897 228.475 739.565 228.8 739.565 229.201C739.565 229.602 739.897 229.928 740.306 229.928C740.715 229.928 741.046 229.602 741.046 229.201Z" fill="#7A6B3A"/>
<path d="M729.202 223.934C731.542 223.008 733.211 222.258 736.109 222C738.845 221.716 740.961 222.099 743.39 222.543" stroke="#544B20" stroke-width="0.365793"/>
<path fill-rule="evenodd" clip-rule="evenodd" d="M730.498 219.031H728.583L725.869 216.188L727.41 216.369L729.203 217.158L730.498 219.031Z" fill="#544B20" stroke="#544B20" stroke-width="0.365793"/>
<path fill-rule="evenodd" clip-rule="evenodd" d="M742.034 217.941L746.35 214.676L744.932 214.496L743.329 215.947L741.414 216.248L742.034 217.941Z" fill="#544B20" stroke="#544B20" stroke-width="0.365793"/>
<path fill-rule="evenodd" clip-rule="evenodd" d="M739.488 218.544L732.715 218.79L732.782 218.062L735.25 217.821L735.557 216.857C735.557 216.857 736.294 216.791 736.294 216.857C736.294 216.917 736.852 217.761 736.852 217.761L739.259 218.182L739.488 218.544Z" fill="#544B20" stroke="#544B20" stroke-width="0.365793"/>
<path fill-rule="evenodd" clip-rule="evenodd" d="M739.136 216.007L736.79 216.068L736.601 214.797L739.136 216.007Z" fill="#544B20" stroke="#544B20" stroke-width="0.365793"/>
<path fill-rule="evenodd" clip-rule="evenodd" d="M735.183 214.857L734.999 216.128L732.715 216.49L735.183 214.857Z" fill="#544B20" stroke="#544B20" stroke-width="0.365793"/>
<path fill-rule="evenodd" clip-rule="evenodd" d="M722.228 238.033L723.4 235.13L722.351 233.136L721.301 236.1L722.228 238.033Z" fill="#544B20" stroke="#544B20" stroke-width="0.365793"/>
<path fill-rule="evenodd" clip-rule="evenodd" d="M724.573 239.611L725.991 236.16L723.277 238.943L724.573 239.611Z" fill="#544B20" stroke="#544B20" stroke-width="0.365793"/>
<path fill-rule="evenodd" clip-rule="evenodd" d="M790.609 295.566L798.104 208.558L844.179 182.048L879.796 220.647L856.062 304.475C833.052 299.78 819.923 297.766 790.609 295.566Z" fill="#001070" stroke="#001071" stroke-opacity="0.99608" stroke-width="0.365817"/>
<path fill-rule="evenodd" clip-rule="evenodd" d="M747.161 256.035L744.894 256.594L744.978 260.702L742.186 261.304L740.231 264.925L741.438 266.043C741.499 266.163 740.488 268.721 740.533 268.721C740.578 268.721 741.27 269.691 741.27 269.691L742.013 271.915L743.889 272.172L744.369 274.78L747.334 275.251L750.081 277.179L750.254 278.378L753.398 278.461L755.536 279.145L762.996 278.291L763.996 276.752L764.085 274.654L768.1 274.528L768.468 271.181H770.59L770.328 267.418L772.103 267.571L771.646 265.769L770.54 264.295L770.322 261.984L767.184 258.905L766.486 254.885C766.486 254.885 764.476 253.986 764.476 253.942C764.476 253.899 764.348 251.247 764.348 251.247L766.615 248.12L766.397 246.882L764.303 246.838L762.734 248.12C762.734 248.12 760.64 248.333 760.64 248.377V249.319C760.64 249.319 761.165 251.072 761.165 251.116C761.165 251.16 758.764 251.116 758.764 251.116L758.675 248.333L755.274 246.668C755.274 246.668 752.091 248.804 752.091 248.848C752.091 248.892 751.913 251.33 751.913 251.33L750.388 251.757L748.819 249.445L746.066 248.421L744.587 248.333L744.542 250.13L747.423 253.855L747.161 256.035Z" fill="#FAF703" fill-opacity="0.99608" stroke="#544B20" stroke-opacity="0.99608" stroke-width="0.365793"/>
<path d="M768.541 271.088L767.927 268.847" stroke="#544B20" stroke-width="0.365793"/>
<path d="M770.272 267.396L769.223 265.884" stroke="#544B20" stroke-width="0.365793"/>
<path fill-rule="evenodd" clip-rule="evenodd" d="M741.521 265.703L744.794 265.517L745.408 268.426L746.519 269.39L746.703 274.719L747.753 275.141L748.06 273.021L750.589 272.841L751.086 277.141L750.467 277.683L750.712 278.351L753.739 278.291C753.739 278.291 754.414 277.141 754.476 277.141C754.537 277.141 756.207 276.96 756.207 277.02C756.207 277.08 756.882 278.291 756.882 278.291L757.379 276.653C757.379 276.653 758.982 275.99 758.982 276.051C758.982 276.111 760.277 278.11 760.277 278.11L762.5 277.803L761.143 276.533L760.584 273.75L763.667 272.118L764.906 274.172C764.906 274.172 766.073 274.232 766.012 274.172C765.95 274.111 764.655 271.811 764.655 271.811V266.974L767 263.824L770.272 263.463V262.132L767 259.163L766.135 255.049L764.286 254.14L763.795 254.687L761.757 254.868L763.795 257.832V259.771L764.716 260.253L764.532 265.577C764.532 265.577 762.248 265.884 762.248 265.944C762.248 266.004 762.064 268.908 762.064 268.908L760.646 270.299C760.646 270.299 759.847 273.082 759.78 273.082C759.719 273.082 758.423 274.78 758.423 274.78L755.894 274.84C755.894 274.84 754.414 273.449 754.414 273.388C754.414 273.328 754.169 271.329 754.169 271.329C754.169 271.329 753.18 271.027 753.119 271.027C753.057 271.027 752.566 268.787 752.566 268.787L750.835 267.818L750.712 266.486L749.048 265.763C749.048 265.763 748.864 264.553 748.803 264.493C748.741 264.427 747.999 263.945 747.937 263.945C747.876 263.945 747.876 260.614 747.876 260.614L749.355 260.373L748.529 259.311L748.244 258.379V257.41L749.478 256.199C749.478 256.199 747.262 255.898 747.262 255.958C747.262 256.019 745.101 256.922 745.101 256.868C745.162 256.868 745.039 260.801 745.039 260.801L742.51 261.584L740.472 264.794L741.521 265.703Z" fill="#544B20" stroke="#544B21" stroke-opacity="0.99999" stroke-width="0.365793"/>
<path fill-rule="evenodd" clip-rule="evenodd" d="M754.291 271.088L755.961 270.118L755.894 268.245L754.291 267.878L753.677 267.275L755.464 267.576L757.686 267.396L758.423 267.034C758.116 267.817 757.87 267.757 757.809 267.757C757.747 267.757 756.575 268.365 756.575 268.365L756.636 270.178C756.636 270.178 760.461 270.66 760.4 270.66C760.338 270.66 760.4 271.389 760.277 271.389C760.154 271.389 756.329 270.54 756.329 270.54L753.922 271.997L754.291 271.088Z" fill="#544B20" stroke="#544B20" stroke-width="0.365793"/>
<path fill-rule="evenodd" clip-rule="evenodd" d="M763.918 259.831L761.695 261.524L760.277 264.005L759.535 264.126L757.379 261.283L754.911 261.343C754.911 261.343 753.554 264.673 753.554 264.734C753.554 264.794 752.566 264.613 752.566 264.613L749.975 261.83C749.975 261.83 749.171 260.434 749.294 260.434C749.417 260.434 755.771 260.494 755.771 260.494L755.71 257.47C755.71 257.47 754.721 257.169 754.23 256.868C754.599 256.742 757.748 256.742 757.748 256.742L756.391 257.651V260.253L762.003 260.313L763.918 259.831Z" fill="#544B20" stroke="#544B20" stroke-width="0.365793"/>
<path d="M753.427 262.009C753.427 261.608 753.095 261.283 752.687 261.283C752.278 261.283 751.946 261.608 751.946 262.009C751.946 262.41 752.278 262.735 752.687 262.735C753.095 262.735 753.427 262.41 753.427 262.009Z" fill="#796A3A" fill-opacity="0.99608"/>
<path d="M760.462 261.708C760.462 261.307 760.131 260.981 759.722 260.981C759.313 260.981 758.981 261.307 758.981 261.708C758.981 262.109 759.313 262.434 759.722 262.434C760.131 262.434 760.462 262.109 760.462 261.708Z" fill="#7A6B3A"/>
<path d="M748.618 256.44C750.958 255.515 752.627 254.764 755.525 254.507C758.261 254.222 760.378 254.605 762.806 255.049" stroke="#544B20" stroke-width="0.365793"/>
<path fill-rule="evenodd" clip-rule="evenodd" d="M749.914 251.538H747.999L745.285 248.695L746.826 248.876L748.619 249.664L749.914 251.538Z" fill="#544B20" stroke="#544B20" stroke-width="0.365793"/>
<path fill-rule="evenodd" clip-rule="evenodd" d="M761.45 250.447L765.766 247.183L764.348 247.002L762.745 248.454L760.83 248.755L761.45 250.447Z" fill="#544B20" stroke="#544B20" stroke-width="0.365793"/>
<path fill-rule="evenodd" clip-rule="evenodd" d="M758.903 251.05L752.13 251.297L752.197 250.568L754.665 250.327L754.972 249.363C754.972 249.363 755.709 249.297 755.709 249.363C755.709 249.423 756.267 250.267 756.267 250.267L758.674 250.689L758.903 251.05Z" fill="#544B20" stroke="#544B20" stroke-width="0.365793"/>
<path fill-rule="evenodd" clip-rule="evenodd" d="M758.552 248.514L756.206 248.574L756.017 247.303L758.552 248.514Z" fill="#544B20" stroke="#544B20" stroke-width="0.365793"/>
<path fill-rule="evenodd" clip-rule="evenodd" d="M754.598 247.364L754.414 248.635L752.13 248.996L754.598 247.364Z" fill="#544B20" stroke="#544B20" stroke-width="0.365793"/>
<path fill-rule="evenodd" clip-rule="evenodd" d="M741.644 270.54L742.816 267.636L741.767 265.643L740.717 268.606L741.644 270.54Z" fill="#544B20" stroke="#544B20" stroke-width="0.365793"/>
<path fill-rule="evenodd" clip-rule="evenodd" d="M743.989 272.117L745.407 268.667L742.693 271.449L743.989 272.117Z" fill="#544B20" stroke="#544B20" stroke-width="0.365793"/>
<path fill-rule="evenodd" clip-rule="evenodd" d="M802.019 279.977L799.707 282.683L799.886 284.945L804.682 284.858C806.223 284.496 806.609 283.959 806.904 283.335C807.379 282.563 807.05 282.141 807.167 281.111L802.019 279.977Z" fill="#A0210C" stroke="#A0210C" stroke-opacity="0.99652" stroke-width="0.365793"/>
<path fill-rule="evenodd" clip-rule="evenodd" d="M813.578 286.777L811.624 288.606V290.699L815.89 290.611C817.426 290.25 817.632 289.97 817.928 289.351C818.403 288.579 818.258 288.595 818.375 287.56L813.578 286.777Z" fill="#A0210C" stroke="#A0210C" stroke-opacity="0.99652" stroke-width="0.365793"/>
<path fill-rule="evenodd" clip-rule="evenodd" d="M832.31 280.938L830.088 283.206L830.177 284.948L834.706 285.123C836.247 284.761 836.007 284.833 836.481 284.033C836.956 283.261 836.811 283.102 836.928 282.072L832.31 280.938Z" fill="#A0210C" stroke="#A0210C" stroke-opacity="0.99652" stroke-width="0.365793"/>
<path fill-rule="evenodd" clip-rule="evenodd" d="M845.547 285.037L842.973 287.212V289.392L847.769 289.83C849.31 289.463 849.427 289.014 849.813 288.477C850.287 287.705 850.047 287.634 850.165 286.604L845.547 285.037Z" fill="#A0210C" stroke="#A0210C" stroke-opacity="0.99652" stroke-width="0.365793"/>
<path fill-rule="evenodd" clip-rule="evenodd" d="M813.298 228.048L822.355 234.058C824.063 232.644 827.603 233.504 828.988 233.893C831.484 234.545 833.237 236.019 835.415 236.413C839.396 237.41 844.165 238.106 847.772 237.711C851.385 237.317 854.422 235.432 857.085 234.058V233.187H855.31C852.429 234.227 848.386 234.282 845.293 233.877C842.199 233.471 841.367 232.08 836.75 230.749L836.392 229.878C841.998 230.141 843.137 229.999 845.482 228.974C847.777 228.366 848.81 227.035 850.106 226.115L850.072 225.085L848.38 224.997C846.208 226.444 844.824 226.706 841.49 226.405C838.458 226.098 835.728 224.367 833.695 224.335C831.54 224.351 831.64 223.321 829.552 223.217C826.235 222.927 822.656 223.371 819.518 224.126C815.755 225.26 815.191 226.219 813.298 228.048Z" fill="#A0210C" stroke="black" stroke-width="0.365793"/>
<path fill-rule="evenodd" clip-rule="evenodd" d="M815.057 226.712C815.922 226.909 816.899 227.161 817.608 227.566C818.318 227.966 818.133 227.961 818.893 228.52C818.77 227.797 818.809 227.846 818.318 227.282C817.826 226.712 817.017 226.197 816.369 225.731L815.057 226.712Z" fill="black" stroke="black" stroke-width="0.365793"/>
<path fill-rule="evenodd" clip-rule="evenodd" d="M822.629 233.209C822.645 232.431 822.243 231.752 821.942 231.072C821.646 230.393 821.4 229.818 820.842 229.139C821.54 229.336 821.925 229.637 822.523 230.349C823.114 231.061 823.081 231.773 823.204 232.798L822.629 233.209Z" fill="black" stroke="black" stroke-width="0.365793"/>
<path fill-rule="evenodd" clip-rule="evenodd" d="M824.359 223.672C824.572 224.214 824.985 224.587 825.337 225.743C825.638 226.789 825.783 228.262 825.783 228.262C825.666 227.479 825.867 226.592 825.755 225.814C825.638 225.03 825.214 224.351 825.096 223.568L824.359 223.672Z" fill="black" stroke="black" stroke-width="0.365793"/>
<path fill-rule="evenodd" clip-rule="evenodd" d="M831.73 224.137L832.099 228.465L832.518 224.395L831.73 224.137Z" fill="black" stroke="black" stroke-width="0.365793"/>
<path fill-rule="evenodd" clip-rule="evenodd" d="M829.931 233.109C830.11 232.402 830.076 231.701 829.987 230.994C829.898 230.288 829.652 229.691 829.406 228.88C830.11 229.482 830.389 230.238 830.774 231.044C830.774 231.854 830.562 232.555 829.931 233.109Z" fill="black" stroke="black" stroke-width="0.365793"/>
<path fill-rule="evenodd" clip-rule="evenodd" d="M837.567 231.204C837.595 231.204 837.79 232.672 837.455 233.729C837.12 234.786 836.88 234.863 836.255 235.432C837.092 234.813 837.83 234.605 838.092 233.932C838.354 232.902 837.673 231.357 837.567 231.204Z" fill="black" stroke="black" stroke-width="0.365793"/>
<path fill-rule="evenodd" clip-rule="evenodd" d="M838.881 229.81C838.356 229.892 838.25 227.712 837.932 226.661C838.161 226.54 838.39 226.578 838.618 227.071C838.864 227.367 838.792 228.896 838.881 229.81Z" fill="black" stroke="black" stroke-width="0.365793"/>
<path fill-rule="evenodd" clip-rule="evenodd" d="M844.076 228.933L844.283 227.125L844.863 227.076V228.62C844.863 228.675 844.126 228.982 844.076 228.933Z" fill="black" stroke="black" stroke-width="0.365793"/>
<path fill-rule="evenodd" clip-rule="evenodd" d="M843.665 233.78C843.994 234.328 844.592 234.98 844.659 235.582C844.732 236.185 844.536 236.475 844.084 237.39L844.927 237.439C845.379 236.711 845.519 236.185 845.452 235.61C845.379 235.035 845.1 234.46 844.503 233.983L843.665 233.78Z" fill="black" stroke="black" stroke-width="0.365793"/>
<path fill-rule="evenodd" clip-rule="evenodd" d="M849.918 234.24L850.13 236.771L850.811 236.409L850.655 234.24H849.918Z" fill="black" stroke="black" stroke-width="0.365793"/>
<path fill-rule="evenodd" clip-rule="evenodd" d="M812.734 228.492C810.685 229.084 809.943 230.218 808.943 231.198L803.164 228.273C802.226 229.051 801.869 230.157 802.315 231.297C802.768 232.431 804.582 234.211 805.872 235.093C805.548 236.659 805.068 237.843 804.51 239.223C803.879 240.768 802.533 242.723 802.494 243.353C802.416 244.071 802.181 245.61 803.253 246.021C804.331 246.432 807.787 245.736 808.943 245.813C808.753 246.426 808.307 247.505 808.457 247.971C808.608 248.436 808.921 248.59 809.859 248.617C809.591 249.192 809.005 249.915 809.284 250.26C810.01 250.808 810.842 250.715 811.54 250.671C810.44 251.948 807.687 254.407 806.793 255.503C805.85 256.779 805.766 258.159 807.597 258.028C806.916 258.778 806.263 259.512 806.363 260.159C806.525 260.942 806.916 261.468 808.223 261.013C807.452 262.766 807.96 264.338 808.234 266.162C807.57 267.548 807.849 268.83 807.687 270.418C806.341 271.18 806.174 272.171 805.297 273.705C804.51 275.365 803.036 275.819 802.22 279.38L807.508 280.7C807.704 279.966 808.396 279.49 808.586 278.756C808.781 278.027 808.764 277.112 808.675 276.302C809.719 274.784 811.841 271.651 812.522 269.975C813.678 269.361 814.516 268.972 815.387 268.972C816.252 268.972 816.799 269.487 817.721 269.975C817.313 271.388 816.174 272.922 816.107 274.899V280.344C815.878 281.697 814.337 281.719 813.689 285.794L818.435 287.027C819.245 285.652 820.518 285.466 820.853 284.918L821.199 279.254C821.802 276.581 825.549 274.373 825.605 271.47C826.945 271.454 827.453 271.591 827.989 271.317C828.704 271.065 828.95 270.665 829.508 270.156C829.726 271.032 830.413 271.109 830.993 271.109C831.58 271.109 832.735 270.287 833.21 269.953C833.551 270.424 833.729 270.873 834.427 271.037C835.131 271.202 837.119 270.906 837.923 270.714L834.025 277.096C833.88 277.709 834.07 278.093 833.768 278.81C833.484 279.457 832.914 279.769 832.657 280.361L837.08 281.418L837.783 279.555C838.721 279.161 839.475 278.947 839.972 278.345C840.463 277.742 840.458 276.603 840.742 275.951C842.25 274.855 844.629 272.473 846.293 270.506C847.426 270.698 849.029 271.629 849.637 273.031C849.727 274.532 849.838 277.293 849.163 279.205L846.293 283.685L845.969 284.419L850.481 286.03L853.351 283.833L853.462 280.7C854.903 278.153 856.963 276.767 858.923 275.162C858.923 275.075 859.135 271.793 859.057 271.667C858.571 271.3 858.242 271.519 858.069 270.84C857.901 270.166 858.019 268.31 858.108 267.576C858.393 267.225 858.99 266.825 858.962 266.524C858.18 265.664 858.415 263.445 858.655 261.714C858.599 259.748 861.291 257.414 861.704 256.27L861.871 254.199C861.598 253.69 861.19 253.388 861.173 252.956C861.162 252.523 861.698 251.811 862.028 251.356L862.597 250.381L862.508 245.281C862.346 244.733 861.877 243.873 861.425 243.786C860.978 243.698 860.319 244.202 859.822 244.755L857.226 246.673C855.986 247.051 854.897 247.198 852.708 246.656L849.375 246.722C847.627 247.209 846.711 247.292 845.064 246.574L843.093 246.601C842.473 246.941 841.625 247.478 840.955 247.609C840.29 247.735 839.386 247.763 838.716 247.56C833.623 247.9 834.885 248.267 833.428 248.584C832.261 248.365 832.635 247.785 828.09 247.741L826.286 247.215C824.014 245.709 822.26 243.298 820.747 240.532C825.482 239.179 827.47 237.766 828.911 234.534L822.21 234.786L812.734 228.492Z" fill="#DC9103" stroke="#544B20" stroke-width="0.365793"/>
<path fill-rule="evenodd" clip-rule="evenodd" d="M810.381 236.759L812.279 237.564C812.508 237.838 812.961 238.156 813.256 238.172C813.552 238.194 813.804 237.893 814.061 237.674L815.803 236.759C814.77 236.611 814.457 235.97 813.357 235.97C812.257 235.97 811.481 236.545 810.381 236.759Z" fill="black" stroke="black" stroke-width="0.365793"/>
<path fill-rule="evenodd" clip-rule="evenodd" d="M818.697 237.229C819.311 237.596 820.434 238.319 821.355 238.319C822.36 238.237 822.343 237.53 823.79 237.059L825.911 235.345C824.633 235.361 821.869 235.608 820.35 236.073C819.071 236.407 818.775 236.917 818.697 237.229Z" fill="black" stroke="black" stroke-width="0.365793"/>
<path fill-rule="evenodd" clip-rule="evenodd" d="M813.846 259.133C813.846 259.286 813.584 259.401 813.45 259.215C813.288 256.991 812.796 255.435 812.115 253.704C812.886 255.019 813.528 257.15 813.846 259.133Z" fill="black" stroke="black" stroke-width="0.365793"/>
<path fill-rule="evenodd" clip-rule="evenodd" d="M819.271 268.252C818.411 268.34 818.07 268.214 817.205 268.302C817.11 266.067 817.104 263.509 817.115 261.915C817.445 261.953 818.405 262.955 818.975 264.538C819.126 265.705 819.338 267.02 819.271 268.252Z" fill="black" stroke="black" stroke-width="0.365793"/>
<path fill-rule="evenodd" clip-rule="evenodd" d="M824.985 259.37C825.376 259.479 825.917 259.479 826.046 259.222C826.208 258.745 825.716 258.225 825.538 257.644C824.896 256.39 824.544 255.032 824.276 254.44C823.991 254.265 823.69 254.281 823.757 254.571C824.125 255.689 824.75 258.943 824.985 259.37Z" fill="black" stroke="black" stroke-width="0.365793"/>
<path fill-rule="evenodd" clip-rule="evenodd" d="M831.099 258.696C831.138 258.965 830.223 258.576 830.066 258.269C830.055 257.672 828.816 253.306 829.022 253.136C829.279 253.01 830.089 254.599 830.346 255.328C830.407 255.76 830.949 257.343 831.099 258.696Z" fill="black" stroke="black" stroke-width="0.365793"/>
<path fill-rule="evenodd" clip-rule="evenodd" d="M830.228 267.685C830.211 267.992 830.931 267.74 831.211 267.51C832.037 266.228 833.053 264.875 833.355 264.36C833.533 263.813 834.432 260.307 834.159 260.334C834.058 260.236 833.277 262.076 832.266 263.889C831.211 265.735 830.217 267.51 830.228 267.685Z" fill="black" stroke="black" stroke-width="0.365793"/>
<path fill-rule="evenodd" clip-rule="evenodd" d="M836.359 265.806C836.058 265.949 836.962 262.777 837.029 262.213C837.197 261.326 837.426 259.732 837.789 257.667C838.224 260.548 837.705 263.648 836.359 265.806Z" fill="black" stroke="black" stroke-width="0.365793"/>
<path fill-rule="evenodd" clip-rule="evenodd" d="M840.033 256.094C839.838 256.264 837.208 251.915 837.448 251.893C837.515 251.701 839.654 254.615 839.961 255.13C840.084 255.371 840.212 255.744 840.033 256.094Z" fill="black" stroke="black" stroke-width="0.365793"/>
<path fill-rule="evenodd" clip-rule="evenodd" d="M846.191 259.326C845.996 259.178 846.074 257.787 845.683 256.259C845.298 254.736 844.634 253.268 844.768 252.846C844.89 252.627 845.315 252.731 845.655 253.021C845.817 253.854 846.203 257.036 846.644 259.107C846.638 259.31 846.415 259.447 846.191 259.326Z" fill="black" stroke="black" stroke-width="0.365793"/>
<path fill-rule="evenodd" clip-rule="evenodd" d="M850.497 255.459C850.29 255.235 851.072 256.955 851.641 258.992C852.211 261.036 852.501 264.64 852.641 264.388C853.032 264.125 852.965 263.802 853.573 263.67C854.182 263.539 856.449 263.752 856.321 263.599C854.919 262.35 853.624 261.315 852.658 259.956C851.692 258.598 851.05 256.818 850.497 255.459Z" fill="black" stroke="black" stroke-width="0.365793"/>
<path fill-rule="evenodd" clip-rule="evenodd" d="M855.801 274.072C855.36 274.39 854.528 274.642 854.282 274.511C852.948 271.728 852.2 269.909 850.34 266.935C849.86 266.228 848.665 266.338 848.732 266.064C848.777 265.741 849.402 265.867 849.81 265.407C850.212 264.941 850.268 264.349 850.519 264.136C849.972 265.418 851.407 267.39 852.211 268.951C852.747 269.093 853.171 269.093 853.423 269.411C853.484 269.559 852.847 269.663 852.926 270.2L854.282 272.933C854.729 273.267 855.41 273.448 856.069 273.546C856.242 273.7 855.935 273.919 855.801 274.072Z" fill="black" stroke="black" stroke-width="0.365793"/>
<path fill-rule="evenodd" clip-rule="evenodd" d="M858.582 249.762C859.42 249.806 860.179 249.883 860.43 249.456C860.938 248.398 861.24 247.527 860.894 246.843C859.576 246.947 858.582 247.555 858.046 248.711C858.063 249.116 858.163 249.412 858.582 249.762Z" fill="black" stroke="black" stroke-width="0.365793"/>
<path fill-rule="evenodd" clip-rule="evenodd" d="M872.402 248.968C885.406 251.718 897.445 254.845 909.489 258.729C921.527 262.613 932.991 267.252 944.644 272.275L925.135 311.688C914.241 307.546 903.492 304.205 892.738 300.732C881.989 297.259 871.508 294.186 860.62 290.845L872.402 248.968Z" fill="#FDFCFC" stroke="#FDFCFC" stroke-width="0.365793"/>
<path fill-rule="evenodd" clip-rule="evenodd" d="M869.811 258.28C869.811 258.28 887.975 262.334 905.575 267.992C923.18 273.656 940.356 280.925 940.289 280.925C940.149 280.925 929.222 303.433 929.222 303.433C918.619 299.215 907.462 295.26 896.446 291.711C885.429 288.161 874.407 284.743 863.116 282.13L869.811 258.28Z" fill="#E6151E" stroke="#E6151E" stroke-width="0.365793"/>
<path fill-rule="evenodd" clip-rule="evenodd" d="M871.319 269.29C873.105 268.288 874.317 268.019 875.277 266.376H881.71L881.794 268.72C883.374 269.476 884.295 270.314 885.875 271.07C887.455 271.826 889.7 272.5 891.28 273.25L905.134 274.467C906.987 274.762 909.673 275.546 911.281 276.488C912.889 277.435 913.917 278.619 914.782 280.131C917.63 281.127 920.472 281.719 923.404 282.152C926.329 282.585 929.998 282.771 932.846 282.88C934.247 283.368 934.247 284.096 933.588 284.825C933.588 284.825 932.019 286.945 927.742 286.967C923.465 286.989 918.618 284.578 916.513 284.907C916.597 286.2 918.825 288.867 921.382 289.919L921.299 296.071L920.143 297.122L918.909 296.312C919.897 294.855 919.568 293.157 919.154 291.699C918.205 290.325 918.082 289.76 916.312 289.678C914.207 289.273 912.683 288.709 910.003 286.846L909.009 287.011C908.434 288.035 907.853 288.736 906.535 289.355L903.816 289.191C903.816 289.191 897.545 287.816 897.545 287.734C897.545 287.657 897.462 286.764 897.629 286.682C897.791 286.605 899.773 286.605 899.935 286.605C901.258 287.011 904.062 287.011 904.062 287.011L903.978 284.661L908.188 284.42C907.334 281.505 907.06 279.643 903.157 278.997L890.945 279.32L891.113 281.018C888.064 280.618 882.536 280.541 879.711 281.478C878.064 281.642 875.691 282.475 874.618 282.475L873.379 282.152C872.558 281.911 872.558 281.67 872.888 280.941C878.164 280.536 878.991 280.131 880.56 279.402C880.638 278.914 879.979 277.863 879.733 277.786C876.433 277.622 873.792 277.863 872.888 277.704C871.486 277.299 869.588 276.57 869.588 276.488C869.588 276.406 869.342 275.195 869.426 275.195C869.504 275.195 871.57 275.759 871.648 275.759C873.876 276.165 877.751 276.006 878.661 275.518L878.745 273.738C878.661 272.927 878.08 272.199 877.918 272.122C877.751 272.04 874.289 271.635 873.049 271.635C871.045 271.284 871.346 270.287 871.319 269.29Z" fill="black" stroke="#010001" stroke-opacity="0.99608" stroke-width="0.365793"/>
<path fill-rule="evenodd" clip-rule="evenodd" d="M897.958 283.691C899.829 284.283 901.203 284.474 903.978 284.661L908.188 284.42C907.334 281.505 907.06 279.643 903.157 278.997L890.945 279.32L891.113 281.018C894.826 282.398 896.641 283.149 897.958 283.691Z" fill="#FDFDFD" fill-opacity="0.99608" stroke="#010001" stroke-opacity="0.99608" stroke-width="0.365793"/>
<path fill-rule="evenodd" clip-rule="evenodd" d="M655.559 304.636L633.503 222.429L667.164 181.653L714.363 208.595L722.363 295.707C698.281 297.496 682.674 299.811 655.559 304.636Z" fill="#011171" fill-opacity="0.99608" stroke="#011171" stroke-width="0.365797"/>
<path fill-rule="evenodd" clip-rule="evenodd" d="M579.44 239.141L587.118 245.9L584.937 256.774L595.582 253.093L603.433 259.852L605.181 249.839L613.903 247.012L607.269 239.826L609.452 229.894C609.452 229.894 598.983 232.978 598.983 232.891C598.983 232.809 592.003 226.219 591.914 226.301C591.83 226.389 589.648 235.717 589.648 235.717L579.44 239.141Z" fill="#FBFD10" fill-opacity="0.99608" stroke="#FDC605" stroke-opacity="0.99608" stroke-width="0.365793"/>
<path fill-rule="evenodd" clip-rule="evenodd" d="M579.615 239.223L613.813 246.93L605.002 249.927L597.062 243.507C597.062 243.507 603.523 259.595 603.433 259.513C603.344 259.425 595.929 253.263 595.666 253.005L596.978 243.507C596.978 243.507 585.112 256.686 585.112 256.598C585.112 256.516 587.38 245.818 587.38 245.818L579.615 239.223Z" fill="#FFC500"/>
<path fill-rule="evenodd" clip-rule="evenodd" d="M589.562 235.717L597.152 242.992L591.915 226.131L589.562 235.717Z" fill="#FFC500"/>
<path fill-rule="evenodd" clip-rule="evenodd" d="M598.899 232.978C598.983 233.066 597.062 242.822 597.151 242.822C598.023 241.792 609.452 229.895 609.369 229.895C609.279 229.895 599.072 233.066 598.899 232.978Z" fill="#FFC500"/>
<path fill-rule="evenodd" clip-rule="evenodd" d="M909.947 222.518L911.572 232.512L902.897 239.611L913.53 243.328L915.29 253.429L923.075 246.73L931.665 249.923L931.125 240.242L939.196 233.876C939.196 233.876 929.084 229.804 929.14 229.736C929.193 229.672 928.001 220.241 927.879 220.25C927.757 220.266 920.074 226.164 920.074 226.164L909.947 222.518Z" fill="#FBFD10" fill-opacity="0.99608" stroke="#FDC605" stroke-opacity="0.99608" stroke-width="0.36583"/>
<path fill-rule="evenodd" clip-rule="evenodd" d="M910.03 222.689L931.649 249.804L922.881 246.688L920.834 236.795C920.834 236.795 915.525 253.284 915.508 253.165C915.495 253.041 913.691 243.673 913.652 243.311L920.769 236.744C920.769 236.744 903.09 239.65 903.146 239.582C903.199 239.518 911.828 232.609 911.828 232.609L910.03 222.689Z" fill="#FFC500"/>
<path fill-rule="evenodd" clip-rule="evenodd" d="M920.007 226.111L921.233 236.451L927.988 220.118L920.007 226.111Z" fill="#FDC605"/>
<path fill-rule="evenodd" clip-rule="evenodd" d="M929.019 229.752C929.028 229.872 921.273 236.264 921.342 236.319C922.68 236.057 939.197 233.876 939.132 233.825C939.062 233.769 929.097 229.927 929.019 229.752Z" fill="#FDC605"/>
<path fill-rule="evenodd" clip-rule="evenodd" d="M633.652 222.746C645.629 217.022 659.075 212.552 673.258 210.604C686.888 208.655 700.529 208.486 714.527 208.517C714.527 208.517 716.359 229.955 716.359 230.13C705.359 230.223 697.162 230.02 677.753 232.529C658.45 235.202 650.498 237.498 638.767 241.995L633.652 222.746Z" fill="#E6141D" stroke="#E6141D" stroke-width="0.365793"/>
<path fill-rule="evenodd" clip-rule="evenodd" d="M643.91 260.696C643.726 260.696 649.974 283.368 649.974 283.368C661.493 280.459 673.197 278.274 684.906 276.625C696.61 274.976 709.056 274.034 720.396 273.284L718.386 251.17C706.437 250.453 692.818 250.453 680.5 252.068C668.188 253.69 656.228 256.555 643.91 260.696Z" fill="#E6141D" fill-opacity="0.99608" stroke="#E6141D" stroke-width="0.365793"/>
<path fill-rule="evenodd" clip-rule="evenodd" d="M588.913 330.717H923.306V545.126C914.808 628.628 834.547 691.041 761.21 690.565C682.039 694.021 594.497 629.22 588.182 544.408L588.911 330.717H588.913Z" fill="white" stroke="#E5141D" stroke-width="1.09738"/>
<path fill-rule="evenodd" clip-rule="evenodd" d="M595.869 338.223H916.329V543.698C908.185 623.721 831.268 683.533 760.987 683.076C685.114 686.389 601.22 624.287 595.168 543.01L595.867 338.223H595.869Z" fill="#D61517" stroke="#E5141D" stroke-width="1.05165"/>
<path d="M850.251 339.251H788.495V406.271H850.251V339.251Z" fill="white"/>
<path d="M722.846 339.251H661.09V406.271H722.846V339.251Z" fill="white"/>
<path d="M659.238 408.49H596.655V473.905H659.238V408.49Z" fill="white"/>
<path d="M786.44 408.49H725.304V473.905H786.44V408.49Z" fill="white"/>
<path d="M915.095 408.49H852.094V473.905H915.095V408.49Z" fill="white"/>
<path d="M850.251 475.915H788.495V542.332H850.251V475.915Z" fill="white"/>
<path d="M722.842 475.915H661.086V542.332H722.842V475.915Z" fill="white"/>
<path d="M786.44 544.345H725.304V610.762H786.44V544.345Z" fill="white"/>
<path fill-rule="evenodd" clip-rule="evenodd" d="M852.484 544.923L852.501 610.174L890.102 610.223C907.255 585.162 913.129 560.754 914.743 544.939C914.464 544.939 852.73 544.912 852.484 544.923Z" fill="white" stroke="white" stroke-width="0.365793"/>
<path fill-rule="evenodd" clip-rule="evenodd" d="M788.875 613.362L788.881 678.842C815.627 673.283 837.414 660.613 849.883 651.311L849.888 613.334L788.875 613.362Z" fill="white" stroke="white" stroke-width="0.365793"/>
<path fill-rule="evenodd" clip-rule="evenodd" d="M661.554 613.236L661.465 650.232C682.471 665.553 706.464 674.526 722.445 677.971L722.456 613.258L661.554 613.236Z" fill="white" stroke="white" stroke-width="0.365793"/>
<path fill-rule="evenodd" clip-rule="evenodd" d="M596.772 544.836C598.771 570.471 609.693 594.25 621.425 610.332L658.869 610.272L658.875 544.808L596.772 544.836Z" fill="white" stroke="white" stroke-width="0.365793"/>
</g>
</g>
<defs>
<clipPath id="clip0_51_7">
<rect width="1500" height="1000" fill="white"/>
</clipPath>
<clipPath id="clip1_51_7">
<rect width="1942.87" height="1000" fill="white" transform="translate(-221)"/>
</clipPath>
</defs>
</svg>
