<svg width="1500" height="1000" viewBox="0 0 1500 1000" fill="none" xmlns="http://www.w3.org/2000/svg">
<g clip-path="url(#clip0_51_11)">
<rect width="1500" height="1000" fill="white"/>
<g clip-path="url(#clip1_51_11)">
<path d="M1550.02 0H-50V999.98H1550.02V0Z" fill="#0066FF"/>
<path d="M1016.69 0H483.348V1000H1016.69V0Z" fill="white"/>
<path d="M742.698 618.76C746.246 615.071 765.133 609.306 778.558 608.158C790.169 607.23 797.648 599.611 804.522 598.845C824.377 578.89 850.36 571.25 867.353 532.368C870.578 520.677 872.876 506.466 873.219 492.881C866.809 447.467 862.656 448.697 853.081 418.663" stroke="black" stroke-width="0.5"/>
<path fill-rule="evenodd" clip-rule="evenodd" d="M778.257 612.546C778.599 615.892 788.839 628.249 806.518 626.092C804.945 622.665 801.095 620.226 795.592 615.086C793.072 612.486 778.136 610.954 778.257 612.546Z" fill="#0C5C1D"/>
<path fill-rule="evenodd" clip-rule="evenodd" d="M799.302 609.034C797.246 609.195 795.431 610.425 798.939 613.509C804.865 618.487 826.111 623.083 829.316 616.754C819.923 615.484 813.634 613.488 812.666 613.529C808.312 612.098 802.668 608.711 799.302 609.034Z" fill="#0C5C1D"/>
<path fill-rule="evenodd" clip-rule="evenodd" d="M788.698 607.512C792.991 604.569 796.317 604.811 799.099 604.227C806.194 603.743 811.052 604.71 814.016 605.94C818.43 607.835 824.84 612.572 825.646 616.018C819.115 615.898 814.782 610.979 806.376 609.105C802.082 608.722 794.14 608.177 788.698 607.512Z" fill="#0C5C1D"/>
<path fill-rule="evenodd" clip-rule="evenodd" d="M777.349 606.224C789.735 598.591 801.489 584.619 802.703 570.019C787.218 582.121 776.731 599.601 777.349 606.224Z" fill="#0C5C1D"/>
<path fill-rule="evenodd" clip-rule="evenodd" d="M784.343 606.081C794.825 601.546 809.016 591.366 810.75 570.182C796.378 579.232 791.761 592.616 784.343 606.081Z" fill="#0C5C1D"/>
<path fill-rule="evenodd" clip-rule="evenodd" d="M806.457 595.875C805.631 589.889 819.983 558.666 828.368 550.623C829.275 562.657 817.584 596.419 806.457 595.875Z" fill="#0C5C1D"/>
<path fill-rule="evenodd" clip-rule="evenodd" d="M806.013 597.074C808.19 606.326 831.895 608.725 839.535 597.88C830.021 596.288 818.249 595.361 806.013 597.074Z" fill="#0C5C1D"/>
<path fill-rule="evenodd" clip-rule="evenodd" d="M816.428 590.716C826.108 596.824 849.727 592.562 863.508 581.649C842.942 575.443 817.479 587.254 816.428 590.716Z" fill="#0C5C1D"/>
<path fill-rule="evenodd" clip-rule="evenodd" d="M835.101 577.363C836.653 570.651 856.569 557.347 869.43 558.093C861.266 569.179 858.464 567.264 854.211 572.183C851.308 575.831 841.169 578.512 835.101 577.363Z" fill="#0C5C1D"/>
<path fill-rule="evenodd" clip-rule="evenodd" d="M841.658 562.071C834.602 559.389 836.168 539.027 840.897 530.722C845.663 541.943 846.944 559.409 841.658 562.071Z" fill="#0C5C1D"/>
<path fill-rule="evenodd" clip-rule="evenodd" d="M851.387 554.551C841.994 549.331 845.38 523.792 850.38 516.636C854.31 524.256 856.366 550.842 851.387 554.551Z" fill="#0C5C1D"/>
<path fill-rule="evenodd" clip-rule="evenodd" d="M854.986 554.324C860.425 545.752 879.359 545.385 887.666 548.707C878.634 557.545 864.731 557.99 854.986 554.324Z" fill="#0C5C1D"/>
<path fill-rule="evenodd" clip-rule="evenodd" d="M860.58 548.824C852.759 536.609 857.617 530.119 862.395 514.981C864.713 527.841 862.838 541.407 860.58 548.824Z" fill="#0C5C1D"/>
<path fill-rule="evenodd" clip-rule="evenodd" d="M870.495 521.7C871.837 510.354 882.112 504.999 893.777 501.105C891.373 509.451 886.319 518.493 870.495 521.7Z" fill="#0C5C1D"/>
<path fill-rule="evenodd" clip-rule="evenodd" d="M867.706 527.885C855.484 525.789 854.914 514.134 855.168 502.732C858.659 509.007 867.019 517.106 867.706 527.885Z" fill="#0C5C1D"/>
<path fill-rule="evenodd" clip-rule="evenodd" d="M864.6 508.122C867.493 501.047 862.401 481.883 849.924 474.811C850.123 486.543 858.111 501.13 864.6 508.122Z" fill="#0C5C1D"/>
<path fill-rule="evenodd" clip-rule="evenodd" d="M871.526 503.993C873.309 499.782 874.473 497.638 877.173 492.239C881.862 482.415 878.828 485.711 885.164 473.814C888.572 487.092 881.737 502.952 871.526 503.993Z" fill="#0C5C1D"/>
<path fill-rule="evenodd" clip-rule="evenodd" d="M872.353 468.425C863.882 473.061 855.306 470.063 843.575 460.64C853.258 459.784 861.939 464.436 872.353 468.425Z" fill="#0C5C1D"/>
<path fill-rule="evenodd" clip-rule="evenodd" d="M870.021 463.706C875.073 446.921 878.062 444.046 882.213 425.812C871.82 434.22 866.479 452.429 870.021 463.706Z" fill="#0C5C1D"/>
<path fill-rule="evenodd" clip-rule="evenodd" d="M868.114 462.589C856.74 454.322 854.05 444.922 840.937 441.496C841.218 446.195 860.08 465.81 868.114 462.589Z" fill="#0C5C1D"/>
<path fill-rule="evenodd" clip-rule="evenodd" d="M865.172 451.08C857.904 442.02 853.889 434.64 843.115 428.095C844.847 439.134 856.902 455.189 865.172 451.08Z" fill="#0C5C1D"/>
<path fill-rule="evenodd" clip-rule="evenodd" d="M851.378 430.889C853.693 418.256 838.045 409.875 832.633 403.4C832.011 414.567 841.786 427.698 851.378 430.889Z" fill="#0C5C1D"/>
<path fill-rule="evenodd" clip-rule="evenodd" d="M851.282 416.351C854.928 404.97 844.713 397.25 839.646 391.445C840.45 402.553 842.132 414.009 851.282 416.351Z" fill="#0C5C1D"/>
<path fill-rule="evenodd" clip-rule="evenodd" d="M866.054 438.953C870.541 431.616 867.995 414.802 865.084 407.705C861.449 411.589 859.726 437.637 866.054 438.953Z" fill="#0C5C1D"/>
<path fill-rule="evenodd" clip-rule="evenodd" d="M859.101 424.037C864.193 415.064 861.343 405.446 858.352 398.369C855.046 408.876 852.661 418.984 859.101 424.037Z" fill="#0C5C1D"/>
<path fill-rule="evenodd" clip-rule="evenodd" d="M869.475 495.291C877.018 494.335 882.37 478.598 877.164 464.506C872.323 477.039 872.352 483.002 869.475 495.291Z" fill="#0C5C1D"/>
<path fill-rule="evenodd" clip-rule="evenodd" d="M867.544 467.413C876.947 467.893 882.872 459.774 887.832 445.568C880.102 450.542 876.306 463.653 867.544 467.413Z" fill="#0C5C1D"/>
<path fill-rule="evenodd" clip-rule="evenodd" d="M873.89 499.147C865.289 501.213 855.619 478.702 862.26 466.03C869.559 480.555 871.207 486.656 873.89 499.147Z" fill="#0C5C1D"/>
<path fill-rule="evenodd" clip-rule="evenodd" d="M864.739 532.147C865.917 523.548 884.347 521.367 893.611 523.261C886.203 529.206 871.135 532.878 864.739 532.147Z" fill="#0C5C1D"/>
<path fill-rule="evenodd" clip-rule="evenodd" d="M860.37 545.786C865.613 541.202 873.882 546.136 887.18 520.221C869.317 530.421 862.435 542.295 860.37 545.786Z" fill="#0C5C1D"/>
<path d="M755.498 618.765C752.636 614.714 737.618 610.36 724.193 609.211C712.582 609.695 701.959 606.973 692.284 602.015C672.408 582.039 650.295 568.796 633.302 529.914C630.077 518.223 628.122 507.52 627.779 493.934C634.189 448.52 634.834 444.126 652.472 414.113" stroke="black" stroke-width="0.5"/>
<path fill-rule="evenodd" clip-rule="evenodd" d="M712.845 612.819C712.502 616.165 700.771 626.546 684.584 626.364C686.156 622.938 702.081 619.289 706.415 613.141C707.705 611.287 712.966 611.226 712.845 612.819Z" fill="#0C5C1D"/>
<path fill-rule="evenodd" clip-rule="evenodd" d="M700.956 608.067C702.992 607.724 704.101 608.712 700.573 611.796C694.647 616.775 684.548 619.133 669.691 621.733C674.65 616.755 686.624 612.522 687.591 612.562C691.945 611.131 697.086 608.732 700.956 608.067Z" fill="#0C5C1D"/>
<path fill-rule="evenodd" clip-rule="evenodd" d="M709.58 607.538C708.028 604.091 706.435 602.358 703.653 601.773C696.558 601.289 690.954 602.499 688.737 603.486C686.318 604.877 678.658 609.876 677.852 613.323C683.637 611.71 687.467 607.276 695.893 606.147C699.924 604.797 705.629 604.978 709.58 607.538Z" fill="#0C5C1D"/>
<path fill-rule="evenodd" clip-rule="evenodd" d="M725.4 603.771C713.013 596.138 705.229 586.389 704.018 571.769C719.481 583.889 726.017 597.148 725.4 603.771Z" fill="#0C5C1D"/>
<path fill-rule="evenodd" clip-rule="evenodd" d="M717.663 605.865C705.952 600.825 701.658 591.392 693.494 575.912C708.129 583.229 714.196 590.908 717.663 605.865Z" fill="#0C5C1D"/>
<path fill-rule="evenodd" clip-rule="evenodd" d="M691.337 600.604C693.897 590.163 689.442 574.803 681.823 567.265C681.157 579.036 683.415 598.669 691.337 600.604Z" fill="#0C5C1D"/>
<path fill-rule="evenodd" clip-rule="evenodd" d="M687.305 597.842C685.128 607.094 660.939 607.276 653.783 598.649C661.08 600.281 677.065 600.584 687.305 597.842Z" fill="#0C5C1D"/>
<path fill-rule="evenodd" clip-rule="evenodd" d="M680.872 590.492C673.42 596.109 643.343 586.875 642.977 581.663C646.917 581.168 679.821 587.03 680.872 590.492Z" fill="#0C5C1D"/>
<path fill-rule="evenodd" clip-rule="evenodd" d="M678.698 588.55C683.052 579.943 671.079 552.711 666.281 552.933C669.103 573.291 674.223 582.564 678.698 588.55Z" fill="#0C5C1D"/>
<path fill-rule="evenodd" clip-rule="evenodd" d="M670.856 581.354C668.074 574.884 647.15 563.817 636.527 562.084C645.195 571.175 650.759 569.905 653.742 575.69C655.899 579.58 665.292 580.265 670.856 581.354Z" fill="#0C5C1D"/>
<path fill-rule="evenodd" clip-rule="evenodd" d="M666.926 576.456C669.103 568.292 668.015 565.027 662.673 559.141C662.129 567.748 663.217 571.114 666.926 576.456Z" fill="#0C5C1D"/>
<path fill-rule="evenodd" clip-rule="evenodd" d="M659.085 567.329C664.971 563.476 661.363 543.742 656.142 538.238C655.053 552.447 653.642 565.005 659.085 567.329Z" fill="#0C5C1D"/>
<path fill-rule="evenodd" clip-rule="evenodd" d="M648.622 552.59C658.761 549.103 650.92 530.256 647.634 522.859C643.724 530.478 650.577 534.51 648.622 552.59Z" fill="#0C5C1D"/>
<path fill-rule="evenodd" clip-rule="evenodd" d="M646.769 553.841C638.351 545.782 623.393 545.153 615.091 548.456C625.107 551.846 640.506 554.021 646.769 553.841Z" fill="#0C5C1D"/>
<path fill-rule="evenodd" clip-rule="evenodd" d="M637.945 535.86C635.747 527.464 617.188 527.504 608.217 530.492C616.283 535.509 631.682 537.351 637.945 535.86Z" fill="#0C5C1D"/>
<path fill-rule="evenodd" clip-rule="evenodd" d="M643.792 549.032C638.549 544.448 630.28 549.382 616.982 523.466C634.845 533.666 641.727 545.54 643.792 549.032Z" fill="#0C5C1D"/>
<path fill-rule="evenodd" clip-rule="evenodd" d="M641.668 549.345C649.489 537.13 644.631 530.64 639.853 515.502C637.535 528.362 639.41 541.928 641.668 549.345Z" fill="#0C5C1D"/>
<path fill-rule="evenodd" clip-rule="evenodd" d="M629.757 521.478C627.43 510.387 616.913 504.788 606.228 503.367C609.151 508.986 617.148 511.084 629.757 521.478Z" fill="#0C5C1D"/>
<path fill-rule="evenodd" clip-rule="evenodd" d="M631.585 527.117C643.935 525.991 645.423 514.417 646.068 503.031C642.093 509.011 633.121 516.426 631.585 527.117Z" fill="#0C5C1D"/>
<path fill-rule="evenodd" clip-rule="evenodd" d="M631.471 512.547C638.667 513.255 647.66 497.597 644.443 485.019C638.581 498.964 638.051 503.844 631.471 512.547Z" fill="#0C5C1D"/>
<path fill-rule="evenodd" clip-rule="evenodd" d="M628.406 499.23C635.996 498.785 642.397 483.445 638.154 469.034C634.641 482.342 636.245 488.183 628.406 499.23Z" fill="#0C5C1D"/>
<path fill-rule="evenodd" clip-rule="evenodd" d="M627.072 506.106C625.239 501.652 621.752 500.238 620.123 494.431C617.185 484.073 611.566 482.435 612.434 474.326C625.487 489.515 628.935 498.602 627.072 506.106Z" fill="#0C5C1D"/>
<path fill-rule="evenodd" clip-rule="evenodd" d="M627.724 494.732C624.445 465.352 630.28 477.86 617.555 450.158C636.504 467.134 631.262 493.594 627.724 494.732Z" fill="#0C5C1D"/>
<path fill-rule="evenodd" clip-rule="evenodd" d="M628.594 482.302C627.961 472.908 635.983 466.853 650.107 461.663C645.259 469.473 632.211 473.48 628.594 482.302Z" fill="#0C5C1D"/>
<path fill-rule="evenodd" clip-rule="evenodd" d="M631.966 460.763C626.913 443.978 623.924 441.103 619.774 422.869C630.166 431.277 635.508 449.486 631.966 460.763Z" fill="#0C5C1D"/>
<path fill-rule="evenodd" clip-rule="evenodd" d="M636.612 460.13C647.987 451.863 650.676 442.463 663.789 439.037C663.509 443.736 644.646 463.351 636.612 460.13Z" fill="#0C5C1D"/>
<path fill-rule="evenodd" clip-rule="evenodd" d="M635.84 452.35C643.107 443.29 647.122 435.91 657.897 429.365C656.164 440.404 644.11 456.459 635.84 452.35Z" fill="#0C5C1D"/>
<path fill-rule="evenodd" clip-rule="evenodd" d="M652.428 423.949C652.794 411.111 669.844 406.171 676.485 400.965C674.769 412.016 662.474 422.825 652.428 423.949Z" fill="#0C5C1D"/>
<path fill-rule="evenodd" clip-rule="evenodd" d="M651.045 415.127C648.76 403.397 659.812 396.929 665.525 391.76C663.422 402.696 660.406 413.875 651.045 415.127Z" fill="#0C5C1D"/>
<path fill-rule="evenodd" clip-rule="evenodd" d="M635.952 434.019C631.465 426.682 634.011 409.868 636.922 402.77C640.557 406.655 642.28 432.703 635.952 434.019Z" fill="#0C5C1D"/>
<path fill-rule="evenodd" clip-rule="evenodd" d="M643.788 423.642C640.038 414.03 644.239 404.922 648.216 398.348C649.979 409.22 650.888 419.566 643.788 423.642Z" fill="#0C5C1D"/>
<path fill-rule="evenodd" clip-rule="evenodd" d="M704.178 582.705C738.325 549.305 768.037 520.36 815.549 490.507C738.627 550.413 741.006 555.09 708.633 585.164C707.302 584.035 705.528 583.813 704.178 582.705Z" fill="#6F8593"/>
<path fill-rule="evenodd" clip-rule="evenodd" d="M643.402 590.586L656.122 604.555L694.683 546.019L710.91 528.785L706.98 523.061L682.065 547.43L679.202 553.135L643.402 590.586Z" fill="#6A0D06"/>
<path fill-rule="evenodd" clip-rule="evenodd" d="M853.889 591.477L837.601 605.889L801.277 546.91L780.152 523.871L785.857 519.94L813.896 548.321L816.758 554.026L853.889 591.477Z" fill="#6A0D06"/>
<path fill-rule="evenodd" clip-rule="evenodd" d="M801.237 555.777C801.559 553.64 804.341 549.528 798.112 543.965C798.253 541.002 801.297 537.918 803.676 536.386C805.692 536.386 811.477 540.437 814.037 544.973C815.488 548.117 816.234 553.015 814.379 556.764C812.989 558.84 811.396 561.259 809.703 562.227C808.876 562.811 807.062 562.63 805.571 562.005C803.232 560.816 801.458 557.389 801.237 555.777Z" fill="#BBCDCD"/>
<path fill-rule="evenodd" clip-rule="evenodd" d="M723.307 451.575L694.864 422.872L693.151 422.932L692.566 424.827L691.659 427.468L688.293 430.632L643.886 388.988L685.652 434.543L687.607 434.563L693.715 428.234L696.275 428.818L717.219 453.349L723.307 451.575Z" fill="black"/>
<path fill-rule="evenodd" clip-rule="evenodd" d="M760.417 622.611C812.465 538.114 857.779 479.88 774.75 405.199C771.645 402.075 760.921 392.178 754.189 390.041C753.262 383.994 757.837 374.44 746.126 373.634C741.147 373.916 738.688 375.69 738.788 380.185C738.808 383.672 740.643 385.204 739.695 388.328C739.353 389.9 735.462 393.468 735.704 398.003C737.216 407.699 740.945 410.057 742.094 411.448C744.11 413.464 745.34 414.875 751.306 417.354C751.951 418.14 753.725 419.632 754.632 420.619C765.598 422.958 775.576 421.768 782.672 425.296C785.756 426.243 790.714 431.484 792.327 434.104C812.323 456.055 820.991 491.249 790.392 528.418C796.52 528.922 811.195 503.807 814.541 482.481C809.844 514.288 799.483 525.395 794.343 534.888C804.623 528.055 812.888 503.948 814.803 498.989C806.659 542.871 764.469 597.052 737.922 608.421C761.949 602.857 778.076 578.911 786.622 570.324C778.297 587.498 761.183 611.787 760.417 622.611Z" fill="black"/>
<path fill-rule="evenodd" clip-rule="evenodd" d="M796.176 584.932C762.916 551.31 709.82 500.535 683.474 494.952C724.536 521.458 760.678 557.095 791.721 587.391C793.051 586.262 794.825 586.04 796.176 584.932Z" fill="#6F8593"/>
<path fill-rule="evenodd" clip-rule="evenodd" d="M775.35 453.813L806.634 422.872L808.348 422.932L808.932 424.827L809.839 427.468L813.206 430.632L857.613 388.988L815.846 434.543L813.891 434.563L807.783 428.234L805.223 428.818L778.595 458.328L775.35 453.813Z" fill="black"/>
<path fill-rule="evenodd" clip-rule="evenodd" d="M692.606 442.393C694.239 433.484 696.98 427.034 706.192 425.481C730.321 424.433 752.656 424.292 777.893 424.816C785.109 430.521 777.611 442.252 770.112 442.857C781.622 462.751 797.345 477.95 799.502 501.412C800.248 513.748 795.914 521.73 791.54 526.165C758.38 526.971 742.315 531.103 714.578 533.26C706.837 534.187 701.012 525.177 701.092 517.679C701.133 509.918 704.318 503.871 712.925 502.783C715.606 502.501 719.335 502.682 722.661 502.763C716.211 483.453 691.276 460.595 692.606 442.393Z" fill="#E3CF6E"/>
<path fill-rule="evenodd" clip-rule="evenodd" d="M736.157 394.921C733.295 404.113 740.471 411.994 741.62 413.385C743.636 415.401 744.966 417.053 750.933 419.513C751.598 420.299 760.145 425.177 761.355 426.326C770.446 428.704 775.263 424.632 785.604 427.152C782.943 420.581 755.307 393.631 736.157 394.921Z" fill="#336446"/>
<path fill-rule="evenodd" clip-rule="evenodd" d="M736.389 399.096C733.607 403.631 740.944 414.516 742.093 415.907C744.109 417.923 745.44 419.576 751.406 422.035C752.071 422.821 755.035 424.312 755.458 424.836L763.279 426.268C760.618 419.696 745.5 396.96 736.389 399.096Z" fill="#402E08"/>
<path fill-rule="evenodd" clip-rule="evenodd" d="M739.339 383.559L737.484 384.909L740.185 386.26L739.339 383.559Z" fill="black"/>
<path fill-rule="evenodd" clip-rule="evenodd" d="M735.684 402.281C737.195 411.956 740.783 414.597 742.013 415.907C743.968 418.003 745.44 419.333 751.407 422.034C753.805 424.01 754.712 424.554 756.567 425.542L762.876 426.489C760.215 419.918 744.472 404.941 735.684 402.281Z" fill="#8C361D"/>
<path fill-rule="evenodd" clip-rule="evenodd" d="M694.824 554.989C694.501 552.852 691.72 548.74 697.948 543.177C697.807 540.214 694.763 537.13 692.385 535.598C690.369 535.598 684.584 539.65 682.024 544.185C680.572 547.329 679.827 552.228 681.681 555.977C683.072 558.053 684.664 560.472 686.358 561.439C687.184 562.024 688.998 561.842 690.49 561.217C692.828 560.028 694.602 556.602 694.824 554.989Z" fill="#BBCDCD"/>
<path fill-rule="evenodd" clip-rule="evenodd" d="M699.279 585.829C696.457 589.094 685.411 595.464 683.254 597.621C681.46 599.999 685.693 603.265 688.374 603.648C693.131 600.08 697.868 595.182 702.182 592.279C708.189 586.736 707.786 586.272 717.542 589.155C716.131 583.974 706.274 579.883 700.63 578.693C691.116 579.742 686.741 583.672 684.806 589.155C691.116 584.418 695.429 582.12 699.279 585.829Z" fill="#D4BE72"/>
<path fill-rule="evenodd" clip-rule="evenodd" d="M802.869 555.638C803.05 554.61 803.615 554.065 803.635 552.07C805.711 555.073 806.719 556.585 809.42 560.395C808.452 561.705 807.041 561.08 805.711 560.455C804.481 559.669 802.707 557.109 802.869 555.638Z" fill="white"/>
<path fill-rule="evenodd" clip-rule="evenodd" d="M693.473 554.969C693.292 553.941 692.727 553.396 692.707 551.401C690.631 554.404 689.623 555.916 686.922 559.726C687.889 561.036 689.3 560.411 690.631 559.786C691.86 559 693.634 556.44 693.473 554.969Z" fill="white"/>
<path fill-rule="evenodd" clip-rule="evenodd" d="M799.08 588.056C801.902 591.321 812.948 597.691 815.105 599.848C816.899 602.226 812.666 605.492 809.985 605.875C805.228 602.307 800.491 597.409 796.177 594.506C791.259 588.6 789.122 588.862 780.817 591.382C782.228 586.202 792.085 582.11 797.729 580.92C807.244 581.969 811.618 585.899 813.553 591.382C807.244 586.645 802.93 584.347 799.08 588.056Z" fill="#D4BE72"/>
<path fill-rule="evenodd" clip-rule="evenodd" d="M722.52 502.823C724.899 506.21 726.854 513.688 727.177 518.485C727.6 527.777 718.166 532.494 714.961 532.111C708.874 531.365 703.895 526.79 703.391 519.674C704.358 511.37 707.845 506.774 713.631 506.452C717.42 507.097 721.674 511.612 721.674 517.074C721.553 521.589 720.263 526.104 717.481 526.205C710.708 525.681 711.111 521.771 710.002 519.674C709.72 518.122 709.478 513.93 710.244 512.902C711.252 511.652 715.909 509.979 718.207 513.224C720.666 515.724 714.558 511.874 712.139 513.607C710.909 515.361 711.716 518.223 712.058 519.352C712.482 520.481 712.421 524.21 717.098 524.008C718.811 523.746 719.416 520.239 719.537 516.832C719.799 514.494 716.513 509.798 713.248 508.81C710.95 508.427 705.366 513.103 705.608 519.674C706.051 527.132 712.159 529.692 715.445 529.188C718.771 528.302 725.725 525.681 725.443 518.263C724.697 510.06 723.185 506.673 720.565 502.743C721.593 502.743 721.512 502.743 722.52 502.823Z" fill="black"/>
<path fill-rule="evenodd" clip-rule="evenodd" d="M771.342 444.953L769.931 442.675H739.372C730.725 443.461 717.522 444.771 712.986 446.727C701.355 452.451 698.19 442.353 697.565 439.833C696.88 437.515 698.331 433.343 700.589 431.871C701.476 430.178 706.475 428.303 709.499 429.432C712.905 430.883 714.377 435.177 713.833 438.1C712.825 442.433 704.621 445.094 707.543 440.7C707.906 438.765 709.378 433.363 706.778 429.513L704.399 429.976C707.705 436.87 704.681 440.276 704.52 442.252C704.359 445.558 707.181 445.275 709.378 445.195C710.869 445.114 713.389 443.219 714.417 442.191C715.647 441.123 715.848 439.027 715.99 436.608C716.373 430.198 710.507 425.622 706.536 426.207C694.501 429.21 694.199 439.248 696.941 444.469C698.452 447.11 700.226 448.702 703.149 450.214C705.629 450.96 709.358 450.536 712.281 449.428C718.106 447.352 727.52 445.497 739.251 445.215L771.342 444.953Z" fill="black"/>
<path d="M750.015 460.384L751.279 462.226L751.088 462.243C750.684 461.83 750.352 461.546 750.084 461.374C749.824 461.202 749.532 461.073 749.216 460.987C749.048 460.944 748.795 460.935 748.46 460.969L747.93 461.03L751.524 466.27C751.756 466.614 751.924 466.829 752.03 466.915C752.136 467.002 752.261 467.07 752.423 467.122C752.586 467.174 752.763 467.182 752.974 467.165L753.208 467.139L753.333 467.329L749.606 467.724L749.481 467.535L749.715 467.509C749.925 467.492 750.064 467.432 750.144 467.354C750.197 467.294 750.215 467.208 750.186 467.088C750.176 467.002 750.05 466.795 749.819 466.451L746.224 461.21L745.708 461.262C745.221 461.314 744.945 461.451 744.855 461.666C744.738 461.968 744.812 462.372 745.073 462.888L744.872 462.906L743.608 461.064L750.015 460.384Z" fill="#8C361D"/>
<path d="M731.486 462.785L733.382 465.547L733.516 465.53C733.97 465.487 734.208 465.315 734.225 465.022C734.242 464.73 734.096 464.317 733.797 463.783L733.993 463.757L736.434 467.32L736.233 467.337C735.925 466.958 735.617 466.649 735.314 466.416C735.011 466.184 734.738 466.038 734.499 465.969C734.259 465.9 733.972 465.883 733.628 465.917L734.945 467.836C735.201 468.206 735.379 468.438 735.461 468.516C735.557 468.602 735.667 468.662 735.797 468.705C735.926 468.748 736.093 468.757 736.294 468.74L736.715 468.688C737.383 468.619 737.812 468.413 738.006 468.077C738.21 467.741 738.202 467.268 737.959 466.649L738.155 466.623L739.311 468.817L733.158 469.471L733.027 469.29L733.271 469.265C733.467 469.239 733.62 469.187 733.686 469.101C733.753 469.049 733.771 468.963 733.742 468.843C733.722 468.757 733.592 468.542 733.365 468.206L730.297 463.731C730.089 463.43 729.945 463.241 729.887 463.172C729.767 463.06 729.642 462.974 729.508 462.923C729.311 462.845 729.091 462.811 728.857 462.837L728.623 462.862L728.502 462.682L734.455 462.045L735.84 464.05L735.644 464.076C735.201 463.594 734.812 463.258 734.481 463.06C734.154 462.871 733.785 462.742 733.383 462.673C733.144 462.639 732.757 462.647 732.212 462.699L731.486 462.785Z" fill="#8C361D"/>
<path d="M725.392 470.099L725.517 470.289L721.791 470.685L721.665 470.495L721.904 470.478C722.11 470.452 722.253 470.401 722.329 470.315C722.381 470.254 722.4 470.168 722.375 470.056C722.355 469.97 722.234 469.755 721.993 469.411L718.93 464.945C718.698 464.601 718.53 464.386 718.424 464.3C718.328 464.214 718.198 464.153 718.035 464.102C717.877 464.041 717.696 464.024 717.5 464.05L717.256 464.076L717.131 463.887L720.857 463.491L720.983 463.68L720.749 463.706C720.538 463.723 720.395 463.775 720.319 463.861C720.267 463.921 720.248 464.007 720.268 464.128C720.288 464.214 720.414 464.42 720.645 464.764L723.709 469.23C723.955 469.583 724.123 469.798 724.214 469.876C724.32 469.962 724.454 470.031 724.608 470.082C724.771 470.134 724.952 470.151 725.158 470.125L725.392 470.099Z" fill="#8C361D"/>
<path d="M719.558 468.361L720.926 470.779L714.6 471.45L714.48 471.27L714.709 471.235C714.919 471.218 715.062 471.166 715.138 471.08C715.195 471.029 715.209 470.934 715.184 470.822C715.165 470.736 715.044 470.521 714.808 470.185L711.739 465.711C711.508 465.367 711.339 465.152 711.233 465.066C711.142 464.988 711.008 464.919 710.845 464.868C710.677 464.807 710.5 464.799 710.3 464.816L710.066 464.842L709.94 464.652L713.738 464.248L713.864 464.437L713.558 464.472C713.348 464.489 713.205 464.541 713.129 464.627C713.067 464.687 713.048 464.773 713.078 464.893C713.093 464.971 713.223 465.186 713.455 465.53L716.422 469.859C716.663 470.203 716.836 470.426 716.947 470.521C717.052 470.607 717.182 470.667 717.335 470.702C717.44 470.719 717.67 470.719 718.004 470.685L718.597 470.616C718.974 470.573 719.246 470.478 719.408 470.323C719.569 470.168 719.654 469.945 719.652 469.652C719.641 469.359 719.547 468.938 719.343 468.387L719.558 468.361Z" fill="#8C361D"/>
<path d="M762.974 466.296L762.853 466.115L763.088 466.089C763.293 466.064 763.431 466.021 763.498 465.952C763.569 465.874 763.592 465.78 763.568 465.668C763.553 465.59 763.427 465.384 763.181 465.031L760.113 460.556C759.882 460.212 759.713 459.997 759.612 459.92C759.516 459.834 759.382 459.765 759.219 459.713C759.056 459.662 758.884 459.644 758.673 459.662L758.439 459.687L758.319 459.507L761.501 459.162C762.361 459.076 763.116 459.111 763.782 459.274C764.605 459.481 765.368 459.834 766.069 460.35C766.77 460.866 767.367 461.469 767.839 462.157C768.167 462.639 768.39 463.086 768.503 463.508C768.61 463.921 768.641 464.282 768.562 464.566C768.487 464.859 768.336 465.1 768.112 465.298C767.884 465.487 767.555 465.651 767.125 465.788C766.944 465.857 766.619 465.909 766.17 465.96L762.974 466.296ZM761.298 459.601L764.935 464.902C765.123 465.186 765.258 465.358 765.33 465.418C765.402 465.479 765.484 465.521 765.575 465.547C765.699 465.582 765.853 465.599 766.029 465.573C766.617 465.513 766.931 465.272 766.976 464.859C767.045 464.3 766.71 463.482 765.967 462.398C765.373 461.529 764.752 460.849 764.104 460.359C763.6 459.971 763.12 459.73 762.656 459.619C762.335 459.541 761.881 459.532 761.298 459.601Z" fill="#8C361D"/>
<path d="M758.212 464.73L755.694 464.997L755.856 465.694C755.91 465.926 755.988 466.115 756.075 466.253C756.21 466.442 756.393 466.58 756.613 466.649C756.742 466.692 757.001 466.709 757.392 466.692L757.518 466.881L755.143 467.131L755.023 466.95C755.252 466.881 755.394 466.761 755.446 466.58C755.497 466.399 755.462 466.029 755.348 465.487L754.18 459.799L754.276 459.782L760.667 465.083C761.272 465.582 761.705 465.892 761.954 466.012C762.151 466.107 762.356 466.15 762.591 466.141L762.716 466.331L759.267 466.692L759.136 466.511L759.28 466.494C759.562 466.468 759.729 466.408 759.795 466.322C759.828 466.262 759.813 466.184 759.746 466.081C759.702 466.021 759.659 465.961 759.587 465.9C759.558 465.866 759.423 465.745 759.173 465.539L758.212 464.73ZM757.785 464.377L755.122 462.157L755.63 464.61L757.785 464.377Z" fill="#8C361D"/>
<path d="M740.851 465.332L742.159 467.234C742.405 467.604 742.593 467.836 742.703 467.931C742.818 468.017 742.948 468.077 743.111 468.129C743.269 468.172 743.508 468.172 743.833 468.138L743.968 468.327L740.313 468.714L740.187 468.525C740.522 468.49 740.722 468.439 740.798 468.37C740.874 468.301 740.912 468.215 740.883 468.112C740.877 468.017 740.737 467.785 740.482 467.415L737.462 463.009C737.206 462.639 737.033 462.415 736.912 462.321C736.802 462.226 736.672 462.166 736.514 462.123C736.351 462.071 736.112 462.071 735.788 462.106L735.653 461.916L738.964 461.563C739.833 461.477 740.498 461.469 740.976 461.538C741.455 461.606 741.924 461.779 742.39 462.062C742.841 462.338 743.216 462.682 743.496 463.095C743.843 463.594 743.937 464.033 743.786 464.394C743.677 464.627 743.454 464.825 743.087 464.971L746.379 467.088C746.811 467.363 747.094 467.527 747.238 467.596C747.459 467.682 747.664 467.725 747.86 467.716L747.981 467.897L745.745 468.138L741.319 465.281L740.851 465.332ZM738.569 462.002L740.605 464.98L740.911 464.945C741.398 464.894 741.728 464.816 741.914 464.704C742.099 464.592 742.184 464.42 742.164 464.179C742.157 463.947 742.027 463.646 741.781 463.293C741.419 462.768 741.029 462.398 740.602 462.183C740.18 461.959 739.697 461.882 739.128 461.942L738.569 462.002Z" fill="#8C361D"/>
<path d="M728.076 466.15C728.856 466.227 729.459 466.365 729.876 466.546C730.48 466.804 730.941 467.182 731.279 467.664C731.626 468.181 731.701 468.619 731.507 469.007C731.247 469.463 730.623 469.747 729.61 469.85L725.993 470.237L725.863 470.056C726.197 470.022 726.398 469.97 726.474 469.902C726.545 469.824 726.583 469.738 726.558 469.643C726.548 469.54 726.408 469.308 726.152 468.938L723.132 464.532C722.877 464.162 722.703 463.938 722.588 463.852C722.477 463.758 722.343 463.689 722.185 463.646C722.027 463.603 721.783 463.594 721.458 463.629L721.328 463.448L724.749 463.086C725.556 462.992 726.183 463 726.623 463.104C727.054 463.207 727.471 463.388 727.855 463.646C728.234 463.895 728.537 464.179 728.75 464.489C728.971 464.816 729.045 465.117 728.98 465.41C728.905 465.685 728.605 465.935 728.076 466.15ZM726.078 466.219C726.575 466.167 726.895 466.072 727.061 465.943C727.223 465.806 727.303 465.642 727.302 465.436C727.291 465.229 727.184 464.971 726.977 464.67C726.769 464.369 726.543 464.136 726.289 463.956C726.034 463.775 725.751 463.646 725.45 463.568C725.153 463.499 724.742 463.482 724.24 463.543L726.078 466.219ZM726.348 466.614L727.839 468.792L728.008 469.041C728.128 469.222 728.268 469.351 728.431 469.437C728.589 469.514 728.762 469.549 728.948 469.523C729.23 469.497 729.449 469.411 729.596 469.265C729.758 469.127 729.819 468.929 729.794 468.697C729.764 468.456 729.657 468.198 729.464 467.922C729.247 467.604 728.977 467.329 728.651 467.088C728.319 466.855 727.993 466.701 727.649 466.632C727.309 466.554 726.874 466.546 726.348 466.614Z" fill="#8C361D"/>
<path d="M753.132 471.183L754.922 473.946L755.061 473.937C755.521 473.885 755.756 473.713 755.785 473.421C755.813 473.128 755.683 472.715 755.404 472.182L755.605 472.164L757.905 475.718L757.709 475.744C757.41 475.357 757.114 475.047 756.821 474.815C756.527 474.582 756.259 474.436 756.036 474.376C755.79 474.307 755.504 474.29 755.168 474.324L756.397 476.235C756.643 476.613 756.808 476.837 756.901 476.923C756.989 477 757.097 477.061 757.216 477.104C757.343 477.147 757.515 477.164 757.712 477.138L758.139 477.095C758.81 477.026 759.247 476.82 759.463 476.484C759.68 476.148 759.676 475.667 759.457 475.047L759.658 475.03L760.726 477.215L754.552 477.878L754.424 477.689L754.669 477.663C754.879 477.646 755.025 477.594 755.104 477.508C755.158 477.448 755.18 477.362 755.155 477.241C755.144 477.164 755.021 476.949 754.803 476.605L751.911 472.139C751.71 471.829 751.582 471.639 751.518 471.571C751.402 471.459 751.285 471.381 751.148 471.321C750.954 471.244 750.74 471.218 750.505 471.244L750.27 471.269L750.152 471.08L756.139 470.443L757.441 472.457L757.24 472.474C756.816 471.992 756.439 471.657 756.12 471.467C755.797 471.269 755.433 471.14 755.038 471.08C754.795 471.037 754.408 471.046 753.866 471.106L753.132 471.183Z" fill="#8C361D"/>
<path d="M735.679 472.62L739.028 472.259L739.333 473.61L736.517 473.911L736.686 474.617C737.922 474.531 739.044 474.72 740.039 475.176C740.863 475.563 741.487 476.079 741.901 476.725C742.179 477.146 742.314 477.568 742.324 477.99C742.339 478.42 742.185 478.764 741.875 479.031C741.551 479.289 741.13 479.453 740.583 479.504C739.998 479.573 739.488 479.513 739.035 479.341C738.718 479.212 738.504 479.057 738.39 478.876C738.294 478.73 738.26 478.592 738.302 478.472C738.354 478.351 738.452 478.282 738.605 478.265C738.74 478.248 738.892 478.265 739.073 478.299C739.248 478.343 739.575 478.454 740.066 478.644C740.368 478.764 740.619 478.842 740.809 478.876C740.942 478.91 741.076 478.91 741.214 478.902C741.502 478.867 741.688 478.747 741.753 478.523C741.827 478.3 741.773 478.05 741.595 477.766C741.212 477.181 740.596 476.733 739.74 476.432C738.884 476.131 737.979 476.028 737.039 476.131C736.938 476.14 736.804 476.157 736.617 476.183L735.679 472.62Z" fill="#8C361D"/>
<path d="M732.063 472.853L735.661 478.411C735.925 478.824 736.122 479.091 736.228 479.203C736.344 479.315 736.485 479.401 736.66 479.461C736.825 479.521 737.054 479.539 737.314 479.504L737.486 479.487L737.604 479.676L733.834 480.072L733.72 479.891L733.908 479.866C734.205 479.831 734.408 479.78 734.496 479.694C734.58 479.616 734.612 479.513 734.578 479.392C734.553 479.272 734.399 478.997 734.121 478.575L731.834 475.047C731.634 474.737 731.492 474.539 731.418 474.47C731.33 474.393 731.231 474.333 731.103 474.29C730.981 474.238 730.867 474.221 730.756 474.229C730.579 474.255 730.385 474.324 730.199 474.462L729.985 474.29L731.88 472.87L732.063 472.853Z" fill="#8C361D"/>
<path d="M746.679 478.713L746.556 478.532L746.791 478.506C746.998 478.481 747.138 478.438 747.212 478.36C747.281 478.291 747.308 478.197 747.297 478.085C747.276 478.007 747.154 477.792 746.935 477.448L744.038 472.973C743.81 472.629 743.65 472.414 743.557 472.328C743.469 472.251 743.337 472.182 743.176 472.13C743.015 472.079 742.834 472.061 742.633 472.079L742.398 472.104L742.274 471.924L745.479 471.579C746.333 471.493 747.097 471.528 747.756 471.691C748.572 471.898 749.311 472.251 749.992 472.767C750.679 473.275 751.243 473.877 751.694 474.574C751.999 475.047 752.209 475.503 752.315 475.925C752.407 476.338 752.41 476.691 752.324 476.983C752.238 477.276 752.077 477.517 751.842 477.706C751.611 477.904 751.285 478.068 750.85 478.205C750.662 478.266 750.34 478.326 749.879 478.377L746.679 478.713ZM745.259 472.018L748.684 477.319C748.867 477.594 748.995 477.766 749.065 477.827C749.135 477.887 749.205 477.93 749.295 477.956C749.423 477.999 749.58 478.007 749.762 477.99C750.343 477.93 750.676 477.689 750.737 477.276C750.826 476.717 750.523 475.899 749.821 474.815C749.252 473.946 748.657 473.266 748.032 472.767C747.538 472.388 747.063 472.139 746.617 472.035C746.289 471.958 745.835 471.949 745.259 472.018Z" fill="#8C361D"/>
<path d="M783.379 479.162L785.295 481.924L785.438 481.907C785.892 481.864 786.128 481.692 786.142 481.399C786.156 481.107 786.006 480.694 785.691 480.16L785.901 480.143L788.376 483.697L788.175 483.714C787.863 483.335 787.552 483.026 787.246 482.793C786.941 482.561 786.666 482.415 786.426 482.346C786.186 482.277 785.899 482.26 785.56 482.303L786.893 484.213C787.158 484.592 787.333 484.815 787.416 484.893C787.513 484.979 787.624 485.039 787.754 485.082C787.884 485.125 788.042 485.134 788.252 485.117L788.672 485.065C789.34 484.996 789.771 484.798 789.957 484.454C790.157 484.118 790.134 483.645 789.894 483.026L790.09 483L791.27 485.194L785.123 485.848L784.991 485.667L785.225 485.641C785.43 485.616 785.573 485.564 785.648 485.478C785.714 485.426 785.731 485.34 785.691 485.22C785.68 485.134 785.552 484.927 785.317 484.583L782.2 480.108C781.989 479.807 781.842 479.618 781.774 479.549C781.662 479.437 781.537 479.351 781.392 479.3C781.195 479.222 780.989 479.196 780.75 479.214L780.516 479.239L780.384 479.059L786.34 478.422L787.737 480.427L787.541 480.453C787.103 479.971 786.71 479.635 786.376 479.437C786.048 479.248 785.678 479.119 785.275 479.05C785.035 479.016 784.648 479.024 784.104 479.076L783.379 479.162Z" fill="#8C361D"/>
<path d="M763.343 485.685L762.154 481.004L765.045 480.694L765.178 480.875L764.944 480.9C764.739 480.926 764.596 480.978 764.521 481.064C764.465 481.115 764.447 481.202 764.468 481.322C764.489 481.408 764.617 481.615 764.847 481.95L767.969 486.433C768.214 486.778 768.385 486.993 768.482 487.079C768.579 487.165 768.709 487.225 768.878 487.285C769.041 487.337 769.218 487.346 769.418 487.328L769.652 487.302L769.78 487.492L766.067 487.888L765.94 487.698L766.164 487.673C766.379 487.647 766.521 487.595 766.601 487.518C766.653 487.457 766.67 487.371 766.639 487.251C766.619 487.165 766.501 486.958 766.256 486.614L762.751 481.58L764.344 488.068L764.215 488.077L757.154 482.226L760.487 487.01C760.727 487.346 760.869 487.543 760.942 487.621C761.112 487.784 761.301 487.913 761.522 487.999C761.758 488.094 762.026 488.111 762.351 488.077L762.478 488.266L760.045 488.524L759.922 488.344L759.993 488.335C760.156 488.318 760.289 488.283 760.383 488.215C760.478 488.146 760.539 488.068 760.551 487.974C760.555 487.879 760.528 487.75 760.454 487.586C760.434 487.552 760.326 487.38 760.115 487.079L757.116 482.776C756.871 482.432 756.705 482.226 756.608 482.139C756.516 482.062 756.381 481.993 756.217 481.942C756.054 481.89 755.872 481.873 755.671 481.89L755.447 481.916L755.315 481.735L758.226 481.425L763.343 485.685Z" fill="#8C361D"/>
<path d="M751.132 482.595L753.063 485.366L753.196 485.349C753.645 485.297 753.886 485.134 753.9 484.841C753.914 484.549 753.764 484.135 753.458 483.602L753.654 483.576L756.129 487.13L755.933 487.156C755.616 486.769 755.31 486.467 755.004 486.235C754.699 486.003 754.419 485.848 754.184 485.788C753.944 485.719 753.657 485.702 753.323 485.736L754.651 487.655C754.911 488.025 755.091 488.257 755.184 488.335C755.276 488.412 755.377 488.472 755.512 488.524C755.637 488.558 755.809 488.576 756.005 488.55L756.43 488.507C757.098 488.438 757.525 488.231 757.724 487.896C757.924 487.56 757.897 487.078 757.647 486.459L757.848 486.442L759.028 488.636L752.881 489.29L752.749 489.109L752.988 489.075C753.198 489.058 753.34 489.006 753.415 488.92C753.472 488.868 753.484 488.774 753.459 488.662C753.438 488.576 753.305 488.361 753.075 488.025L749.958 483.55C749.742 483.241 749.605 483.051 749.542 482.991C749.415 482.871 749.295 482.793 749.16 482.741C748.958 482.655 748.742 482.63 748.508 482.655L748.274 482.681L748.147 482.492L754.107 481.864L755.504 483.869L755.309 483.895C754.861 483.413 754.468 483.077 754.134 482.879C753.801 482.681 753.431 482.552 753.033 482.492C752.788 482.449 752.401 482.457 751.862 482.518L751.132 482.595Z" fill="#8C361D"/>
<path d="M752.287 489.152L752.424 489.341L748.701 489.737L748.564 489.548L748.808 489.522C749.018 489.505 749.16 489.453 749.226 489.367C749.287 489.307 749.304 489.221 749.274 489.1C749.258 489.023 749.125 488.808 748.89 488.464L745.778 483.998C745.533 483.654 745.371 483.438 745.265 483.352C745.168 483.266 745.038 483.206 744.874 483.154C744.706 483.094 744.524 483.077 744.328 483.103L744.094 483.129L743.967 482.939L747.68 482.543L747.817 482.733L747.583 482.759C747.373 482.776 747.23 482.827 747.155 482.913C747.094 482.974 747.077 483.06 747.107 483.18C747.123 483.258 747.246 483.473 747.491 483.817L750.603 488.283C750.839 488.627 751.015 488.851 751.116 488.928C751.213 489.014 751.348 489.083 751.512 489.135C751.675 489.187 751.857 489.204 752.053 489.178L752.287 489.152Z" fill="#8C361D"/>
<path d="M743.367 483.008L744.646 484.841L744.45 484.867C744.051 484.454 743.712 484.161 743.441 483.989C743.18 483.817 742.886 483.688 742.569 483.602C742.401 483.559 742.152 483.559 741.818 483.593L741.284 483.645L744.935 488.886C745.175 489.238 745.346 489.453 745.448 489.531C745.545 489.617 745.68 489.686 745.844 489.737C746.007 489.789 746.189 489.806 746.394 489.78L746.628 489.755L746.756 489.944L743.033 490.34L742.911 490.159L743.144 490.133C743.35 490.107 743.483 490.056 743.567 489.97C743.624 489.918 743.641 489.832 743.611 489.712C743.599 489.626 743.467 489.41 743.236 489.075L739.58 483.826L739.07 483.886C738.583 483.938 738.303 484.067 738.221 484.29C738.106 484.592 738.185 484.996 738.447 485.504L738.251 485.53L736.967 483.688L743.367 483.008Z" fill="#8C361D"/>
<path d="M726.045 485.271L727.976 488.042L728.119 488.025C728.568 487.973 728.804 487.801 728.818 487.509C728.832 487.216 728.682 486.803 728.366 486.269L728.567 486.252L731.042 489.806L730.846 489.832C730.539 489.445 730.232 489.144 729.918 488.911C729.612 488.679 729.342 488.524 729.107 488.464C728.866 488.395 728.579 488.378 728.236 488.412L729.574 490.331C729.833 490.701 730.014 490.933 730.097 491.011C730.189 491.088 730.3 491.149 730.43 491.192C730.56 491.235 730.722 491.252 730.928 491.226L731.352 491.183C732.02 491.114 732.447 490.908 732.638 490.572C732.837 490.236 732.81 489.754 732.57 489.135L732.761 489.118L733.951 491.312L727.794 491.966L727.667 491.777L727.901 491.751C728.111 491.734 728.253 491.682 728.328 491.596C728.389 491.536 728.398 491.45 728.367 491.329C728.361 491.252 728.228 491.037 727.993 490.692L724.88 486.226C724.665 485.917 724.518 485.727 724.455 485.667C724.338 485.547 724.217 485.469 724.068 485.409C723.871 485.332 723.655 485.306 723.431 485.332L723.197 485.357L723.06 485.168L729.016 484.531L730.417 486.545L730.217 486.562C729.774 486.089 729.39 485.753 729.057 485.555C728.724 485.357 728.353 485.228 727.946 485.168C727.711 485.125 727.324 485.134 726.785 485.194L726.045 485.271Z" fill="#8C361D"/>
<path d="M721.807 485.134L723.447 487.397L723.233 487.423C722.74 486.863 722.169 486.433 721.528 486.132C720.891 485.822 720.344 485.702 719.881 485.745C719.523 485.788 719.306 485.908 719.223 486.115C719.136 486.313 719.187 486.536 719.349 486.769C719.457 486.924 719.578 487.053 719.738 487.165C719.956 487.311 720.226 487.449 720.548 487.578C720.794 487.672 721.313 487.827 722.096 488.042C723.205 488.343 724.023 488.653 724.559 488.972C725.081 489.281 725.504 489.669 725.817 490.116C726.209 490.684 726.323 491.2 726.135 491.656C725.957 492.112 725.516 492.379 724.805 492.457C724.581 492.482 724.352 492.482 724.117 492.457C723.897 492.439 723.585 492.379 723.201 492.293C722.99 492.242 722.827 492.224 722.722 492.242C722.631 492.25 722.551 492.293 722.5 492.371C722.448 492.448 722.436 492.56 722.472 492.706L722.271 492.723L720.487 490.159L720.673 490.133C721.336 490.839 722.019 491.364 722.713 491.691C723.421 492.026 724.026 492.164 724.532 492.112C724.928 492.069 725.165 491.932 725.256 491.708C725.343 491.476 725.296 491.226 725.11 490.951C725.002 490.796 724.846 490.641 724.653 490.503C724.459 490.366 724.223 490.237 723.948 490.125C723.669 490.004 723.222 489.858 722.612 489.694C721.747 489.453 721.103 489.247 720.674 489.066C720.246 488.886 719.859 488.662 719.521 488.421C719.186 488.171 718.909 487.887 718.689 487.569C718.311 487.027 718.198 486.545 718.348 486.123C718.494 485.693 718.891 485.452 719.521 485.383C719.755 485.358 719.994 485.358 720.253 485.392C720.444 485.409 720.699 485.469 721.001 485.547C721.318 485.633 721.52 485.667 721.62 485.659C721.711 485.65 721.758 485.616 721.781 485.555C721.794 485.495 721.749 485.366 721.654 485.151L721.807 485.134Z" fill="#8C361D"/>
<path d="M735.512 487.844L736.825 489.72C737.075 490.09 737.265 490.322 737.377 490.417C737.493 490.503 737.623 490.563 737.787 490.615C737.945 490.658 738.184 490.658 738.509 490.624L738.636 490.813L735.024 491.2L734.896 491.011C735.23 490.976 735.43 490.925 735.506 490.856C735.581 490.787 735.608 490.701 735.587 490.598C735.571 490.503 735.438 490.271 735.179 489.901L732.106 485.486C731.851 485.125 731.67 484.893 731.554 484.807C731.442 484.712 731.298 484.643 731.149 484.6C730.99 484.557 730.751 484.557 730.427 484.592L730.289 484.402L733.391 484.075C734.417 483.963 735.265 484.058 735.954 484.359C736.643 484.66 737.166 485.073 737.529 485.59C737.838 486.029 737.959 486.424 737.888 486.769C737.818 487.113 737.574 487.371 737.151 487.534C736.866 487.655 736.323 487.758 735.512 487.844ZM733.193 484.514L735.237 487.448C735.356 487.44 735.452 487.44 735.504 487.431C735.939 487.388 736.185 487.233 736.242 486.967C736.31 486.7 736.155 486.312 735.807 485.805C735.449 485.297 735.079 484.936 734.684 484.729C734.288 484.523 733.871 484.445 733.408 484.488L733.193 484.514Z" fill="#8C361D"/>
<path d="M772.247 483.353C773.032 483.439 773.632 483.568 774.051 483.748C774.653 484.015 775.123 484.385 775.457 484.867C775.819 485.383 775.903 485.831 775.7 486.209C775.454 486.665 774.823 486.949 773.816 487.061L770.204 487.449L770.076 487.259C770.4 487.225 770.61 487.173 770.685 487.104C770.756 487.027 770.788 486.949 770.767 486.846C770.751 486.752 770.618 486.519 770.358 486.149L767.285 481.735C767.03 481.373 766.85 481.141 766.733 481.055C766.612 480.96 766.477 480.892 766.319 480.848C766.17 480.805 765.931 480.805 765.606 480.84L765.469 480.651L768.886 480.289C769.697 480.203 770.324 480.212 770.756 480.315C771.192 480.41 771.602 480.59 771.998 480.848C772.38 481.098 772.686 481.382 772.902 481.692C773.128 482.019 773.209 482.329 773.142 482.613C773.061 482.888 772.774 483.137 772.247 483.353ZM770.24 483.421C770.736 483.37 771.069 483.284 771.23 483.146C771.395 483.017 771.468 482.845 771.455 482.638C771.452 482.432 771.342 482.174 771.131 481.872C770.926 481.58 770.692 481.339 770.426 481.158C770.17 480.978 769.895 480.848 769.597 480.78C769.295 480.702 768.888 480.694 768.387 480.754L770.24 483.421ZM770.514 483.817L772.038 485.994L772.2 486.244C772.333 486.425 772.478 486.562 772.628 486.64C772.792 486.726 772.969 486.752 773.16 486.734C773.437 486.7 773.655 486.614 773.806 486.476C773.961 486.33 774.025 486.141 773.992 485.9C773.959 485.659 773.85 485.401 773.654 485.125C773.433 484.807 773.161 484.531 772.827 484.299C772.498 484.058 772.161 483.903 771.825 483.834C771.489 483.766 771.054 483.757 770.514 483.817Z" fill="#8C361D"/>
<path d="M777.841 483.301L779.174 485.211C779.428 485.572 779.609 485.805 779.73 485.899C779.837 485.985 779.972 486.054 780.131 486.097C780.289 486.14 780.528 486.14 780.862 486.106L780.99 486.295L777.349 486.682L777.216 486.502C777.551 486.467 777.745 486.407 777.821 486.338C777.906 486.269 777.933 486.183 777.917 486.089C777.896 485.985 777.753 485.753 777.503 485.383L774.426 480.977C774.176 480.607 773.99 480.384 773.869 480.289C773.762 480.203 773.627 480.134 773.469 480.091C773.31 480.048 773.066 480.039 772.742 480.074L772.619 479.893L775.912 479.532C776.78 479.446 777.454 479.437 777.924 479.506C778.403 479.575 778.88 479.755 779.343 480.031C779.807 480.306 780.176 480.65 780.47 481.063C780.813 481.562 780.921 482.001 780.77 482.371C780.673 482.604 780.438 482.793 780.082 482.939L783.388 485.056C783.823 485.331 784.113 485.504 784.252 485.564C784.474 485.65 784.68 485.693 784.876 485.684L784.998 485.865L782.765 486.106L778.308 483.249L777.841 483.301ZM775.522 479.971L777.6 482.948L777.896 482.913C778.383 482.862 778.712 482.784 778.896 482.673C779.081 482.561 779.164 482.389 779.14 482.148C779.132 481.915 778.998 481.614 778.748 481.261C778.38 480.736 777.991 480.375 777.567 480.151C777.142 479.927 776.649 479.85 776.081 479.91L775.522 479.971Z" fill="#8C361D"/>
<path d="M771.991 490.724L774.608 496.282C774.799 496.696 774.949 496.962 775.036 497.074C775.132 497.186 775.258 497.272 775.422 497.332C775.586 497.393 775.8 497.401 776.078 497.375L776.244 497.358L776.329 497.547L772.488 497.943L772.406 497.763L772.598 497.737C772.914 497.711 773.113 497.651 773.22 497.573C773.315 497.487 773.365 497.384 773.352 497.263C773.348 497.143 773.243 496.868 773.037 496.437L771.375 492.918C771.23 492.608 771.123 492.41 771.06 492.341C770.986 492.264 770.898 492.204 770.778 492.161C770.664 492.109 770.553 492.092 770.441 492.1C770.256 492.118 770.053 492.195 769.843 492.333L769.669 492.161L771.805 490.741L771.991 490.724Z" fill="#8C361D"/>
<path d="M770.724 498.124L766.433 498.571L766.387 498.468C767.008 496.868 767.345 495.801 767.39 495.267C767.434 494.734 767.334 494.226 767.11 493.744C766.952 493.4 766.691 493.116 766.351 492.909C766.012 492.703 765.667 492.617 765.334 492.651C764.779 492.703 764.475 493.013 764.414 493.555L764.18 493.512C764.074 492.849 764.146 492.341 764.39 491.997C764.641 491.644 765.031 491.447 765.539 491.395C765.907 491.352 766.285 491.395 766.667 491.533C767.044 491.653 767.39 491.851 767.693 492.118C767.993 492.376 768.204 492.625 768.316 492.866C768.528 493.314 768.604 493.779 768.561 494.26C768.485 494.923 768.102 495.861 767.404 497.1L768.983 496.937C769.369 496.894 769.612 496.85 769.712 496.807C769.812 496.764 769.887 496.704 769.927 496.627C769.976 496.549 769.996 496.386 770.008 496.145L770.21 496.119L770.724 498.124Z" fill="#8C361D"/>
<path d="M755.481 492.445L758.095 497.995C758.29 498.417 758.44 498.683 758.536 498.795C758.622 498.907 758.754 498.985 758.909 499.045C759.074 499.105 759.29 499.122 759.568 499.097L759.734 499.079L759.816 499.26L755.978 499.664L755.894 499.475L756.088 499.458C756.402 499.423 756.604 499.372 756.708 499.286C756.805 499.208 756.855 499.105 756.842 498.985C756.839 498.864 756.733 498.589 756.527 498.159L754.875 494.639C754.726 494.321 754.613 494.131 754.548 494.054C754.473 493.977 754.385 493.916 754.265 493.873C754.155 493.83 754.043 493.813 753.932 493.822C753.746 493.839 753.553 493.916 753.333 494.054L753.159 493.882L755.305 492.462L755.481 492.445Z" fill="#8C361D"/>
<path d="M745.046 494.088L746.349 496.85L746.496 496.833C746.959 496.79 747.234 496.618 747.314 496.325C747.394 496.033 747.337 495.62 747.142 495.086L747.353 495.061L749.029 498.623L748.825 498.64C748.598 498.262 748.357 497.952 748.094 497.719C747.851 497.487 747.609 497.341 747.384 497.272C747.16 497.203 746.876 497.186 746.528 497.229L747.43 499.139C747.609 499.518 747.735 499.742 747.8 499.819C747.877 499.905 747.975 499.965 748.095 500.008C748.215 500.051 748.371 500.06 748.585 500.043L749.017 499.991C749.7 499.922 750.177 499.724 750.44 499.38C750.715 499.045 750.809 498.571 750.699 497.952L750.901 497.926L751.586 500.12L745.291 500.774L745.2 500.594L745.44 500.568C745.651 500.542 745.805 500.49 745.902 500.413C745.977 500.353 746.014 500.267 746.001 500.146C746.009 500.06 745.925 499.845 745.77 499.509L743.663 495.035C743.52 494.734 743.416 494.544 743.364 494.475C743.277 494.364 743.171 494.277 743.038 494.226C742.868 494.148 742.655 494.114 742.415 494.14L742.176 494.166L742.084 493.985L748.184 493.348L749.138 495.353L748.927 495.379C748.597 494.897 748.28 494.561 747.991 494.364C747.705 494.174 747.364 494.045 746.977 493.976C746.745 493.942 746.356 493.95 745.803 494.011L745.046 494.088Z" fill="#8C361D"/>
<path d="M737.264 501.618L737.179 501.428L737.419 501.403C737.633 501.385 737.777 501.334 737.859 501.265C737.946 501.187 737.99 501.093 737.99 500.981C737.994 500.912 737.91 500.697 737.74 500.344L735.635 495.878C735.478 495.534 735.352 495.31 735.278 495.233C735.19 495.147 735.083 495.086 734.922 495.035C734.777 494.975 734.599 494.957 734.397 494.983L734.158 495.009L734.063 494.82L737.332 494.484C738.198 494.389 738.949 494.432 739.589 494.596C740.356 494.794 741.045 495.155 741.635 495.672C742.232 496.179 742.69 496.782 743.018 497.479C743.24 497.952 743.366 498.399 743.388 498.821C743.42 499.243 743.361 499.595 743.223 499.888C743.083 500.172 742.879 500.413 742.613 500.611C742.344 500.8 741.983 500.972 741.534 501.11C741.335 501.17 741.002 501.23 740.529 501.273L737.264 501.618ZM737.022 494.914L739.521 500.215C739.658 500.499 739.747 500.671 739.806 500.731C739.865 500.792 739.937 500.835 740.023 500.86C740.143 500.903 740.299 500.912 740.474 500.895C741.072 500.826 741.441 500.594 741.575 500.181C741.763 499.621 741.601 498.795 741.094 497.72C740.684 496.842 740.209 496.162 739.666 495.672C739.247 495.293 738.817 495.043 738.376 494.932C738.072 494.854 737.623 494.854 737.022 494.914Z" fill="#8C361D"/>
<path d="M762.602 494.949C763.28 495.25 763.79 495.534 764.128 495.818C764.475 496.102 764.735 496.437 764.926 496.825C765.184 497.375 765.182 497.866 764.908 498.287C764.643 498.709 764.14 498.967 763.383 499.045C762.664 499.122 762.023 499.01 761.472 498.718C760.924 498.434 760.531 498.047 760.31 497.573C760.143 497.203 760.106 496.876 760.202 496.575C760.302 496.283 760.563 495.99 760.981 495.706C760.208 495.353 759.686 495.061 759.402 494.82C759.114 494.57 758.889 494.278 758.731 493.933C758.515 493.477 758.531 493.056 758.783 492.677C759.028 492.281 759.521 492.049 760.24 491.971C760.933 491.903 761.539 491.997 762.053 492.264C762.576 492.531 762.937 492.883 763.141 493.305C763.289 493.624 763.327 493.925 763.238 494.191C763.149 494.458 762.939 494.708 762.602 494.949ZM762.078 494.734C762.13 494.553 762.141 494.364 762.114 494.148C762.077 493.933 761.997 493.701 761.882 493.451C761.675 493.021 761.418 492.694 761.117 492.488C760.878 492.324 760.628 492.264 760.369 492.29C760.13 492.316 759.955 492.419 759.865 492.6C759.772 492.772 759.789 492.987 759.901 493.228C760.013 493.469 760.221 493.71 760.537 493.959C760.851 494.2 761.361 494.458 762.078 494.734ZM761.499 495.904C761.433 496.016 761.396 496.102 761.387 496.188C761.362 496.308 761.387 496.489 761.429 496.721C761.478 496.945 761.562 497.186 761.674 497.427C761.823 497.745 761.989 498.003 762.175 498.21C762.359 498.408 762.559 498.546 762.758 498.623C762.967 498.701 763.151 498.735 763.317 498.718C763.583 498.683 763.754 498.571 763.86 498.382C763.951 498.176 763.922 497.926 763.776 497.616C763.473 496.962 762.712 496.394 761.499 495.904Z" fill="#8C361D"/>
</g>
</g>
<defs>
<clipPath id="clip0_51_11">
<rect width="1500" height="1000" fill="white"/>
</clipPath>
<clipPath id="clip1_51_11">
<rect width="1600.03" height="1000" fill="white" transform="translate(-50)"/>
</clipPath>
</defs>
</svg>
