<svg width="1500" height="1000" viewBox="0 0 1500 1000" fill="none" xmlns="http://www.w3.org/2000/svg">
<g clip-path="url(#clip0_51_13)">
<rect width="1500" height="1000" fill="white"/>
<g clip-path="url(#clip1_51_13)">
<path d="M1625.1 0H-124.914V1000H1625.1V0Z" fill="white"/>
<path d="M1625.1 671.552H-124.914V1000H1625.1V671.552Z" fill="#DA0000"/>
<path d="M303.594 685.471H207.754V692.065H303.594V685.471Z" fill="white"/>
<path d="M228.637 718.447H222.043V724.851H228.637V718.447Z" fill="white"/>
<path d="M303.844 724.834V718.24H284.69V724.834H303.844Z" fill="white"/>
<path d="M320.741 685.471H314.146V724.847H320.741V685.471Z" fill="white"/>
<path d="M352.299 724.834V718.24H316.001V724.834H352.299Z" fill="white"/>
<path d="M291.284 702.834H284.689V724.846H291.284V702.834Z" fill="white"/>
<path d="M353.495 685.471H346.9V724.847H353.495V685.471Z" fill="white"/>
<path d="M337.007 685.471H330.412V724.847H337.007V685.471Z" fill="white"/>
<path d="M242.912 707.737V701.143H207.932V707.737H242.912Z" fill="white"/>
<path d="M319.67 707.737V701.143H284.69V707.737H319.67Z" fill="white"/>
<path d="M291.284 702.834H284.689V724.846H291.284V702.834Z" fill="white"/>
<path d="M291.284 702.834H284.689V724.846H291.284V702.834Z" fill="white"/>
<path d="M291.284 702.834H284.689V724.846H291.284V702.834Z" fill="white"/>
<path d="M214.526 702.834H207.932V724.846H214.526V702.834Z" fill="white"/>
<path d="M270.788 702.834H264.193V724.846H270.788V702.834Z" fill="white"/>
<path d="M242.915 702.834H236.32V724.846H242.915V702.834Z" fill="white"/>
<path d="M268.822 724.834V718.24H239.253V724.834H268.822Z" fill="white"/>
<path d="M270.789 707.737V701.143H252.042V707.737H270.789Z" fill="white"/>
<path d="M146.186 685.471H50.3457V692.065H146.186V685.471Z" fill="white"/>
<path d="M71.2292 718.447H64.6348V724.851H71.2292V718.447Z" fill="white"/>
<path d="M146.436 724.834V718.24H127.282V724.834H146.436Z" fill="white"/>
<path d="M163.333 685.471H156.738V724.847H163.333V685.471Z" fill="white"/>
<path d="M194.891 724.834V718.24H158.593V724.834H194.891Z" fill="white"/>
<path d="M133.876 702.834H127.281V724.846H133.876V702.834Z" fill="white"/>
<path d="M196.087 685.471H189.492V724.847H196.087V685.471Z" fill="white"/>
<path d="M179.598 685.471H173.004V724.847H179.598V685.471Z" fill="white"/>
<path d="M85.5039 707.737V701.143H50.5238V707.737H85.5039Z" fill="white"/>
<path d="M162.262 707.737V701.143H127.282V707.737H162.262Z" fill="white"/>
<path d="M133.876 702.834H127.281V724.846H133.876V702.834Z" fill="white"/>
<path d="M133.876 702.834H127.281V724.846H133.876V702.834Z" fill="white"/>
<path d="M133.876 702.834H127.281V724.846H133.876V702.834Z" fill="white"/>
<path d="M57.1179 702.834H50.5234V724.846H57.1179V702.834Z" fill="white"/>
<path d="M113.38 702.834H106.785V724.846H113.38V702.834Z" fill="white"/>
<path d="M85.5065 702.834H78.9121V724.846H85.5065V702.834Z" fill="white"/>
<path d="M111.414 724.834V718.24H81.8447V724.834H111.414Z" fill="white"/>
<path d="M113.381 707.737V701.143H94.6335V707.737H113.381Z" fill="white"/>
<path d="M459.703 685.471H363.863V692.065H459.703V685.471Z" fill="white"/>
<path d="M384.747 718.447H378.152V724.851H384.747V718.447Z" fill="white"/>
<path d="M459.953 724.834V718.24H440.799V724.834H459.953Z" fill="white"/>
<path d="M476.85 685.471H470.256V724.847H476.85V685.471Z" fill="white"/>
<path d="M508.408 724.834V718.24H472.11V724.834H508.408Z" fill="white"/>
<path d="M447.393 702.834H440.799V724.846H447.393V702.834Z" fill="white"/>
<path d="M509.604 685.471H503.01V724.847H509.604V685.471Z" fill="white"/>
<path d="M493.116 685.471H486.521V724.847H493.116V685.471Z" fill="white"/>
<path d="M399.021 707.737V701.143H364.041V707.737H399.021Z" fill="white"/>
<path d="M475.779 707.737V701.143H440.799V707.737H475.779Z" fill="white"/>
<path d="M447.393 702.834H440.799V724.846H447.393V702.834Z" fill="white"/>
<path d="M447.393 702.834H440.799V724.846H447.393V702.834Z" fill="white"/>
<path d="M447.393 702.834H440.799V724.846H447.393V702.834Z" fill="white"/>
<path d="M370.635 702.834H364.041V724.846H370.635V702.834Z" fill="white"/>
<path d="M426.897 702.834H420.303V724.846H426.897V702.834Z" fill="white"/>
<path d="M399.024 702.834H392.43V724.846H399.024V702.834Z" fill="white"/>
<path d="M424.932 724.834V718.24H395.362V724.834H424.932Z" fill="white"/>
<path d="M426.898 707.737V701.143H408.151V707.737H426.898Z" fill="white"/>
<path d="M1562.01 685.471H1466.17V692.065H1562.01V685.471Z" fill="white"/>
<path d="M1487.05 718.447H1480.46V724.851H1487.05V718.447Z" fill="white"/>
<path d="M1501.33 707.737V701.143H1466.35V707.737H1501.33Z" fill="white"/>
<path d="M1472.94 702.834H1466.35V724.846H1472.94V702.834Z" fill="white"/>
<path d="M1501.33 702.834H1494.74V724.846H1501.33V702.834Z" fill="white"/>
<path d="M1527.24 724.834V718.24H1497.67V724.834H1527.24Z" fill="white"/>
<path d="M616.82 685.471H520.98V692.065H616.82V685.471Z" fill="white"/>
<path d="M541.864 718.447H535.27V724.851H541.864V718.447Z" fill="white"/>
<path d="M617.07 724.834V718.24H597.917V724.834H617.07Z" fill="white"/>
<path d="M633.967 685.471H627.373V724.847H633.967V685.471Z" fill="white"/>
<path d="M665.525 724.834V718.24H629.227V724.834H665.525Z" fill="white"/>
<path d="M604.51 702.834H597.916V724.846H604.51V702.834Z" fill="white"/>
<path d="M666.721 685.471H660.127V724.847H666.721V685.471Z" fill="white"/>
<path d="M650.233 685.471H643.639V724.847H650.233V685.471Z" fill="white"/>
<path d="M556.139 707.737V701.143H521.159V707.737H556.139Z" fill="white"/>
<path d="M632.896 707.737V701.143H597.916V707.737H632.896Z" fill="white"/>
<path d="M604.51 702.834H597.916V724.846H604.51V702.834Z" fill="white"/>
<path d="M604.51 702.834H597.916V724.846H604.51V702.834Z" fill="white"/>
<path d="M604.51 702.834H597.916V724.846H604.51V702.834Z" fill="white"/>
<path d="M527.753 702.834H521.158V724.846H527.753V702.834Z" fill="white"/>
<path d="M584.014 702.834H577.42V724.846H584.014V702.834Z" fill="white"/>
<path d="M556.141 702.834H549.547V724.846H556.141V702.834Z" fill="white"/>
<path d="M582.049 724.834V718.24H552.479V724.834H582.049Z" fill="white"/>
<path d="M584.016 707.737V701.143H565.268V707.737H584.016Z" fill="white"/>
<path d="M774.504 685.471H678.664V692.065H774.504V685.471Z" fill="white"/>
<path d="M699.548 718.447H692.953V724.851H699.548V718.447Z" fill="white"/>
<path d="M774.754 724.834V718.24H755.6V724.834H774.754Z" fill="white"/>
<path d="M791.651 685.471H785.057V724.847H791.651V685.471Z" fill="white"/>
<path d="M823.209 724.834V718.24H786.911V724.834H823.209Z" fill="white"/>
<path d="M762.194 702.834H755.6V724.846H762.194V702.834Z" fill="white"/>
<path d="M824.405 685.471H817.811V724.847H824.405V685.471Z" fill="white"/>
<path d="M807.917 685.471H801.322V724.847H807.917V685.471Z" fill="white"/>
<path d="M713.822 707.737V701.143H678.842V707.737H713.822Z" fill="white"/>
<path d="M790.58 707.737V701.143H755.6V707.737H790.58Z" fill="white"/>
<path d="M762.194 702.834H755.6V724.846H762.194V702.834Z" fill="white"/>
<path d="M762.194 702.834H755.6V724.846H762.194V702.834Z" fill="white"/>
<path d="M762.194 702.834H755.6V724.846H762.194V702.834Z" fill="white"/>
<path d="M685.436 702.834H678.842V724.846H685.436V702.834Z" fill="white"/>
<path d="M741.698 702.834H735.104V724.846H741.698V702.834Z" fill="white"/>
<path d="M713.825 702.834H707.23V724.846H713.825V702.834Z" fill="white"/>
<path d="M739.732 724.834V718.24H710.163V724.834H739.732Z" fill="white"/>
<path d="M741.699 707.737V701.143H722.952V707.737H741.699Z" fill="white"/>
<path d="M1625.1 0H-124.914V328.448H1625.1V0Z" fill="#239F40"/>
<path d="M933.113 685.471H837.273V692.065H933.113V685.471Z" fill="white"/>
<path d="M858.157 718.447H851.562V724.851H858.157V718.447Z" fill="white"/>
<path d="M933.363 724.834V718.24H914.21V724.834H933.363Z" fill="white"/>
<path d="M950.26 685.471H943.666V724.847H950.26V685.471Z" fill="white"/>
<path d="M981.818 724.834V718.24H945.52V724.834H981.818Z" fill="white"/>
<path d="M920.803 702.834H914.209V724.846H920.803V702.834Z" fill="white"/>
<path d="M983.014 685.471H976.42V724.847H983.014V685.471Z" fill="white"/>
<path d="M966.526 685.471H959.932V724.847H966.526V685.471Z" fill="white"/>
<path d="M872.432 707.737V701.143H837.452V707.737H872.432Z" fill="white"/>
<path d="M949.189 707.737V701.143H914.209V707.737H949.189Z" fill="white"/>
<path d="M920.803 702.834H914.209V724.846H920.803V702.834Z" fill="white"/>
<path d="M920.803 702.834H914.209V724.846H920.803V702.834Z" fill="white"/>
<path d="M920.803 702.834H914.209V724.846H920.803V702.834Z" fill="white"/>
<path d="M844.046 702.834H837.451V724.846H844.046V702.834Z" fill="white"/>
<path d="M900.307 702.834H893.713V724.846H900.307V702.834Z" fill="white"/>
<path d="M872.434 702.834H865.84V724.846H872.434V702.834Z" fill="white"/>
<path d="M898.342 724.834V718.24H868.772V724.834H898.342Z" fill="white"/>
<path d="M900.309 707.737V701.143H881.561V707.737H900.309Z" fill="white"/>
<path d="M1090.82 685.471H994.977V692.065H1090.82V685.471Z" fill="white"/>
<path d="M1015.86 718.447H1009.27V724.851H1015.86V718.447Z" fill="white"/>
<path d="M1091.07 724.834V718.24H1071.91V724.834H1091.07Z" fill="white"/>
<path d="M1107.96 685.471H1101.37V724.847H1107.96V685.471Z" fill="white"/>
<path d="M1139.52 724.834V718.24H1103.22V724.834H1139.52Z" fill="white"/>
<path d="M1078.51 702.834H1071.91V724.846H1078.51V702.834Z" fill="white"/>
<path d="M1140.72 685.471H1134.12V724.847H1140.72V685.471Z" fill="white"/>
<path d="M1124.23 685.471H1117.63V724.847H1124.23V685.471Z" fill="white"/>
<path d="M1030.13 707.737V701.143H995.155V707.737H1030.13Z" fill="white"/>
<path d="M1106.89 707.737V701.143H1071.91V707.737H1106.89Z" fill="white"/>
<path d="M1078.51 702.834H1071.91V724.846H1078.51V702.834Z" fill="white"/>
<path d="M1078.51 702.834H1071.91V724.846H1078.51V702.834Z" fill="white"/>
<path d="M1078.51 702.834H1071.91V724.846H1078.51V702.834Z" fill="white"/>
<path d="M1001.75 702.834H995.154V724.846H1001.75V702.834Z" fill="white"/>
<path d="M1058.01 702.834H1051.42V724.846H1058.01V702.834Z" fill="white"/>
<path d="M1030.14 702.834H1023.54V724.846H1030.14V702.834Z" fill="white"/>
<path d="M1056.04 724.834V718.24H1026.48V724.834H1056.04Z" fill="white"/>
<path d="M1058.01 707.737V701.143H1039.26V707.737H1058.01Z" fill="white"/>
<path d="M1248.5 685.471H1152.66V692.065H1248.5V685.471Z" fill="white"/>
<path d="M1173.54 718.447H1166.95V724.851H1173.54V718.447Z" fill="white"/>
<path d="M1248.75 724.834V718.24H1229.59V724.834H1248.75Z" fill="white"/>
<path d="M1265.65 685.471H1259.05V724.847H1265.65V685.471Z" fill="white"/>
<path d="M1297.2 724.834V718.24H1260.91V724.834H1297.2Z" fill="white"/>
<path d="M1236.19 702.834H1229.59V724.846H1236.19V702.834Z" fill="white"/>
<path d="M1298.4 685.471H1291.8V724.847H1298.4V685.471Z" fill="white"/>
<path d="M1281.91 685.471H1275.32V724.847H1281.91V685.471Z" fill="white"/>
<path d="M1187.82 707.737V701.143H1152.84V707.737H1187.82Z" fill="white"/>
<path d="M1264.57 707.737V701.143H1229.59V707.737H1264.57Z" fill="white"/>
<path d="M1236.19 702.834H1229.59V724.846H1236.19V702.834Z" fill="white"/>
<path d="M1236.19 702.834H1229.59V724.846H1236.19V702.834Z" fill="white"/>
<path d="M1236.19 702.834H1229.59V724.846H1236.19V702.834Z" fill="white"/>
<path d="M1159.43 702.834H1152.84V724.846H1159.43V702.834Z" fill="white"/>
<path d="M1215.69 702.834H1209.1V724.846H1215.69V702.834Z" fill="white"/>
<path d="M1187.82 702.834H1181.22V724.846H1187.82V702.834Z" fill="white"/>
<path d="M1213.73 724.834V718.24H1184.16V724.834H1213.73Z" fill="white"/>
<path d="M1215.69 707.737V701.143H1196.95V707.737H1215.69Z" fill="white"/>
<path d="M1407.11 685.471H1311.27V692.065H1407.11V685.471Z" fill="white"/>
<path d="M1332.15 718.447H1325.56V724.851H1332.15V718.447Z" fill="white"/>
<path d="M1407.36 724.834V718.24H1388.21V724.834H1407.36Z" fill="white"/>
<path d="M1424.26 685.471H1417.66V724.847H1424.26V685.471Z" fill="white"/>
<path d="M1455.81 724.834V718.24H1419.52V724.834H1455.81Z" fill="white"/>
<path d="M1394.8 702.834H1388.21V724.846H1394.8V702.834Z" fill="white"/>
<path d="M1457.01 685.471H1450.42V724.847H1457.01V685.471Z" fill="white"/>
<path d="M1440.52 685.471H1433.93V724.847H1440.52V685.471Z" fill="white"/>
<path d="M1346.43 707.737V701.143H1311.45V707.737H1346.43Z" fill="white"/>
<path d="M1423.19 707.737V701.143H1388.21V707.737H1423.19Z" fill="white"/>
<path d="M1394.8 702.834H1388.21V724.846H1394.8V702.834Z" fill="white"/>
<path d="M1394.8 702.834H1388.21V724.846H1394.8V702.834Z" fill="white"/>
<path d="M1394.8 702.834H1388.21V724.846H1394.8V702.834Z" fill="white"/>
<path d="M1318.04 702.834H1311.45V724.846H1318.04V702.834Z" fill="white"/>
<path d="M1374.3 702.834H1367.71V724.846H1374.3V702.834Z" fill="white"/>
<path d="M1346.43 702.834H1339.84V724.846H1346.43V702.834Z" fill="white"/>
<path d="M1372.34 724.834V718.24H1342.77V724.834H1372.34Z" fill="white"/>
<path d="M1374.3 707.737V701.143H1355.56V707.737H1374.3Z" fill="white"/>
<path d="M4.03582 685.471H-2.55859V724.847H4.03582V685.471Z" fill="white"/>
<path d="M35.5938 724.834V718.24H-0.704227V724.834H35.5938Z" fill="white"/>
<path d="M36.7897 685.471H30.1953V724.847H36.7897V685.471Z" fill="white"/>
<path d="M20.3015 685.471H13.707V724.847H20.3015V685.471Z" fill="white"/>
<path d="M2.96484 707.737L2.96484 701.143H-32.0153V707.737H2.96484Z" fill="white"/>
<path d="M303.594 280.157H207.754V286.751H303.594V280.157Z" fill="white"/>
<path d="M228.637 313.133H222.043V319.537H228.637V313.133Z" fill="white"/>
<path d="M303.844 319.52V312.926H284.69V319.52H303.844Z" fill="white"/>
<path d="M320.741 280.157H314.146V319.533H320.741V280.157Z" fill="white"/>
<path d="M352.299 319.52V312.926H316.001V319.52H352.299Z" fill="white"/>
<path d="M291.284 297.521H284.689V319.532H291.284V297.521Z" fill="white"/>
<path d="M353.495 280.157H346.9V319.533H353.495V280.157Z" fill="white"/>
<path d="M337.007 280.157H330.412V319.533H337.007V280.157Z" fill="white"/>
<path d="M242.912 302.423V295.829H207.932V302.423H242.912Z" fill="white"/>
<path d="M319.67 302.423V295.829H284.69V302.423H319.67Z" fill="white"/>
<path d="M291.284 297.521H284.689V319.532H291.284V297.521Z" fill="white"/>
<path d="M291.284 297.521H284.689V319.532H291.284V297.521Z" fill="white"/>
<path d="M291.284 297.521H284.689V319.532H291.284V297.521Z" fill="white"/>
<path d="M214.526 297.521H207.932V319.532H214.526V297.521Z" fill="white"/>
<path d="M270.788 297.521H264.193V319.532H270.788V297.521Z" fill="white"/>
<path d="M242.915 297.521H236.32V319.532H242.915V297.521Z" fill="white"/>
<path d="M268.822 319.52V312.926H239.253V319.52H268.822Z" fill="white"/>
<path d="M270.789 302.423V295.829H252.042V302.423H270.789Z" fill="white"/>
<path d="M146.186 280.157H50.3457V286.751H146.186V280.157Z" fill="white"/>
<path d="M71.2292 313.133H64.6348V319.537H71.2292V313.133Z" fill="white"/>
<path d="M146.436 319.52V312.926H127.282V319.52H146.436Z" fill="white"/>
<path d="M163.333 280.157H156.738V319.533H163.333V280.157Z" fill="white"/>
<path d="M194.891 319.52V312.926H158.593V319.52H194.891Z" fill="white"/>
<path d="M133.876 297.521H127.281V319.532H133.876V297.521Z" fill="white"/>
<path d="M196.087 280.157H189.492V319.533H196.087V280.157Z" fill="white"/>
<path d="M179.598 280.157H173.004V319.533H179.598V280.157Z" fill="white"/>
<path d="M85.5039 302.423V295.829H50.5238V302.423H85.5039Z" fill="white"/>
<path d="M162.262 302.423V295.829H127.282V302.423H162.262Z" fill="white"/>
<path d="M133.876 297.521H127.281V319.532H133.876V297.521Z" fill="white"/>
<path d="M133.876 297.521H127.281V319.532H133.876V297.521Z" fill="white"/>
<path d="M133.876 297.521H127.281V319.532H133.876V297.521Z" fill="white"/>
<path d="M57.1179 297.521H50.5234V319.532H57.1179V297.521Z" fill="white"/>
<path d="M113.38 297.521H106.785V319.532H113.38V297.521Z" fill="white"/>
<path d="M85.5065 297.521H78.9121V319.532H85.5065V297.521Z" fill="white"/>
<path d="M111.414 319.52V312.926H81.8447V319.52H111.414Z" fill="white"/>
<path d="M113.381 302.423V295.829H94.6335V302.423H113.381Z" fill="white"/>
<path d="M459.703 280.157H363.863V286.751H459.703V280.157Z" fill="white"/>
<path d="M384.747 313.133H378.152V319.537H384.747V313.133Z" fill="white"/>
<path d="M459.953 319.52V312.926H440.799V319.52H459.953Z" fill="white"/>
<path d="M476.85 280.157H470.256V319.533H476.85V280.157Z" fill="white"/>
<path d="M508.408 319.52V312.926H472.11V319.52H508.408Z" fill="white"/>
<path d="M447.393 297.521H440.799V319.532H447.393V297.521Z" fill="white"/>
<path d="M509.604 280.157H503.01V319.533H509.604V280.157Z" fill="white"/>
<path d="M493.116 280.157H486.521V319.533H493.116V280.157Z" fill="white"/>
<path d="M399.021 302.423V295.829H364.041V302.423H399.021Z" fill="white"/>
<path d="M475.779 302.423V295.829H440.799V302.423H475.779Z" fill="white"/>
<path d="M447.393 297.521H440.799V319.532H447.393V297.521Z" fill="white"/>
<path d="M447.393 297.521H440.799V319.532H447.393V297.521Z" fill="white"/>
<path d="M447.393 297.521H440.799V319.532H447.393V297.521Z" fill="white"/>
<path d="M370.635 297.521H364.041V319.532H370.635V297.521Z" fill="white"/>
<path d="M426.897 297.521H420.303V319.532H426.897V297.521Z" fill="white"/>
<path d="M399.024 297.521H392.43V319.532H399.024V297.521Z" fill="white"/>
<path d="M424.932 319.52V312.926H395.362V319.52H424.932Z" fill="white"/>
<path d="M426.898 302.423V295.829H408.151V302.423H426.898Z" fill="white"/>
<path d="M1562.01 280.157H1466.17V286.751H1562.01V280.157Z" fill="white"/>
<path d="M1487.05 313.133H1480.46V319.537H1487.05V313.133Z" fill="white"/>
<path d="M1501.33 302.423V295.829H1466.35V302.423H1501.33Z" fill="white"/>
<path d="M1472.94 297.521H1466.35V319.532H1472.94V297.521Z" fill="white"/>
<path d="M1501.33 297.521H1494.74V319.532H1501.33V297.521Z" fill="white"/>
<path d="M1527.24 319.52V312.926H1497.67V319.52H1527.24Z" fill="white"/>
<path d="M616.82 280.157H520.98V286.751H616.82V280.157Z" fill="white"/>
<path d="M541.864 313.133H535.27V319.537H541.864V313.133Z" fill="white"/>
<path d="M617.07 319.52V312.926H597.917V319.52H617.07Z" fill="white"/>
<path d="M633.967 280.157H627.373V319.533H633.967V280.157Z" fill="white"/>
<path d="M665.525 319.52V312.926H629.227V319.52H665.525Z" fill="white"/>
<path d="M604.51 297.521H597.916V319.532H604.51V297.521Z" fill="white"/>
<path d="M666.721 280.157H660.127V319.533H666.721V280.157Z" fill="white"/>
<path d="M650.233 280.157H643.639V319.533H650.233V280.157Z" fill="white"/>
<path d="M556.139 302.423V295.829H521.159V302.423H556.139Z" fill="white"/>
<path d="M632.896 302.423V295.829H597.916V302.423H632.896Z" fill="white"/>
<path d="M604.51 297.521H597.916V319.532H604.51V297.521Z" fill="white"/>
<path d="M604.51 297.521H597.916V319.532H604.51V297.521Z" fill="white"/>
<path d="M604.51 297.521H597.916V319.532H604.51V297.521Z" fill="white"/>
<path d="M527.753 297.521H521.158V319.532H527.753V297.521Z" fill="white"/>
<path d="M584.014 297.521H577.42V319.532H584.014V297.521Z" fill="white"/>
<path d="M556.141 297.521H549.547V319.532H556.141V297.521Z" fill="white"/>
<path d="M582.049 319.52V312.926H552.479V319.52H582.049Z" fill="white"/>
<path d="M584.016 302.423V295.829H565.268V302.423H584.016Z" fill="white"/>
<path d="M774.504 280.157H678.664V286.751H774.504V280.157Z" fill="white"/>
<path d="M699.548 313.133H692.953V319.537H699.548V313.133Z" fill="white"/>
<path d="M774.754 319.52V312.926H755.6V319.52H774.754Z" fill="white"/>
<path d="M791.651 280.157H785.057V319.533H791.651V280.157Z" fill="white"/>
<path d="M823.209 319.52V312.926H786.911V319.52H823.209Z" fill="white"/>
<path d="M762.194 297.521H755.6V319.532H762.194V297.521Z" fill="white"/>
<path d="M824.405 280.157H817.811V319.533H824.405V280.157Z" fill="white"/>
<path d="M807.917 280.157H801.322V319.533H807.917V280.157Z" fill="white"/>
<path d="M713.822 302.423V295.829H678.842V302.423H713.822Z" fill="white"/>
<path d="M790.58 302.423V295.829H755.6V302.423H790.58Z" fill="white"/>
<path d="M762.194 297.521H755.6V319.532H762.194V297.521Z" fill="white"/>
<path d="M762.194 297.521H755.6V319.532H762.194V297.521Z" fill="white"/>
<path d="M762.194 297.521H755.6V319.532H762.194V297.521Z" fill="white"/>
<path d="M685.436 297.521H678.842V319.532H685.436V297.521Z" fill="white"/>
<path d="M741.698 297.521H735.104V319.532H741.698V297.521Z" fill="white"/>
<path d="M713.825 297.521H707.23V319.532H713.825V297.521Z" fill="white"/>
<path d="M739.732 319.52V312.926H710.163V319.52H739.732Z" fill="white"/>
<path d="M741.699 302.423V295.829H722.952V302.423H741.699Z" fill="white"/>
<path d="M933.113 280.157H837.273V286.751H933.113V280.157Z" fill="white"/>
<path d="M858.157 313.133H851.562V319.537H858.157V313.133Z" fill="white"/>
<path d="M933.363 319.52V312.926H914.21V319.52H933.363Z" fill="white"/>
<path d="M950.26 280.157H943.666V319.533H950.26V280.157Z" fill="white"/>
<path d="M981.818 319.52V312.926H945.52V319.52H981.818Z" fill="white"/>
<path d="M920.803 297.521H914.209V319.532H920.803V297.521Z" fill="white"/>
<path d="M983.014 280.157H976.42V319.533H983.014V280.157Z" fill="white"/>
<path d="M966.526 280.157H959.932V319.533H966.526V280.157Z" fill="white"/>
<path d="M872.432 302.423V295.829H837.452V302.423H872.432Z" fill="white"/>
<path d="M949.189 302.423V295.829H914.209V302.423H949.189Z" fill="white"/>
<path d="M920.803 297.521H914.209V319.532H920.803V297.521Z" fill="white"/>
<path d="M920.803 297.521H914.209V319.532H920.803V297.521Z" fill="white"/>
<path d="M920.803 297.521H914.209V319.532H920.803V297.521Z" fill="white"/>
<path d="M844.046 297.521H837.451V319.532H844.046V297.521Z" fill="white"/>
<path d="M900.307 297.521H893.713V319.532H900.307V297.521Z" fill="white"/>
<path d="M872.434 297.521H865.84V319.532H872.434V297.521Z" fill="white"/>
<path d="M898.342 319.52V312.926H868.772V319.52H898.342Z" fill="white"/>
<path d="M900.309 302.423V295.829H881.561V302.423H900.309Z" fill="white"/>
<path d="M1090.82 280.157H994.977V286.751H1090.82V280.157Z" fill="white"/>
<path d="M1015.86 313.133H1009.27V319.537H1015.86V313.133Z" fill="white"/>
<path d="M1091.07 319.52V312.926H1071.91V319.52H1091.07Z" fill="white"/>
<path d="M1107.96 280.157H1101.37V319.533H1107.96V280.157Z" fill="white"/>
<path d="M1139.52 319.52V312.926H1103.22V319.52H1139.52Z" fill="white"/>
<path d="M1078.51 297.521H1071.91V319.532H1078.51V297.521Z" fill="white"/>
<path d="M1140.72 280.157H1134.12V319.533H1140.72V280.157Z" fill="white"/>
<path d="M1124.23 280.157H1117.63V319.533H1124.23V280.157Z" fill="white"/>
<path d="M1030.13 302.423V295.829H995.155V302.423H1030.13Z" fill="white"/>
<path d="M1106.89 302.423V295.829H1071.91V302.423H1106.89Z" fill="white"/>
<path d="M1078.51 297.521H1071.91V319.532H1078.51V297.521Z" fill="white"/>
<path d="M1078.51 297.521H1071.91V319.532H1078.51V297.521Z" fill="white"/>
<path d="M1078.51 297.521H1071.91V319.532H1078.51V297.521Z" fill="white"/>
<path d="M1001.75 297.521H995.154V319.532H1001.75V297.521Z" fill="white"/>
<path d="M1058.01 297.521H1051.42V319.532H1058.01V297.521Z" fill="white"/>
<path d="M1030.14 297.521H1023.54V319.532H1030.14V297.521Z" fill="white"/>
<path d="M1056.04 319.52V312.926H1026.48V319.52H1056.04Z" fill="white"/>
<path d="M1058.01 302.423V295.829H1039.26V302.423H1058.01Z" fill="white"/>
<path d="M1248.5 280.157H1152.66V286.751H1248.5V280.157Z" fill="white"/>
<path d="M1173.54 313.133H1166.95V319.537H1173.54V313.133Z" fill="white"/>
<path d="M1248.75 319.52V312.926H1229.59V319.52H1248.75Z" fill="white"/>
<path d="M1265.65 280.157H1259.05V319.533H1265.65V280.157Z" fill="white"/>
<path d="M1297.2 319.52V312.926H1260.91V319.52H1297.2Z" fill="white"/>
<path d="M1236.19 297.521H1229.59V319.532H1236.19V297.521Z" fill="white"/>
<path d="M1298.4 280.157H1291.8V319.533H1298.4V280.157Z" fill="white"/>
<path d="M1281.91 280.157H1275.32V319.533H1281.91V280.157Z" fill="white"/>
<path d="M1187.82 302.423V295.829H1152.84V302.423H1187.82Z" fill="white"/>
<path d="M1264.57 302.423V295.829H1229.59V302.423H1264.57Z" fill="white"/>
<path d="M1236.19 297.521H1229.59V319.532H1236.19V297.521Z" fill="white"/>
<path d="M1236.19 297.521H1229.59V319.532H1236.19V297.521Z" fill="white"/>
<path d="M1236.19 297.521H1229.59V319.532H1236.19V297.521Z" fill="white"/>
<path d="M1159.43 297.521H1152.84V319.532H1159.43V297.521Z" fill="white"/>
<path d="M1215.69 297.521H1209.1V319.532H1215.69V297.521Z" fill="white"/>
<path d="M1187.82 297.521H1181.22V319.532H1187.82V297.521Z" fill="white"/>
<path d="M1213.73 319.52V312.926H1184.16V319.52H1213.73Z" fill="white"/>
<path d="M1215.69 302.423V295.829H1196.95V302.423H1215.69Z" fill="white"/>
<path d="M1407.11 280.157H1311.27V286.751H1407.11V280.157Z" fill="white"/>
<path d="M1332.15 313.133H1325.56V319.537H1332.15V313.133Z" fill="white"/>
<path d="M1407.36 319.52V312.926H1388.21V319.52H1407.36Z" fill="white"/>
<path d="M1424.26 280.157H1417.66V319.533H1424.26V280.157Z" fill="white"/>
<path d="M1455.81 319.52V312.926H1419.52V319.52H1455.81Z" fill="white"/>
<path d="M1394.8 297.521H1388.21V319.532H1394.8V297.521Z" fill="white"/>
<path d="M1457.01 280.157H1450.42V319.533H1457.01V280.157Z" fill="white"/>
<path d="M1440.52 280.157H1433.93V319.533H1440.52V280.157Z" fill="white"/>
<path d="M1346.43 302.423V295.829H1311.45V302.423H1346.43Z" fill="white"/>
<path d="M1423.19 302.423V295.829H1388.21V302.423H1423.19Z" fill="white"/>
<path d="M1394.8 297.521H1388.21V319.532H1394.8V297.521Z" fill="white"/>
<path d="M1394.8 297.521H1388.21V319.532H1394.8V297.521Z" fill="white"/>
<path d="M1394.8 297.521H1388.21V319.532H1394.8V297.521Z" fill="white"/>
<path d="M1318.04 297.521H1311.45V319.532H1318.04V297.521Z" fill="white"/>
<path d="M1374.3 297.521H1367.71V319.532H1374.3V297.521Z" fill="white"/>
<path d="M1346.43 297.521H1339.84V319.532H1346.43V297.521Z" fill="white"/>
<path d="M1372.34 319.52V312.926H1342.77V319.52H1372.34Z" fill="white"/>
<path d="M1374.3 302.423V295.829H1355.56V302.423H1374.3Z" fill="white"/>
<path d="M4.03582 280.157H-2.55859V319.533H4.03582V280.157Z" fill="white"/>
<path d="M35.5938 319.52V312.926H-0.704227V319.52H35.5938Z" fill="white"/>
<path d="M36.7897 280.157H30.1953V319.533H36.7897V280.157Z" fill="white"/>
<path d="M20.3015 280.157H13.707V319.533H20.3015V280.157Z" fill="white"/>
<path d="M2.96484 302.423L2.96484 295.829H-32.0153V302.423H2.96484Z" fill="white"/>
<path d="M127.393 663.105H115.58V683.623H127.393V663.105Z" fill="#D90000"/>
<path d="M440.944 663.105H429.131V683.623H440.944V663.105Z" fill="#D90000"/>
<path d="M45.95 663.105H34.1367V683.623H45.95V663.105Z" fill="#D90000"/>
<path d="M203.954 663.105H192.141V683.623H203.954V663.105Z" fill="#D90000"/>
<path d="M282.13 663.105H270.316V683.623H282.13V663.105Z" fill="#D90000"/>
<path d="M361.938 663.105H350.125V683.623H361.938V663.105Z" fill="#D90000"/>
<path d="M519.12 663.105H507.307V683.623H519.12V663.105Z" fill="#D90000"/>
<path d="M915.725 663.105H903.912V683.623H915.725V663.105Z" fill="#D90000"/>
<path d="M598.927 663.105H587.113V683.623H598.927V663.105Z" fill="#D90000"/>
<path d="M677.122 663.105H665.309V683.623H677.122V663.105Z" fill="#D90000"/>
<path d="M756.104 663.105H744.291V683.623H756.104V663.105Z" fill="#D90000"/>
<path d="M835.106 663.105H823.293V683.623H835.106V663.105Z" fill="#D90000"/>
<path d="M1466.26 663.105H1454.45V683.623H1466.26V663.105Z" fill="#D90000"/>
<path d="M992.286 663.105H980.473V683.623H992.286V663.105Z" fill="#D90000"/>
<path d="M1072.09 663.105H1060.28V683.623H1072.09V663.105Z" fill="#D90000"/>
<path d="M1152.73 663.105H1140.92V683.623H1152.73V663.105Z" fill="#D90000"/>
<path d="M1228.47 663.105H1216.65V683.623H1228.47V663.105Z" fill="#D90000"/>
<path d="M1309.08 663.105H1297.27V683.623H1309.08V663.105Z" fill="#D90000"/>
<path d="M1388.08 663.105H1376.27V683.623H1388.08V663.105Z" fill="#D90000"/>
<path d="M127.393 317.603H115.58V338.12H127.393V317.603Z" fill="#239E3F"/>
<path d="M440.944 317.603H429.131V338.12H440.944V317.603Z" fill="#239E3F"/>
<path d="M45.95 317.603H34.1367V338.12H45.95V317.603Z" fill="#239E3F"/>
<path d="M203.954 317.603H192.141V338.12H203.954V317.603Z" fill="#239E3F"/>
<path d="M282.13 317.603H270.316V338.12H282.13V317.603Z" fill="#239E3F"/>
<path d="M361.938 317.603H350.125V338.12H361.938V317.603Z" fill="#239E3F"/>
<path d="M519.12 317.603H507.307V338.12H519.12V317.603Z" fill="#239E3F"/>
<path d="M915.725 317.603H903.912V338.12H915.725V317.603Z" fill="#239E3F"/>
<path d="M598.927 317.603H587.113V338.12H598.927V317.603Z" fill="#239E3F"/>
<path d="M677.122 317.603H665.309V338.12H677.122V317.603Z" fill="#239E3F"/>
<path d="M756.104 317.603H744.291V338.12H756.104V317.603Z" fill="#239E3F"/>
<path d="M835.106 317.603H823.293V338.12H835.106V317.603Z" fill="#239E3F"/>
<path d="M1466.26 317.603H1454.45V338.12H1466.26V317.603Z" fill="#239E3F"/>
<path d="M992.286 317.603H980.473V338.12H992.286V317.603Z" fill="#239E3F"/>
<path d="M1072.09 317.603H1060.28V338.12H1072.09V317.603Z" fill="#239E3F"/>
<path d="M1152.73 317.603H1140.92V338.12H1152.73V317.603Z" fill="#239E3F"/>
<path d="M1228.47 317.603H1216.65V338.12H1228.47V317.603Z" fill="#239E3F"/>
<path d="M1309.08 317.603H1297.27V338.12H1309.08V317.603Z" fill="#239E3F"/>
<path d="M1388.08 317.603H1376.27V338.12H1388.08V317.603Z" fill="#239E3F"/>
<path fill-rule="evenodd" clip-rule="evenodd" d="M796.503 385.76C813.013 405.999 863.914 517.901 765.78 591.199C719.657 625.912 748.222 627.666 749.573 633.512C823.737 594.122 847.948 540.761 847.383 492.944C846.819 445.148 821.479 402.895 796.503 385.76Z" fill="#DA0000"/>
<path fill-rule="evenodd" clip-rule="evenodd" d="M806.32 380.559C842.949 399.307 922.637 493.61 836.861 599.988C890.161 588.155 957.915 431.198 806.32 380.559Z" fill="#DA0000"/>
<path fill-rule="evenodd" clip-rule="evenodd" d="M693.854 380.559C657.225 399.307 577.537 493.61 663.313 599.988C610.013 588.155 542.259 431.198 693.854 380.559Z" fill="#DA0000"/>
<path fill-rule="evenodd" clip-rule="evenodd" d="M703.529 385.76C687.019 405.999 636.118 517.901 734.251 591.199C780.395 625.912 751.83 627.666 750.459 633.512C676.315 594.122 652.084 540.761 652.648 492.944C653.213 445.148 678.552 402.895 703.529 385.76Z" fill="#DA0000"/>
<path fill-rule="evenodd" clip-rule="evenodd" d="M844.158 623.312C815.129 623.755 778.541 619.3 751.387 605.209C755.862 613.897 759.571 619.361 764.046 628.049C789.93 630.448 825.652 633.391 844.158 623.312Z" fill="#DA0000"/>
<path fill-rule="evenodd" clip-rule="evenodd" d="M658.656 623.312C687.665 623.755 724.253 619.3 751.387 605.209C746.932 613.897 743.223 619.361 738.747 628.049C712.863 630.448 677.162 633.391 658.656 623.312Z" fill="#DA0000"/>
<path fill-rule="evenodd" clip-rule="evenodd" d="M711.896 352.377C717.782 368 733.204 370.278 749.714 361.065C761.749 368.302 780.376 368.746 786.786 353.123C791.665 391.767 751.024 382.635 749.512 375.076C734.393 389.691 706.231 381.244 711.896 352.377Z" fill="#DA0000"/>
<path fill-rule="evenodd" clip-rule="evenodd" d="M750.803 647.644L766.063 630.206L768.24 395.477L750.077 379.491L731.914 394.751L735.543 630.932L750.803 647.644Z" fill="#DA0000"/>
</g>
</g>
<defs>
<clipPath id="clip0_51_13">
<rect width="1500" height="1000" fill="white"/>
</clipPath>
<clipPath id="clip1_51_13">
<rect width="1750.09" height="1000" fill="white" transform="translate(-125)"/>
</clipPath>
</defs>
</svg>
