<svg width="1500" height="1000" viewBox="0 0 1500 1000" fill="none" xmlns="http://www.w3.org/2000/svg">
<g clip-path="url(#clip0_51_14)">
<rect width="1500" height="1000" fill="white"/>
<path d="M1625.01 0H-125V1000H1625.01V0Z" fill="white"/>
<path fill-rule="evenodd" clip-rule="evenodd" d="M545.077 536.994C545.221 536.803 551.715 525.436 550.942 527.267C553.935 529.559 559.399 527.387 555.435 522.231C556.398 520.147 557.61 518.556 558.58 516.472C560.755 512.395 556.095 510.637 554.246 513.456C553.117 515.616 552.026 516.904 550.896 519.064C545.016 516.275 544.637 522.837 547.449 523.982C546.198 525.747 544.076 528.662 542.826 530.429C543.576 532.617 544.327 534.806 545.077 536.994Z" fill="#9C4314"/>
<path fill-rule="evenodd" clip-rule="evenodd" d="M544.297 534.453C544.108 534.31 532.65 527.979 534.492 528.722C536.742 525.702 534.492 520.269 529.392 524.308C527.293 523.368 525.687 522.171 523.587 521.239C519.48 519.124 517.783 523.807 520.632 525.619C522.815 526.714 524.11 527.784 526.285 528.883C523.58 534.8 530.15 535.094 531.256 532.266C533.044 533.489 539.955 537.497 541.744 538.72C543.918 537.94 542.123 535.233 544.297 534.453Z" fill="#9C4314"/>
<path fill-rule="evenodd" clip-rule="evenodd" d="M585.748 603.909C585.786 603.671 586.081 590.584 586.278 592.561C589.999 593.151 593.765 588.64 587.824 585.996C587.68 583.703 587.991 581.726 587.847 579.432C587.817 574.807 582.876 575.483 582.603 578.843C582.641 581.281 582.293 582.93 582.33 585.369C575.829 585.715 578.617 591.67 581.633 591.339C581.383 593.487 580.898 597.059 580.641 599.207C582.346 600.775 584.043 602.342 585.748 603.909Z" fill="#9C4314"/>
<path fill-rule="evenodd" clip-rule="evenodd" d="M583.853 602.045C583.618 602.01 570.523 601.901 572.501 601.677C573.039 597.947 568.477 594.245 565.916 600.221C563.62 600.398 561.642 600.113 559.354 600.29C554.724 600.384 555.474 605.314 558.839 605.545C561.271 605.474 562.923 605.796 565.363 605.725C565.803 612.217 571.721 609.347 571.342 606.333C573.494 606.559 580.208 607.26 582.36 607.486C583.906 605.763 582.314 603.768 583.853 602.045Z" fill="#9C4314"/>
<path fill-rule="evenodd" clip-rule="evenodd" d="M719.297 646.911C719.297 646.911 723.783 652.972 725.806 653.196C732.088 653.644 781.927 653.196 781.927 653.196C781.927 653.121 783.715 652.149 783.715 652.074C785.367 649.978 785.215 648.781 786.86 646.686C789.482 644.067 793.217 643.244 795.839 640.625C807.062 637.931 817.163 635.238 828.393 633.442C827.491 626.783 820.755 628.205 817.163 625.586C816.042 624.538 816.269 623.49 816.943 622.442C825.248 618.626 833.554 614.811 841.859 610.995V608.301C824.195 610.396 807.888 613.837 788.883 614.586C767.256 623.49 745.629 632.394 724.01 641.299C722.434 643.17 720.865 645.04 719.297 646.911Z" fill="#42B2F3" stroke="black" stroke-width="0.93975"/>
<path d="M539.94 527.714H539.713C540.842 527.714 539.948 527.789 539.713 525.02" stroke="black" stroke-width="0.5012"/>
<path fill-rule="evenodd" clip-rule="evenodd" d="M540.902 530.698C537.538 518.798 532.089 508.379 519.397 505.295C517.017 504.749 515.32 497.952 519.291 498.27C521.534 499.164 519.336 497.846 521.579 498.74C523.799 499.536 527.262 497.785 525.838 493.996C525.838 493.549 521.594 486.025 521.594 485.805C520.806 484.941 522.276 480.122 526.088 482.66C527.884 483.842 529.68 486.608 532.271 487.146C533.218 486.995 533.847 484.032 533.688 481.743C533.688 481.524 533.916 473.991 533.916 473.991C533.014 469.445 537.03 467.133 540.258 470.528C540.478 471.65 540.228 471.657 540.455 472.786C541.19 474.287 542.092 474.522 543.145 473.006C544.57 471.589 545.987 470.165 547.412 468.74C549.942 467.8 551.526 466.861 551.678 472.112C551.678 472.112 548.184 476.492 546.533 478.076C545.669 479.349 543.805 481.076 547.048 482.024C547.268 482.024 551.678 482.66 551.678 482.66C554.694 483.918 555.012 487.23 552.792 487.533C552.792 487.533 550.435 490.276 546.313 492.564C545.04 493.587 543.994 494.807 545.108 496.209C547.487 497.134 546.73 496.247 550.791 496.247C554.216 495.459 553.898 503.847 547.707 503.279C545.858 503.719 543.41 503.537 542.41 506.5C541.956 508.803 541.849 513.229 541.849 514.35C541.463 519.7 542.251 527.107 542.251 527.332C542.698 531.148 541.349 529.8 540.902 530.698Z" fill="#008D00" stroke="#286726" stroke-width="1.73854"/>
<path fill-rule="evenodd" clip-rule="evenodd" d="M577.647 599.151C577.208 598.593 565.963 586.266 552.967 587.651C550.542 587.945 546.655 582.115 550.497 581.074C552.914 581.162 551.035 580.816 553.444 580.904C555.49 579.471 551.8 575.063 550.125 576.594C549.981 576.172 545.677 577.515 543.851 577.145C538.205 576.604 535.735 570.295 539.865 567.902C542.426 568.882 547.276 568.973 549.898 568.611C552.489 567.822 551.292 565.463 548.776 565.111C545.207 564.582 530.794 561.069 532.068 559.321C529.681 555.352 532.045 552.291 536.228 554.4C539.683 556.493 540.085 555.318 539.244 553.756C538.221 550.789 537.236 551.5 537.084 548.925C536.834 547.265 537.372 545.765 539.82 546.808C540.85 545.938 542.555 552.153 548.973 549.797C550.156 550.789 551.171 543.073 555.619 544.247C558.961 545.28 556.68 548.751 557.332 553.652C557.862 556.88 561.09 556.139 561.537 554.462C560.833 547.046 568.084 546.917 568.91 549.422C569.6 551.253 570.221 556.242 569.342 560.932C568.865 563.316 569.244 568.048 570.767 568.991C573.321 569.059 571.669 568.48 573.427 565.837C576.382 563.934 580.982 570.827 575.601 574.289C569.926 575.513 578.814 597.145 579.565 598.352C578.746 599.237 577.769 598.155 577.647 599.151Z" fill="#008D00" stroke="#286726" stroke-width="1.73854"/>
<path fill-rule="evenodd" clip-rule="evenodd" d="M647.377 657.013C647.377 656.772 645.619 643.8 646.126 645.722C649.893 645.722 652.909 640.677 646.627 638.995C646.126 636.754 646.126 634.752 645.619 632.509C644.869 627.945 640.095 629.387 640.345 632.749C640.769 635.152 640.678 636.834 641.102 639.237C634.737 640.597 638.42 646.043 641.353 645.242C641.436 647.403 641.519 651.007 641.603 653.169L647.377 657.013Z" fill="#9C4314"/>
<path fill-rule="evenodd" clip-rule="evenodd" d="M647.149 655.483C646.907 655.486 633.964 657.429 635.881 656.898C635.828 653.131 630.736 650.188 629.145 656.492C626.909 657.026 624.909 657.054 622.673 657.589C618.119 658.405 619.627 663.158 622.992 662.86C625.386 662.407 627.068 662.466 629.463 662.014C630.918 668.358 636.306 664.596 635.464 661.678C637.624 661.564 644.368 661.205 646.528 661.09C647.786 659.147 645.899 657.426 647.149 655.483Z" fill="#9C4314"/>
<path fill-rule="evenodd" clip-rule="evenodd" d="M642.731 584.542C674.413 603.246 682.559 600.53 681.233 592.244C682.756 592.244 683.082 593.566 687.583 590.252C686.954 602.505 700.299 609.549 708.43 608.071C715.772 608.544 714.825 618.251 714.825 618.251C715.272 628.183 711.931 632.197 712.378 642.13C712.264 642.13 712.15 640.946 712.037 640.946C703.012 638.799 685.219 638.546 678.558 637.108C709.096 616.274 655.067 615.704 650.24 614.994C646.588 614.52 649.195 610.969 651.324 610.022C668.131 606.708 635.525 590.789 636.373 588.895C634.38 587.711 636.51 586.764 636.51 586.764C638.745 585.313 640.503 585.994 642.731 584.542Z" fill="#33B1E9" stroke="black" stroke-width="0.986737"/>
<path fill-rule="evenodd" clip-rule="evenodd" d="M721.85 600.389C716.341 600.389 711.908 604.824 711.908 610.333C710.249 617.909 710.484 628.562 711.908 638.742C711.908 644.251 716.341 648.686 721.85 648.686C743.788 651.053 767.385 650.343 787.663 648.686C793.172 648.686 797.612 644.251 797.612 638.742C800.211 629.746 799.499 620.276 797.612 610.333C797.612 604.824 793.172 600.389 787.663 600.389C765.725 599.442 743.31 598.258 721.85 600.389Z" fill="#983D25" stroke="black" stroke-width="1.40963"/>
<path fill-rule="evenodd" clip-rule="evenodd" d="M647.747 329.954C642.738 334.289 637.737 338.623 632.728 342.957C626.56 345.685 619.854 349.08 624.681 363.607C621.869 382.248 636.888 385.196 650.028 381.308C652.21 376.481 652.908 373.147 655.098 368.32C649.285 367.426 646.179 369.464 640.904 369.101C637.282 368.525 637.017 365.797 638.358 364.008C644.034 361.197 649.172 358.515 654.848 355.696C654.719 354.847 654.582 355.476 654.446 354.627C649.755 357.037 646.406 357.84 641.443 359.856C637.51 361.242 636.396 356.188 637.957 353.953C637.957 353.953 648.149 339.335 648.149 339.206C648.997 336.13 648.406 330.954 647.747 329.954Z" fill="#268728" stroke="#000003" stroke-width="0.93975" stroke-linecap="round" stroke-linejoin="round"/>
<path fill-rule="evenodd" clip-rule="evenodd" d="M689.728 585.459C689.753 584.411 689.568 583.367 689.184 582.391C688.8 581.415 688.225 580.525 687.492 579.774C686.759 579.023 685.883 578.427 684.917 578.019C683.95 577.612 682.911 577.402 681.862 577.402C680.813 577.402 679.774 577.612 678.808 578.019C677.841 578.427 676.965 579.023 676.232 579.774C675.499 580.525 674.924 581.415 674.54 582.391C674.156 583.367 673.971 584.411 673.996 585.459C673.971 586.508 674.156 587.552 674.54 588.528C674.924 589.504 675.499 590.394 676.232 591.145C676.965 591.895 677.841 592.492 678.808 592.899C679.774 593.307 680.813 593.516 681.862 593.516C682.911 593.516 683.95 593.307 684.917 592.899C685.883 592.492 686.759 591.895 687.492 591.145C688.225 590.394 688.8 589.504 689.184 588.528C689.568 587.552 689.753 586.508 689.728 585.459Z" fill="white"/>
<path d="M689.728 585.459C689.753 584.411 689.568 583.367 689.184 582.391C688.8 581.415 688.225 580.525 687.492 579.774C686.759 579.023 685.883 578.427 684.917 578.019C683.95 577.612 682.911 577.402 681.862 577.402C680.813 577.402 679.774 577.612 678.808 578.019C677.841 578.427 676.965 579.023 676.232 579.774C675.499 580.525 674.924 581.415 674.54 582.391C674.156 583.367 673.971 584.411 673.996 585.459C673.971 586.508 674.156 587.552 674.54 588.528C674.924 589.504 675.499 590.394 676.232 591.145C676.965 591.895 677.841 592.492 678.808 592.899C679.774 593.307 680.813 593.516 681.862 593.516C682.911 593.516 683.95 593.307 684.917 592.899C685.883 592.492 686.759 591.895 687.492 591.145C688.225 590.394 688.8 589.504 689.184 588.528C689.568 587.552 689.753 586.508 689.728 585.459ZM689.728 585.459H681.862" stroke="black" stroke-width="0.93975"/>
<path fill-rule="evenodd" clip-rule="evenodd" d="M652.413 615.133C652.436 614.144 652.262 613.16 651.9 612.24C651.538 611.319 650.996 610.48 650.305 609.772C649.614 609.065 648.788 608.502 647.877 608.118C646.965 607.734 645.986 607.536 644.996 607.536C644.007 607.536 643.028 607.734 642.116 608.118C641.205 608.502 640.379 609.065 639.688 609.772C638.997 610.48 638.455 611.319 638.093 612.24C637.731 613.16 637.556 614.144 637.58 615.133C637.556 616.122 637.731 617.105 638.093 618.026C638.455 618.947 638.997 619.785 639.688 620.493C640.379 621.201 641.205 621.764 642.116 622.148C643.028 622.532 644.007 622.73 644.996 622.73C645.986 622.73 646.965 622.532 647.877 622.148C648.788 621.764 649.614 621.201 650.305 620.493C650.996 619.785 651.538 618.947 651.9 618.026C652.262 617.105 652.436 616.122 652.413 615.133Z" fill="white"/>
<path d="M652.413 615.133C652.436 614.144 652.262 613.16 651.9 612.24C651.538 611.319 650.996 610.48 650.305 609.772C649.614 609.065 648.788 608.502 647.877 608.118C646.965 607.734 645.986 607.536 644.996 607.536C644.007 607.536 643.028 607.734 642.116 608.118C641.205 608.502 640.379 609.065 639.688 609.772C638.997 610.48 638.455 611.319 638.093 612.24C637.731 613.16 637.556 614.144 637.58 615.133C637.556 616.122 637.731 617.105 638.093 618.026C638.455 618.947 638.997 619.785 639.688 620.493C640.379 621.201 641.205 621.764 642.116 622.148C643.028 622.532 644.007 622.73 644.996 622.73C645.986 622.73 646.965 622.532 647.877 622.148C648.788 621.764 649.614 621.201 650.305 620.493C650.996 619.785 651.538 618.947 651.9 618.026C652.262 617.105 652.436 616.122 652.413 615.133ZM652.413 615.133H644.996" stroke="black" stroke-width="0.939748"/>
<path fill-rule="evenodd" clip-rule="evenodd" d="M836.741 631.766C836.765 630.777 836.59 629.793 836.228 628.872C835.866 627.952 835.324 627.113 834.633 626.405C833.942 625.697 833.116 625.135 832.205 624.751C831.293 624.367 830.314 624.169 829.325 624.169C828.335 624.169 827.356 624.367 826.445 624.751C825.533 625.135 824.707 625.697 824.016 626.405C823.325 627.113 822.783 627.952 822.421 628.872C822.059 629.793 821.885 630.777 821.908 631.766C821.885 632.755 822.059 633.738 822.421 634.659C822.783 635.579 823.325 636.418 824.016 637.126C824.707 637.834 825.533 638.396 826.445 638.78C827.356 639.164 828.335 639.362 829.325 639.362C830.314 639.362 831.293 639.164 832.205 638.78C833.116 638.396 833.942 637.834 834.633 637.126C835.324 636.418 835.866 635.579 836.228 634.659C836.59 633.738 836.765 632.755 836.741 631.766Z" fill="white"/>
<path d="M836.741 631.766C836.765 630.777 836.59 629.793 836.228 628.872C835.866 627.952 835.324 627.113 834.633 626.405C833.942 625.697 833.116 625.135 832.205 624.751C831.293 624.367 830.314 624.169 829.325 624.169C828.335 624.169 827.356 624.367 826.445 624.751C825.533 625.135 824.707 625.697 824.016 626.405C823.325 627.113 822.783 627.952 822.421 628.872C822.059 629.793 821.885 630.777 821.908 631.766C821.885 632.755 822.059 633.738 822.421 634.659C822.783 635.579 823.325 636.418 824.016 637.126C824.707 637.834 825.533 638.396 826.445 638.78C827.356 639.164 828.335 639.362 829.325 639.362C830.314 639.362 831.293 639.164 832.205 638.78C833.116 638.396 833.942 637.834 834.633 637.126C835.324 636.418 835.866 635.579 836.228 634.659C836.59 633.738 836.765 632.755 836.741 631.766ZM836.741 631.766H829.325" stroke="black" stroke-width="0.930355"/>
<path fill-rule="evenodd" clip-rule="evenodd" d="M648.461 339.866C648.643 344.329 648.764 349.929 648.764 351.641C648.574 347.466 647.112 344.124 646.566 342.488C647.218 341.412 648.271 339.866 648.461 339.866Z" fill="#BA4600" stroke="black" stroke-width="0.5012" stroke-linejoin="round"/>
<path fill-rule="evenodd" clip-rule="evenodd" d="M721.204 640.76C721.228 639.771 721.053 638.788 720.691 637.867C720.329 636.947 719.787 636.108 719.096 635.4C718.405 634.692 717.579 634.129 716.668 633.745C715.756 633.361 714.777 633.164 713.788 633.164C712.798 633.164 711.819 633.361 710.907 633.745C709.996 634.129 709.17 634.692 708.479 635.4C707.788 636.108 707.246 636.947 706.884 637.867C706.522 638.788 706.348 639.771 706.371 640.76C706.348 641.749 706.522 642.733 706.884 643.653C707.246 644.574 707.788 645.413 708.479 646.121C709.17 646.829 709.996 647.391 710.907 647.775C711.819 648.159 712.798 648.357 713.788 648.357C714.777 648.357 715.756 648.159 716.668 647.775C717.579 647.391 718.405 646.829 719.096 646.121C719.787 645.413 720.329 644.574 720.691 643.653C721.053 642.733 721.228 641.749 721.204 640.76Z" fill="#973100"/>
<path d="M721.204 640.76C721.228 639.771 721.053 638.788 720.691 637.867C720.329 636.947 719.787 636.108 719.096 635.4C718.405 634.692 717.579 634.129 716.668 633.745C715.756 633.361 714.777 633.164 713.788 633.164C712.798 633.164 711.819 633.361 710.907 633.745C709.996 634.129 709.17 634.692 708.479 635.4C707.788 636.108 707.246 636.947 706.884 637.867C706.522 638.788 706.348 639.771 706.371 640.76C706.348 641.749 706.522 642.733 706.884 643.653C707.246 644.574 707.788 645.413 708.479 646.121C709.17 646.829 709.996 647.391 710.907 647.775C711.819 648.159 712.798 648.357 713.788 648.357C714.777 648.357 715.756 648.159 716.668 647.775C717.579 647.391 718.405 646.829 719.096 646.121C719.787 645.413 720.329 644.574 720.691 643.653C721.053 642.733 721.228 641.749 721.204 640.76ZM721.204 640.76H713.788" stroke="black" stroke-width="1.35325"/>
<path fill-rule="evenodd" clip-rule="evenodd" d="M799.428 640.76C799.452 639.771 799.278 638.788 798.916 637.867C798.554 636.947 798.011 636.108 797.32 635.4C796.629 634.692 795.804 634.129 794.892 633.745C793.981 633.361 793.001 633.164 792.012 633.164C791.023 633.164 790.044 633.361 789.132 633.745C788.22 634.129 787.395 634.692 786.704 635.4C786.013 636.108 785.47 636.947 785.108 637.867C784.746 638.788 784.572 639.771 784.596 640.76C784.572 641.749 784.746 642.733 785.108 643.653C785.47 644.574 786.013 645.413 786.704 646.121C787.395 646.829 788.22 647.391 789.132 647.775C790.044 648.159 791.023 648.357 792.012 648.357C793.001 648.357 793.981 648.159 794.892 647.775C795.804 647.391 796.629 646.829 797.32 646.121C798.011 645.413 798.554 644.574 798.916 643.653C799.278 642.733 799.452 641.749 799.428 640.76Z" fill="#973100"/>
<path d="M799.428 640.76C799.452 639.771 799.278 638.788 798.916 637.867C798.554 636.947 798.011 636.108 797.32 635.4C796.629 634.692 795.804 634.129 794.892 633.745C793.981 633.361 793.001 633.164 792.012 633.164C791.023 633.164 790.044 633.361 789.132 633.745C788.22 634.129 787.395 634.692 786.704 635.4C786.013 636.108 785.47 636.947 785.108 637.867C784.746 638.788 784.572 639.771 784.596 640.76C784.572 641.749 784.746 642.733 785.108 643.653C785.47 644.574 786.013 645.413 786.704 646.121C787.395 646.829 788.22 647.391 789.132 647.775C790.044 648.159 791.023 648.357 792.012 648.357C793.001 648.357 793.981 648.159 794.892 647.775C795.804 647.391 796.629 646.829 797.32 646.121C798.011 645.413 798.554 644.574 798.916 643.653C799.278 642.733 799.452 641.749 799.428 640.76ZM799.428 640.76H792.012" stroke="black" stroke-width="1.35325"/>
<path fill-rule="evenodd" clip-rule="evenodd" d="M799.428 604.789C799.452 603.8 799.278 602.816 798.916 601.896C798.554 600.975 798.011 600.136 797.32 599.429C796.629 598.721 795.804 598.158 794.892 597.774C793.981 597.39 793.001 597.192 792.012 597.192C791.023 597.192 790.044 597.39 789.132 597.774C788.22 598.158 787.395 598.721 786.704 599.429C786.013 600.136 785.47 600.975 785.108 601.896C784.746 602.816 784.572 603.8 784.596 604.789C784.572 605.778 784.746 606.762 785.108 607.682C785.47 608.603 786.013 609.442 786.704 610.15C787.395 610.857 788.22 611.42 789.132 611.804C790.044 612.188 791.023 612.386 792.012 612.386C793.001 612.386 793.981 612.188 794.892 611.804C795.804 611.42 796.629 610.857 797.32 610.15C798.011 609.442 798.554 608.603 798.916 607.682C799.278 606.762 799.452 605.778 799.428 604.789Z" fill="#973100"/>
<path d="M799.428 604.789C799.452 603.8 799.278 602.816 798.916 601.896C798.554 600.975 798.011 600.136 797.32 599.429C796.629 598.721 795.804 598.158 794.892 597.774C793.981 597.39 793.001 597.192 792.012 597.192C791.023 597.192 790.044 597.39 789.132 597.774C788.22 598.158 787.395 598.721 786.704 599.429C786.013 600.136 785.47 600.975 785.108 601.896C784.746 602.816 784.572 603.8 784.596 604.789C784.572 605.778 784.746 606.762 785.108 607.682C785.47 608.603 786.013 609.442 786.704 610.15C787.395 610.857 788.22 611.42 789.132 611.804C790.044 612.188 791.023 612.386 792.012 612.386C793.001 612.386 793.981 612.188 794.892 611.804C795.804 611.42 796.629 610.857 797.32 610.15C798.011 609.442 798.554 608.603 798.916 607.682C799.278 606.762 799.452 605.778 799.428 604.789ZM799.428 604.789H792.012" stroke="black" stroke-width="1.35325"/>
<path fill-rule="evenodd" clip-rule="evenodd" d="M721.651 604.789C721.675 603.8 721.501 602.816 721.139 601.896C720.777 600.975 720.234 600.136 719.543 599.429C718.852 598.721 718.026 598.158 717.115 597.774C716.203 597.39 715.224 597.192 714.235 597.192C713.246 597.192 712.266 597.39 711.355 597.774C710.443 598.158 709.618 598.721 708.927 599.429C708.236 600.136 707.693 600.975 707.331 601.896C706.969 602.816 706.795 603.8 706.819 604.789C706.795 605.778 706.969 606.762 707.331 607.682C707.693 608.603 708.236 609.442 708.927 610.15C709.618 610.857 710.443 611.42 711.355 611.804C712.266 612.188 713.246 612.386 714.235 612.386C715.224 612.386 716.203 612.188 717.115 611.804C718.026 611.42 718.852 610.857 719.543 610.15C720.234 609.442 720.777 608.603 721.139 607.682C721.501 606.762 721.675 605.778 721.651 604.789Z" fill="#973100"/>
<path d="M721.651 604.789C721.675 603.8 721.501 602.816 721.139 601.896C720.777 600.975 720.234 600.136 719.543 599.429C718.852 598.721 718.026 598.158 717.115 597.774C716.203 597.39 715.224 597.192 714.235 597.192C713.246 597.192 712.266 597.39 711.355 597.774C710.443 598.158 709.618 598.721 708.927 599.429C708.236 600.136 707.693 600.975 707.331 601.896C706.969 602.816 706.795 603.8 706.819 604.789C706.795 605.778 706.969 606.762 707.331 607.682C707.693 608.603 708.236 609.442 708.927 610.15C709.618 610.857 710.443 611.42 711.355 611.804C712.266 612.188 713.246 612.386 714.235 612.386C715.224 612.386 716.203 612.188 717.115 611.804C718.026 611.42 718.852 610.857 719.543 610.15C720.234 609.442 720.777 608.603 721.139 607.682C721.501 606.762 721.675 605.778 721.651 604.789ZM721.651 604.789H714.235" stroke="black" stroke-width="1.35325"/>
<path fill-rule="evenodd" clip-rule="evenodd" d="M648.482 661.038C648.043 660.479 644.716 651.036 625.885 650.625C623.233 650.47 621.551 651.232 616.186 650.86C613.079 651.116 614.299 647.411 615.534 646.078C617.573 644.645 608.26 645.344 605.054 645.723C601.826 645.538 599.651 644.988 597.825 644.617C592.18 644.076 588.876 640.111 592.998 637.718C594.733 636.019 601.758 637.952 604.38 637.589C606.971 636.801 606.608 632.433 604.092 632.08C600.523 631.552 584.935 630.383 586.208 628.635C583.829 624.666 584.519 622.61 590.71 623.379C594.158 625.472 594.059 622.79 593.218 621.228C592.195 618.261 586.527 617.801 586.375 615.225C585.451 609.046 589.505 608.215 591.952 609.258C592.991 608.388 587.322 603.554 593.741 601.199C595.332 600.698 598.613 601.088 599.72 606.949C603.061 607.981 600.75 603.103 605.282 601.12C609.161 599.493 605.024 618.506 609.654 618.336C613.64 619.959 612.852 607.944 616.194 610.282C623.407 608.431 619.914 633.343 623.059 631.839C628.272 636.399 628.818 627.738 630.341 628.681C632.887 628.749 634.592 628.84 633.168 634.568C632.107 639.026 633.69 640.059 634.501 641.847C639.381 652.594 646.701 652.494 649.141 657.44C649.929 664.754 648.603 660.041 648.482 661.038Z" fill="#008D00" stroke="#286726" stroke-width="1.73854"/>
<path fill-rule="evenodd" clip-rule="evenodd" d="M738.657 677.569C729.655 684.97 720.304 689.759 716.879 697.458C720.978 696.905 722.562 696.215 725.624 696.602C728.943 689.183 739.37 685.227 745.523 679.226C743.234 678.673 740.946 678.119 738.657 677.569Z" fill="#009400" stroke="black" stroke-width="0.93975"/>
<path fill-rule="evenodd" clip-rule="evenodd" d="M762.74 678.362C770.886 685.879 780.972 690.176 784.526 698.125C780.419 697.572 778.707 697.011 776.259 697.64C772.948 690.229 762.028 685.895 755.875 679.893C758.163 679.347 760.452 678.915 762.74 678.362Z" fill="#009400" stroke="black" stroke-width="0.93975"/>
<path fill-rule="evenodd" clip-rule="evenodd" d="M756.586 679.893C766.452 685.819 770.385 690.078 776.462 697.655C773.545 697.83 769.445 699.148 767.953 700.019C760.61 690.472 754.927 687.077 748.773 681.083C751.062 680.53 754.298 680.446 756.586 679.893Z" fill="white" stroke="black" stroke-width="0.93975"/>
<path fill-rule="evenodd" clip-rule="evenodd" d="M663.464 359.386C659.516 360.469 657.804 363.804 657.447 366.91C642.891 377.102 653.469 397.183 666.973 393.008C656.985 378.05 666.973 369.601 678.081 374.844C681.446 377.315 683.795 382.468 684.113 382.149C686.228 377.565 694.593 373.571 694.593 373.571C694.593 373.571 701.33 374.481 702.542 370.123C703.308 367.335 709.514 355.794 709.514 355.794C702.315 354.316 695.116 352.839 687.925 351.353C682.946 351.247 677.975 351.141 673.004 351.035C670.36 352.202 667.715 353.362 665.063 354.528C664.01 356.218 664.525 357.688 663.464 359.386Z" fill="#FFBA00" stroke="black" stroke-opacity="0.77245" stroke-width="0.93975"/>
<path fill-rule="evenodd" clip-rule="evenodd" d="M748.54 680.37C758.406 686.289 762.93 691.828 769 699.406C766.332 700.194 765.423 704.596 763.93 705.468C759.194 695.912 751.359 687.781 743.076 679.651C745.365 679.097 746.251 680.924 748.54 680.37Z" fill="#D40000" stroke="black" stroke-width="0.93975"/>
<path fill-rule="evenodd" clip-rule="evenodd" d="M744.811 679.226C734.945 685.144 731.505 688.91 725.428 696.488C728.353 696.67 731.952 698.481 733.453 699.352C740.788 689.805 746.471 686.41 752.624 680.408C750.336 679.855 747.1 679.779 744.811 679.226Z" fill="white" stroke="black" stroke-width="0.93975"/>
<path fill-rule="evenodd" clip-rule="evenodd" d="M752.858 679.703C742.999 685.622 738.847 691.525 732.77 699.102C737.657 702.603 736.467 702.823 737.475 704.793C742.211 695.245 752.623 687.357 760.913 679.226C758.625 678.673 755.146 680.257 752.858 679.703Z" fill="#D40000" stroke="black" stroke-width="0.93975"/>
<path fill-rule="evenodd" clip-rule="evenodd" d="M642.217 588.204C642.785 586.147 641.992 583.737 640.013 581.505C638.033 579.272 635.029 577.4 631.662 576.3C628.294 575.2 624.839 574.962 622.056 575.639C619.273 576.315 617.391 577.851 616.823 579.908C616.255 581.965 617.047 584.375 619.027 586.607C621.006 588.84 624.01 590.712 627.378 591.812C630.745 592.912 634.2 593.15 636.983 592.474C639.766 591.797 641.649 590.261 642.217 588.204Z" fill="#973000"/>
<path d="M642.217 588.204C642.785 586.147 641.992 583.737 640.013 581.505C638.033 579.272 635.029 577.4 631.662 576.3C628.294 575.2 624.839 574.962 622.056 575.639C619.273 576.315 617.391 577.851 616.823 579.908C616.255 581.965 617.047 584.375 619.027 586.607C621.006 588.84 624.01 590.712 627.378 591.812C630.745 592.912 634.2 593.15 636.983 592.474C639.766 591.797 641.649 590.261 642.217 588.204ZM642.217 588.204L629.52 584.056" stroke="black" stroke-width="0.954374"/>
<path fill-rule="evenodd" clip-rule="evenodd" d="M736.832 667.28C729.717 672.389 719.661 679.218 712.553 684.326C711.091 685.576 717.479 686.88 719.82 685.735C727.33 680.582 731.278 677.206 738.787 672.052C740.219 671.254 741.644 670.454 743.076 669.655C740.015 669.436 739.893 667.5 736.832 667.28Z" fill="#008D2B" stroke="#005E00" stroke-width="0.93975"/>
<path fill-rule="evenodd" clip-rule="evenodd" d="M685.524 634.546C684.769 632.857 682.909 631.683 680.353 631.282C677.797 630.881 674.755 631.287 671.896 632.409C669.037 633.532 666.595 635.279 665.107 637.267C663.619 639.256 663.207 641.322 663.963 643.011C664.718 644.7 666.578 645.874 669.134 646.275C671.69 646.676 674.732 646.27 677.591 645.148C680.45 644.025 682.892 642.278 684.38 640.289C685.868 638.301 686.279 636.235 685.524 634.546Z" fill="#973000"/>
<path d="M685.524 634.546C684.769 632.857 682.909 631.683 680.353 631.282C677.797 630.881 674.755 631.287 671.896 632.409C669.037 633.532 666.595 635.279 665.107 637.267C663.619 639.256 663.207 641.322 663.963 643.011C664.718 644.7 666.578 645.874 669.134 646.275C671.69 646.676 674.732 646.27 677.591 645.148C680.45 644.025 682.892 642.278 684.38 640.289C685.868 638.301 686.279 636.235 685.524 634.546ZM685.524 634.546L674.743 638.778" stroke="black" stroke-width="0.940237"/>
<path fill-rule="evenodd" clip-rule="evenodd" d="M809.357 588.542C809.729 569.03 826.832 586.114 833.553 578.075C849.337 559.472 850.686 558.056 864.637 560.073C902.01 574.761 863 608.725 824.801 593.259C820.603 590.953 813.548 590.848 809.357 588.542Z" fill="#008D00" stroke="black" stroke-width="0.987715"/>
<path fill-rule="evenodd" clip-rule="evenodd" d="M950.317 524.243C950.557 523.195 950.281 522.048 949.552 521.052C948.823 520.056 947.699 519.294 946.428 518.933C945.158 518.571 943.844 518.641 942.776 519.126C941.708 519.611 940.973 520.472 940.734 521.519C940.494 522.566 940.769 523.714 941.499 524.709C942.228 525.705 943.352 526.468 944.623 526.829C945.893 527.19 947.207 527.12 948.275 526.635C949.343 526.15 950.078 525.29 950.317 524.243Z" fill="#6D390B"/>
<path d="M958.15 531.141L949.057 523.251L946.662 526.012L955.755 533.901L958.15 531.141Z" fill="#6D390B"/>
<path fill-rule="evenodd" clip-rule="evenodd" d="M893.879 552.127L895.864 554.909L902.722 548.932L900.737 546.151L893.879 552.127Z" fill="#6D390B"/>
<path d="M721.85 600.152C733.451 603.704 741.976 645.845 753.335 649.633" stroke="black" stroke-width="1.40963" stroke-linecap="round"/>
<path d="M732.975 599.916C744.576 603.467 752.866 645.608 764.225 649.396" stroke="black" stroke-width="1.40963" stroke-linecap="round"/>
<path d="M743.863 599.442C755.465 602.994 763.99 645.372 775.356 649.159" stroke="black" stroke-width="1.40963" stroke-linecap="round"/>
<path fill-rule="evenodd" clip-rule="evenodd" d="M855.038 605.19C854.283 603.5 852.423 602.326 849.867 601.925C847.311 601.525 844.269 601.93 841.41 603.053C838.55 604.175 836.108 605.923 834.621 607.911C833.133 609.899 832.721 611.965 833.476 613.654C834.232 615.344 836.092 616.518 838.647 616.919C841.203 617.319 844.245 616.914 847.105 615.791C849.964 614.669 852.406 612.921 853.894 610.933C855.382 608.945 855.793 606.879 855.038 605.19Z" fill="#973000"/>
<path d="M855.038 605.19C854.283 603.5 852.423 602.326 849.867 601.925C847.311 601.525 844.269 601.93 841.41 603.053C838.55 604.175 836.108 605.923 834.621 607.911C833.133 609.899 832.721 611.965 833.476 613.654C834.232 615.344 836.092 616.518 838.647 616.919C841.203 617.319 844.245 616.914 847.105 615.791C849.964 614.669 852.406 612.921 853.894 610.933C855.382 608.945 855.793 606.879 855.038 605.19ZM855.038 605.19L844.257 609.422" stroke="black" stroke-width="0.827508"/>
<path fill-rule="evenodd" clip-rule="evenodd" d="M899.335 561.802C899.919 564.052 898.911 566.97 894.948 567.992C890.992 569.015 887.271 567.473 886.695 565.223C886.112 562.972 888.408 559.737 892.364 558.714C896.319 557.692 898.752 559.551 899.335 561.802Z" fill="#DC0000" stroke="black" stroke-width="0.897461"/>
<path fill-rule="evenodd" clip-rule="evenodd" d="M725.124 669.669C719.259 670.86 705.877 673.759 700.042 685.455C698.989 687.653 690.184 689.358 691.381 685.561C692.752 683.576 693.245 683.401 694.624 681.409C694.511 678.923 688.812 679.658 689.206 681.886C688.767 681.787 686.008 682.318 684.713 683.659C681.212 688.122 675.24 687.925 675.453 683.159C677.658 681.53 678.779 679.961 679.886 677.555C680.613 674.947 675.513 674.013 673.861 675.939C670.368 677.764 668.178 680.386 664.018 682.409C659.395 684.076 654.947 681.105 658.979 678.718C662.601 676.942 659.577 672.827 657.812 672.693C654.758 671.956 642.262 674.066 640.012 672.806C638.246 672.574 635.033 667.944 638.799 667.118C642.217 666.003 647.915 668.368 649.393 661.693C650.863 650.452 668.701 667.443 665.806 662.751C659.274 653.088 670.398 650.818 673.755 657.399C675.119 660.37 681.916 664.775 683.887 663.947C687.584 664.356 677.014 654.587 685.41 652.994C687.319 653.401 690.737 653.546 693.093 656.811C694.844 658.498 695.215 665.442 701.77 666.017C703.202 663.903 701.823 664.979 700.542 662.076C700.535 658.559 706.354 658.846 708.84 664.797C711.303 669.342 724.298 666.255 736.188 666.529C739.999 665.906 746.13 669.255 725.124 669.669Z" fill="#008D00" stroke="#286026" stroke-width="1.73854"/>
<path fill-rule="evenodd" clip-rule="evenodd" d="M886.174 561.385C888.265 564.599 888.22 569.692 882.567 573.372C876.914 577.053 870.291 576.594 868.2 573.38C866.108 570.165 867.995 563.901 873.648 560.22C879.301 556.541 884.083 558.171 886.174 561.385Z" fill="#DC0000" stroke="black" stroke-width="0.93975"/>
<path fill-rule="evenodd" clip-rule="evenodd" d="M890.219 548.059C892.174 549.309 893.425 552.131 891.227 555.577C889.03 559.024 885.256 560.429 883.301 559.179C881.338 557.928 880.815 553.999 883.013 550.551C885.21 547.106 888.257 546.809 890.219 548.059Z" fill="#DC0000" stroke="black" stroke-width="0.897461"/>
<path fill-rule="evenodd" clip-rule="evenodd" d="M896.176 553.904C897.441 555.851 897.419 558.938 893.993 561.168C890.561 563.399 886.552 563.121 885.287 561.173C884.014 559.225 885.158 555.428 888.583 553.197C892.008 550.967 894.91 551.955 896.176 553.904Z" fill="#DC0000" stroke="black" stroke-width="0.897461"/>
<path fill-rule="evenodd" clip-rule="evenodd" d="M908.922 542.364C909.877 543.829 909.854 546.152 907.278 547.83C904.701 549.509 901.686 549.3 900.731 547.833C899.776 546.368 900.632 543.511 903.209 541.832C905.793 540.155 907.967 540.898 908.922 542.364Z" fill="#D90000" stroke="black" stroke-width="0.675267"/>
<path fill-rule="evenodd" clip-rule="evenodd" d="M746.023 660.697C740.983 661.288 738.111 661.599 737.142 665.248C736.604 667.726 737.035 670.963 737.46 673.744C737.46 676.938 741.491 679.052 746.189 679.961H754.26C757.662 679.961 763.951 676.634 763.951 673.441C764.452 671.636 764.436 668.723 764.436 666.749C764.436 661.379 760.648 661.048 755.904 660.545L746.023 660.697Z" fill="white" stroke="black" stroke-width="0.93975"/>
<path fill-rule="evenodd" clip-rule="evenodd" d="M925.313 597.265C924.759 578.627 919.849 551.618 942.726 542.355C945.682 541.585 946.742 543.249 945.742 545.704C938.93 562.891 932.125 580.078 925.313 597.265Z" fill="#008F00" stroke="#286326" stroke-width="1.55059"/>
<path fill-rule="evenodd" clip-rule="evenodd" d="M954.88 559.314C958.949 551.653 969.012 549.724 972.566 549.961C965.542 557.142 958.517 574.741 954.577 580.501C948.893 590.287 932.321 597.231 922.379 602.993C933.503 587.84 943.748 574.466 954.88 559.314Z" fill="#008C00" stroke="#286326" stroke-width="1.55059"/>
<path fill-rule="evenodd" clip-rule="evenodd" d="M746.456 660.604C746.456 660.604 741.401 661.502 741.295 661.502C741.182 661.502 737.363 663.971 737.363 663.971C737.363 663.971 736.582 668.797 736.582 668.909C736.582 669.021 737.476 674.409 737.476 674.409L739.833 677.664L746.009 679.795L746.456 660.604Z" fill="#009400" stroke="black" stroke-width="0.5012"/>
<path fill-rule="evenodd" clip-rule="evenodd" d="M922.303 602.957C922.97 602.287 935.397 543.701 956.122 536.762C959.464 541.115 957.85 550.576 956.516 555.598C950.151 577.473 934.692 592.466 922.303 602.957Z" fill="#008D00" stroke="#286326" stroke-width="1.55059"/>
<path fill-rule="evenodd" clip-rule="evenodd" d="M968.042 530.863C968.472 529.879 969.375 529.119 970.553 528.751C971.731 528.384 973.088 528.438 974.325 528.903C975.562 529.368 976.577 530.204 977.148 531.229C977.719 532.254 977.798 533.382 977.369 534.367C976.939 535.351 976.036 536.111 974.858 536.479C973.679 536.846 972.322 536.792 971.086 536.327C969.849 535.862 968.833 535.026 968.263 534.001C967.692 532.976 967.613 531.848 968.042 530.863Z" fill="#6D390B"/>
<path d="M957.643 531.757L969.645 530.814L969.931 534.458L957.929 535.4L957.643 531.757Z" fill="#6D390B"/>
<path fill-rule="evenodd" clip-rule="evenodd" d="M917.463 590.844C918.081 589.849 918.219 588.559 917.847 587.257C917.474 585.956 916.621 584.749 915.476 583.902C914.331 583.055 912.987 582.639 911.74 582.743C910.493 582.848 909.445 583.465 908.827 584.459C908.209 585.454 908.071 586.744 908.443 588.046C908.816 589.348 909.669 590.554 910.814 591.401C911.959 592.248 913.303 592.665 914.55 592.56C915.797 592.455 916.845 591.838 917.463 590.844Z" fill="#6D390B"/>
<path d="M922.836 600.897L916.557 589.35L913.157 591.315L919.436 602.862L922.836 600.897Z" fill="#6D390B"/>
<path fill-rule="evenodd" clip-rule="evenodd" d="M932.382 607.001C932.918 608.042 933.955 608.822 935.263 609.17C936.572 609.518 938.045 609.405 939.359 608.856C940.674 608.307 941.721 607.367 942.271 606.243C942.821 605.119 942.828 603.903 942.292 602.862C941.755 601.821 940.719 601.041 939.41 600.693C938.101 600.345 936.628 600.458 935.314 601.007C934 601.556 932.952 602.496 932.403 603.62C931.853 604.744 931.845 605.96 932.382 607.001Z" fill="#6D390B"/>
<path d="M920.995 606.458L934.129 606.99L934.186 603.063L921.052 602.531L920.995 606.458Z" fill="#6D390B"/>
<path fill-rule="evenodd" clip-rule="evenodd" d="M913.294 620.416C926.024 613.517 918.045 623.196 917.257 628.495C913.491 641.572 909.975 641.656 905.557 643.884C898.957 649.902 877.822 646.983 867.994 649.463C880.308 640.523 900.98 629.356 913.294 620.416Z" fill="#008C00" stroke="#286326" stroke-width="1.26148"/>
<path fill-rule="evenodd" clip-rule="evenodd" d="M894.236 617.383C899.548 613.165 900.419 603.85 900.071 600.623C895.251 607.505 882.922 615.065 878.967 619.044C872.2 624.869 868.047 640.452 864.402 649.906C874.761 638.759 883.877 628.531 894.236 617.383Z" fill="#008C00" stroke="#286326" stroke-width="1.26148"/>
<path fill-rule="evenodd" clip-rule="evenodd" d="M828.037 670.889C836.364 668.446 850.55 674.598 852.869 677.303C842.821 677.301 826.544 684.28 819.663 685.485C808.698 688.259 778.274 671.097 767.377 668.645C785.563 667.729 809.418 673.524 828.037 670.889Z" fill="#008C00" stroke="#286326" stroke-width="1.55059"/>
<path fill-rule="evenodd" clip-rule="evenodd" d="M764.656 669.12C771.772 674.229 781.827 681.06 788.935 686.167C790.398 687.41 784.002 688.721 781.661 687.577C774.159 682.424 770.211 679.044 762.701 673.892C761.269 673.093 759.844 672.294 758.412 671.495C761.474 671.275 761.595 669.339 764.656 669.12Z" fill="#00602B" stroke="#004500" stroke-width="0.93975"/>
<path fill-rule="evenodd" clip-rule="evenodd" d="M863.35 649.475C864.206 649.152 898.101 603.385 919.175 605.278C920.44 610.301 915.318 617.841 912.165 621.66C897.987 638.093 878.422 645.14 863.35 649.475Z" fill="#008C00" stroke="#286326" stroke-width="1.48086"/>
<path fill-rule="evenodd" clip-rule="evenodd" d="M859.186 642.747C860.2 642.161 860.93 641.088 861.215 639.765C861.499 638.441 861.316 636.975 860.705 635.688C860.094 634.402 859.105 633.401 857.956 632.905C856.806 632.41 855.591 632.461 854.577 633.046C853.563 633.632 852.834 634.705 852.549 636.029C852.264 637.352 852.448 638.819 853.059 640.105C853.67 641.391 854.659 642.392 855.808 642.888C856.957 643.383 858.172 643.333 859.186 642.747Z" fill="#6D390B"/>
<path d="M859.19 654.146L859.092 641.002L855.167 641.134L855.264 654.278L859.19 654.146Z" fill="#6D390B"/>
<path fill-rule="evenodd" clip-rule="evenodd" d="M868.043 661.519C867.975 662.688 868.471 663.887 869.42 664.853C870.369 665.818 871.695 666.471 873.105 666.667C874.516 666.864 875.896 666.588 876.941 665.9C877.987 665.213 878.612 664.169 878.68 663C878.748 661.831 878.253 660.632 877.304 659.667C876.354 658.701 875.029 658.048 873.618 657.852C872.207 657.655 870.828 657.931 869.782 658.619C868.737 659.307 868.111 660.35 868.043 661.519Z" fill="#6D390B"/>
<path d="M858.521 655.255L869.555 662.398L871.602 659.047L860.568 651.904L858.521 655.255Z" fill="#6D390B"/>
<path fill-rule="evenodd" clip-rule="evenodd" d="M580.466 495.307C581.458 493.83 583.747 492.852 586.604 494.451C589.453 496.05 590.658 498.846 589.665 500.331C588.672 501.809 585.467 502.256 582.61 500.665C579.761 499.066 579.473 496.792 580.466 495.307Z" fill="#DC0000" stroke="black" stroke-width="0.701956"/>
<path fill-rule="evenodd" clip-rule="evenodd" d="M822.224 664.774C836.22 661.072 835.387 654.331 841.934 648.435C826.786 646.22 814.715 651.579 808.243 655.137C798.029 661.726 795.384 668.879 786.533 673.806C801.62 671.879 808.425 669.711 822.224 664.774Z" fill="#008C00" stroke="#286326" stroke-width="1.26148"/>
<path fill-rule="evenodd" clip-rule="evenodd" d="M776.568 668.87C816.609 671.89 810.229 655.635 854.111 656.036C853.459 661.175 845.086 667.622 840.759 670.035C821.572 680.181 790.042 684.94 776.568 668.87Z" fill="#008C00" stroke="#286326" stroke-width="1.48086"/>
<path fill-rule="evenodd" clip-rule="evenodd" d="M756.223 660.492L756.329 679.347L761.497 677.327C761.497 677.327 763.626 673.96 763.626 673.735C763.626 673.511 764.528 669.133 764.528 669.021C764.528 668.909 764.073 663.634 764.073 663.634L760.148 661.052L756.223 660.492Z" fill="#D40000" stroke="black" stroke-width="0.5012"/>
<path d="M583.124 478.365L589.531 485.405L591.711 483.559L585.303 476.519L583.124 478.365Z" fill="#6D390B"/>
<path fill-rule="evenodd" clip-rule="evenodd" d="M581.465 489.738C582.556 487.851 585.057 486.608 588.179 488.647C591.301 490.685 592.619 494.254 591.536 496.148C590.452 498.043 586.936 498.611 583.814 496.573C580.692 494.534 580.381 491.632 581.465 489.738Z" fill="#DC0000" stroke="black" stroke-width="0.829724"/>
<path fill-rule="evenodd" clip-rule="evenodd" d="M599.106 481.849C600.933 481.917 602.91 483.539 602.804 487.207C602.706 490.874 600.72 493.678 598.894 493.61C597.068 493.534 595.136 490.73 595.234 487.063C595.34 483.387 597.28 481.773 599.106 481.849Z" fill="#DC0000" stroke="black" stroke-width="0.754243"/>
<path fill-rule="evenodd" clip-rule="evenodd" d="M590.127 483.312C592.196 482.766 594.894 483.691 595.864 487.328C596.834 490.973 595.439 494.398 593.37 494.936C591.302 495.482 588.309 493.383 587.331 489.738C586.361 486.1 588.059 483.857 590.127 483.312Z" fill="#DC0000" stroke="black" stroke-width="0.826567"/>
<path fill-rule="evenodd" clip-rule="evenodd" d="M641.701 541.704C635.465 525.831 618.422 499.483 601.069 512.183C581.814 528.795 609.852 554.932 633.767 553.451C636.412 549.535 639.056 545.62 641.701 541.704Z" fill="#008D00" stroke="black" stroke-width="0.93975" stroke-linecap="round" stroke-linejoin="round"/>
<path fill-rule="evenodd" clip-rule="evenodd" d="M592.15 495.179C595.484 492.936 600.834 492.883 604.805 498.71C608.776 504.537 608.42 511.448 605.085 513.691C601.751 515.934 595.136 514.085 591.165 508.258C587.187 502.438 588.808 497.422 592.15 495.179Z" fill="#DC0000" stroke="black" stroke-width="0.983655"/>
<path fill-rule="evenodd" clip-rule="evenodd" d="M579.814 468.664C581.338 467.641 583.778 467.618 585.589 470.278C587.4 472.938 587.241 476.09 585.717 477.113C584.194 478.136 581.178 477.295 579.367 474.635C577.556 471.976 578.299 469.687 579.814 468.664Z" fill="#DC0000" stroke="black" stroke-width="0.706805"/>
<path fill-rule="evenodd" clip-rule="evenodd" d="M694.723 560.591C686.872 546.636 665.473 529.184 643.664 540.349C617.877 558.447 654.068 585.554 691.1 572.188C694.42 568.745 691.396 564.034 694.723 560.591Z" fill="#008D00" stroke="black" stroke-width="0.987715"/>
<path fill-rule="evenodd" clip-rule="evenodd" d="M767.416 568.844C759.573 554.889 717.532 539.024 699.217 552.411C676.294 578.128 709.939 596.029 755.223 583.298C758.55 579.856 764.089 572.287 767.416 568.844Z" fill="#008D00" stroke="black" stroke-width="0.987715"/>
<path d="M604.139 516.715C604.366 516.715 608.852 522.33 608.852 522.33L608.625 514.472" stroke="black" stroke-width="0.93975" stroke-linecap="round" stroke-linejoin="round"/>
<path d="M611.996 527.714L616.709 532.428" stroke="black" stroke-width="0.93975" stroke-linecap="round" stroke-linejoin="round"/>
<path d="M628.607 524.573L629.055 529.959L631.972 529.735" stroke="black" stroke-width="0.93975" stroke-linecap="round" stroke-linejoin="round"/>
<path d="M628.607 542.53C627.485 541.857 623.666 538.713 623.666 538.713" stroke="black" stroke-width="0.93975" stroke-linecap="round" stroke-linejoin="round"/>
<path d="M617.604 542.979L611.322 540.958" stroke="black" stroke-width="0.93975" stroke-linecap="round" stroke-linejoin="round"/>
<path d="M605.707 531.081L599.652 529.061" stroke="black" stroke-width="0.93975"/>
<path d="M594.264 527.49H589.096" stroke="black" stroke-width="0.93975" stroke-linecap="round" stroke-linejoin="round"/>
<path d="M618.506 510.432V503.696" stroke="black" stroke-width="0.5012" stroke-linecap="round" stroke-linejoin="round"/>
<path d="M609.526 546.795C608.852 546.795 600.1 546.346 600.1 546.346" stroke="black" stroke-width="0.93975" stroke-linecap="round" stroke-linejoin="round"/>
<path d="M625.242 552.855L618.506 555.1" stroke="black" stroke-width="0.93975" stroke-linecap="round" stroke-linejoin="round"/>
<path d="M635.344 528.837C635.564 528.612 640.951 525.921 640.951 525.921" stroke="black" stroke-width="0.93975" stroke-linecap="round" stroke-linejoin="round"/>
<path d="M620.073 521.2C620.073 520.981 618.277 513.797 618.277 513.797" stroke="black" stroke-width="0.93975" stroke-linecap="round" stroke-linejoin="round"/>
<path d="M745.909 660.585C740.87 661.176 737.998 661.488 737.028 665.136C736.49 667.614 736.922 670.851 737.354 673.632C738.248 678.287 741.378 678.938 746.076 679.855H754.146C757.548 679.855 763.057 677.645 763.952 673.441C764.565 671.3 764.323 668.611 764.323 666.637C763.876 661.716 760.534 660.936 755.79 660.434L745.909 660.585Z" stroke="black" stroke-width="0.93975"/>
<path d="M746.464 660.592L746.305 679.317" stroke="black" stroke-width="0.93975"/>
<path d="M756.306 660.592L756.146 679.317" stroke="black" stroke-width="0.93975"/>
<path fill-rule="evenodd" clip-rule="evenodd" d="M958.858 500.422C961.821 490.685 951.568 488.381 949.287 482.918C944.604 492.072 946.249 501.4 947.075 506.31C948.992 514.275 956.054 519.776 957.229 526.505C959.29 516.465 958.964 510.304 958.858 500.422Z" fill="#008C00" stroke="#286326" stroke-width="0.844422"/>
<path fill-rule="evenodd" clip-rule="evenodd" d="M972.423 491.382C972.628 486.055 979.577 482.236 982.373 481.395C980.637 491.761 983.759 496.626 982.933 500.877C982.312 507.81 969.604 518.412 964.209 524.3C966.945 512.918 969.688 502.756 972.423 491.382Z" fill="#008C00" stroke="#286326" stroke-width="1.12214"/>
<path fill-rule="evenodd" clip-rule="evenodd" d="M957.79 532.909C958.123 532.272 952.501 483.388 966.595 473.241C970.293 475.416 971.498 482.41 971.771 486.245C972.551 503.097 973.104 511.66 957.79 532.909Z" fill="#008C00" stroke="#286326" stroke-width="1.201"/>
<path fill-rule="evenodd" clip-rule="evenodd" d="M675.044 531.747C679.075 533.027 682.629 537.426 680.447 544.575C678.264 551.725 674.892 556.323 669.588 554.726C662.7 553.13 661.464 546.743 663.639 539.593C665.822 532.444 671.012 530.469 675.044 531.747Z" fill="#DC0000" stroke="black" stroke-width="1.03895"/>
<path fill-rule="evenodd" clip-rule="evenodd" d="M681.862 524.444C683.143 525.338 683.908 527.228 682.347 529.364C680.779 531.499 678.217 532.237 676.937 531.338C675.656 530.438 675.406 527.866 676.967 525.732C678.528 523.595 680.582 523.542 681.862 524.444Z" fill="#DC0000" stroke="black" stroke-width="1.19078"/>
<path fill-rule="evenodd" clip-rule="evenodd" d="M671.262 522.246C672.793 521.928 674.695 522.648 675.187 525.247C675.687 527.848 674.482 530.228 672.952 530.552C671.421 530.877 669.367 529.309 668.867 526.71C668.367 524.11 669.724 522.572 671.262 522.246Z" fill="#DC0000" stroke="black" stroke-width="1.19078"/>
<path fill-rule="evenodd" clip-rule="evenodd" d="M675.71 527.92C677.21 528.37 678.536 529.921 677.725 532.44C676.915 534.959 674.709 536.466 673.209 536.016C671.709 535.565 670.663 533.203 671.474 530.684C672.285 528.166 674.209 527.469 675.71 527.92Z" fill="#DC0000" stroke="black" stroke-width="1.19078"/>
<path fill-rule="evenodd" clip-rule="evenodd" d="M677.885 518.912C679.135 519.253 680.234 520.428 679.559 522.33C678.885 524.239 677.044 525.376 675.793 525.035C674.543 524.694 673.671 522.906 674.346 521.004C675.02 519.094 676.627 518.571 677.885 518.912Z" fill="#DC0000" stroke="black" stroke-width="0.946215"/>
<path fill-rule="evenodd" clip-rule="evenodd" d="M684.454 530.381C685.826 531.322 686.591 533.114 684.795 534.909C682.999 536.705 680.157 537.133 678.793 536.192C677.422 535.25 677.248 532.884 679.043 531.087C680.839 529.292 683.082 529.439 684.454 530.381Z" fill="#DC0000" stroke="black" stroke-width="1.19175"/>
<path fill-rule="evenodd" clip-rule="evenodd" d="M667.223 526.452C668.617 526.285 670.254 527.112 670.481 529.537C670.709 531.961 669.436 534.038 668.041 534.205C666.647 534.373 664.942 532.761 664.715 530.337C664.487 527.913 665.829 526.62 667.223 526.452Z" fill="#DC0000" stroke="black" stroke-width="1.08154"/>
<path d="M646.338 652.523V652.299" stroke="black" stroke-width="0.5012"/>
<path fill-rule="evenodd" clip-rule="evenodd" d="M827.378 558.649C835.228 562.84 832.538 572.642 826.923 575.261C826.628 568.826 822.513 566.88 816.375 565.384C819.596 563.589 823.036 557.751 827.378 558.649Z" fill="white" stroke="black" stroke-width="0.93975"/>
<path fill-rule="evenodd" clip-rule="evenodd" d="M752.352 597.844C755.246 555.243 787.611 550.076 809.063 557.45C840.48 580.246 808.624 599.186 761.596 600.414C757.406 598.109 756.55 600.15 752.352 597.844Z" fill="#008D00" stroke="black" stroke-width="0.987715"/>
<path fill-rule="evenodd" clip-rule="evenodd" d="M761.763 549.984C751.715 549.578 748.684 559.383 752.624 564.499C756.625 559.117 761.748 559.544 768.568 561.389C766.477 558.203 766.499 551.426 761.763 549.984Z" fill="white" stroke="black" stroke-width="0.998766"/>
<path fill-rule="evenodd" clip-rule="evenodd" d="M767.005 562.731C759.147 566.922 760.822 576.724 766.437 579.343C766.732 572.908 770.847 570.962 776.985 569.467C773.765 567.671 771.347 561.833 767.005 562.731Z" fill="white" stroke="black" stroke-width="0.93975"/>
<path fill-rule="evenodd" clip-rule="evenodd" d="M828.416 559.458C828.506 555.953 825.741 552.922 822.497 552.433C818.587 551.957 814.836 554.655 810.926 551.799C810.456 551.481 801.371 543.645 798.772 539.994C796.165 538.566 790.701 535.888 790.701 535.888C787.488 540.078 785.223 544.903 780.577 547.665C778.266 548.59 777.38 549.674 773.166 549.33C768.809 547.293 764.013 546.246 761.52 548.458C763.641 552.657 763.065 557.968 762.171 562.009C763.74 562.907 765.467 561.832 767.362 562.254C773.182 562.408 771.696 568.661 773.871 571.355C780.002 573.022 783.116 570.086 784.01 565.086C785.632 562.535 790.588 562.205 794.111 561.242C797.923 560.505 802.697 559.292 806.19 561.254C809.085 562.789 811.017 564.641 812.48 567.763C812.48 567.763 817.079 568.174 821.679 567.315C821.838 564.551 821.27 559.523 828.416 559.458Z" fill="#F6AA00" stroke="black" stroke-width="0.93975" stroke-linecap="round" stroke-linejoin="round"/>
<path d="M787.762 540.284C787.837 543.652 787.913 547.018 787.982 550.386C789.179 554.052 797.34 553.678 798.31 551.283C798.234 547.467 798.158 543.652 798.083 539.835" stroke="black" stroke-width="0.93975"/>
<path d="M790.451 561.834C792.217 561.238 792.868 556.341 792.868 556.341" stroke="black" stroke-width="0.93975" stroke-linecap="round"/>
<path d="M797.635 560.487L798.082 556.447" stroke="black" stroke-width="0.93975" stroke-linecap="round"/>
<path d="M805.045 560.486L804.371 556.222" stroke="black" stroke-width="0.93975" stroke-linecap="round"/>
<path d="M785.518 557.345C785.245 557.496 781.699 553.08 782.82 553.529" stroke="black" stroke-width="0.93975" stroke-linecap="round"/>
<path d="M779.001 563.854C779.455 563.854 773.143 557.317 774.265 557.766" stroke="black" stroke-width="0.93975" stroke-linecap="round"/>
<path d="M773.166 551.733C773.007 551.232 772.719 548.815 773.841 549.263" stroke="black" stroke-width="0.93975" stroke-linecap="round"/>
<path d="M787.238 550.23C777.645 558.508 768.62 555.024 767.316 561.985" stroke="black" stroke-width="0.93975" stroke-linecap="round"/>
<path d="M810.98 554.909C811.314 554.503 812.473 552.36 811.261 552.365" stroke="black" stroke-width="0.93975" stroke-linecap="round"/>
<path d="M656.971 559.003C657.092 558.818 664.253 558.226 664.253 558.226L657.615 554.025" stroke="black" stroke-width="0.93975" stroke-linecap="round" stroke-linejoin="round"/>
<path d="M700.609 566.158C700.738 565.973 707.899 565.381 707.899 565.381L702.208 558.796" stroke="black" stroke-width="0.93975" stroke-linecap="round" stroke-linejoin="round"/>
<path d="M718.259 567.351C717.911 566.211 725.784 567.527 725.549 566.573L720.578 561.181" stroke="black" stroke-width="0.93975" stroke-linecap="round" stroke-linejoin="round"/>
<path d="M708.84 542.234C709.06 542.234 713.553 547.845 713.553 547.845L713.326 539.989" stroke="black" stroke-width="0.93975" stroke-linecap="round" stroke-linejoin="round"/>
<path d="M844.011 579.693C844.185 579.839 843.973 587.697 843.973 587.697L849.125 582.105" stroke="black" stroke-width="0.93975" stroke-linecap="round" stroke-linejoin="round"/>
<path d="M786.473 577.666C786.625 577.83 785.609 584.944 785.609 584.944L793.293 580.865" stroke="black" stroke-width="0.93975" stroke-linecap="round" stroke-linejoin="round"/>
<path d="M651.742 541.208L656.456 545.922" stroke="black" stroke-width="0.93975" stroke-linecap="round" stroke-linejoin="round"/>
<path d="M643.156 549.059L647.87 553.773" stroke="black" stroke-width="0.93975" stroke-linecap="round" stroke-linejoin="round"/>
<path d="M675.309 561.281L681.954 560.688" stroke="black" stroke-width="0.93975" stroke-linecap="round" stroke-linejoin="round"/>
<path d="M664.76 567.844L671.405 567.372" stroke="black" stroke-width="0.93975" stroke-linecap="round" stroke-linejoin="round"/>
<path d="M712.832 552.739L717.545 557.453" stroke="black" stroke-width="0.93975" stroke-linecap="round" stroke-linejoin="round"/>
<path d="M732.459 555.192L737.172 559.906" stroke="black" stroke-width="0.93975" stroke-linecap="round" stroke-linejoin="round"/>
<path d="M695.904 546.605L700.618 551.32" stroke="black" stroke-width="0.93975" stroke-linecap="round" stroke-linejoin="round"/>
<path d="M646.346 531.64L651.059 536.355" stroke="black" stroke-width="0.93975" stroke-linecap="round" stroke-linejoin="round"/>
<path d="M699.02 589.021L703.384 583.979" stroke="black" stroke-width="0.93975" stroke-linecap="round" stroke-linejoin="round"/>
<path d="M721.1 593.192L725.464 588.149" stroke="black" stroke-width="0.93975" stroke-linecap="round" stroke-linejoin="round"/>
<path d="M636.299 567.414L642.944 566.821" stroke="black" stroke-width="0.93975" stroke-linecap="round" stroke-linejoin="round"/>
<path d="M648.869 562.683C647.785 562.743 652.233 562.397 653.461 562.888L646.898 558.196" stroke="black" stroke-width="1.00102" stroke-linecap="round" stroke-linejoin="round"/>
<path d="M657.152 576.737L663.798 576.144" stroke="black" stroke-width="0.93975" stroke-linecap="round" stroke-linejoin="round"/>
<path d="M735.906 570.298L742.552 569.826" stroke="black" stroke-width="0.93975" stroke-linecap="round" stroke-linejoin="round"/>
<path d="M724.623 579.621L731.269 579.149" stroke="black" stroke-width="0.93975" stroke-linecap="round" stroke-linejoin="round"/>
<path d="M732.633 545.424C732.86 545.424 737.346 551.035 737.346 551.035L737.126 543.178" stroke="black" stroke-width="0.93975" stroke-linecap="round" stroke-linejoin="round"/>
<path d="M797.332 565.497L792.619 570.211" stroke="black" stroke-width="0.93975" stroke-linecap="round" stroke-linejoin="round"/>
<path d="M812.791 570.649L808.078 575.363" stroke="black" stroke-width="0.93975" stroke-linecap="round" stroke-linejoin="round"/>
<path d="M805.918 583.897L801.205 588.612" stroke="black" stroke-width="0.93975" stroke-linecap="round" stroke-linejoin="round"/>
<path d="M861.364 585.124L856.65 589.838" stroke="black" stroke-width="0.93975" stroke-linecap="round" stroke-linejoin="round"/>
<path d="M832.174 581.689L827.453 586.404" stroke="black" stroke-width="0.93975" stroke-linecap="round" stroke-linejoin="round"/>
<path d="M860.879 553.476L856.166 558.189" stroke="black" stroke-width="0.93975" stroke-linecap="round" stroke-linejoin="round"/>
<path d="M883.179 585.344L876.541 584.711" stroke="black" stroke-width="0.93975" stroke-linecap="round" stroke-linejoin="round"/>
<path d="M827.445 600.134L827.764 593.474" stroke="black" stroke-width="0.93975" stroke-linecap="round" stroke-linejoin="round"/>
<path d="M848.482 569.988L851.877 564.248" stroke="black" stroke-width="0.93975" stroke-linecap="round" stroke-linejoin="round"/>
<path d="M859.029 576.367L862.424 570.627" stroke="black" stroke-width="0.93975" stroke-linecap="round" stroke-linejoin="round"/>
<path d="M867.812 594.626C867.668 594.797 860.484 594.57 860.484 594.57L865.63 598.324" stroke="black" stroke-width="0.93975" stroke-linecap="round" stroke-linejoin="round"/>
<path d="M768.075 592.632C768.226 592.796 767.211 599.91 767.211 599.91L774.895 595.831" stroke="black" stroke-width="0.93975" stroke-linecap="round" stroke-linejoin="round"/>
<path d="M708.938 579.619C709.809 578.969 714.257 577.587 714.015 576.633L709.286 574.92" stroke="black" stroke-width="0.93975" stroke-linecap="round" stroke-linejoin="round"/>
<path fill-rule="evenodd" clip-rule="evenodd" d="M909.118 534.722C912.233 537.139 917.484 509.629 916.681 501.021C916.681 500.453 915.703 482.206 919.522 469.164C921.94 464.769 922.023 431.874 918.401 423.228C921.288 422.986 924.781 422.054 925.213 418.522C911.892 423.456 908.732 390.371 895.91 371.366C883.392 352.308 867.858 341.199 851.725 329.636C852.983 326.408 854.847 323.369 857.309 320.338C837.494 330.265 806.615 294.324 761.057 297.006C750.782 298.037 745.947 298.651 743.318 304.902C734.854 305.622 726.177 307.547 726.154 318.724C726.17 321.406 728.602 326.294 734.05 326.362C741.514 328.507 747.577 326.832 752.623 337.229C753.002 340.078 753.586 345.132 753.965 347.982C753.965 347.982 747.281 339.517 743.629 338.108C744.599 336.698 743.053 335.728 745.864 333.554C742.447 331.576 736.324 333.182 736.324 333.182C736.324 333.182 723.093 326.953 712.431 328.636C712.431 327.499 710.393 320.005 710.393 320.005C708.506 325.279 704.346 324.998 703.732 330.007C702.595 326.408 701.057 321.998 699.913 318.391C696.177 323.506 697.261 329.015 695.934 334.327C694.449 335.531 691.494 335.6 690.744 332.182C690.365 328.007 689.857 327.59 689.88 322.611C687.175 327.317 683.939 329.613 682.848 337.736C681.711 334.705 681.112 331.803 679.968 328.772C680.112 339.335 670.996 345.678 662.365 353.097C659.94 357.59 662.744 357.651 662.934 359.924C664.449 360.682 665.972 361.447 667.488 362.205C670.14 362.015 672.997 361.826 675.649 361.629C676.983 363.342 675.891 363.44 679.43 364.546C688.918 367.199 700.784 355.802 710.09 373.715C705.808 377.285 701.519 385.681 702.861 387.234C704.573 387.234 699.435 389.651 706.377 387.439C699.132 394.478 694.23 403.731 694.23 404.307C693.419 406.277 697.147 404.034 696.366 407.626C697.382 404.936 698.087 407.406 698.087 407.406C681.56 425.282 697.533 444.453 695.753 454.774C698.503 459.2 698.844 454.691 702.277 454.198C705.187 466.868 713.5 474.552 718.622 484.6C715.978 483.789 710.726 483.501 707.877 484.706C708.119 489.473 712.431 494.004 715.849 498.172C713.378 498.93 711.105 499.687 708.642 500.453C703.52 503.105 700.117 505.893 696.51 509.872C694.108 515.676 707.983 517.086 714.629 518.063C714.03 520.147 713.181 522.769 714.386 525.058C724.843 526.065 736.93 522.974 736.93 522.405C736.93 521.829 739.552 520.367 739.552 520.367C740.961 523.186 744.053 524.012 745.432 523.61C747.41 523.61 750.479 515.737 749.069 509.705C752.858 514.252 756.427 521.496 760.224 526.05C761.368 527.258 762.853 526.372 763.8 525.558C767.029 530.683 771.477 535.806 774.705 540.921C776.41 542.876 776.038 542.156 778.35 542.3C780.456 541.618 782.252 541.337 783.359 537.246C783.359 537.246 784.056 537.881 785.056 540.136C787.602 541.947 789.398 537.593 790.807 536.184C791.611 534.244 794.748 536.564 794.748 535.427C795.885 536.185 796.635 539.519 797.771 540.277C799.514 539.633 801.242 535.806 801.378 531.744C803.106 535.306 803.637 535.01 804.97 535.965C806.107 535.01 806.463 531.297 807.6 530.35C807.357 528.387 821.262 543.762 821.831 543.762C823.21 544.763 831.068 547.172 832.682 544.361C836.607 546.983 847.163 548.605 848.875 544.391C857.575 548.104 867.805 543.944 867.373 539.792C875.299 542.959 887.666 540.845 887.666 540.277C889.075 540.11 892.894 536.397 889.272 533.585C862.909 515.184 823.68 484.721 808.585 477.394C808.585 471.961 804.47 452.372 800.045 446.969C799.241 444.188 801.053 440.755 803.667 440.952C813.927 450.546 817.655 449.629 823.089 451.175C828.969 455.812 831.075 462.898 836.956 469.346C839.729 470.225 843.003 473.037 842.146 470.301C838.479 461.094 834.046 452.175 823.058 440.21C828.749 443.052 838.07 450.584 844.359 456.047C848.557 462.958 849.732 468.467 853.528 477.189C856.279 478.932 859.083 485.358 858.681 480.031C858.082 470.013 851.05 454.1 851.05 452.963C862.22 461.875 862.106 475.689 865.478 484.138C868.396 488.427 869.858 494.125 871.071 492.792C872.472 490.844 867.752 466.717 867.752 466.717C866.994 463.686 866.615 460.245 865.857 457.214C874.17 462.003 877.08 480.266 880.967 502.143C880.982 505.628 882.399 509.447 882.21 511.721C883.998 513.926 886.052 520.011 885.953 516.381C885.953 516.381 885.961 480.789 883.551 472.612C882.945 468.255 884.62 461.124 884.62 461.124C887.651 475.916 890.886 491.913 893.925 506.704V517.518C895.441 519.033 896.956 520.549 898.472 522.072C899.419 513.153 900.366 504.242 901.321 495.33C901.321 495.33 897.903 464.042 897.903 463.473V454.365C897.835 451.16 900.783 451.773 902.723 455.411C903.109 463.186 903.079 469.354 903.458 477.128C904.791 486.032 905.716 492.534 906.436 503.863C906.792 513.145 907.148 535.101 909.118 534.722Z" fill="#9C4314" stroke="black" stroke-opacity="0.77245" stroke-width="0.93975" stroke-linejoin="round"/>
<path d="M761.748 586.18C761.323 585.177 761.013 580.535 760.035 580.544L757.262 584.743" stroke="black" stroke-width="0.93975" stroke-linecap="round" stroke-linejoin="round"/>
<path d="M844.943 560.844L844.375 565.54" stroke="black" stroke-width="0.93975" stroke-linecap="round" stroke-linejoin="round"/>
<path d="M803.562 595.483C802.478 595.616 797.939 594.622 797.674 595.569L800.94 599.395" stroke="black" stroke-width="0.93975" stroke-linecap="round" stroke-linejoin="round"/>
<path d="M733.99 490.738V490.246V498.831C734.24 500.051 734.233 501.408 734.233 502.756C734.392 503.795 734.756 505.045 735.218 506.189C735.286 507.644 735.688 508.599 736.195 509.872C736.301 511.13 736.733 512.198 737.18 513.305C737.287 514.57 737.696 515.229 737.915 516.252C738.272 517.427 738.704 518.2 739.143 518.95C739.461 519.268 739.583 519.587 739.878 519.685" stroke="black" stroke-width="0.5012"/>
<path d="M714.85 520.42C714.85 520.026 714.789 518.821 715.342 517.972C716.214 516.737 716.911 515.972 718.04 514.782C719.381 513.926 720.336 512.918 721.48 511.834C722.7 511.054 723.314 510.364 724.42 509.629C725.102 508.932 725.89 508.591 726.633 508.152C727.474 507.742 728.088 507.129 729.331 506.932C730.081 506.553 731.627 506.681 732.763 506.681C733.93 506.681 734.339 506.454 735.461 506.439" stroke="black" stroke-width="0.5012"/>
<path d="M893.197 435.193C896.986 437.944 901.161 443.923 902.866 454.729" stroke="black" stroke-opacity="0.77245" stroke-width="0.93975" stroke-linecap="round"/>
<path d="M871.873 438.876C877.374 443.809 880.474 449.174 884.581 461.253" stroke="black" stroke-opacity="0.77245" stroke-width="0.93975" stroke-linecap="round"/>
<path fill-rule="evenodd" clip-rule="evenodd" d="M858.59 444.771C861.939 448.598 863.962 452.607 865.796 457.381L858.59 444.771Z" fill="#00C600"/>
<path d="M858.59 444.771C861.939 448.598 863.962 452.607 865.796 457.381" stroke="black" stroke-opacity="0.77245" stroke-width="0.93975" stroke-linecap="round"/>
<path fill-rule="evenodd" clip-rule="evenodd" d="M835.834 432.253C840.191 437.285 847.208 444.961 850.815 452.736L835.834 432.253Z" fill="#00C600"/>
<path d="M835.834 432.253C840.191 437.285 847.208 444.961 850.815 452.736" stroke="black" stroke-opacity="0.77245" stroke-width="0.93975" stroke-linecap="round"/>
<path d="M743.205 303.917C743.523 325.771 775.524 320.444 778.214 340.98C784.337 363.394 781.783 377.875 772.826 384.991C767.742 390.227 771.637 398.373 773.145 402.549C781.465 423.63 794.021 427.025 799.417 445.211" stroke="black" stroke-opacity="0.77245" stroke-width="0.93975"/>
<path d="M731.238 318.838C731.238 318.421 731.988 317.686 732.731 317.345C735.921 316.307 737.876 316.246 741.135 316.042C743.931 316.042 746.545 316.163 749.349 316.602" stroke="black" stroke-opacity="0.77245" stroke-width="0.93975" stroke-linecap="round"/>
<path d="M772.666 519.496L783.79 537.594" stroke="black" stroke-opacity="0.77245" stroke-width="0.93975"/>
<path d="M808.123 492.572L867.684 538.185" stroke="black" stroke-opacity="0.77245" stroke-width="0.93975"/>
<path d="M806.539 505.083L850.058 543.292" stroke="black" stroke-opacity="0.77245" stroke-width="0.93975"/>
<path d="M724.639 457.691C730.375 469.073 746.569 484.183 756.291 486.593C756.624 479.288 756.207 476.461 755.04 471.399" stroke="black" stroke-opacity="0.77245" stroke-width="0.93975"/>
<path d="M743.084 451.213C748.813 462.594 754.049 474.719 769.25 481.614C770.826 470.566 767.424 455.532 759.027 440.248" stroke="black" stroke-opacity="0.77245" stroke-width="0.93975"/>
<path d="M745.766 435.951C750.994 439.104 755.73 440.521 759.224 440.937C760.8 429.889 762.179 418.197 753.169 402.375" stroke="black" stroke-opacity="0.77245" stroke-width="0.93975"/>
<path d="M725.639 442.491C733.36 450.88 739.589 451.296 743.083 451.713C745.659 444.15 746.735 428.116 743.583 410.839" stroke="black" stroke-opacity="0.77245" stroke-width="0.93975"/>
<path d="M705.627 449.22C713.318 459.177 731.05 478.068 740.59 484.933C740.924 483.35 741.416 482.615 741.288 477.553" stroke="black" stroke-opacity="0.77245" stroke-width="0.93975"/>
<path d="M836.986 339.889C845.223 349.384 877.019 381.354 883.316 396.312C894.183 420.773 914.218 425.418 919.212 422.683" stroke="black" stroke-opacity="0.77245" stroke-width="0.93975"/>
<path d="M782.502 472.036C785.366 483.736 790.565 505.022 798.051 508.386C799.34 507.129 800.431 504.802 800.302 499.733" stroke="black" stroke-opacity="0.77245" stroke-width="0.93975"/>
<path d="M739.303 405.724C742.66 409.149 743.425 412.263 746.911 412.68C751.162 409.209 758.649 389.826 755.959 375.526" stroke="black" stroke-opacity="0.77245" stroke-width="0.93975"/>
<path d="M721.66 405.193C723.244 412.892 724.714 419.394 730.17 419.454C739.225 411.877 741.9 394.925 739.21 380.619" stroke="black" stroke-opacity="0.77245" stroke-width="0.93975"/>
<path d="M718.153 445.923L714.068 436.959" stroke="black" stroke-opacity="0.77245" stroke-width="0.93975"/>
<path d="M806.184 518.48L833.494 543.292" stroke="black" stroke-opacity="0.77245" stroke-width="0.93975"/>
<path d="M793.18 508.5L801.606 532.229" stroke="black" stroke-opacity="0.77245" stroke-width="0.93975"/>
<path d="M756.041 486.775C761.77 498.157 773.985 514.585 783.7 516.995C784.033 515.419 783.851 514.047 783.722 508.985" stroke="black" stroke-opacity="0.77245" stroke-width="0.93975"/>
<path d="M741.25 484.494C746.986 495.868 763.832 514.411 773.546 519.844C773.88 518.268 775.297 517.965 775.168 512.903" stroke="black" stroke-opacity="0.77245" stroke-width="0.93975"/>
<path d="M783.199 516.518L795.369 536.7" stroke="black" stroke-opacity="0.77245" stroke-width="0.93975"/>
<path d="M768.643 465.875C773.879 469.035 779.365 471.68 782.858 472.097C783.389 459.791 779.1 439.952 770.295 424.759" stroke="black" stroke-opacity="0.77245" stroke-width="0.93975"/>
<path d="M708.082 401.359C706.529 407.179 706.741 413.536 712.19 413.597C727.315 407.073 718.282 400.571 731.27 378.527" stroke="black" stroke-opacity="0.77245" stroke-width="0.93975"/>
<path d="M728.033 361.333C733.762 372.715 735.444 380.452 744.371 383.377C746.159 382.566 750.607 362.455 735.528 346.125" stroke="black" stroke-opacity="0.77245" stroke-width="0.93975"/>
<path d="M746.401 370.821C749.349 374.246 753.661 375.064 757.154 374.852C760.572 368.032 753.267 348.709 743.658 338.714" stroke="black" stroke-opacity="0.77245" stroke-width="0.93975"/>
<path d="M830.863 355.067C838.062 365.191 869.631 400.533 883.165 411.824C886.203 411.43 890.697 415.211 886.491 402.435" stroke="black" stroke-opacity="0.77245" stroke-width="0.93975"/>
<path d="M827.316 377.429C834.508 387.553 847.685 404.701 861.212 415.984C864.614 417.25 867.903 416.84 868.986 415.961C870.146 414.84 869.092 406.815 869.388 398.654" stroke="black" stroke-opacity="0.77245" stroke-width="0.93975"/>
<path d="M818.746 390.182C826.983 399.26 837.857 409.717 851.179 421.834C854.581 423.099 857.521 423.152 857.908 421.811C858.234 420.485 858.847 420.818 858.105 412.657" stroke="black" stroke-opacity="0.77245" stroke-width="0.93975"/>
<path d="M807.252 406.481C815.489 415.56 823.021 422.258 830.493 423.925C834.1 424.357 835.994 424.41 836.381 423.069C836.707 421.735 836.487 415.385 836.366 408.058" stroke="black" stroke-opacity="0.77245" stroke-width="0.93975"/>
<path d="M795.543 418.606C803.78 427.684 803.788 431.45 811.259 433.117C814.866 433.557 817.541 433.079 818.193 431.844C819.36 429.26 819.761 426.464 819.648 419.136" stroke="black" stroke-opacity="0.77245" stroke-width="0.93975"/>
<path d="M792.202 359.242C800.499 360.75 801.189 353.581 800.514 348.444C799.696 342.01 795.142 339.191 789.754 340.548" stroke="black" stroke-opacity="0.77245" stroke-width="0.93975" stroke-linecap="round"/>
<path d="M787.602 387.666C791.512 389.182 796.422 389.083 798.21 384.605C799.658 381.195 799.112 372.844 793.724 374.193" stroke="black" stroke-opacity="0.77245" stroke-width="0.93975" stroke-linecap="round"/>
<path d="M793.451 374.087C800.915 374.549 801.613 371.139 801.347 366.835C801.052 361.826 797.657 358.007 792.262 359.356" stroke="black" stroke-opacity="0.77245" stroke-width="0.93975" stroke-linecap="round"/>
<path d="M800.711 354.582C811.615 348.019 843.01 374.329 819.132 382.71" stroke="black" stroke-opacity="0.77245" stroke-width="0.93975"/>
<path d="M798.4 373.223C809.305 366.66 833.303 388.128 808.964 396.486" stroke="black" stroke-opacity="0.77245" stroke-width="0.93975"/>
<path d="M794.316 388.03C806.486 388.454 820.482 407.982 796.628 410.376" stroke="black" stroke-opacity="0.77245" stroke-width="0.93975"/>
<path d="M779.979 398.464C783.896 399.972 786.154 400.95 789.64 397.941C791.019 396.676 792.838 390.879 787.693 387.666" stroke="black" stroke-opacity="0.77245" stroke-width="0.93975" stroke-linecap="round"/>
<path d="M678.09 374.86C682.205 369.548 692.26 366.161 695.708 373.193" stroke="black" stroke-opacity="0.77245" stroke-width="0.93975"/>
<path d="M787.322 399.412C794.407 401.738 805.69 421.463 786.746 423.471" stroke="black" stroke-opacity="0.77245" stroke-width="0.93975"/>
<path d="M778.281 310.199C786.458 311.745 790.58 324.953 797.097 325.968C809.016 327.749 795.558 312.185 792.982 310.434" stroke="black" stroke-opacity="0.77245" stroke-width="0.93975" stroke-linecap="round"/>
<path d="M657.736 366.661C661.404 366.812 664.852 366.138 667.171 361.796" stroke="black" stroke-opacity="0.77245" stroke-width="0.93975"/>
<path d="M694.086 404.526C696.117 408.323 701.353 406.807 705.68 404.17C711.598 400.79 706.612 388.893 720.722 378.754" stroke="black" stroke-opacity="0.77245" stroke-width="0.93975"/>
<path d="M701.58 454.607C709.271 464.565 723.866 479.417 732.959 487.396C733.293 485.82 734.763 485.017 734.642 479.947" stroke="black" stroke-opacity="0.77245" stroke-width="0.93975"/>
<path d="M732.664 486.722L750.153 511.023" stroke="black" stroke-opacity="0.77245" stroke-width="0.93975"/>
<path d="M769.143 480.864C771.999 492.557 783.381 511.084 790.868 514.449C792.156 513.183 793.02 508.167 792.899 503.097" stroke="black" stroke-opacity="0.77245" stroke-width="0.93975"/>
<path d="M765.074 514.365L764.006 525.209" stroke="black" stroke-opacity="0.77245" stroke-width="0.93975"/>
<path d="M791.262 460.139C794.119 471.839 798.423 500.309 805.008 505.469C806.296 504.211 808.956 480.561 808.834 475.492" stroke="black" stroke-opacity="0.77245" stroke-width="0.93975"/>
<path d="M782.42 459.336C786.307 459.798 788.573 459.783 791.612 459.753C792.15 447.447 786.815 432.988 778.01 417.795" stroke="black" stroke-opacity="0.77245" stroke-width="0.93975"/>
<path fill-rule="evenodd" clip-rule="evenodd" d="M804.091 428.957L803.484 441.4L804.091 428.957Z" fill="#00C600"/>
<path d="M804.091 428.957L803.484 441.4" stroke="black" stroke-opacity="0.77245" stroke-width="0.93975" stroke-linecap="round"/>
<path d="M760.163 423.637C764.278 425.221 767.21 425.736 770.476 425.479C773.856 408.823 765.361 408.8 754.775 397.024" stroke="black" stroke-opacity="0.77245" stroke-width="0.93975"/>
<path d="M807.463 312.889C815.632 314.435 810.449 326.665 821.565 330.462C830.893 333.569 825.642 320.709 823.058 318.959" stroke="black" stroke-opacity="0.77245" stroke-width="0.93975" stroke-linecap="round"/>
<path d="M795.309 340.358C801.204 336.069 822.293 342.01 829.431 348.004C831.469 349.906 834.591 357.514 824.9 364.508" stroke="black" stroke-opacity="0.77245" stroke-width="0.93975"/>
<path d="M683.582 350.437C700.511 333.917 708.361 335.796 727.745 347.981C730.526 348.633 733.549 348.065 735.353 347.004C736.33 344.624 735.398 342.215 734.125 340.373C725.456 334.16 718.993 332.364 710.816 333.508" stroke="black" stroke-opacity="0.77245" stroke-width="0.93975"/>
<path d="M707.945 411.74C704.141 417.348 701.027 429.555 707.453 443.142C707.71 444.711 709.355 446.272 707.703 447.318C704.535 448.909 703.103 451.546 701.322 454.183" stroke="black" stroke-opacity="0.77245" stroke-width="0.93975"/>
<path d="M806.599 498.497C806.721 477.916 803.712 461.495 795.498 446.628" stroke="black" stroke-opacity="0.77245" stroke-width="0.93975"/>
<path d="M771.037 418.356C773.758 418.068 777.167 418.818 778.842 418.007C779.653 414.999 777.342 411.301 776.417 408.467C777.978 408.293 779.888 408.293 781.1 407.944C781.797 405.345 781.1 401.7 781.1 398.578" stroke="black" stroke-opacity="0.77245" stroke-width="0.93975"/>
<path fill-rule="evenodd" clip-rule="evenodd" d="M669.352 359.757C670.011 355.18 674.095 350.111 678.68 347.489C680.885 346.261 682.355 347.739 683.34 348.224C684.568 350.186 683.833 353.869 683.34 355.339C682.112 357.794 679.657 359.757 675.247 361.477C672.951 360.492 671.648 360.742 669.352 359.757Z" fill="white" stroke="black" stroke-opacity="0.77245" stroke-width="0.93975"/>
<path d="M708.611 447.098C709.589 447.591 719.402 458.381 719.402 458.381H725.29L725.782 441.945" stroke="black" stroke-opacity="0.77245" stroke-width="0.93975"/>
<path d="M724.556 415.454C722.593 421.91 723.328 428.374 724.556 434.83" stroke="black" stroke-opacity="0.77245" stroke-width="0.93975" stroke-linecap="round" stroke-linejoin="round"/>
<path d="M711.771 445.923L714.068 436.959" stroke="black" stroke-opacity="0.77245" stroke-width="0.93975"/>
<path d="M715.97 412.013C713.029 417.416 712.188 426.282 713.719 432.715" stroke="black" stroke-opacity="0.77245" stroke-width="0.93975"/>
<path d="M796.174 447.886L790.619 448" stroke="black" stroke-opacity="0.77245" stroke-width="0.93975"/>
<path fill-rule="evenodd" clip-rule="evenodd" d="M597.281 427.032C598.062 429.434 595.44 428.146 594.872 428.821C592.121 429.798 587.749 426.418 584.99 418.25C586.331 415.969 594.25 411.051 596.789 412.112C596.789 412.112 601.775 414.006 602.374 416.09C601.419 419.121 597.115 427.373 597.281 427.032Z" fill="#9F3000" stroke="black" stroke-width="0.93975"/>
<path d="M796.172 447.886L796.263 436.959" stroke="black" stroke-opacity="0.77245" stroke-width="0.93975"/>
<path d="M805.197 505.31L806.758 531.979" stroke="black" stroke-opacity="0.77245" stroke-width="0.93975"/>
<path fill-rule="evenodd" clip-rule="evenodd" d="M597.099 427.964C602.479 433.026 610.928 429.632 612.277 441.991C612.853 448.902 603.055 462.739 612.277 475.227C615.543 480.023 624 485.214 624 485.214C628.417 490.147 629.759 498.922 632.638 505.772C638.723 514.866 647.112 516.851 653.772 514.608C653.772 514.608 675.672 504.81 675.672 504.621C675.672 504.424 664.533 489.632 664.533 489.829C664.533 490.018 652.045 500.392 651.855 500.392C650.506 500.195 643.209 500.968 640.519 491.746C640.33 479.963 634.502 473.438 625.151 468.695C620.408 465.103 616.634 459.404 620.734 451.402C623.098 444.105 625.47 431.806 617.081 423.547C611.701 419.962 607.859 417.143 602.092 416.052C594.477 418.932 594.537 418.166 597.099 427.964Z" fill="#238700" stroke="black" stroke-width="0.93975"/>
<path d="M705.399 325.12C702.451 330.515 702.724 333.751 703.209 339.146" stroke="black" stroke-opacity="0.77245" stroke-width="0.93975"/>
<path d="M690.455 351.664H697.32C699.147 351.611 699.935 350.921 701.253 349.944C702.132 349.444 703.072 348.694 703.951 347.981C704.678 347.458 705.55 346.852 706.399 346.511C707.793 346.511 708.884 346.61 710.081 347.004C711.195 347.466 712.105 348.133 713.029 348.716C713.946 349.088 714.772 349.209 716.212 349.209C717.712 349.209 719.281 349.141 720.63 349.451C721.925 349.542 723.38 349.823 724.312 350.186C725.502 350.937 726.214 351.831 727.01 352.642C727.055 353.945 727.487 354.741 727.503 356.074C727.503 357.219 727.631 358.764 727.252 359.515C727.252 360.924 727.033 361.924 726.767 362.947C725.866 363.796 725.54 364.448 724.312 364.667C723.35 365.418 721.903 365.402 720.387 365.402H716.462C715.606 364.69 714.575 363.948 713.514 362.947C712.946 361.629 712.574 361.197 711.309 360.742C710.248 360.575 708.983 360.492 707.626 360.492C706.429 360.492 705.429 360.575 704.686 360.007C704.004 359.355 703.026 359.022 701.988 358.78C700.874 358.461 699.563 358.529 698.306 358.529H696.343" stroke="black" stroke-opacity="0.77245" stroke-width="0.93975"/>
<path d="M696.837 353.869C696.92 353.953 696.996 354.036 697.08 354.112C696.526 353.559 696.723 353.824 698.065 354.362C699.686 354.733 701.437 355.044 703.21 355.097C704.9 355.097 706.438 355.302 708.12 355.339C709.295 355.339 710.53 355.438 711.553 355.097" stroke="black" stroke-opacity="0.77245" stroke-width="0.93975"/>
<path d="M712.538 349.944H712.288C713.061 349.944 712.591 349.884 711.553 351.172C711.455 352.574 711.151 353.347 711.803 354.605C712.599 354.87 713.955 355.468 714.501 356.075C715.289 356.643 715.236 357.151 715.236 358.53C714.766 359.295 714.342 359.917 713.766 360.985C713.455 361.758 713.054 362.789 712.781 363.683C712.5 364.804 712.303 365.873 712.288 367.115V369.571" stroke="black" stroke-opacity="0.77245" stroke-width="0.93975"/>
<path d="M801.348 321.376C801.62 321.899 806.326 331.295 812.169 325.332C813.032 324.316 813.336 323.581 813.336 321.853C813.336 320.952 813.214 319.898 812.995 319.156" stroke="black" stroke-opacity="0.77245" stroke-width="0.93975"/>
<path fill-rule="evenodd" clip-rule="evenodd" d="M659.766 510.266C662.6 514.206 667.738 512.175 668.776 509.023C665.252 509.25 663.904 507.167 662.661 503.984C661.911 505.81 658.978 508 659.766 510.266Z" fill="white" stroke="black" stroke-width="0.510209"/>
<path d="M826.172 330.144C826.172 330.326 831.158 334.91 838.698 334.91C840.517 334.91 849.155 332.728 851.913 328.886" stroke="black" stroke-opacity="0.77245" stroke-width="0.93975"/>
<path d="M836.615 334.562C836.729 335.297 836.964 337.979 836.964 339.767C836.941 341.654 837.396 343.238 836.683 344.814C835.903 346.822 835.047 347.625 833.145 348.315C831.599 349.012 831.273 348.345 829.553 348.406" stroke="black" stroke-opacity="0.77245" stroke-width="0.93975"/>
<path d="M795.119 325.066C795.119 325.18 800.439 337.812 802.189 339.093" stroke="black" stroke-opacity="0.77245" stroke-width="0.93975"/>
<path fill-rule="evenodd" clip-rule="evenodd" d="M663.221 507.962C666.048 511.903 671.193 509.872 672.224 506.719C668.7 506.947 667.359 504.87 666.116 501.68C665.366 503.506 662.426 505.696 663.221 507.962Z" fill="white" stroke="black" stroke-width="0.510209"/>
<path fill-rule="evenodd" clip-rule="evenodd" d="M668.595 505.658C671.421 509.606 676.566 507.576 677.597 504.416C674.073 504.643 672.732 502.567 671.489 499.376C670.731 501.203 667.799 503.393 668.595 505.658Z" fill="white" stroke="black" stroke-width="0.510209"/>
<path d="M764.793 318.603H766.528C772.037 317.671 790.565 321.088 793.778 324.498" stroke="black" stroke-opacity="0.77245" stroke-width="0.93975"/>
<path d="M768.265 408.118C768.151 408.005 768.522 410.24 768.409 410.127C769.091 410.809 768.303 408.278 767.916 406.732C767.34 405.353 767.227 404.443 767.227 402.564V401.177" stroke="black" stroke-opacity="0.77245" stroke-width="0.93975"/>
<path d="M733.633 489.783V490.276V488.268V498.369C733.883 499.589 733.883 500.945 733.883 502.294C734.034 503.34 734.398 504.582 734.86 505.734C734.929 507.189 735.338 508.144 735.846 509.409C735.944 510.667 736.376 511.743 736.823 512.85C736.929 514.108 737.338 514.767 737.558 515.79C737.914 516.972 738.346 517.737 738.786 518.487C739.104 518.813 739.415 520.458 739.71 520.549" stroke="black" stroke-opacity="0.77245" stroke-width="0.93975"/>
<path d="M718.668 475.31V481.941C718.986 483.562 719.047 485.282 719.403 486.843C719.539 488.245 719.88 489.442 720.138 490.769C720.259 492.08 721.828 496.732 722.351 497.884C722.927 498.968 723.791 500.097 724.313 500.824C725.291 501.127 726.094 501.476 727.254 501.559H730.694C732.065 501.294 732.543 501.15 733.141 500.089C733.475 499.43 733.46 498.968 733.884 498.619" stroke="black" stroke-opacity="0.77245" stroke-width="0.93975"/>
<path d="M714.5 519.966C714.5 519.564 714.439 518.359 714.993 517.51C715.856 516.275 716.554 515.51 717.69 514.32C719.031 513.464 722.366 508.879 732.406 506.227C733.581 506.227 733.99 506 735.111 505.977" stroke="black" stroke-opacity="0.77245" stroke-width="0.93975"/>
<path d="M715.689 497.702C715.773 497.786 721.183 500.612 723.987 500.733" stroke="black" stroke-opacity="0.77245" stroke-width="0.93975"/>
<path d="M731.14 507.205H730.875M731.14 507.205C730.966 507.205 731.049 507.205 731.14 507.205Z" stroke="black" stroke-width="0.5012"/>
<path fill-rule="evenodd" clip-rule="evenodd" d="M728.73 506.939C727.927 506.401 701.913 498.892 702.451 498.892C702.981 498.892 692.926 505.734 692.926 505.734L717.735 514.183L727.654 506.939H728.73Z" fill="#FFBC00" stroke="black" stroke-width="0.93975"/>
<path fill-rule="evenodd" clip-rule="evenodd" d="M703.876 498.695C705.52 494.52 705.073 489.018 699.701 485.608C687.44 478.083 666.836 478.72 662.918 487.503C658.682 486.934 656.53 490.352 655.901 493.762C644.967 496.732 655.083 509.364 657.796 509.88C661.471 511.13 662.471 510.213 663.108 509.008C665.154 509.516 667.958 507.326 668.662 505.818C671.261 506.295 673.232 506.25 673.277 503.643C680.718 510.622 690.979 515.449 692.115 506.47C696.041 503.878 699.958 501.286 703.876 498.695Z" fill="#F7B200" stroke="black" stroke-width="0.93975"/>
<path d="M655.916 493.572C655.226 498.437 658.492 503.681 663.675 508.743" stroke="black" stroke-width="0.93975"/>
<path d="M662.73 487.502C662.032 492.375 663.427 500.65 668.61 505.704" stroke="black" stroke-width="0.93975"/>
<path d="M670.412 482.274C665.654 486.275 668.253 498.642 673.436 503.696" stroke="black" stroke-width="0.93975"/>
<path fill-rule="evenodd" clip-rule="evenodd" d="M683.143 381.172C694.123 395.721 678.763 411.786 665.343 421.053C649.528 433.496 640.981 457.752 668.882 459.237C678.96 459.055 689.902 458.161 696.056 466.05C702.216 473.946 702.444 488.518 686.932 497.861C685.416 496.52 683.151 492.519 681.468 491.299C679.786 490.079 678.68 491.64 677.164 490.298C676.626 485.297 684.81 477.848 677.073 476.045C667.056 477.742 632.009 477.886 632.463 444.461C633.229 437.004 637.215 428.646 643.603 420.136C649.998 411.627 667.518 401.078 669.2 396.456C671.898 392.47 666.965 384.703 663.032 383.635C659.811 375.049 674.027 365.888 683.143 381.172Z" fill="#288800" stroke="#000100" stroke-width="0.93975" stroke-linejoin="round"/>
<path d="M658.744 406.914L659.123 426.449" stroke="black" stroke-width="0.93975"/>
<path d="M648.506 414.688L669.367 417.727" stroke="black" stroke-width="0.93975"/>
<path d="M663.865 402.556L681.499 406.156" stroke="black" stroke-width="0.93975"/>
<path d="M645.301 418.09L659.979 426.79" stroke="black" stroke-opacity="0.64151" stroke-width="0.93975"/>
<path d="M634.836 436.459L646.309 448.644" stroke="black" stroke-opacity="0.64151" stroke-width="0.93975"/>
<path d="M645.43 418.894L647.377 447.704" stroke="black" stroke-opacity="0.64151" stroke-width="0.93975"/>
<path d="M637.518 430.965L656.363 431.344" stroke="black" stroke-opacity="0.64151" stroke-width="0.93975"/>
<path d="M617.809 479.629C620.726 476.871 623.772 472.9 625.659 469.021" stroke="black" stroke-width="0.93975"/>
<path d="M623.711 484.593C627.651 482.153 632.706 480.235 637.722 479.212" stroke="black" stroke-width="0.93975"/>
<path d="M630.947 501.354C634.365 498.505 638.04 495.489 640.556 491.519" stroke="black" stroke-width="0.93975"/>
<path d="M631.084 502.006C637.093 501.862 643.193 501.241 649.119 500.149" stroke="black" stroke-width="0.93975"/>
<path d="M641.814 513.82C646.285 512.138 650.37 509.554 653.681 506.97" stroke="black" stroke-width="0.93975"/>
<path d="M610.701 473.597C614.172 470.801 617.642 467.611 620.461 464.299" stroke="black" stroke-width="0.93975"/>
<path d="M608.154 464.618C611.928 463.602 615.611 461.685 618.816 459.904" stroke="black" stroke-width="0.93975"/>
<path d="M609.473 455.267C612.526 454.085 616.088 453.592 619.392 453.395" stroke="black" stroke-width="0.93975"/>
<path d="M612.314 446.651C616.005 446.287 618.483 446.507 622.173 447.666" stroke="black" stroke-width="0.93975"/>
<path d="M612.928 441.172C615.982 439.535 619.407 438.467 622.839 438.922" stroke="black" stroke-width="0.93975"/>
<path d="M611.412 437.126L622.036 429.874" stroke="black" stroke-width="0.93975"/>
<path d="M609.533 434.125L618.581 425.153" stroke="black" stroke-width="0.93975"/>
<path d="M606.965 432.882L613.595 421.554" stroke="black" stroke-width="0.93975"/>
<path d="M633.419 365.933L633.336 382.074" stroke="black" stroke-width="0.93975"/>
<path d="M649.749 368.51C647.37 373.155 644.035 378.656 639.754 382.763" stroke="black" stroke-width="0.93975"/>
<path d="M637.7 365.387C632.957 365.008 628.478 367.577 624.879 370.616" stroke="black" stroke-width="0.93975"/>
<path fill-rule="evenodd" clip-rule="evenodd" d="M662.971 377.709C670.852 380.604 681.309 384.59 680.218 407.732C686.742 400.662 689.728 390.75 681.445 378.247C675.876 372.23 667.722 370.957 662.971 377.709Z" fill="#9D4600" fill-opacity="0.99371" stroke="black" stroke-width="0.5012" stroke-linecap="round" stroke-linejoin="round"/>
<path d="M666.525 385.423C666.844 380.945 673.11 375.398 676.422 374.178" stroke="black" stroke-width="0.93975"/>
<path d="M668.936 389.477C670.587 383.748 677.733 379.201 681.037 377.981" stroke="black" stroke-width="0.93975"/>
<path d="M669.086 397.6C672.14 397.646 683.688 391.243 686.325 387.431" stroke="black" stroke-width="0.93975"/>
<path d="M670.033 393.327C673.746 390.75 680.718 384.908 684.022 383.68" stroke="black" stroke-width="0.93975"/>
<path d="M680.227 398.002C683.008 396.426 683.962 396.812 686.872 393.812" stroke="black" stroke-width="0.93975"/>
<path d="M662.971 377.845C670.897 380.422 680.581 386.264 679.952 407.724" stroke="black" stroke-width="0.93975"/>
<path d="M636.594 460.776L647.377 447.704" stroke="black" stroke-opacity="0.64151" stroke-width="0.93975"/>
<path d="M637.936 463.466L647.574 463.458" stroke="black" stroke-opacity="0.64151" stroke-width="0.93975"/>
<path d="M632.562 450.402L646.036 458.078" stroke="black" stroke-opacity="0.64151" stroke-width="0.93975"/>
<path fill-rule="evenodd" clip-rule="evenodd" d="M650.703 449.099C648.119 448.856 646.641 448.364 644.398 447.538C645.452 464.898 647.187 465.792 649.93 472.339C658.144 477.545 672.353 476.333 678.362 475.03C679.013 475.939 682.567 480.349 680.377 481.637C678.021 483.115 677.066 485.979 676.983 490.609C678.369 492.178 679.824 490.814 681.241 491.822C682.658 492.83 684.325 496.406 685.636 499.475C686.947 502.544 703.095 487.472 700.269 476.181C698.405 465.58 691.236 461.966 691.236 461.966C681.097 456.896 666.851 460.261 661.653 458.321C655.182 456.881 651.112 451.289 650.703 449.099Z" fill="#9D4600" stroke="black" stroke-width="0.5012"/>
<path d="M679.469 479.735C688.213 475.742 697.466 475.416 699.974 475.78" stroke="black" stroke-width="0.93975"/>
<path d="M645.262 456.54C647.164 455.426 649.96 453.054 653.173 453.107" stroke="black" stroke-width="0.93975"/>
<path d="M661.35 475.666C662.903 466.467 666.843 460.261 668.874 458.7" stroke="black" stroke-width="0.93975"/>
<path d="M666.602 476.386C668.155 467.186 672.459 460.616 674.49 459.063" stroke="black" stroke-width="0.93975"/>
<path d="M672.459 475.787C674.012 466.588 677.953 460.616 679.984 459.063" stroke="black" stroke-width="0.93975"/>
<path d="M676.877 475.067C678.43 465.868 683.568 461.336 685.599 459.775" stroke="black" stroke-width="0.93975"/>
<path d="M679.816 477.674C681.37 468.475 689.182 463.367 691.213 461.806" stroke="black" stroke-width="0.93975"/>
<path d="M680.059 479.106C685.386 471.445 694.138 467.725 696.639 467.187" stroke="black" stroke-width="0.93975"/>
<path d="M655.848 474.476C657.401 465.277 661.463 460.261 663.494 458.7" stroke="black" stroke-width="0.93975"/>
<path d="M650.598 472.802C652.151 463.602 656.925 458.942 658.956 457.389" stroke="black" stroke-width="0.93975"/>
<path d="M677.885 491.701C682.015 488.45 684.818 498.937 685.023 500.21C685.228 501.483 686.001 502.779 688.054 503.969" stroke="black" stroke-width="0.93975"/>
<path d="M647.369 466.467C649.044 461.807 652.742 456.676 654.773 455.123" stroke="black" stroke-width="0.93975"/>
<path fill-rule="evenodd" clip-rule="evenodd" d="M670.003 482.698C664.646 491.208 670.829 498.725 677.763 495.709C676.967 489.829 675.467 486.093 680.832 480.432C677.028 480.66 673.61 479.311 670.003 482.698Z" fill="white" stroke="black" stroke-width="0.998766"/>
<path d="M649.795 420.122L652.333 432.625" stroke="black" stroke-width="0.93975"/>
<path d="M652.333 431.609L647.771 446.985" stroke="black" stroke-width="0.93975"/>
<path d="M679.279 480.539C688.714 478.705 697.784 480.539 700.133 481.486" stroke="black" stroke-width="0.93975"/>
<path d="M678.164 482.046C687.833 481.902 696.267 485.858 698.351 487.411" stroke="black" stroke-width="1.01072"/>
<path d="M678.264 483.842C687.569 485.956 691.737 490.677 693.366 492.67" stroke="black" stroke-width="1.00392"/>
<path d="M677.619 485.987C685.97 490.609 687.849 494.398 688.857 496.77" stroke="black" stroke-width="1.00392"/>
<path d="M543.989 529.657L539.506 530.708L544.367 551.441L548.85 550.389L543.989 529.657Z" fill="#296526"/>
<path fill-rule="evenodd" clip-rule="evenodd" d="M576.791 600.762L586.203 611.481L589.711 608.508L580.875 597.405L576.791 600.762Z" fill="#296526"/>
<path fill-rule="evenodd" clip-rule="evenodd" d="M864.084 646.556L852.422 654.772L855.006 658.584L866.986 650.982L864.084 646.556Z" fill="#296526"/>
<path fill-rule="evenodd" clip-rule="evenodd" d="M925.6 595.269L915.203 605.03L918.287 608.444L929.093 599.247L925.6 595.269Z" fill="#296526"/>
<path fill-rule="evenodd" clip-rule="evenodd" d="M958.578 526.409L954.797 535.749L956.866 538.427L960.935 529.54L958.578 526.409Z" fill="#296526"/>
<path d="M650.468 473.309C645.414 464.989 644.77 456.297 644.52 447.788C647.202 449.068 649.316 449.773 650.847 449.326" stroke="black" stroke-width="0.93975"/>
<path d="M632.873 365.448C628.713 355.052 633.517 349.414 638.708 344.473" stroke="black" stroke-width="0.93975"/>
<path fill-rule="evenodd" clip-rule="evenodd" d="M639.651 341.578C639.23 341.045 638.534 340.796 637.716 340.885C636.897 340.973 636.024 341.393 635.287 342.052C634.551 342.71 634.011 343.553 633.788 344.396C633.565 345.238 633.676 346.011 634.096 346.544C634.517 347.077 635.213 347.326 636.032 347.237C636.85 347.149 637.724 346.729 638.46 346.071C639.197 345.412 639.736 344.569 639.96 343.726C640.183 342.884 640.072 342.111 639.651 341.578Z" fill="black"/>
<path d="M612.717 420.758C611.846 420.758 596.781 418.727 596.781 418.727" stroke="black" stroke-width="1.22168"/>
<path d="M606.343 431.768C606.343 431.192 596.484 419.022 596.484 419.022" stroke="black" stroke-width="1.22168"/>
<path d="M460.998 0H-125V1000H460.998V0Z" fill="#0B7226"/>
<path d="M1625.01 0H1042.38V1000H1625.01V0Z" fill="#BC0000"/>
</g>
<defs>
<clipPath id="clip0_51_14">
<rect width="1500" height="1000" fill="white"/>
</clipPath>
</defs>
</svg>
