<svg width="1500" height="1000" viewBox="0 0 1500 1000" fill="none" xmlns="http://www.w3.org/2000/svg">
<g clip-path="url(#clip0_51_15)">
<rect width="1500" height="1000" fill="white"/>
<g clip-path="url(#clip1_51_15)">
<path d="M1582.29 664.294H-82V1000.02H1582.29V664.294Z" fill="#5387F4"/>
<path d="M1582.29 0H-82V335.725H1582.29V0Z" fill="#5387F4"/>
<path d="M1582.29 335.726H-82V664.295H1582.29V335.726Z" fill="white"/>
<path fill-rule="evenodd" clip-rule="evenodd" d="M653.375 558.621L749.36 393.275L845.344 558.621H653.375Z" fill="#FFD200"/>
<path fill-rule="evenodd" clip-rule="evenodd" d="M663.051 554.165L749.547 404.337L836.043 554.165H663.051Z" fill="#00FFFF"/>
<path d="M750.586 476.32L750.01 423.413" stroke="#FFD200" stroke-width="0.322953"/>
<path d="M753.461 479.773L772.425 453.314" stroke="#FFD200" stroke-width="0.322953"/>
<path d="M756.336 482.645L786.795 469.995" stroke="#FFD200" stroke-width="0.322953"/>
<path d="M758.637 486.674L794.27 487.822" stroke="#FFD200" stroke-width="0.322953"/>
<path d="M756.336 491.275L777.023 509.674" stroke="#FFD200" stroke-width="0.322953"/>
<path d="M750.586 489.546V506.226" stroke="#FFD200" stroke-width="0.322953"/>
<path d="M744.265 485.521L717.252 509.103" stroke="#FFD200" stroke-width="0.322953"/>
<path d="M747.14 487.246L735.068 509.675" stroke="#FFD200" stroke-width="0.322953"/>
<path d="M742.542 482.645L697.713 498.172" stroke="#FFD200" stroke-width="0.322953"/>
<path d="M741.967 480.344L710.355 479.196" stroke="#FFD200" stroke-width="0.322953"/>
<path d="M716.676 467.118L744.265 476.32" stroke="#FFD200" stroke-width="0.322953"/>
<path d="M729.895 443.541L746.564 475.743" stroke="#FFD200" stroke-width="0.322953"/>
<path fill-rule="evenodd" clip-rule="evenodd" d="M749.562 467.316C732.268 467.316 719.665 470.491 709.023 474.222L711.728 469.548L714.432 464.859L717.136 460.17L719.84 455.496L722.535 450.807L725.239 446.128L728.236 441.356C732.268 437.815 740.918 436.154 749.557 436.154C758.207 436.154 766.857 437.908 771.181 441.444L773.886 446.128L776.59 450.807L779.294 455.496L781.998 460.17L784.693 464.859L787.397 469.548L790.101 474.222C778.884 470.491 766.857 467.316 749.562 467.316Z" fill="#C453D7"/>
<path fill-rule="evenodd" clip-rule="evenodd" d="M749.569 464.017C732.216 463.992 712.823 469.189 711.734 469.551L714.439 464.862L717.143 460.173L719.847 455.499L722.542 450.81L725.246 446.13L728.243 441.359C732.275 437.817 740.924 436.157 749.564 436.157C758.214 436.157 766.863 437.91 771.188 441.446L773.892 446.13L776.597 450.81L779.301 455.499L782.005 460.173L784.7 464.862L787.404 469.551C787.404 469.551 766.863 464.017 749.569 464.017Z" fill="#5000C1"/>
<path fill-rule="evenodd" clip-rule="evenodd" d="M749.561 460.271C736.748 460.218 716.032 463.759 714.572 464.428L717.135 460.169L719.839 455.495L722.534 450.806L725.238 446.127L728.235 441.355C732.267 437.813 740.916 436.153 749.556 436.153C758.206 436.153 766.855 437.906 771.18 441.443L773.884 446.127L776.589 450.806L779.293 455.495L781.997 460.169L784.692 464.858C784.692 464.858 766.855 460.271 749.561 460.271Z" fill="#0053D7"/>
<path fill-rule="evenodd" clip-rule="evenodd" d="M749.555 456.388C732.568 456.359 718.452 459.631 717.129 460.168L719.833 455.494L722.528 450.805L725.232 446.126L728.229 441.354C732.261 437.813 740.91 436.152 749.55 436.152C758.2 436.152 766.849 437.906 771.174 441.442L773.878 446.126L776.583 450.805L779.287 455.494L781.991 460.168C781.991 460.168 766.849 456.388 749.555 456.388Z" fill="#009F9F"/>
<path fill-rule="evenodd" clip-rule="evenodd" d="M749.562 453.084C732.18 453.02 721.27 455.262 719.84 455.492L722.534 450.803L725.239 446.124L728.236 441.352C732.268 437.811 740.917 436.15 749.557 436.15C758.207 436.15 766.856 437.903 771.181 441.44L773.885 446.124L776.589 450.803L779.294 455.492C779.294 455.492 766.856 453.084 749.562 453.084Z" fill="#FFFF00"/>
<path fill-rule="evenodd" clip-rule="evenodd" d="M749.413 448.766C734.272 448.439 723.157 450.842 722.527 450.803L725.232 446.124L728.229 441.352C732.261 437.811 740.91 436.15 749.55 436.15C758.2 436.15 766.849 437.903 771.174 441.44L773.878 446.124L776.582 450.803C776.582 450.803 766.708 448.766 749.413 448.766Z" fill="#FF5500"/>
<path fill-rule="evenodd" clip-rule="evenodd" d="M749.978 443.743C734.782 443.87 726.914 445.863 725.225 446.131L728.222 441.359C732.254 437.818 740.903 436.158 749.543 436.158C758.193 436.158 766.842 437.911 771.167 441.447L773.871 446.131C773.871 446.131 767.272 443.743 749.978 443.743Z" fill="#FF0B00"/>
<path fill-rule="evenodd" clip-rule="evenodd" d="M663.051 554.164L687.408 512.033H811.685L836.043 554.164H663.051Z" fill="#4363FF"/>
<path fill-rule="evenodd" clip-rule="evenodd" d="M747.873 530.971C747.873 530.971 761.238 528.529 769.886 521.207C778.53 513.89 778.534 501.689 782.462 501.689C786.395 501.689 787.178 515.517 796.61 520.396C806.042 525.276 820.979 531.782 820.979 531.782L747.873 530.971Z" fill="#6DA700" stroke="black" stroke-width="0.3176"/>
<path fill-rule="evenodd" clip-rule="evenodd" d="M801.326 525.276C780.101 515.517 792.682 520.396 786.394 516.328C783.245 508.195 778.534 501.689 782.462 501.689C786.394 501.689 787.178 515.517 796.61 520.396C806.042 525.276 809.974 526.497 809.974 526.497L801.326 525.276Z" fill="#FFBD00"/>
<path fill-rule="evenodd" clip-rule="evenodd" d="M730.184 530.971C730.184 530.971 743.548 528.529 752.197 521.207C760.84 513.89 760.845 501.689 764.773 501.689C768.705 501.689 769.489 515.517 778.921 520.396C788.353 525.276 803.289 531.782 803.289 531.782L730.184 530.971Z" fill="#6DA700" stroke="black" stroke-width="0.3176"/>
<path fill-rule="evenodd" clip-rule="evenodd" d="M783.638 525.276C762.414 515.517 774.995 520.396 768.707 516.328C765.558 508.195 760.846 501.689 764.774 501.689C768.707 501.689 769.49 515.517 778.922 520.396C788.354 525.276 792.287 526.497 792.287 526.497L783.638 525.276Z" fill="#FFBD00"/>
<path fill-rule="evenodd" clip-rule="evenodd" d="M712.5 530.971C712.5 530.971 725.864 528.529 734.513 521.207C743.157 513.89 743.161 501.689 747.089 501.689C751.021 501.689 751.805 515.517 761.237 520.396C770.669 525.276 785.606 531.782 785.606 531.782L712.5 530.971Z" fill="#6DA700" stroke="black" stroke-width="0.3176"/>
<path fill-rule="evenodd" clip-rule="evenodd" d="M765.953 525.276C744.728 515.517 757.309 520.396 751.021 516.328C747.872 508.195 743.161 501.689 747.089 501.689C751.021 501.689 751.805 515.517 761.237 520.396C770.669 525.276 774.601 526.497 774.601 526.497L765.953 525.276Z" fill="#FFBD00"/>
<path fill-rule="evenodd" clip-rule="evenodd" d="M692.455 530.564C692.455 530.564 705.82 528.122 714.468 520.8C723.112 513.484 723.116 501.283 727.044 501.283C730.977 501.283 731.76 515.11 741.192 519.99C750.624 524.869 765.561 531.375 765.561 531.375L692.455 530.564Z" fill="#6DA700" stroke="black" stroke-width="0.3176"/>
<path fill-rule="evenodd" clip-rule="evenodd" d="M745.908 524.869C724.683 515.11 737.264 519.99 730.976 515.921C727.827 507.789 723.116 501.283 727.044 501.283C730.976 501.283 731.76 515.11 741.192 519.99C750.624 524.869 754.556 526.09 754.556 526.09L745.908 524.869Z" fill="#FFBD00"/>
<path fill-rule="evenodd" clip-rule="evenodd" d="M677.52 530.564C677.52 530.564 690.884 528.122 699.532 520.8C708.176 513.484 708.181 501.283 712.109 501.283C716.041 501.283 716.825 515.11 726.257 519.99C735.689 524.869 750.625 531.375 750.625 531.375L677.52 530.564Z" fill="#6DA700" stroke="black" stroke-width="0.3176"/>
<path fill-rule="evenodd" clip-rule="evenodd" d="M730.972 524.869C709.748 515.11 722.329 519.99 716.041 515.921C712.892 507.789 708.18 501.283 712.108 501.283C716.041 501.283 716.824 515.11 726.256 519.99C735.688 524.869 739.621 526.09 739.621 526.09L730.972 524.869Z" fill="#FFBD00"/>
<path fill-rule="evenodd" clip-rule="evenodd" d="M744.555 479.988C744.689 479.988 744.791 479.511 745.132 479.087C745.861 478.677 746.632 478.355 747.643 478.187C748.191 477.975 749.311 478.036 750.157 478.036C751.342 478.118 751.418 478.511 752.091 479.087C752.386 479.557 753.085 480.208 753.443 480.889C753.827 481.251 754.132 481.815 754.408 482.242C754.687 482.703 754.989 483.398 755.373 484.046C755.573 484.765 755.76 485.329 755.76 486.149C755.76 487.003 755.58 487.368 755.373 487.953C754.785 488.103 753.637 488.177 753.056 487.953C752.432 487.519 751.362 487.795 750.929 487.35C749.819 487.231 749.55 486.212 748.999 485.697C748.611 485.258 748.618 484.924 748.224 484.497C747.614 484.158 747.532 483.745 747.259 483.145C747.499 482.502 747.919 482.362 748.611 482.094C748.982 481.672 749.192 481.504 749.192 480.741C749.051 479.889 748.657 479.981 747.643 479.838C746.393 479.838 745.753 479.94 744.555 479.988Z" fill="#FF0000" stroke="black" stroke-width="0.19142"/>
<path d="M673.597 537.422H674.172C672.609 537.422 673.405 537.366 676.488 538.246C679.163 538.693 681.675 539.063 684.596 539.063" stroke="#00FFFF" stroke-width="0.387657"/>
<path d="M670.7 549.76V548.936C670.7 551.514 670.548 549.935 673.597 546.469C676.183 545.834 677.402 547.126 680.539 547.294C682.206 548.475 685.225 548.09 686.911 547.294C687.772 546.77 687.787 546.176 688.647 545.645" stroke="#00FFFF" stroke-width="0.387657"/>
<path d="M677.068 551.409V550.584C677.452 550.801 679.655 550.584 681.12 550.584C684.149 550.584 686.489 550.375 688.067 552.226H689.228" stroke="#00FFFF" stroke-width="0.387657"/>
<path d="M699.066 534.131H699.647H701.962C703.806 533.258 706.486 533.258 708.33 534.131C709.058 537.54 709.997 538.169 712.962 538.246C713.935 537.212 715.936 536.479 717.013 535.78" stroke="#00FFFF" stroke-width="0.387657"/>
<path d="M700.801 539.888H701.381H703.697H708.909" stroke="#00FFFF" stroke-width="0.387657"/>
<path d="M706.013 547.294V546.469C706.013 549.047 705.861 547.461 708.909 544.003C711.215 542.389 712.43 541.488 715.857 542.354C718.32 544.226 719.195 545.316 722.224 545.645C724.977 545.645 726.187 545.016 728.591 544.827" stroke="#00FFFF" stroke-width="0.387657"/>
<path d="M713.541 551.409H714.121C712.499 551.409 713.359 551.506 716.432 549.76C719.314 550.787 721.256 552.17 724.54 552.226C726.418 552.093 727.771 551.409 729.752 551.409" stroke="#00FFFF" stroke-width="0.387657"/>
<path d="M734.385 534.131H734.96H737.276C740.108 534.131 742.871 534.061 745.384 534.956H753.487C754.259 534.956 754.067 535.228 754.067 534.131" stroke="#00FFFF" stroke-width="0.387657"/>
<path d="M732.068 540.712H732.643C731.026 540.712 731.886 540.81 734.959 539.063C737.393 539.329 740.137 539.825 741.907 541.537C744.449 543.116 745.457 544.478 748.854 544.827C750.796 544.681 750.929 543.605 752.906 543.179" stroke="#00FFFF" stroke-width="0.387657"/>
<path d="M740.752 548.936C741.657 548.293 744.705 546.644 747.119 548.118C749.627 549.006 752.39 548.936 755.222 548.936C757.027 547.839 760.075 546.91 761.59 545.645H763.33" stroke="#00FFFF" stroke-width="0.387657"/>
<path d="M765.066 538.246C766.232 538.246 771.188 537.855 773.75 539.063C776.882 538.532 777.988 536.36 780.117 534.131C782.256 534.131 784.06 534.201 785.909 534.955" stroke="#00FFFF" stroke-width="0.387657"/>
<path d="M776.064 548.118C776.114 548.104 778.38 547.468 780.116 547.293C782.727 544.513 783.179 547.349 785.908 548.118C788.932 547.14 790.456 545.03 791.695 542.354" stroke="#00FFFF" stroke-width="0.387657"/>
<path d="M782.431 542.354H783.011C781.305 542.354 782.269 542.501 785.327 539.888C787.363 538.442 787.604 536.981 790.539 536.597C792.157 534.871 793.357 536.388 794.591 537.422" stroke="#00FFFF" stroke-width="0.387657"/>
<path d="M794.592 548.935C794.69 548.285 795.737 544.736 796.327 543.178C798.909 541.711 800.143 541.041 802.12 544.827C804.219 545.638 806.186 547.265 808.487 548.118C809.338 548.118 808.929 548.306 809.642 547.293" stroke="#00FFFF" stroke-width="0.387657"/>
<path d="M802.694 537.422V536.597C802.694 539.175 802.576 537.638 805.01 533.307C807.695 534.005 808.398 536.311 809.642 539.063C812.518 539.063 814.411 538.966 816.009 537.422" stroke="#00FFFF" stroke-width="0.387657"/>
<path d="M816.59 546.469C816.944 545.742 819.255 540.384 821.222 543.178C823.793 544.177 824.191 545.84 827.014 547.293C827.505 546.071 828.046 545.826 829.325 545.645" stroke="#00FFFF" stroke-width="0.387657"/>
<path d="M765.646 549.76H766.221C764.604 549.76 765.464 549.865 768.537 548.118C770.947 546.141 772.141 545.337 773.749 542.354C776.439 542.494 778.499 543.179 781.277 543.179C781.277 542.082 781.08 542.354 781.857 542.354" stroke="#00FFFF" stroke-width="0.387657"/>
<path d="M691.543 539.888C691.543 539.322 693.121 538.428 695.014 537.422C696.396 535.948 697.537 537.331 699.646 537.422" stroke="#00FFFF" stroke-width="0.387657"/>
<path d="M694.434 547.294H695.014C693.397 547.294 694.257 547.392 697.33 545.645C699.553 546.092 700.551 547.657 703.117 548.118" stroke="#00FFFF" stroke-width="0.387657"/>
<path d="M880.187 488.395C874.472 488.306 871.815 490.58 871.726 496.269C871.705 497.583 872.021 499.273 872.473 500.281C874.107 503.839 876.85 504.194 880.379 504.25L890.218 504.404C891.126 504.418 892.114 504.902 892.076 507.374L892.671 507.383L892.784 500.131L892.189 500.121C892.15 502.592 891.147 503.046 890.24 503.031L880.4 502.877C877.433 502.831 873.031 502.728 873.122 496.882C873.183 492.975 875.047 491.505 879.923 491.581L890.416 491.745C891.324 491.759 892.312 492.244 892.276 494.525L892.872 494.534L893.008 485.846L892.412 485.836C892.377 488.117 891.374 488.57 890.466 488.556L880.187 488.395Z" fill="#FFD200" stroke="black" stroke-width="0.322953"/>
<path d="M891.308 479.833L891.205 479.186C888.797 478.78 890.697 476.008 890.096 472.241C889.115 466.096 883.837 462.385 877.701 463.365C870.451 464.524 868.032 470.767 868.87 476.014C869.274 478.546 870.996 481.812 872.3 483.444L878.161 482.507C879.92 482.226 880.933 482.223 881.282 484.225L881.87 484.131L880.614 476.259L880.026 476.353C880.435 478.914 879.442 479.231 877.683 479.512L873.084 480.247C872.193 480.39 872.005 480.42 871.433 479.591C870.769 478.624 870.379 477.356 870.196 476.213C869.369 471.028 873.269 467.714 878.021 466.954C883.42 466.092 888.094 467.625 888.911 472.747C889.493 476.388 887.779 478.754 884.698 480.449L884.811 481.158L891.308 479.833Z" fill="#FFD200" stroke="black" stroke-width="0.322953"/>
<path d="M843.82 392.388L843.318 391.969C840.906 393.251 841.35 390.28 838.064 387.535C833.241 383.507 826.918 384.211 822.932 388.988C818.549 394.241 819.621 400.227 824.298 404.133C826.598 406.055 830.069 406.918 833.035 406.342L833.027 405.521C830.007 405.772 827.762 405.194 825.412 403.232C821.482 399.948 822.75 394.861 825.553 391.502C829.157 387.183 833.524 385.416 837.481 388.722C840.212 391.004 840.464 394.268 838.955 397.487L839.532 397.969L843.82 392.388Z" fill="#FFD200" stroke="black" stroke-width="0.322953"/>
<path d="M822.056 380.006C822.499 379.236 823.393 378.64 825.655 380.021L825.946 379.515L817.822 374.556L817.532 375.062C819.794 376.443 819.717 377.538 819.275 378.308L811.628 391.623C811.187 392.39 810.291 392.989 808.029 391.609L807.738 392.114L815.862 397.073L816.152 396.568C813.89 395.187 813.969 394.088 814.409 393.321L822.056 380.006Z" fill="#FFD200" stroke="black" stroke-width="0.323012"/>
<path d="M811.855 373.601C812.207 372.764 813.025 372.028 815.383 373.021L815.614 372.471L808.762 369.585L808.531 370.134C810.893 371.129 810.938 372.23 810.586 373.067L805.726 384.618L800.471 366.092L795.549 364.019L795.318 364.568C796.715 365.188 796.866 365.559 797.332 366.943L797.44 367.328L791.283 381.963C790.933 382.796 790.113 383.536 787.755 382.543L787.524 383.093L794.376 385.979L794.607 385.43C792.245 384.435 792.201 383.33 792.552 382.497L798.092 369.33L804.199 390.589L804.631 390.771L811.855 373.601Z" fill="#FFD200" stroke="black" stroke-width="0.322953"/>
<path d="M767.99 378.939L769.751 373.762L768.879 373.703C766.959 377.552 764.585 377.42 762.092 377.25L757.981 376.97C757.358 376.927 757.213 376.261 757.251 375.701L757.773 368.026L762.171 368.326C764.255 368.468 765.992 369.183 765.827 371.615L766.484 371.66L766.981 364.365L766.323 364.32C766.158 366.752 764.342 367.191 762.258 367.049L757.86 366.749L758.317 360.044C758.37 359.264 758.994 358.866 759.773 358.919L764.789 359.261C766.971 359.41 767.896 360.981 768.127 362.686L768.814 362.732L769.118 358.274L752.564 357.146L752.524 357.74C754.798 357.895 755.198 358.921 755.136 359.827L754.071 375.484C754.009 376.386 753.474 377.353 751.2 377.198L751.159 377.792L767.99 378.939Z" fill="#FFD200" stroke="black" stroke-width="0.322953"/>
<path d="M682.497 372.571L681.938 372.911C682.367 375.609 679.703 374.226 676.042 376.446C670.674 379.701 669.285 385.918 672.508 391.239C676.052 397.091 682.058 398.018 687.268 394.859C689.832 393.305 691.773 390.3 692.191 387.305L691.412 387.046C690.67 389.986 689.399 391.922 686.778 393.512C682.399 396.167 678.005 393.314 675.739 389.571C672.824 384.759 672.567 380.055 676.975 377.382C680.022 375.534 683.186 376.357 685.739 378.83L686.382 378.44L682.497 372.571Z" fill="#FFD200" stroke="black" stroke-width="0.322953"/>
<path d="M663.555 389.074C662.978 388.372 662.708 387.304 664.71 385.657L664.332 385.197L657.141 391.111L657.519 391.571C659.521 389.925 660.515 390.397 661.092 391.099L671.05 403.223C671.623 403.921 671.896 404.992 669.894 406.639L670.272 407.099L677.463 401.186L677.085 400.725C675.083 402.372 674.086 401.896 673.512 401.198L663.555 389.074Z" fill="#FFD200" stroke="black" stroke-width="0.322953"/>
<path d="M668.746 408.627L665.829 403.795L665.292 404.363C667.221 408.555 665.217 410.491 662.489 413.375C661.158 414.784 660.094 415.411 659.459 414.81L648.067 404.025C647.407 403.4 647.006 402.375 648.572 400.718L648.14 400.309L642.172 406.621L642.604 407.03C644.171 405.373 645.216 405.717 645.876 406.342L657.269 417.127C657.925 417.748 658.33 418.777 656.763 420.434L657.196 420.843L668.746 408.627Z" fill="#FFD200" stroke="black" stroke-width="0.322953"/>
<path d="M629.721 450.489C634.755 453.197 638.159 452.4 640.852 447.388C641.474 446.231 641.97 444.585 642.031 443.481C642.214 439.57 639.942 437.993 636.833 436.321L628.165 431.659C627.366 431.229 626.711 430.344 627.88 428.167L627.355 427.885L623.923 434.274L624.448 434.556C625.617 432.379 626.716 432.438 627.516 432.868L636.184 437.53C638.798 438.936 642.66 441.052 639.893 446.202C638.044 449.643 635.714 450.092 631.419 447.782L622.175 442.81C621.375 442.38 620.72 441.495 621.799 439.486L621.275 439.204L617.164 446.856L617.689 447.138C618.767 445.13 619.866 445.189 620.666 445.619L629.721 450.489Z" fill="#FFD200" stroke="black" stroke-width="0.322953"/>
<path d="M630.867 475.118L625.96 472.709L625.79 473.568C629.36 475.966 628.926 478.302 628.439 480.755L627.636 484.802C627.514 485.415 626.836 485.472 626.285 485.363L618.745 483.864L619.603 479.541C620.01 477.487 620.941 475.855 623.331 476.33L623.458 475.686L616.291 474.262L616.163 474.906C618.552 475.38 618.756 477.237 618.348 479.292L617.49 483.615L610.902 482.306C610.136 482.153 609.821 481.485 609.973 480.719L610.953 475.782C611.379 473.636 613.054 472.917 614.773 472.908L614.907 472.234L610.526 471.363L607.295 487.644L607.879 487.76C608.323 485.522 609.391 485.256 610.282 485.433L625.665 488.49C626.55 488.666 627.441 489.321 626.996 491.559L627.581 491.675L630.867 475.118Z" fill="#FFD200" stroke="black" stroke-width="0.322953"/>
<path d="M625.999 511.153C626.902 511.162 627.897 511.642 627.874 513.83L628.47 513.836L628.561 505.24L627.965 505.234C627.941 507.516 626.936 507.974 626.033 507.964L618.97 507.889L618.93 506.138L628.629 498.801L628.683 493.769L628.087 493.762C627.98 495.168 627.347 495.88 626.308 496.713L618.619 502.821C618.245 499.879 616.741 497.143 613.432 497.108C609.776 497.069 607.932 500.175 607.877 505.364L607.789 513.616L608.385 513.623C608.408 511.435 609.408 510.976 610.316 510.986L625.999 511.153ZM610.506 507.799C609.037 507.784 609.04 507.502 609.062 505.471C609.092 502.657 610.335 500.482 613.425 500.515C616.802 500.551 617.71 503.343 617.818 507.877L610.506 507.799Z" fill="#FFD200" stroke="black" stroke-width="0.322953"/>
<path d="M629.841 468.376C630.716 468.598 631.572 469.298 631.012 471.51L631.59 471.656L633.719 463.231L633.142 463.085C632.583 465.297 631.498 465.507 630.622 465.285L624.139 463.644C624.451 462.788 624.735 461.925 624.957 461.046C625.937 457.167 625.36 452.958 620.878 451.824C617.301 450.919 614.687 454.127 613.508 458.794L611.577 466.431L612.155 466.577C612.676 464.516 613.756 464.306 614.636 464.528L629.841 468.376ZM615.507 461.46C614.267 461.146 614.131 461.047 614.453 459.774C615.188 456.865 616.863 454.322 620.285 455.188C623.796 456.077 624.315 458.626 623.487 461.899C623.365 462.384 623.173 462.884 623.017 463.36L615.507 461.46Z" fill="#FFD200" stroke="black" stroke-width="0.322953"/>
<path d="M645.124 432.635C645.863 433.155 646.411 434.115 644.955 436.184L645.442 436.527L651.107 428.476C653.929 424.466 654.216 420.69 651.15 418.53C648.7 416.804 645.887 417.917 643.908 419.814C644.83 417.519 644.738 415.316 642.595 413.806C639.322 411.5 636.118 413.831 633.35 417.764L628.531 424.614L629.018 424.957C630.474 422.888 631.558 423.078 632.3 423.601L645.124 432.635ZM640.673 425.599L641.572 424.321C643.261 421.921 645.965 419.274 649.006 421.416C651.996 423.522 651.401 426.048 649.532 428.704C648.217 430.573 647.598 430.477 646.704 429.847L640.673 425.599ZM639.651 424.879L633.856 420.796C632.962 420.167 633.586 419.382 635.394 417.143C636.984 415.587 638.895 415.094 640.839 416.463C642.906 417.919 642.942 420.202 641.126 422.782L639.651 424.879Z" fill="#FFD200" stroke="black" stroke-width="0.322953"/>
<path d="M740.375 377.902C748.72 377.249 752.618 372.991 752.124 366.666C751.576 359.654 746.486 356.666 738.515 357.29L730.48 357.918L730.527 358.512C732.799 358.334 733.344 359.291 733.415 360.197L734.637 375.842C734.707 376.743 734.318 377.778 732.046 377.956L732.092 378.55L740.375 377.902ZM736.612 360.197C736.495 358.702 736.766 358.588 738.26 358.471C744.021 358.02 748.258 360.854 748.735 366.965C749.187 372.76 745.776 376.475 739.403 376.69C738.715 376.714 737.881 376.436 737.79 375.282L736.612 360.197Z" fill="#FFD200" stroke="black" stroke-width="0.322953"/>
<path d="M850.38 427.167C849.602 427.627 848.502 427.733 847.389 425.85L846.877 426.153L851.25 433.552L851.763 433.249C850.602 431.286 851.225 430.372 852.002 429.912L858.082 426.314L859.022 427.789L854.528 439.097L857.088 443.427L857.6 443.124C856.964 441.866 857.137 440.93 857.593 439.678L861.007 430.467C862.85 432.788 865.553 434.348 868.402 432.662C871.548 430.8 871.517 427.187 868.877 422.722L864.678 415.618L864.165 415.921C865.278 417.804 864.66 418.715 863.879 419.178L850.38 427.167ZM865.367 422.003C866.631 421.254 866.776 421.498 867.809 423.247C869.241 425.668 869.304 428.173 866.644 429.747C863.737 431.468 861.514 429.549 859.073 425.727L865.367 422.003Z" fill="#FFD200" stroke="black" stroke-width="0.322953"/>
<path d="M854.975 402.626L854.555 402.164L839.146 407.603C836.043 408.695 833.808 409.626 832.392 408.3L831.951 408.7L836.111 413.28L836.552 412.879C835.836 412.091 835.329 411.12 836.095 410.423C836.948 409.648 839.657 408.913 840.811 408.412L846.317 414.473L845.107 417.092C843.849 419.846 843.428 420.269 841.552 418.384L841.111 418.785L846.469 424.684L846.909 424.283C845.665 423.052 846.609 421.302 847.178 420.026L854.975 402.626ZM850.89 404.824L846.968 413.287L842.116 407.945L850.89 404.824Z" fill="#FFD200" stroke="black" stroke-width="0.322953"/>
<path d="M882.559 447.098L882.308 446.526L865.971 446.77C862.679 446.812 860.266 446.986 859.345 445.274L858.799 445.513L861.284 451.18L861.829 450.941C861.404 449.97 861.231 448.883 862.179 448.467C863.234 448.004 866.038 448.175 867.292 448.068L870.581 455.568L868.6 457.665C866.529 459.87 865.997 460.141 864.818 457.757L864.273 457.996L867.474 465.296L868.019 465.056C867.23 463.488 868.684 462.135 869.629 461.106L882.559 447.098ZM877.987 447.879L871.575 454.652L868.676 448.041L877.987 447.879Z" fill="#FFD200" stroke="black" stroke-width="0.322953"/>
<path d="M891.152 519.902L891.226 519.281L877.017 511.208C874.158 509.58 871.99 508.502 872.062 506.563L871.471 506.493L870.743 512.638L871.334 512.708C871.46 511.651 871.861 510.631 872.888 510.753C874.032 510.889 876.364 512.454 877.499 512.996L876.536 521.13L873.767 521.933C870.864 522.789 870.269 522.748 870.46 520.095L869.869 520.025L868.931 527.941L869.523 528.011C869.636 526.264 871.575 525.83 872.911 525.423L891.152 519.902ZM886.815 518.257L877.857 520.844L878.706 513.676L886.815 518.257Z" fill="#FFD200" stroke="black" stroke-width="0.322953"/>
<path d="M698.582 365.908L698.002 366.139L697.662 382.486C697.592 385.778 697.68 388.197 695.937 389.058L696.157 389.611L701.905 387.327L701.685 386.774C700.696 387.167 699.609 387.299 699.227 386.337C698.802 385.265 699.068 382.469 699.005 381.212L706.613 378.189L708.641 380.242C710.77 382.391 711.017 382.934 708.594 384.028L708.814 384.582L716.218 381.64L715.998 381.086C714.408 381.818 713.104 380.318 712.11 379.336L698.582 365.908ZM699.195 370.51L705.737 377.16L699.027 379.826L699.195 370.51Z" fill="#FFD200" stroke="black" stroke-width="0.322953"/>
<path d="M877.678 563.735L873.819 559.617L873.411 560.285C876.169 563.983 874.611 566.294 872.544 569.682C871.535 571.335 870.621 572.169 869.874 571.713L856.493 563.531C855.721 563.058 855.113 562.135 856.301 560.187L855.792 559.878L851.265 567.29L851.771 567.603C852.959 565.655 854.058 565.777 854.834 566.251L868.215 574.434C868.987 574.906 869.595 575.829 868.405 577.771L868.911 578.084L877.678 563.735Z" fill="#FFD200" stroke="black" stroke-width="0.322953"/>
<path d="M818.774 600.626L820.597 599.303C822.367 598.017 823.576 597.023 826.534 599.933L827.139 599.493L823.866 595.303L809.61 605.661L812.58 610.072L813.188 609.629C812.798 608.718 812.296 607.766 812.35 606.724C812.314 605.126 814.375 603.823 816.198 602.5L826.107 616.158C826.642 616.894 826.852 617.977 825.004 619.316L825.352 619.799L832.381 614.692L832.03 614.212C830.185 615.554 829.218 615.019 828.687 614.287L818.774 600.626Z" fill="#FFD200" stroke="black" stroke-width="0.322953"/>
<path d="M807.123 610.195C806.773 609.361 806.819 608.256 809.18 607.262L808.947 606.714L802.096 609.599L802.322 610.144C804.685 609.155 805.502 609.892 805.855 610.731L810.71 622.285L793.802 613.084L788.875 615.155L789.103 615.705C790.527 615.138 790.893 615.289 792.212 615.921L792.563 616.114L798.71 630.754C799.062 631.592 799.02 632.695 796.657 633.685L796.886 634.235L803.743 631.352L803.511 630.805C801.15 631.799 800.33 631.057 799.98 630.222L794.45 617.053L813.903 627.553L814.34 627.372L807.123 610.195Z" fill="#FFD200" stroke="black" stroke-width="0.322953"/>
<path d="M792.552 635.791L792.692 630.325L791.841 630.53C791.154 634.777 788.851 635.361 786.421 635.94L782.41 636.899C781.803 637.045 781.469 636.45 781.339 635.9L779.551 628.423L783.835 627.399C785.872 626.912 787.743 627.076 788.309 629.444L788.945 629.292L787.249 622.177L786.608 622.33C787.175 624.703 785.573 625.664 783.541 626.148L779.257 627.172L777.696 620.637C777.514 619.876 777.989 619.316 778.75 619.134L783.641 617.964C785.768 617.455 787.118 618.675 787.845 620.239L788.513 620.076L787.474 615.732L771.34 619.583L771.48 620.161C773.7 619.634 774.382 620.496 774.594 621.381L778.241 636.642C778.447 637.524 778.226 638.605 776.008 639.137L776.147 639.711L792.552 635.791Z" fill="#FFD200" stroke="black" stroke-width="0.322953"/>
<path d="M769.472 620.846L768.814 620.877C767.903 623.455 766.222 620.968 761.949 621.166C755.673 621.457 751.489 626.25 751.778 632.466C752.093 639.306 756.923 642.991 763.012 642.707C766.008 642.569 769.147 640.856 770.944 638.427L770.384 637.827C768.33 640.052 766.285 641.146 763.226 641.29C758.11 641.53 755.613 636.916 755.41 632.548C755.145 626.927 757.172 622.672 762.319 622.432C765.878 622.263 768.265 624.499 769.326 627.892L770.078 627.861L769.472 620.846Z" fill="#FFD200" stroke="black" stroke-width="0.322953"/>
<path d="M725.626 619.301L724.995 619.111C723.28 621.241 722.524 618.337 718.424 617.103C712.412 615.292 706.87 618.422 705.08 624.382C703.111 630.939 706.444 636.02 712.277 637.775C715.149 638.64 718.683 638.068 721.18 636.373L720.85 635.621C718.174 637.037 715.883 637.39 712.954 636.51C708.045 635.031 707.22 629.854 708.478 625.666C710.099 620.277 713.418 616.936 718.357 618.42C721.766 619.443 723.275 622.346 723.154 625.899L723.869 626.119L725.626 619.301Z" fill="#FFD200" stroke="black" stroke-width="0.322953"/>
<path d="M704.715 615.403C705.069 614.571 705.893 613.834 708.277 614.848L708.513 614.301L699.944 610.657L699.708 611.204C702.097 612.22 702.138 613.321 701.783 614.158L695.648 628.599C695.294 629.432 694.47 630.169 692.085 629.155L691.85 629.702L700.419 633.345L700.65 632.797C698.266 631.783 698.226 630.677 698.58 629.844L704.715 615.403Z" fill="#FFD200" stroke="black" stroke-width="0.322953"/>
<path d="M668.093 616.069L672.536 612.884L671.859 612.329C668.057 614.34 666.208 612.854 664.273 611.267L661.088 608.646C660.608 608.246 660.88 607.62 661.238 607.188L666.117 601.249L669.518 604.049C671.135 605.381 672.134 606.972 670.589 608.852L671.093 609.268L675.739 603.621L675.23 603.202C673.682 605.087 671.95 604.389 670.337 603.059L666.935 600.26L671.201 595.07C671.697 594.466 672.433 594.503 673.034 595.004L676.918 598.2C678.608 599.59 678.451 601.403 677.646 602.923L678.177 603.362L681.013 599.907L668.204 589.363L667.828 589.824C669.588 591.276 669.317 592.344 668.742 593.043L658.777 605.165C658.202 605.864 657.204 606.337 655.441 604.889L655.067 605.346L668.093 616.069Z" fill="#FFD200" stroke="black" stroke-width="0.322953"/>
<path d="M663.395 587.92C664.068 587.316 665.127 586.998 666.651 588.695L667.089 588.3L662.936 583.669L646.587 589.07L653.507 573.154L649.379 568.546L648.938 568.944C650.605 570.806 650.173 571.823 649.499 572.428L637.827 582.907C637.154 583.512 636.095 583.829 634.384 581.923L633.943 582.322L638.909 587.855L639.351 587.463C637.639 585.55 638.068 584.536 638.744 583.928L649.58 574.202L642.123 591.44L642.414 591.767L660.988 585.844L649.613 596.052C648.939 596.656 647.884 596.977 646.36 595.28L645.918 595.672L651.72 602.141L652.157 601.746C650.64 600.048 651.068 599.027 651.741 598.423L663.395 587.92Z" fill="#FFD200" stroke="black" stroke-width="0.322953"/>
<path d="M676.408 618.779C675.984 619.579 675.104 620.244 673.171 619.219L672.89 619.743L680.48 623.774L680.757 623.248C678.741 622.18 678.801 621.077 679.225 620.278L682.533 614.032L684.106 614.798L686.165 626.79L690.608 629.148L690.89 628.623C689.69 627.882 689.347 626.995 689.087 625.69L687.191 616.049C689.981 617.065 693.098 616.988 694.647 614.063C696.362 610.83 694.452 607.767 689.871 605.335L682.585 601.464L682.304 601.988C684.236 603.014 684.181 604.118 683.757 604.918L676.408 618.779ZM686.502 606.55C687.188 605.25 687.439 605.384 689.232 606.339C691.716 607.656 693.076 609.758 691.627 612.492C690.046 615.473 687.148 614.995 683.074 613.011L686.502 606.55Z" fill="#FFD200" stroke="black" stroke-width="0.322953"/>
<path d="M734.621 620.622L734.001 620.549L725.917 634.757C724.287 637.615 723.208 639.783 721.266 639.71L721.197 640.301L727.338 641.034L727.411 640.443C726.357 640.316 725.332 639.91 725.454 638.889C725.595 637.742 727.162 635.407 727.704 634.279L735.831 635.251L736.637 638.02C737.481 640.921 737.442 641.517 734.792 641.327L734.723 641.913L742.631 642.86L742.704 642.269C740.952 642.157 740.527 640.218 740.117 638.875L734.621 620.622ZM732.971 624.959L735.548 633.922L728.382 633.067L732.971 624.959Z" fill="#FFD200" stroke="black" stroke-width="0.322953"/>
<path d="M645.946 561.607L645.657 561.054L629.371 562.374C626.094 562.635 623.695 562.965 622.664 561.321L622.135 561.594L624.989 567.083L625.518 566.811C625.029 565.868 624.786 564.792 625.701 564.322C626.726 563.788 629.536 563.769 630.773 563.581L634.548 570.848L632.715 573.074C630.794 575.413 630.281 575.71 628.945 573.411L628.419 573.687L632.095 580.756L632.624 580.484C631.73 578.972 633.092 577.528 633.966 576.436L645.946 561.607ZM641.435 562.686L635.486 569.866L632.158 563.464L641.435 562.686Z" fill="#FFD200" stroke="black" stroke-width="0.322953"/>
<path d="M839.486 607.192C840.087 607.867 840.404 608.924 838.772 610.381L839.166 610.827L845.582 605.108L845.185 604.665C843.484 606.185 842.468 605.749 841.863 605.07L837.168 599.794L838.433 598.585L850.386 600.824L854.14 597.476L853.75 597.033C852.634 597.897 851.684 597.91 850.368 597.704L840.678 596.125C842.597 593.866 843.609 590.914 841.407 588.437C838.978 585.707 835.437 586.433 831.564 589.885L825.41 595.374L825.804 595.82C827.437 594.363 828.452 594.799 829.054 595.475L839.486 607.192ZM831.538 593.468C830.558 592.373 830.768 592.187 832.29 590.834C834.388 588.961 836.831 588.417 838.888 590.726C841.131 593.246 839.676 595.799 836.4 598.931L831.538 593.468Z" fill="#FFD200" stroke="black" stroke-width="0.322953"/>
<path d="M844.542 575.791L844.177 576.297L852.655 590.269C854.363 593.085 855.733 595.082 854.725 596.746L855.208 597.093L858.832 592.079L858.351 591.727C857.728 592.588 856.875 593.287 856.041 592.678C855.105 592 853.831 589.498 853.105 588.474L857.903 581.838L860.718 582.482C863.662 583.153 864.164 583.477 862.71 585.702L863.188 586.047L867.858 579.592L867.378 579.241C866.428 580.719 864.524 580.145 863.156 579.854L844.542 575.791ZM847.524 579.339L856.61 581.443L852.381 587.294L847.524 579.339Z" fill="#FFD200" stroke="black" stroke-width="0.322953"/>
<path d="M623.789 543.168C626.37 543.168 628.462 541.165 628.462 538.695C628.462 536.224 626.37 534.222 623.789 534.222C621.208 534.222 619.115 536.224 619.115 538.695C619.115 541.165 621.208 543.168 623.789 543.168Z" fill="#FFD200" stroke="black" stroke-width="0.322953"/>
<path d="M873.726 548.861C876.308 548.861 878.4 546.859 878.4 544.388C878.4 541.918 876.308 539.915 873.726 539.915C871.145 539.915 869.053 541.918 869.053 544.388C869.053 546.859 871.145 548.861 873.726 548.861Z" fill="#FFD200" stroke="black" stroke-width="0.322953"/>
</g>
</g>
<defs>
<clipPath id="clip0_51_15">
<rect width="1500" height="1000" fill="white"/>
</clipPath>
<clipPath id="clip1_51_15">
<rect width="1664.29" height="1000" fill="white" transform="translate(-82)"/>
</clipPath>
</defs>
</svg>
