<svg width="1500" height="1000" viewBox="0 0 1500 1000" fill="none" xmlns="http://www.w3.org/2000/svg">
<g clip-path="url(#clip0_51_17)">
<rect width="1500" height="1000" fill="white"/>
<g clip-path="url(#clip1_51_17)">
<path d="M1511.09 0H-10.1328V1000H1511.09V0Z" fill="white"/>
<path d="M1511.1 0.605957H748.477V493.369H1511.1V0.605957Z" fill="#DB0000"/>
<path d="M748.559 493.376H-12V999.775H748.559V493.376Z" fill="#0000AB"/>
<path fill-rule="evenodd" clip-rule="evenodd" d="M460.114 344.871L368.606 287.341L277.549 345.423L311.404 251.053L220.51 192.763L332.972 191.949L367.85 97.8535L403.464 191.733L515.926 191.857L425.502 250.685L460.114 344.871Z" fill="#0000AB"/>
<path fill-rule="evenodd" clip-rule="evenodd" d="M1237.15 858.057L1145.62 800.548L1054.57 858.63L1088.44 764.239L997.547 705.953L1109.99 705.156L1144.87 611.052L1180.5 704.931L1292.96 705.054L1202.52 763.892L1237.15 858.057Z" fill="#D80000"/>
</g>
</g>
<defs>
<clipPath id="clip0_51_17">
<rect width="1500" height="1000" fill="white"/>
</clipPath>
<clipPath id="clip1_51_17">
<rect width="1523.1" height="1000" fill="white" transform="translate(-12)"/>
</clipPath>
</defs>
</svg>
