<svg width="1500" height="1000" viewBox="0 0 1500 1000" fill="none" xmlns="http://www.w3.org/2000/svg">
<g clip-path="url(#clip0_51_18)">
<rect width="1500" height="1000" fill="white"/>
<g clip-path="url(#clip1_51_18)">
<path d="M600.55 -0.00439453H0.00195312V998.676H600.55V-0.00439453Z" fill="#009900" stroke="url(#paint0_linear_51_18)" stroke-width="0.133305"/>
<path d="M1500.04 1.32422H599.221V1000H1500.04V1.32422Z" fill="#FF0000"/>
<path d="M565.089 415.839L566.938 378.569L817.473 353.786L815.624 391.056L565.089 415.839Z" fill="black"/>
<path d="M567.764 411.214L569.18 382.671L814.8 358.374L813.385 386.917L567.764 411.214Z" fill="#EFEF00"/>
<path d="M565.042 383.078L565.648 370.845L818.712 345.812L818.105 358.044L565.042 383.078Z" fill="black"/>
<path d="M567.506 378.477L567.678 375.011L816.244 350.423L816.072 353.889L567.506 378.477Z" fill="#EFEF00"/>
<path d="M563.02 423.853L563.627 411.621L816.69 386.587L816.084 398.82L563.02 423.853Z" fill="black"/>
<path d="M565.484 419.253L565.656 415.787L814.222 391.199L814.05 394.665L565.484 419.253Z" fill="#EFEF00"/>
<path d="M602.96 534.859L604.809 497.589L855.344 472.806L853.496 510.076L602.96 534.859Z" fill="black"/>
<path d="M605.635 530.233L607.051 501.691L852.672 477.394L851.256 505.936L605.635 530.233Z" fill="#EFEF00"/>
<path d="M602.913 502.098L603.52 489.865L856.583 464.832L855.976 477.064L602.913 502.098Z" fill="black"/>
<path d="M605.377 497.497L605.549 494.031L854.115 469.443L853.943 472.909L605.377 497.497Z" fill="#EFEF00"/>
<path d="M600.891 542.873L601.498 530.641L854.562 505.607L853.955 517.84L600.891 542.873Z" fill="black"/>
<path d="M603.355 538.273L603.527 534.807L852.093 510.219L851.921 513.685L603.355 538.273Z" fill="#EFEF00"/>
<path d="M587.808 668.99L589.656 631.72L840.192 606.937L838.343 644.207L587.808 668.99Z" fill="black"/>
<path d="M590.483 664.364L591.898 635.822L837.519 611.525L836.104 640.067L590.483 664.364Z" fill="#EFEF00"/>
<path d="M587.761 636.228L588.367 623.996L841.431 598.962L840.824 611.195L587.761 636.228Z" fill="black"/>
<path d="M590.225 631.628L590.396 628.162L838.962 603.574L838.791 607.04L590.225 631.628Z" fill="#EFEF00"/>
<path d="M585.739 677.004L586.346 664.771L839.409 639.738L838.803 651.971L585.739 677.004Z" fill="black"/>
<path d="M588.203 672.404L588.375 668.938L836.941 644.35L836.769 647.816L588.203 672.404Z" fill="#EFEF00"/>
<path d="M621.632 659.544L619.783 622.274L369.248 597.491L371.096 634.761L621.632 659.544Z" fill="black"/>
<path d="M618.957 654.918L617.541 626.376L371.92 602.079L373.336 630.621L618.957 654.918Z" fill="#EFEF00"/>
<path d="M621.679 626.783L621.072 614.55L368.009 589.517L368.615 601.749L621.679 626.783Z" fill="black"/>
<path d="M619.215 622.182L619.043 618.716L370.477 594.128L370.649 597.594L619.215 622.182Z" fill="#EFEF00"/>
<path d="M623.7 667.558L623.094 655.326L370.03 630.293L370.637 642.525L623.7 667.558Z" fill="black"/>
<path d="M621.236 662.958L621.064 659.492L372.499 634.904L372.67 638.37L621.236 662.958Z" fill="#EFEF00"/>
<path d="M591.265 548.052L602.289 514.445L335.143 486.016L324.118 519.623L591.265 548.052Z" fill="black"/>
<path d="M589.942 543.822L598.385 518.085L336.479 490.213L328.036 515.95L589.942 543.822Z" fill="#EFEF00"/>
<path d="M602.798 518.552L606.416 507.521L336.574 478.805L332.956 489.836L602.798 518.552Z" fill="black"/>
<path d="M601.697 514.349L602.723 511.224L337.676 483.018L336.651 486.143L601.697 514.349Z" fill="#EFEF00"/>
<path d="M590.735 555.32L594.354 544.29L324.512 515.573L320.893 526.604L590.735 555.32Z" fill="black"/>
<path d="M589.635 551.117L590.66 547.992L325.614 519.786L324.589 522.911L589.635 551.117Z" fill="#EFEF00"/>
<path d="M542.295 537.824L569.463 509.075L373.005 374.977L345.837 403.726L542.295 537.824Z" fill="black"/>
<path d="M543.563 533.129L564.369 511.112L371.765 379.644L350.959 401.661L543.563 533.129Z" fill="#EFEF00"/>
<path d="M567.616 513.325L576.533 503.889L378.093 368.437L369.176 377.873L567.616 513.325Z" fill="black"/>
<path d="M569.046 508.745L571.572 506.071L376.659 373.027L374.133 375.7L569.046 508.745Z" fill="#EFEF00"/>
<path d="M537.891 544.778L546.809 535.342L348.368 399.891L339.451 409.327L537.891 544.778Z" fill="black"/>
<path d="M539.321 540.198L541.848 537.525L346.934 404.481L344.408 407.154L539.321 540.198Z" fill="#EFEF00"/>
<path fill-rule="evenodd" clip-rule="evenodd" d="M818.953 509.583C819.048 633.915 717.992 734.822 593.395 734.822C468.782 735.022 367.554 634.274 367.473 509.945C367.17 385.614 468.055 284.524 592.668 284.343C717.281 283.941 818.651 384.521 818.933 508.858C818.949 509.112 818.949 509.323 818.949 509.577L818.953 509.583ZM871.906 509.581C872.023 663.079 747.273 787.647 593.443 787.647C439.594 787.901 314.637 663.524 314.516 510.024C314.153 356.523 438.706 231.736 592.555 231.494C746.389 231.011 871.543 355.187 871.906 508.695C871.91 508.999 871.91 509.263 871.91 509.573L871.906 509.581Z" fill="#EFEF00" fill-opacity="0.99967"/>
<path fill-rule="evenodd" clip-rule="evenodd" d="M866.333 509.589C866.447 660.027 744.19 782.113 593.419 782.113C442.667 782.35 320.19 660.461 320.071 510.023C319.715 359.604 441.777 237.32 592.549 237.083C743.312 236.61 865.957 358.302 866.313 508.72C866.323 509.036 866.323 509.293 866.323 509.589H866.333ZM860.869 509.589C860.982 657.008 741.171 776.668 593.433 776.668C445.686 776.885 325.661 657.442 325.562 510.023C325.206 362.603 444.816 242.766 592.583 242.529C740.322 242.055 860.513 361.321 860.869 508.74C860.873 509.036 860.873 509.293 860.873 509.589H860.869Z" fill="black"/>
<path fill-rule="evenodd" clip-rule="evenodd" d="M830.146 509.58C830.245 640.087 724.186 745.998 593.391 745.998C462.611 746.203 356.361 640.463 356.258 509.957C355.95 379.467 461.839 273.384 592.636 273.179C723.424 272.768 829.82 378.337 830.129 508.827C830.137 509.101 830.137 509.323 830.137 509.58H830.146ZM825.406 509.58C825.504 637.468 721.567 741.274 593.403 741.274C465.231 741.462 361.108 637.844 361.022 509.957C360.713 382.069 464.476 278.108 592.665 277.903C720.831 277.492 825.098 380.956 825.406 508.844C825.41 509.101 825.41 509.323 825.41 509.58H825.406Z" fill="black"/>
<path d="M615.408 230.835H580.797V790.057H615.408V230.835Z" fill="black"/>
<path d="M611.339 236.318H584.832V784.57H611.339V236.318Z" fill="#EFEF00"/>
<path d="M584.829 227.083H573.469V791.948H584.829V227.083Z" fill="black"/>
<path d="M580.764 232.099H577.545V786.924H580.764V232.099Z" fill="#EFEF00"/>
<path d="M622.696 227.083H611.336V791.948H622.696V227.083Z" fill="black"/>
<path d="M618.631 232.099H615.412V786.924H618.631V232.099Z" fill="#EFEF00"/>
<path d="M596.781 592.52L583.926 557.481L337.311 608.037L350.166 643.076L596.781 592.52Z" fill="black"/>
<path d="M592.85 588.896L583.006 562.062L341.229 611.626L351.073 638.46L592.85 588.896Z" fill="#EFEF00"/>
<path d="M587.079 561.224L582.859 549.724L333.756 600.79L337.975 612.29L587.079 561.224Z" fill="black"/>
<path d="M583.358 557.562L582.162 554.303L337.486 604.462L338.681 607.72L583.358 557.562Z" fill="#EFEF00"/>
<path d="M601.143 599.559L596.924 588.059L347.82 639.125L352.04 650.625L601.143 599.559Z" fill="black"/>
<path d="M597.422 595.897L596.227 592.638L351.55 642.797L352.746 646.055L597.422 595.897Z" fill="#EFEF00"/>
<path d="M572.521 488.887L570.854 453.133L312.289 481.152L313.957 516.906L572.521 488.887Z" fill="black"/>
<path d="M569.791 484.958L568.514 457.576L315.021 485.046L316.298 512.427L569.791 484.958Z" fill="#EFEF00"/>
<path d="M572.784 457.111L572.236 445.375L311.063 473.678L311.61 485.413L572.784 457.111Z" fill="black"/>
<path d="M570.268 453.162L570.113 449.837L313.581 477.636L313.737 480.961L570.268 453.162Z" fill="#EFEF00"/>
<path d="M574.608 496.228L574.061 484.493L312.887 512.795L313.434 524.53L574.608 496.228Z" fill="black"/>
<path d="M572.093 492.279L571.938 488.954L315.406 516.753L315.561 520.078L572.093 492.279Z" fill="#EFEF00"/>
<path d="M555.768 479.477L577.197 446.247L359.439 350.34L338.01 383.57L555.768 479.477Z" fill="black"/>
<path d="M556.153 474.629L572.564 449.181L359.078 355.155L342.667 380.603L556.153 474.629Z" fill="#EFEF00"/>
<path d="M576.162 450.762L583.195 439.855L363.24 342.98L356.206 353.887L576.162 450.762Z" fill="black"/>
<path d="M576.726 445.998L578.719 442.908L362.672 347.755L360.68 350.845L576.726 445.998Z" fill="#EFEF00"/>
<path d="M552.717 487.118L559.75 476.211L339.794 379.336L332.761 390.243L552.717 487.118Z" fill="black"/>
<path d="M553.281 482.354L555.273 479.264L339.227 384.11L337.234 387.2L553.281 482.354Z" fill="#EFEF00"/>
<path d="M875.048 492.115L875.512 456.382L615.648 443.788L615.184 479.521L875.048 492.115Z" fill="black"/>
<path d="M872.555 487.79L872.91 460.424L618.144 448.077L617.789 475.443L872.555 487.79Z" fill="#EFEF00"/>
<path d="M877.201 460.63L877.354 448.901L614.868 436.18L614.715 447.909L877.201 460.63Z" fill="black"/>
<path d="M874.926 456.319L874.969 452.996L617.148 440.501L617.105 443.824L874.926 456.319Z" fill="#EFEF00"/>
<path d="M876.693 499.724L876.846 487.996L614.36 475.275L614.208 487.003L876.693 499.724Z" fill="black"/>
<path d="M874.418 495.414L874.461 492.091L616.64 479.596L616.597 482.919L874.418 495.414Z" fill="#EFEF00"/>
<path d="M838.867 385.312L828.686 353.313L614.124 346.558L624.306 378.556L838.867 385.312Z" fill="black"/>
<path d="M835.567 381.483L827.77 356.978L617.417 350.355L625.214 374.86L835.567 381.483Z" fill="#EFEF00"/>
<path d="M831.313 357.087L827.971 346.584L611.244 339.761L614.586 350.263L831.313 357.087Z" fill="black"/>
<path d="M828.193 353.267L827.246 350.292L614.371 343.589L615.318 346.565L828.193 353.267Z" fill="#EFEF00"/>
<path d="M842.451 392.095L839.109 381.593L622.383 374.769L625.725 385.272L842.451 392.095Z" fill="black"/>
<path d="M839.332 388.276L838.385 385.3L625.51 378.598L626.457 381.574L839.332 388.276Z" fill="#EFEF00"/>
<path d="M842.091 639.517L857.543 606.31L618.359 519.039L602.907 552.247L842.091 639.517Z" fill="black"/>
<path d="M841.563 634.757L853.396 609.326L618.904 523.767L607.07 549.198L841.563 634.757Z" fill="#EFEF00"/>
<path d="M857.348 610.764L862.42 599.865L620.822 511.714L615.75 522.613L857.348 610.764Z" fill="black"/>
<path d="M857.018 606.081L858.455 602.993L621.151 516.408L619.714 519.496L857.018 606.081Z" fill="#EFEF00"/>
<path d="M840.442 647.096L845.514 636.196L603.916 548.045L598.844 558.945L840.442 647.096Z" fill="black"/>
<path d="M840.112 642.412L841.549 639.324L604.245 552.74L602.808 555.828L840.112 642.412Z" fill="#EFEF00"/>
<path d="M752.81 325.963H431.814V561.732H752.81V325.963Z" fill="#F6F6FB"/>
<path d="M592.293 704.145C680.931 704.145 752.786 637.426 752.786 555.123C752.786 472.82 680.931 406.101 592.293 406.101C503.654 406.101 431.799 472.82 431.799 555.123C431.799 637.426 503.654 704.145 592.293 704.145Z" fill="#F6F6FB"/>
<path d="M678.979 394.956H505.641V522.268H678.979V394.956Z" fill="#F6F6FB"/>
<path d="M592.316 616.931C640.182 616.931 678.985 580.902 678.985 536.459C678.985 492.015 640.182 455.987 592.316 455.987C544.45 455.987 505.646 492.015 505.646 536.459C505.646 580.902 544.45 616.931 592.316 616.931Z" fill="#F6F6FB"/>
<path d="M744.76 335.415H439.814V559.395H744.76V335.415Z" fill="#FF0000"/>
<path d="M592.268 694.688C676.474 694.688 744.737 631.305 744.737 553.117C744.737 474.929 676.474 411.546 592.268 411.546C508.062 411.546 439.799 474.929 439.799 553.117C439.799 631.305 508.062 694.688 592.268 694.688Z" fill="#FF0000"/>
<path d="M674.621 400.958H509.949V521.905H674.621V400.958Z" fill="#FF0000"/>
<path d="M592.291 611.835C637.763 611.835 674.626 577.608 674.626 535.386C674.626 493.165 637.763 458.938 592.291 458.938C546.818 458.938 509.955 493.165 509.955 535.386C509.955 577.608 546.818 611.835 592.291 611.835Z" fill="#FF0000"/>
<path d="M683.298 407.811H501.293V541.491H683.298V407.811Z" fill="#440000"/>
<path d="M592.283 622.24C642.541 622.24 683.283 584.41 683.283 537.744C683.283 491.079 642.541 453.249 592.283 453.249C542.025 453.249 501.283 491.079 501.283 537.744C501.283 584.41 542.025 622.24 592.283 622.24Z" fill="#440000"/>
<path d="M641.435 446.93H543.152V519.116H641.435V446.93Z" fill="#440000"/>
<path d="M592.298 572.789C619.438 572.789 641.439 552.361 641.439 527.162C641.439 501.962 619.438 481.534 592.298 481.534C565.158 481.534 543.156 501.962 543.156 527.162C543.156 552.361 565.158 572.789 592.298 572.789Z" fill="#440000"/>
<path d="M674.416 418.257H510.156V538.904H674.416V418.257Z" fill="white"/>
<path d="M592.276 611.78C637.634 611.78 674.404 577.638 674.404 535.522C674.404 493.406 637.634 459.265 592.276 459.265C546.918 459.265 510.148 493.406 510.148 535.522C510.148 577.638 546.918 611.78 592.276 611.78Z" fill="white"/>
<path d="M636.636 453.562H547.936V518.71H636.636V453.562Z" fill="white"/>
<path d="M592.288 567.151C616.782 567.151 636.638 548.715 636.638 525.972C636.638 503.229 616.782 484.793 592.288 484.793C567.794 484.793 547.938 503.229 547.938 525.972C547.938 548.715 567.794 567.151 592.288 567.151Z" fill="white"/>
<path d="M617.63 547.232H569.48V582.598H617.63V547.232Z" fill="#3B3BFF"/>
<path d="M593.553 603.96C606.848 603.96 617.627 593.952 617.627 581.606C617.627 569.261 606.848 559.253 593.553 559.253C580.257 559.253 569.479 569.261 569.479 581.606C569.479 593.952 580.257 603.96 593.553 603.96Z" fill="#3B3BFF"/>
<path d="M606.555 557.582H580.555V576.678H606.555V557.582Z" fill="#3B3BFF"/>
<path d="M593.555 590.878C600.735 590.878 606.555 585.474 606.555 578.807C606.555 572.141 600.735 566.736 593.555 566.736C586.375 566.736 580.555 572.141 580.555 578.807C580.555 585.474 586.375 590.878 593.555 590.878Z" fill="#3B3BFF"/>
<path d="M616.422 548.65H570.68V582.247H616.422V548.65Z" fill="#3B3BFF"/>
<path d="M593.548 602.541C606.179 602.541 616.418 593.034 616.418 581.306C616.418 569.577 606.179 560.07 593.548 560.07C580.917 560.07 570.678 569.577 570.678 581.306C570.678 593.034 580.917 602.541 593.548 602.541Z" fill="#3B3BFF"/>
<path d="M605.9 558.482H581.199V576.624H605.9V558.482Z" fill="#3B3BFF"/>
<path d="M593.55 590.113C600.37 590.113 605.9 584.979 605.9 578.646C605.9 572.313 600.37 567.179 593.55 567.179C586.729 567.179 581.199 572.313 581.199 578.646C581.199 584.979 586.729 590.113 593.55 590.113Z" fill="#3B3BFF"/>
<path d="M607.203 559.51H579.902V579.562H607.203V559.51Z" fill="#3B3BFF"/>
<path d="M593.55 591.674C601.089 591.674 607.2 585.999 607.2 579C607.2 572 601.089 566.325 593.55 566.325C586.012 566.325 579.9 572 579.9 579C579.9 585.999 586.012 591.674 593.55 591.674Z" fill="#3B3BFF"/>
<path d="M600.922 565.377H586.18V576.205H600.922V565.377Z" fill="#3B3BFF"/>
<path d="M593.551 584.257C597.622 584.257 600.922 581.192 600.922 577.413C600.922 573.633 597.622 570.568 593.551 570.568C589.48 570.568 586.18 573.633 586.18 577.413C586.18 581.192 589.48 584.257 593.551 584.257Z" fill="#3B3BFF"/>
<path d="M605.871 561.077H581.232V579.174H605.871V561.077Z" fill="#3B3BFF"/>
<path d="M593.55 590.105C600.353 590.105 605.869 584.984 605.869 578.667C605.869 572.349 600.353 567.228 593.55 567.228C586.746 567.228 581.23 572.349 581.23 578.667C581.23 584.984 586.746 590.105 593.55 590.105Z" fill="#3B3BFF"/>
<path d="M600.204 566.373H586.898V576.145H600.204V566.373Z" fill="#3B3BFF"/>
<path d="M593.551 583.411C597.225 583.411 600.204 580.645 600.204 577.234C600.204 573.823 597.225 571.057 593.551 571.057C589.877 571.057 586.898 573.823 586.898 577.234C586.898 580.645 589.877 583.411 593.551 583.411Z" fill="#3B3BFF"/>
<path d="M579.087 564.428C583.064 564.428 586.288 561.211 586.288 557.243C586.288 553.275 583.064 550.059 579.087 550.059C575.111 550.059 571.887 553.275 571.887 557.243C571.887 561.211 575.111 564.428 579.087 564.428Z" fill="white"/>
<path d="M606.078 564.428C610.055 564.428 613.278 561.211 613.278 557.243C613.278 553.275 610.055 550.059 606.078 550.059C602.101 550.059 598.877 553.275 598.877 557.243C598.877 561.211 602.101 564.428 606.078 564.428Z" fill="white"/>
<path d="M592.345 579.56C596.322 579.56 599.546 576.343 599.546 572.375C599.546 568.407 596.322 565.19 592.345 565.19C588.368 565.19 585.145 568.407 585.145 572.375C585.145 576.343 588.368 579.56 592.345 579.56Z" fill="white"/>
<path d="M580.136 594.215C584.113 594.215 587.337 590.998 587.337 587.03C587.337 583.062 584.113 579.845 580.136 579.845C576.159 579.845 572.936 583.062 572.936 587.03C572.936 590.998 576.159 594.215 580.136 594.215Z" fill="white"/>
<path d="M605.793 594.69C609.769 594.69 612.993 591.473 612.993 587.505C612.993 583.537 609.769 580.32 605.793 580.32C601.816 580.32 598.592 583.537 598.592 587.505C598.592 591.473 601.816 594.69 605.793 594.69Z" fill="white"/>
<path fill-rule="evenodd" clip-rule="evenodd" d="M444.625 368.325V372.893H505.665V368.325H444.625ZM449.922 355.722V368.436H501.805V355.722H449.922ZM445.343 397.521V402.089H506.383V397.521H445.343ZM461.701 396.108C461.695 387.815 468.081 381.085 475.956 381.085C483.833 381.073 490.229 387.791 490.235 396.083V396.271M460.115 396.933C460.109 387.72 467.205 380.241 475.956 380.241C484.707 380.227 491.813 387.692 491.821 396.907C491.821 396.979 491.821 397.042 491.819 397.114M449.922 374.145V396.985H501.805V374.145H449.922ZM444.625 351.366V355.686H505.665V351.366H444.625ZM444.619 345.272V351.41H449.322V345.272H444.619ZM500.988 345.272V351.41H505.689V345.272H500.988ZM453.993 345.394V351.533H458.697V345.394H453.993ZM491.365 345.272V351.408H496.068V345.272H491.365ZM463.121 339.488V345.624H467.825V339.488H463.121ZM481.868 339.488V345.624H486.571V339.488H481.868ZM472.742 339.363V345.501H477.445V339.363H472.742ZM463.107 345.668V351.537H486.543V345.668H463.107Z" fill="#FFFF00"/>
<path d="M467.617 354.859H462.914V360.996H467.617V354.859Z" fill="#FF0000"/>
<path d="M488.709 354.734H484.006V360.871H488.709V354.734Z" fill="#FF0000"/>
<path fill-rule="evenodd" clip-rule="evenodd" d="M678.92 369.056V373.624H739.96V369.056H678.92ZM684.217 356.453V369.167H736.1V356.453H684.217ZM679.638 398.252V402.82H740.678V398.252H679.638ZM695.996 396.838C695.99 388.546 702.376 381.816 710.251 381.816C718.128 381.804 724.524 388.522 724.53 396.814V397.002M694.41 397.664C694.404 388.451 701.5 380.972 710.251 380.972C719.002 380.958 726.108 388.423 726.116 397.638C726.116 397.71 726.116 397.773 726.114 397.845M684.217 374.876V397.716H736.1V374.876H684.217ZM678.92 352.097V356.417H739.96V352.097H678.92ZM678.914 346.003V352.141H683.617V346.003H678.914ZM735.283 346.003V352.141H739.984V346.003H735.283ZM688.288 346.125V352.264H692.992V346.125H688.288ZM725.66 346.003V352.139H730.363V346.003H725.66ZM697.416 340.219V346.355H702.12V340.219H697.416ZM716.163 340.219V346.355H720.866V340.219H716.163ZM707.037 340.094V346.232H711.74V340.094H707.037ZM697.402 346.399V352.268H720.838V346.399H697.402Z" fill="#FFFF00"/>
<path d="M701.892 355.589H697.189V361.726H701.892V355.589Z" fill="#FF0000"/>
<path d="M722.984 355.464H718.281V361.601H722.984V355.464Z" fill="#FF0000"/>
<path fill-rule="evenodd" clip-rule="evenodd" d="M563.973 369.056V373.624H625.012V369.056H563.973ZM569.269 356.453V369.167H621.152V356.453H569.269ZM564.691 398.252V402.82H625.731V398.252H564.691ZM581.049 396.838C581.043 388.546 587.429 381.816 595.304 381.816C603.181 381.804 609.577 388.522 609.583 396.814V397.002M579.463 397.664C579.457 388.451 586.553 380.972 595.304 380.972C604.054 380.958 611.161 388.423 611.169 397.638C611.169 397.71 611.169 397.773 611.167 397.845M569.269 374.876V397.716H621.152V374.876H569.269ZM563.973 352.097V356.417H625.012V352.097H563.973ZM563.967 346.003V352.141H568.67V346.003H563.967ZM620.335 346.003V352.141H625.037V346.003H620.335ZM573.341 346.125V352.264H578.044V346.125H573.341ZM610.713 346.003V352.139H615.416V346.003H610.713ZM582.469 340.219V346.355H587.172V340.219H582.469ZM601.216 340.219V346.355H605.919V340.219H601.216ZM592.089 340.094V346.232H596.793V340.094H592.089ZM582.455 346.399V352.268H605.891V346.399H582.455Z" fill="#FFFF00"/>
<path d="M586.943 355.589H582.24V361.726H586.943V355.589Z" fill="#FF0000"/>
<path d="M608.035 355.464H603.332V361.601H608.035V355.464Z" fill="#FF0000"/>
<path fill-rule="evenodd" clip-rule="evenodd" d="M439.5 511.503V516.071H500.54V511.503H439.5ZM444.797 498.9V511.614H496.68V498.9H444.797ZM440.218 540.699V545.267H501.258V540.699H440.218ZM456.576 539.286C456.57 530.993 462.956 524.263 470.831 524.263C478.708 524.251 485.104 530.969 485.11 539.262V539.449M454.99 540.111C454.984 530.899 462.08 523.42 470.831 523.42C479.582 523.405 486.688 530.87 486.696 540.085C486.696 540.157 486.696 540.22 486.694 540.292M444.797 517.323V540.164H496.68V517.323H444.797ZM439.5 494.544V498.864H500.54V494.544H439.5ZM439.494 488.45V494.588H444.197V488.45H439.494ZM495.863 488.45V494.588H500.564V488.45H495.863ZM448.868 488.573V494.711H453.572V488.573H448.868ZM486.24 488.45V494.586H490.943V488.45H486.24ZM457.996 482.666V488.802H462.7V482.666H457.996ZM476.743 482.666V488.802H481.446V482.666H476.743ZM467.617 482.541V488.679H472.32V482.541H467.617ZM457.982 488.846V494.715H481.418V488.846H457.982Z" fill="#FFFF00"/>
<path d="M462.492 498.047H457.789V504.184H462.492V498.047Z" fill="#FF0000"/>
<path d="M483.584 497.922H478.881V504.059H483.584V497.922Z" fill="#FF0000"/>
<path fill-rule="evenodd" clip-rule="evenodd" d="M683.319 510.054V514.622H744.358V510.054H683.319ZM688.615 497.451V510.165H740.498V497.451H688.615ZM684.037 539.25V543.818H745.076V539.25H684.037ZM700.394 537.837C700.388 529.544 706.774 522.814 714.649 522.814C722.526 522.802 728.923 529.52 728.929 537.812V538M698.808 538.662C698.802 529.449 705.899 521.97 714.649 521.97C723.4 521.956 730.506 529.421 730.515 538.636C730.515 538.708 730.515 538.771 730.513 538.843M688.615 515.874V538.714H740.498V515.874H688.615ZM683.319 493.095V497.415H744.358V493.095H683.319ZM683.312 487.001V493.139H688.016V487.001H683.312ZM739.681 487.001V493.139H744.382V487.001H739.681ZM692.687 487.123V493.262H697.39V487.123H692.687ZM730.059 487.001V493.137H734.762V487.001H730.059ZM701.815 481.217V487.353H706.518V481.217H701.815ZM720.561 481.217V487.353H725.265V481.217H720.561ZM711.435 481.092V487.23H716.138V481.092H711.435ZM701.801 487.397V493.266H725.236V487.397H701.801Z" fill="#FFFF00"/>
<path d="M706.291 496.578H701.588V502.715H706.291V496.578Z" fill="#FF0000"/>
<path d="M727.383 496.453H722.68V502.59H727.383V496.453Z" fill="#FF0000"/>
<path fill-rule="evenodd" clip-rule="evenodd" d="M492.332 649.641L495.8 652.623L535.644 606.484L532.176 603.502L492.332 649.641ZM486.22 637.411L495.873 645.71L529.74 606.492L520.087 598.193L486.22 637.411ZM514.967 668.156L518.436 671.138L558.28 624.999L554.812 622.017L514.967 668.156ZM524.572 654.869C518.272 649.461 517.33 640.24 522.471 634.287C527.604 628.325 536.88 627.876 543.18 633.284L543.322 633.407M524.163 656.607C517.165 650.598 516.118 640.351 521.831 633.737C527.532 627.113 537.839 626.614 544.84 632.623C544.895 632.67 544.942 632.711 544.996 632.76M500.208 649.437L517.549 664.346L551.417 625.128L534.075 610.219L500.208 649.437ZM479.455 638.571L482.735 641.391L522.579 595.252L519.299 592.432L479.455 638.571ZM474.824 634.597L479.485 638.604L482.555 635.049L477.894 631.042L474.824 634.597ZM511.619 591.989L516.28 595.996L519.349 592.442L514.688 588.435L511.619 591.989ZM481.037 627.592L485.697 631.598L488.767 628.043L484.107 624.036L481.037 627.592ZM505.338 599.262L509.997 603.268L513.067 599.713L508.408 595.707L505.338 599.262ZM482.51 616.836L487.169 620.842L490.239 617.286L485.58 613.281L482.51 616.836ZM494.747 602.666L499.406 606.671L502.476 603.116L497.817 599.111L494.747 602.666ZM488.695 609.483L493.356 613.489L496.426 609.934L491.765 605.927L488.695 609.483ZM487.194 620.881L491.649 624.712L506.947 606.997L502.491 603.166L487.194 620.881Z" fill="#FFFF00"/>
<path d="M497.107 623.484L494.037 627.039L498.697 631.045L501.767 627.49L497.107 623.484Z" fill="#FF0000"/>
<path d="M510.779 607.46L507.709 611.015L512.369 615.021L515.438 611.466L510.779 607.46Z" fill="#FF0000"/>
<path fill-rule="evenodd" clip-rule="evenodd" d="M694.522 648.916L691.054 651.898L651.21 605.759L654.678 602.777L694.522 648.916ZM700.633 636.686L690.981 644.985L657.113 605.767L666.766 597.468L700.633 636.686ZM671.886 667.431L668.418 670.413L628.574 624.274L632.042 621.292L671.886 667.431ZM662.282 654.144C668.582 648.735 669.523 639.515 664.383 633.562C659.25 627.6 649.974 627.151 643.674 632.559L643.532 632.682M662.69 655.881C669.689 649.872 670.735 639.626 665.023 633.012C659.322 626.388 649.015 625.889 642.013 631.898C641.958 631.945 641.911 631.986 641.857 632.035M686.646 648.712L669.304 663.621L635.437 624.403L652.778 609.494L686.646 648.712ZM707.398 637.846L704.118 640.666L664.274 594.527L667.554 591.706L707.398 637.846ZM712.029 633.872L707.369 637.879L704.299 634.324L708.959 630.317L712.029 633.872ZM675.234 591.264L670.574 595.271L667.505 591.717L672.165 587.71L675.234 591.264ZM705.817 626.866L701.156 630.873L698.086 627.318L702.747 623.311L705.817 626.866ZM681.515 598.537L676.856 602.543L673.786 598.988L678.445 594.982L681.515 598.537ZM704.343 616.111L699.684 620.116L696.614 616.561L701.273 612.556L704.343 616.111ZM692.106 601.941L687.447 605.946L684.377 602.391L689.036 598.386L692.106 601.941ZM698.158 608.757L693.498 612.764L690.428 609.209L695.088 605.202L698.158 608.757ZM699.66 620.156L695.204 623.987L679.906 606.272L684.362 602.441L699.66 620.156Z" fill="#FFFF00"/>
<path d="M689.747 622.759L692.816 626.314L688.157 630.32L685.087 626.765L689.747 622.759Z" fill="#FF0000"/>
<path d="M676.075 606.735L679.145 610.29L674.485 614.296L671.415 610.741L676.075 606.735Z" fill="#FF0000"/>
<path d="M616.86 421.616H568.711V456.981H616.86V421.616Z" fill="#3B3BFF"/>
<path d="M592.783 478.343C606.079 478.343 616.857 468.335 616.857 455.99C616.857 443.644 606.079 433.636 592.783 433.636C579.487 433.636 568.709 443.644 568.709 455.99C568.709 468.335 579.487 478.343 592.783 478.343Z" fill="#3B3BFF"/>
<path d="M605.786 431.965H579.785V451.062H605.786V431.965Z" fill="#3B3BFF"/>
<path d="M592.786 465.261C599.965 465.261 605.786 459.857 605.786 453.19C605.786 446.524 599.965 441.12 592.786 441.12C585.606 441.12 579.785 446.524 579.785 453.19C579.785 459.857 585.606 465.261 592.786 465.261Z" fill="#3B3BFF"/>
<path d="M615.652 423.034H569.91V456.631H615.652V423.034Z" fill="#3B3BFF"/>
<path d="M592.779 476.924C605.41 476.924 615.649 467.417 615.649 455.689C615.649 443.961 605.41 434.453 592.779 434.453C580.148 434.453 569.908 443.961 569.908 455.689C569.908 467.417 580.148 476.924 592.779 476.924Z" fill="#3B3BFF"/>
<path d="M605.13 432.865H580.43V451.007H605.13V432.865Z" fill="#3B3BFF"/>
<path d="M592.78 464.497C599.601 464.497 605.13 459.362 605.13 453.029C605.13 446.696 599.601 441.562 592.78 441.562C585.959 441.562 580.43 446.696 580.43 453.029C580.43 459.362 585.959 464.497 592.78 464.497Z" fill="#3B3BFF"/>
<path d="M606.434 433.893H579.133V453.945H606.434V433.893Z" fill="#3B3BFF"/>
<path d="M592.781 466.057C600.32 466.057 606.431 460.383 606.431 453.383C606.431 446.383 600.32 440.708 592.781 440.708C585.242 440.708 579.131 446.383 579.131 453.383C579.131 460.383 585.242 466.057 592.781 466.057Z" fill="#3B3BFF"/>
<path d="M600.153 439.761H585.41V450.589H600.153V439.761Z" fill="#3B3BFF"/>
<path d="M592.781 458.639C596.852 458.639 600.153 455.575 600.153 451.795C600.153 448.015 596.852 444.951 592.781 444.951C588.71 444.951 585.41 448.015 585.41 451.795C585.41 455.575 588.71 458.639 592.781 458.639Z" fill="#3B3BFF"/>
<path d="M605.102 435.46H580.463V453.557H605.102V435.46Z" fill="#3B3BFF"/>
<path d="M592.78 464.489C599.584 464.489 605.099 459.367 605.099 453.05C605.099 446.733 599.584 441.611 592.78 441.611C585.976 441.611 580.461 446.733 580.461 453.05C580.461 459.367 585.976 464.489 592.78 464.489Z" fill="#3B3BFF"/>
<path d="M599.434 440.756H586.129V450.528H599.434V440.756Z" fill="#3B3BFF"/>
<path d="M592.781 457.794C596.456 457.794 599.434 455.029 599.434 451.617C599.434 448.206 596.456 445.44 592.781 445.44C589.107 445.44 586.129 448.206 586.129 451.617C586.129 455.029 589.107 457.794 592.781 457.794Z" fill="#3B3BFF"/>
<path d="M578.318 438.811C582.295 438.811 585.519 435.595 585.519 431.627C585.519 427.659 582.295 424.442 578.318 424.442C574.341 424.442 571.117 427.659 571.117 431.627C571.117 435.595 574.341 438.811 578.318 438.811Z" fill="white"/>
<path d="M605.31 438.811C609.287 438.811 612.511 435.595 612.511 431.627C612.511 427.659 609.287 424.442 605.31 424.442C601.333 424.442 598.109 427.659 598.109 431.627C598.109 435.595 601.333 438.811 605.31 438.811Z" fill="white"/>
<path d="M591.576 453.943C595.553 453.943 598.777 450.726 598.777 446.758C598.777 442.79 595.553 439.573 591.576 439.573C587.599 439.573 584.375 442.79 584.375 446.758C584.375 450.726 587.599 453.943 591.576 453.943Z" fill="white"/>
<path d="M579.367 468.598C583.344 468.598 586.568 465.381 586.568 461.413C586.568 457.445 583.344 454.229 579.367 454.229C575.39 454.229 572.166 457.445 572.166 461.413C572.166 465.381 575.39 468.598 579.367 468.598Z" fill="white"/>
<path d="M605.023 469.073C609 469.073 612.224 465.856 612.224 461.888C612.224 457.92 609 454.704 605.023 454.704C601.046 454.704 597.822 457.92 597.822 461.888C597.822 465.856 601.046 469.073 605.023 469.073Z" fill="white"/>
<path d="M616.86 484.043H568.711V519.408H616.86V484.043Z" fill="#3B3BFF"/>
<path d="M592.783 540.77C606.079 540.77 616.857 530.762 616.857 518.417C616.857 506.071 606.079 496.063 592.783 496.063C579.487 496.063 568.709 506.071 568.709 518.417C568.709 530.762 579.487 540.77 592.783 540.77Z" fill="#3B3BFF"/>
<path d="M605.786 494.392H579.785V513.489H605.786V494.392Z" fill="#3B3BFF"/>
<path d="M592.786 527.688C599.965 527.688 605.786 522.284 605.786 515.618C605.786 508.951 599.965 503.547 592.786 503.547C585.606 503.547 579.785 508.951 579.785 515.618C579.785 522.284 585.606 527.688 592.786 527.688Z" fill="#3B3BFF"/>
<path d="M615.652 485.461H569.91V519.058H615.652V485.461Z" fill="#3B3BFF"/>
<path d="M592.779 539.352C605.41 539.352 615.649 529.844 615.649 518.116C615.649 506.388 605.41 496.88 592.779 496.88C580.148 496.88 569.908 506.388 569.908 518.116C569.908 529.844 580.148 539.352 592.779 539.352Z" fill="#3B3BFF"/>
<path d="M605.13 495.292H580.43V513.434H605.13V495.292Z" fill="#3B3BFF"/>
<path d="M592.78 526.924C599.601 526.924 605.13 521.79 605.13 515.457C605.13 509.123 599.601 503.989 592.78 503.989C585.959 503.989 580.43 509.123 580.43 515.457C580.43 521.79 585.959 526.924 592.78 526.924Z" fill="#3B3BFF"/>
<path d="M606.434 496.32H579.133V516.372H606.434V496.32Z" fill="#3B3BFF"/>
<path d="M592.781 528.484C600.32 528.484 606.431 522.81 606.431 515.81C606.431 508.81 600.32 503.136 592.781 503.136C585.242 503.136 579.131 508.81 579.131 515.81C579.131 522.81 585.242 528.484 592.781 528.484Z" fill="#3B3BFF"/>
<path d="M600.153 502.188H585.41V513.016H600.153V502.188Z" fill="#3B3BFF"/>
<path d="M592.781 521.067C596.852 521.067 600.153 518.003 600.153 514.223C600.153 510.443 596.852 507.379 592.781 507.379C588.71 507.379 585.41 510.443 585.41 514.223C585.41 518.003 588.71 521.067 592.781 521.067Z" fill="#3B3BFF"/>
<path d="M605.102 497.887H580.463V515.984H605.102V497.887Z" fill="#3B3BFF"/>
<path d="M592.78 526.916C599.584 526.916 605.099 521.795 605.099 515.477C605.099 509.16 599.584 504.039 592.78 504.039C585.976 504.039 580.461 509.16 580.461 515.477C580.461 521.795 585.976 526.916 592.78 526.916Z" fill="#3B3BFF"/>
<path d="M599.434 503.183H586.129V512.955H599.434V503.183Z" fill="#3B3BFF"/>
<path d="M592.781 520.221C596.456 520.221 599.434 517.456 599.434 514.045C599.434 510.633 596.456 507.868 592.781 507.868C589.107 507.868 586.129 510.633 586.129 514.045C586.129 517.456 589.107 520.221 592.781 520.221Z" fill="#3B3BFF"/>
<path d="M578.318 501.239C582.295 501.239 585.519 498.022 585.519 494.054C585.519 490.086 582.295 486.869 578.318 486.869C574.341 486.869 571.117 490.086 571.117 494.054C571.117 498.022 574.341 501.239 578.318 501.239Z" fill="white"/>
<path d="M605.308 501.239C609.285 501.239 612.509 498.022 612.509 494.054C612.509 490.086 609.285 486.869 605.308 486.869C601.331 486.869 598.107 490.086 598.107 494.054C598.107 498.022 601.331 501.239 605.308 501.239Z" fill="white"/>
<path d="M591.576 516.37C595.553 516.37 598.777 513.153 598.777 509.185C598.777 505.217 595.553 502 591.576 502C587.599 502 584.375 505.217 584.375 509.185C584.375 513.153 587.599 516.37 591.576 516.37Z" fill="white"/>
<path d="M579.367 531.025C583.344 531.025 586.568 527.809 586.568 523.841C586.568 519.873 583.344 516.656 579.367 516.656C575.39 516.656 572.166 519.873 572.166 523.841C572.166 527.809 575.39 531.025 579.367 531.025Z" fill="white"/>
<path d="M605.023 531.5C609 531.5 612.224 528.284 612.224 524.316C612.224 520.348 609 517.131 605.023 517.131C601.046 517.131 597.822 520.348 597.822 524.316C597.822 528.284 601.046 531.5 605.023 531.5Z" fill="white"/>
<path d="M670.27 484.043H622.121V519.408H670.27V484.043Z" fill="#3B3BFF"/>
<path d="M646.193 540.77C659.489 540.77 670.267 530.762 670.267 518.417C670.267 506.071 659.489 496.063 646.193 496.063C632.897 496.063 622.119 506.071 622.119 518.417C622.119 530.762 632.897 540.77 646.193 540.77Z" fill="#3B3BFF"/>
<path d="M659.196 494.392H633.195V513.489H659.196V494.392Z" fill="#3B3BFF"/>
<path d="M646.196 527.688C653.376 527.688 659.196 522.284 659.196 515.618C659.196 508.951 653.376 503.547 646.196 503.547C639.016 503.547 633.195 508.951 633.195 515.618C633.195 522.284 639.016 527.688 646.196 527.688Z" fill="#3B3BFF"/>
<path d="M669.062 485.461H623.32V519.058H669.062V485.461Z" fill="#3B3BFF"/>
<path d="M646.189 539.352C658.82 539.352 669.059 529.844 669.059 518.116C669.059 506.388 658.82 496.88 646.189 496.88C633.558 496.88 623.318 506.388 623.318 518.116C623.318 529.844 633.558 539.352 646.189 539.352Z" fill="#3B3BFF"/>
<path d="M658.541 495.292H633.84V513.434H658.541V495.292Z" fill="#3B3BFF"/>
<path d="M646.19 526.924C653.011 526.924 658.541 521.79 658.541 515.457C658.541 509.123 653.011 503.989 646.19 503.989C639.369 503.989 633.84 509.123 633.84 515.457C633.84 521.79 639.369 526.924 646.19 526.924Z" fill="#3B3BFF"/>
<path d="M659.844 496.32H632.543V516.372H659.844V496.32Z" fill="#3B3BFF"/>
<path d="M646.191 528.484C653.73 528.484 659.841 522.81 659.841 515.81C659.841 508.81 653.73 503.136 646.191 503.136C638.652 503.136 632.541 508.81 632.541 515.81C632.541 522.81 638.652 528.484 646.191 528.484Z" fill="#3B3BFF"/>
<path d="M653.563 502.188H638.82V513.016H653.563V502.188Z" fill="#3B3BFF"/>
<path d="M646.192 521.067C650.263 521.067 653.563 518.003 653.563 514.223C653.563 510.443 650.263 507.379 646.192 507.379C642.121 507.379 638.82 510.443 638.82 514.223C638.82 518.003 642.121 521.067 646.192 521.067Z" fill="#3B3BFF"/>
<path d="M658.512 497.887H633.873V515.984H658.512V497.887Z" fill="#3B3BFF"/>
<path d="M646.19 526.916C652.994 526.916 658.509 521.795 658.509 515.477C658.509 509.16 652.994 504.039 646.19 504.039C639.387 504.039 633.871 509.16 633.871 515.477C633.871 521.795 639.387 526.916 646.19 526.916Z" fill="#3B3BFF"/>
<path d="M652.844 503.183H639.539V512.955H652.844V503.183Z" fill="#3B3BFF"/>
<path d="M646.192 520.221C649.866 520.221 652.844 517.456 652.844 514.045C652.844 510.633 649.866 507.868 646.192 507.868C642.518 507.868 639.539 510.633 639.539 514.045C639.539 517.456 642.518 520.221 646.192 520.221Z" fill="#3B3BFF"/>
<path d="M631.728 501.239C635.705 501.239 638.929 498.022 638.929 494.054C638.929 490.086 635.705 486.869 631.728 486.869C627.751 486.869 624.527 490.086 624.527 494.054C624.527 498.022 627.751 501.239 631.728 501.239Z" fill="white"/>
<path d="M658.718 501.239C662.695 501.239 665.919 498.022 665.919 494.054C665.919 490.086 662.695 486.869 658.718 486.869C654.741 486.869 651.518 490.086 651.518 494.054C651.518 498.022 654.741 501.239 658.718 501.239Z" fill="white"/>
<path d="M644.986 516.37C648.963 516.37 652.187 513.153 652.187 509.185C652.187 505.217 648.963 502 644.986 502C641.009 502 637.785 505.217 637.785 509.185C637.785 513.153 641.009 516.37 644.986 516.37Z" fill="white"/>
<path d="M632.777 531.025C636.754 531.025 639.978 527.809 639.978 523.841C639.978 519.873 636.754 516.656 632.777 516.656C628.8 516.656 625.576 519.873 625.576 523.841C625.576 527.809 628.8 531.025 632.777 531.025Z" fill="white"/>
<path d="M658.433 531.5C662.41 531.5 665.634 528.284 665.634 524.316C665.634 520.348 662.41 517.131 658.433 517.131C654.456 517.131 651.232 520.348 651.232 524.316C651.232 528.284 654.456 531.5 658.433 531.5Z" fill="white"/>
<path d="M563.452 484.043H515.303V519.408H563.452V484.043Z" fill="#3B3BFF"/>
<path d="M539.375 540.77C552.671 540.77 563.449 530.762 563.449 518.417C563.449 506.071 552.671 496.063 539.375 496.063C526.079 496.063 515.301 506.071 515.301 518.417C515.301 530.762 526.079 540.77 539.375 540.77Z" fill="#3B3BFF"/>
<path d="M552.378 494.392H526.377V513.489H552.378V494.392Z" fill="#3B3BFF"/>
<path d="M539.377 527.688C546.557 527.688 552.378 522.284 552.378 515.618C552.378 508.951 546.557 503.547 539.377 503.547C532.197 503.547 526.377 508.951 526.377 515.618C526.377 522.284 532.197 527.688 539.377 527.688Z" fill="#3B3BFF"/>
<path d="M562.244 485.461H516.502V519.058H562.244V485.461Z" fill="#3B3BFF"/>
<path d="M539.37 539.352C552.001 539.352 562.241 529.844 562.241 518.116C562.241 506.388 552.001 496.88 539.37 496.88C526.739 496.88 516.5 506.388 516.5 518.116C516.5 529.844 526.739 539.352 539.37 539.352Z" fill="#3B3BFF"/>
<path d="M551.722 495.292H527.021V513.434H551.722V495.292Z" fill="#3B3BFF"/>
<path d="M539.372 526.924C546.193 526.924 551.722 521.79 551.722 515.457C551.722 509.123 546.193 503.989 539.372 503.989C532.551 503.989 527.021 509.123 527.021 515.457C527.021 521.79 532.551 526.924 539.372 526.924Z" fill="#3B3BFF"/>
<path d="M553.025 496.32H525.725V516.372H553.025V496.32Z" fill="#3B3BFF"/>
<path d="M539.373 528.484C546.911 528.484 553.023 522.81 553.023 515.81C553.023 508.81 546.911 503.136 539.373 503.136C531.834 503.136 525.723 508.81 525.723 515.81C525.723 522.81 531.834 528.484 539.373 528.484Z" fill="#3B3BFF"/>
<path d="M546.744 502.188H532.002V513.016H546.744V502.188Z" fill="#3B3BFF"/>
<path d="M539.373 521.067C543.444 521.067 546.744 518.003 546.744 514.223C546.744 510.443 543.444 507.379 539.373 507.379C535.302 507.379 532.002 510.443 532.002 514.223C532.002 518.003 535.302 521.067 539.373 521.067Z" fill="#3B3BFF"/>
<path d="M551.694 497.887H527.055V515.984H551.694V497.887Z" fill="#3B3BFF"/>
<path d="M539.372 526.916C546.176 526.916 551.691 521.795 551.691 515.477C551.691 509.16 546.176 504.039 539.372 504.039C532.568 504.039 527.053 509.16 527.053 515.477C527.053 521.795 532.568 526.916 539.372 526.916Z" fill="#3B3BFF"/>
<path d="M546.026 503.183H532.721V512.955H546.026V503.183Z" fill="#3B3BFF"/>
<path d="M539.373 520.221C543.047 520.221 546.026 517.456 546.026 514.045C546.026 510.633 543.047 507.868 539.373 507.868C535.699 507.868 532.721 510.633 532.721 514.045C532.721 517.456 535.699 520.221 539.373 520.221Z" fill="#3B3BFF"/>
<path d="M524.91 501.239C528.887 501.239 532.111 498.022 532.111 494.054C532.111 490.086 528.887 486.869 524.91 486.869C520.933 486.869 517.709 490.086 517.709 494.054C517.709 498.022 520.933 501.239 524.91 501.239Z" fill="white"/>
<path d="M551.9 501.239C555.877 501.239 559.101 498.022 559.101 494.054C559.101 490.086 555.877 486.869 551.9 486.869C547.923 486.869 544.699 490.086 544.699 494.054C544.699 498.022 547.923 501.239 551.9 501.239Z" fill="white"/>
<path d="M538.168 516.37C542.144 516.37 545.368 513.153 545.368 509.185C545.368 505.217 542.144 502 538.168 502C534.191 502 530.967 505.217 530.967 509.185C530.967 513.153 534.191 516.37 538.168 516.37Z" fill="white"/>
<path d="M525.959 531.025C529.935 531.025 533.159 527.809 533.159 523.841C533.159 519.873 529.935 516.656 525.959 516.656C521.982 516.656 518.758 519.873 518.758 523.841C518.758 527.809 521.982 531.025 525.959 531.025Z" fill="white"/>
<path d="M551.615 531.5C555.592 531.5 558.816 528.284 558.816 524.316C558.816 520.348 555.592 517.131 551.615 517.131C547.638 517.131 544.414 520.348 544.414 524.316C544.414 528.284 547.638 531.5 551.615 531.5Z" fill="white"/>
</g>
</g>
<defs>
<linearGradient id="paint0_linear_51_18" x1="0.00195312" y1="-0.00439453" x2="600.55" y2="-0.00439453" gradientUnits="userSpaceOnUse">
<stop/>
<stop offset="1" stop-color="white"/>
</linearGradient>
<clipPath id="clip0_51_18">
<rect width="1500" height="1000" fill="white"/>
</clipPath>
<clipPath id="clip1_51_18">
<rect width="1500" height="1000" fill="white"/>
</clipPath>
</defs>
</svg>
