<svg width="1500" height="1000" viewBox="0 0 1500 1000" fill="none" xmlns="http://www.w3.org/2000/svg">
<g clip-path="url(#clip0_51_21)">
<rect width="1500" height="1000" fill="white"/>
<g clip-path="url(#clip1_51_21)">
<path d="M1500.13 667.686H1.41797V1000.11H1500.13V667.686Z" fill="#DC0000"/>
<path d="M1500.13 2.8335H1.41797V335.262H1500.13V2.8335Z" fill="#FFCB00"/>
<path d="M1500.13 335.257H1.41797V667.686H1500.13V335.257Z" fill="#0000BA"/>
<path fill-rule="evenodd" clip-rule="evenodd" d="M778.41 448.328L751.691 431.083L725.101 448.491L734.982 420.198L708.469 402.72L741.27 402.465L751.46 374.242L761.855 402.395L794.682 402.442L768.297 420.082L778.41 448.328Z" fill="white"/>
<path fill-rule="evenodd" clip-rule="evenodd" d="M911.347 463.114L884.629 445.869L858.038 463.276L867.92 434.983L841.406 417.506L874.208 417.251L884.398 389.027L894.792 417.181L927.62 417.227L901.235 434.867L911.347 463.114Z" fill="white"/>
<path fill-rule="evenodd" clip-rule="evenodd" d="M1026.56 528.114L999.843 510.869L973.253 528.276L983.135 499.983L956.621 482.506L989.423 482.251L999.612 454.027L1010.01 482.181L1042.83 482.227L1016.45 499.867L1026.56 528.114Z" fill="white"/>
<path fill-rule="evenodd" clip-rule="evenodd" d="M1091.55 625.578L1064.84 608.333L1038.25 625.741L1048.13 597.448L1021.61 579.97L1054.41 579.715L1064.6 551.492L1075 579.645L1107.83 579.692L1081.44 597.332L1091.55 625.578Z" fill="white"/>
<path fill-rule="evenodd" clip-rule="evenodd" d="M591.797 463.114L618.516 445.869L645.106 463.276L635.225 434.983L661.738 417.506L628.937 417.251L618.747 389.027L608.352 417.181L575.525 417.227L601.91 434.867L591.797 463.114Z" fill="white"/>
<path fill-rule="evenodd" clip-rule="evenodd" d="M476.582 528.114L503.301 510.869L529.892 528.276L520.01 499.983L546.523 482.506L513.722 482.251L503.532 454.027L493.137 482.181L460.31 482.227L486.695 499.867L476.582 528.114Z" fill="white"/>
<path fill-rule="evenodd" clip-rule="evenodd" d="M411.582 625.578L438.301 608.333L464.892 625.741L455.01 597.448L481.523 579.97L448.722 579.715L438.532 551.492L428.137 579.645L395.31 579.692L421.695 597.332L411.582 625.578Z" fill="white"/>
</g>
</g>
<defs>
<clipPath id="clip0_51_21">
<rect width="1500" height="1000" fill="white"/>
</clipPath>
<clipPath id="clip1_51_21">
<rect width="1500" height="1000" fill="white"/>
</clipPath>
</defs>
</svg>
