<svg xmlns="http://www.w3.org/2000/svg" xmlns:cc="http://web.resource.org/cc/" xmlns:ns1="http://sozi.baierouge.fr" xmlns:svg="http://www.w3.org/2000/svg" xmlns:xlink="http://www.w3.org/1999/xlink" id="Layer_1" x="0" y="0" enable-background="new 0 0 640 480" version="1.1" viewBox="0 0 640 480" xml:space="preserve"><g><rect width="254.89" height="315.84" x="55.529" y="64.578" fill="#008D33" transform="matrix(-1 -.00066272 .00066272 -1 365.8 445.12)"/><rect width="254.89" height="315.84" x="309.86" y="64.061" fill="#FFF" transform="matrix(-1 -.00066081 .00066081 -1 874.47 444.25)"/><g fill="red"><path d="m349.94 330.55c-58.824 0-106.51-48.606-106.51-108.57s47.687-108.57 106.51-108.57c13.134 0 25.708 2.43 37.324 6.86-19.966-16.024-44.799-25.526-71.716-25.526-65.917 0-119.35 56.966-119.35 127.24 0 70.271 53.437 127.24 119.35 127.24 26.917 0 51.75-9.502 71.716-25.527-11.61 4.43-24.19 6.86-37.32 6.86z"/><polygon points="309.63 250.75 331.26 221.63 310.24 192.06 344.62 203.62 366.24 174.5 365.87 210.77 400.25 222.34 365.64 233.19 365.26 269.46 344.25 239.9"/></g></g><metadata/></svg>