<?xml version="1.0" encoding="utf-8"?>
<!DOCTYPE svg PUBLIC "-//W3C//DTD SVG 1.1//EN" "http://www.w3.org/Graphics/SVG/1.1/DTD/svg11.dtd">
<svg version="1.1" id="Layer_1" xmlns="http://www.w3.org/2000/svg" xmlns:xlink="http://www.w3.org/1999/xlink" x="0px" y="0px"
	 viewBox="0 0 1605.9259 1600" enable-background="new 0 0 1605.9259 1600" xml:space="preserve">
<title>Brazil</title>
<g>
	<defs>
		<path id="path633" d="M545.1852,2.963L562.963,0L560,20.7407l17.7778,14.8148l5.926,17.7778L571.8519,80l-2.963,26.6667
			l11.8519,35.5556L607.4074,160l35.5555-5.9259l44.4445-20.7407l50.3704,8.8889l-5.9259-23.7037l29.6296-5.9259l8.8889-8.8889
			l35.5556,20.7407l23.7037-5.9259l32.5926,2.963l23.7037-26.6667l2.963-20.7407l32.5926-32.5926l26.6667,29.6296l2.963,38.5185
			l17.7778,35.5556l20.7407,8.8889l-17.7778,32.5926l-29.6296,29.6296l-11.8519,14.8148l2.963,26.6667h17.7778l11.8519-35.5555
			h38.5185l44.4444,2.963v20.7407l-8.8888,20.7408l-20.7408,14.8148l29.6296-5.9259l14.8148-26.6667l32.5927-5.9259l71.1111,26.6667
			l17.7778,17.7778l20.7407-5.9259l11.8518,23.7037v20.7407l8.8889,8.8889l32.5925-11.8518l35.5557,11.8518l47.4073,11.8519
			l53.3334-2.963l62.2222,41.4815l29.6296,26.6667l38.5186,29.6296l50.3704,14.8148l23.7037,32.5926l8.8888,50.3703
			l-11.8518,53.3334l-41.4814,47.4071l-26.6667,26.6667l-35.5555,41.4818l-26.6666,44.4445l-29.6296,11.8519l-17.7777,23.7037
			l2.9629,32.5926v44.4445l-8.8889,53.3333l-14.8148,47.4074l-23.7036,35.5555l2.9629,29.6296l-32.5925,38.5186l-23.7037,35.5555
			v29.6296l-35.5555,17.7777l-8.8889,11.8519v5.9259l-29.6296,2.963l-41.4814-8.8889l-20.7407,11.8518l-20.7407,2.963
			l-17.7778,11.8518l-8.8889,11.8519h-23.7037l-44.4443,32.5925l-23.7037,23.7037l-23.7037,14.8148l-8.8889,41.4814l5.9259,29.6296
			l-8.8889,38.5186l-29.6296,29.6296l-20.7407,41.4814l-38.5185,59.2593l-32.5926,17.7777l-23.7037,35.5555l-14.8148,29.6296
			L832.5926,1600l-5.9259-26.6666l17.7778-17.7778l-17.7778-17.7777l-11.8519-11.8519l-47.4074-29.6296l-5.9259-17.7777
			l-17.7778,11.8518l-29.6296-35.5555h-23.7037l8.8889-17.7778l44.4445-50.3704l50.3704-41.4814l26.6667-17.7778l5.9259-38.5184
			l-11.8519-20.7407l-20.7407-5.926l11.8519-44.4445l-11.8519-26.6666L764.4445,1200l-14.8148-68.1482l-32.5926-8.8888
			l-50.3704,2.9629l2.963-47.4073l-14.8148-41.4816l23.7037-71.1111l-11.8519-29.6296l-23.7037-17.7778v-32.5926h-74.074
			l-11.8519-44.4444l8.8889-8.8889L560,791.1111c0,0-29.6296-20.7407-35.5555-20.7407s-59.2593-11.8519-59.2593-11.8519
			l-35.5555-29.6296c0,0-17.7778,8.8889-29.6296,2.963c-11.8518-5.926-44.4444-47.4077-44.4444-47.4077v-62.2219l-56.2963,14.8148
			l-26.6667,32.5923h-26.6667l-26.6667,23.7037l-47.4074-8.8889l-14.8148,5.9259l-17.7778-17.7778l2.963-47.4071l-23.7037,23.7034
			H77.037l-5.9259-20.7405l-32.5926-2.963l8.8889-17.7778L0,551.1111l8.8889-29.6296l29.6296-11.8518l-5.9259-20.7407
			l5.9259-38.5185l77.037-44.4445l35.5556,8.8889l32.5926-133.3333l-11.8519-32.5926l-23.7037-11.8519l5.9259-29.6296
			l35.5556-5.9259l-11.8519-17.7778H162.963V162.963l68.1481-17.7778L240,160l23.7037-23.7037l14.8148,32.5926l26.6667,20.7408
			l38.5185-8.8889L400,154.0741l26.6667-23.7037l-11.8519-14.8148L388.1482,80l-14.8148-32.5926l38.5185,11.8519l35.5555,8.8889
			l20.7408-23.7037l47.4074-14.8148L545.1852,2.963z"/>
	</defs>
	<clipPath id="path633_1_">
		<use xlink:href="#path633"  overflow="visible"/>
	</clipPath>
	<g clip-path="url(#path633_1_)">
		<rect x="-83.3029" y="-270" fill="#00923F" width="2036.288" height="1924"/>
		<path fill="#F8C300" d="M934.8411,109.7329L89.7816,649.3492l845.0595,539.6163l845.0594-539.6163L934.8411,109.7329z"/>
		<circle fill="#28166F" cx="934.0876" cy="649.3492" r="355.6173"/>
		<path fill="#FFFFFF" d="M970.1299,726.0562l4.2965,10.8534l11.6273,0.7331l-8.9597,7.4528l2.8712,11.3014l-9.8353-6.2514
			l-9.8557,6.2514l2.8915-11.3014l-8.98-7.4528l11.6272-0.7331L970.1299,726.0562z M1235.9877,764.0126l3.6653,9.2447l9.9167,0.6313
			l-7.6565,6.3532l2.464,9.6113l-8.3895-5.3147l-8.4099,5.3147l2.464-9.6113l-7.6361-6.3532l9.9167-0.6313L1235.9877,764.0126z
			 M1197.9294,793.4777l4.3169,10.833l11.6272,0.7534l-8.98,7.4325l2.8915,11.3014l-9.8556-6.2311l-9.8556,6.2311l2.8915-11.3014
			l-8.98-7.4325l11.6476-0.7534L1197.9294,793.4777z M1183.818,755.338l5.1111,12.849l13.7856,0.8959l-10.6294,8.8171
			l3.4209,13.3784l-11.6882-7.3917l-11.668,7.3917l3.421-13.3784l-10.6295-8.8171l13.7858-0.8959L1183.818,755.338z
			 M1181.0894,821.7617l4.2965,10.8331l11.6476,0.733l-8.98,7.4528l2.8915,11.3014l-9.8556-6.2514l-9.8556,6.2514l2.8915-11.3014
			l-8.98-7.4528l11.6272-0.733L1181.0894,821.7617z M1147.796,839.2737l3.6653,9.2244l9.9167,0.6516l-7.6361,6.3329l2.464,9.6317
			l-8.4099-5.3147l-8.3895,5.3147l2.464-9.6317l-7.6565-6.3329l9.9167-0.6516L1147.796,839.2737z M1113.566,871.101l4.3169,10.833
			l11.6272,0.7534l-8.98,7.4325l2.8915,11.3014l-9.8556-6.2514l-9.8353,6.2514l2.8712-11.3014l-8.9597-7.4325l11.6272-0.7534
			L1113.566,871.101z M1113.1588,910.9307l3.6653,9.2448l9.9167,0.6312l-7.6361,6.3532l2.4639,9.6317l-8.4098-5.3147l-8.3895,5.3147
			l2.4639-9.6317l-7.6564-6.3532l9.9166-0.6312L1113.1588,910.9307z M1112.609,838.9276l3.6653,9.2244l9.9167,0.6312l-7.6565,6.3532
			l2.464,9.6317l-8.3895-5.3147l-8.4099,5.3147l2.4639-9.6317l-7.6564-6.3532l9.937-0.6312L1112.609,838.9276z M1070.6615,847.1746
			l3.6857,9.2448l9.9166,0.6312l-7.6564,6.3532l2.4639,9.6317l-8.4098-5.3147l-8.3895,5.3147l2.4639-9.6317l-7.6564-6.3532
			l9.9166-0.6312L1070.6615,847.1746z M1043.7621,505.8723l5.1111,12.849l13.7856,0.8756l-10.6294,8.8171l3.421,13.3784
			l-11.6884-7.3917l-11.668,7.3917l3.421-13.3784l-10.6294-8.8171l13.7856-0.8756L1043.7621,505.8723z M1038.142,879.7348
			l4.2965,10.8534l11.6476,0.7331l-8.98,7.4528l2.8915,11.281l-9.8556-6.231l-9.8557,6.231l2.8916-11.281l-8.98-7.4528
			l11.6271-0.7331L1038.142,879.7348z M1018.3492,613.9585l3.6857,9.2244l9.9167,0.6516l-7.6565,6.3329l2.4639,9.6317
			l-8.4098-5.3148l-8.3895,5.3148l2.4639-9.6317l-7.6565-6.3329l9.9167-0.6516L1018.3492,613.9585z M1008.9212,838.2149
			l3.6653,9.2448l9.9167,0.6312l-7.636,6.3328l2.4639,9.6317l-8.4099-5.3147l-8.3895,5.3147l2.4639-9.6317l-7.6564-6.3328
			l9.9167-0.6312L1008.9212,838.2149z M937.5289,695.5729l4.2966,10.833l11.6476,0.7534l-8.98,7.4325l2.8915,11.3014l-9.8557-6.2311
			l-9.8556,6.2311l2.8915-11.3014l-8.98-7.4325l11.6272-0.7534L937.5289,695.5729z M935.4519,796.4506l5.0908,12.8489l13.806,0.8756
			l-10.6498,8.8171l3.421,13.3988l-11.668-7.3917l-11.6679,7.3917l3.421-13.3988l-10.6498-8.8171l13.806-0.8756L935.4519,796.4506z
			 M936.6126,925.0829l1.9548,4.9278l5.2944,0.3462l-4.0726,3.3802l1.3032,5.1519l-4.4799-2.8508l-4.4798,2.8508l1.3032-5.1519
			l-4.0726-3.3802l5.2944-0.3462L936.6126,925.0829z M914.1523,755.0732l2.749,6.9234l7.412,0.4683l-5.7219,4.7446l1.853,7.2084
			l-6.2922-3.9911l-6.2717,3.9911l1.8326-7.2084l-5.722-4.7446l7.4324-0.4683L914.1523,755.0732z M888.1693,732.613l3.6653,9.2448
			l9.9167,0.6312l-7.6564,6.3329l2.4639,9.6317l-8.3895-5.3147l-8.4099,5.3147l2.4639-9.6317l-7.6565-6.3329l9.9371-0.6312
			L888.1693,732.613z M795.8033,647.6998l4.2966,10.8535l11.6272,0.733l-8.9597,7.4528l2.8712,11.3014l-9.8353-6.2514
			l-9.8556,6.2514l2.8915-11.3014l-8.98-7.4528l11.6272-0.733L795.8033,647.6998z M785.3979,827.3207l5.0907,12.849l13.806,0.8959
			l-10.6498,8.8171l3.421,13.3784l-11.6679-7.3917l-11.6883,7.3917l3.4413-13.3784l-10.6498-8.8171l13.7857-0.8959
			L785.3979,827.3207z M746.3419,756.4172l4.317,10.8331l11.6272,0.7534l-8.98,7.4324l2.8915,11.3015l-9.8557-6.2514l-9.8353,6.2514
			l2.8712-11.3015l-8.9597-7.4324l11.6272-0.7534L746.3419,756.4172z M733.4725,796.3691l3.6653,9.2448l9.9167,0.6313
			l-7.6564,6.3328l2.4639,9.6317l-8.3895-5.3147l-8.4099,5.3147l2.4639-9.6317l-7.6564-6.3328l9.9167-0.6313L733.4725,796.3691z
			 M706.9397,705.4896l2.749,6.903l7.4121,0.4887l-5.722,4.7446l1.853,7.1881l-6.2921-3.9708l-6.2718,3.9708l1.8327-7.1881
			l-5.722-4.7446l7.4324-0.4887L706.9397,705.4896z M674.298,719.8251l5.0907,12.849l13.806,0.8756l-10.6498,8.8171l3.421,13.3987
			l-11.6679-7.3917l-11.668,7.3917l3.421-13.3987l-10.6498-8.8171l13.806-0.8756L674.298,719.8251z M644.9958,571.8684
			l5.1111,12.849l13.7856,0.8756l-10.6295,8.8171l3.421,13.3988l-11.6883-7.3917l-11.668,7.3917l3.421-13.3988l-10.6294-8.8171
			l13.7856-0.8756L644.9958,571.8684z M636.9728,753.6275l4.317,10.8534l11.6272,0.733l-8.98,7.4528l2.8915,11.2811l-9.8557-6.2311
			l-9.8557,6.2311l2.8915-11.2811l-8.98-7.4528l11.6476-0.733L636.9728,753.6275z"/>
		<path fill="#FFFFFF" d="M721.7842,539.4915c211.5296,0,405.4453,77.8065,554.6441,206.2148
			c4.9279-17.3084,8.5728-35.1463,10.833-53.3915c-154.6968-125.476-351.5651-200.8187-565.4771-200.8187
			c-37.0808,0-73.6525,2.3214-109.593,6.7198c-7.6768,16.3921-14.1522,33.4359-19.304,51.0497
			C634.9366,542.8309,677.9837,539.4915,721.7842,539.4915z"/>
		<path fill="#00923F" d="M630.2938,521.0223c0.2851,3.4821,1.3032,6.1089,3.0137,7.9008c1.7104,1.7919,3.9504,2.5657,6.7401,2.3417
			c2.7897-0.2443,4.9074-1.3846,6.2921-3.4617c1.405-2.0566,1.9344-4.826,1.6494-8.308c-0.3054-3.4821-1.3235-6.1089-3.0341-7.9008
			c-1.7308-1.7919-3.9911-2.5657-6.8012-2.3214c-2.7897,0.224-4.8667,1.3847-6.2514,3.4413
			C630.5381,514.7505,629.9884,517.5199,630.2938,521.0223z M623.6555,521.5925c-0.448-5.1111,0.6109-9.2855,3.1359-12.5232
			c2.525-3.2377,6.1496-5.05,10.8738-5.4572s8.6135,0.7738,11.668,3.5228c3.0544,2.7693,4.8056,6.6994,5.2332,11.7901
			c0.448,5.1111-0.6108,9.2855-3.1562,12.5232c-2.525,3.2377-6.17,5.0703-10.8738,5.4776
			c-4.7446,0.4072-8.6135-0.7738-11.668-3.5432C625.8344,530.6132,624.0831,526.6832,623.6555,521.5925z M675.2958,515.6873
			l7.6768-0.2647c1.6697-0.0611,2.8712-0.4277,3.645-1.1404c0.7534-0.6923,1.0996-1.7715,1.0588-3.2173
			c-0.0407-1.3847-0.4683-2.4232-1.2421-3.0952c-0.7941-0.6923-1.9344-1.0181-3.4413-0.9571l-7.9823,0.2647L675.2958,515.6873z
			 M669.3702,533.7491l-1.0588-31.7253l15.3943-0.5091c3.4413-0.1222,6.0275,0.5294,7.7379,1.9548
			c1.7308,1.4254,2.6268,3.6653,2.7286,6.6994c0.0611,1.9345-0.2851,3.5635-1.0589,4.8871
			c-0.7534,1.3236-1.8937,2.2399-3.4006,2.7693c1.3846,0.448,2.4028,1.1607,3.0137,2.1381
			c0.6108,0.9978,0.9977,2.5453,1.1606,4.6631l0.2647,3.7468v0.1222c0.1018,1.8937,0.5498,3.0341,1.344,3.4006l0.0203,0.9774
			l-7.1473,0.2444c-0.2444-0.448-0.4276-0.9774-0.5702-1.629c-0.1425-0.6516-0.2647-1.4254-0.3054-2.3417l-0.2036-3.3395
			c-0.1426-1.9548-0.5498-3.2784-1.2422-3.93c-0.6923-0.672-1.9141-0.9774-3.645-0.9163l-6.9233,0.2239l0.4276,12.3399
			L669.3702,533.7491z M716.2048,526.6221l5.2332,0.1019c3.0341,0.061,5.2537-0.6924,6.6383-2.2603
			c1.3847-1.5475,2.1177-4.1337,2.1788-7.6768c0.0611-3.5635-0.509-6.1699-1.7512-7.86c-1.2421-1.6901-3.197-2.5657-5.8848-2.6064
			l-6.0275-0.1222L716.2048,526.6221z M709.6887,532.2219l0.6109-31.7253l12.4214,0.224c4.8871,0.1018,8.4913,1.4865,10.833,4.154
			c2.3417,2.6675,3.4617,6.679,3.3599,12.0345c-0.0611,2.8915-0.5498,5.4369-1.4661,7.6361
			c-0.9367,2.1992-2.2603,3.9504-3.9504,5.274c-1.2828,0.9774-2.7286,1.6697-4.3577,2.077
			c-1.6086,0.4073-3.8689,0.5906-6.7808,0.5295L709.6887,532.2219z M749.9665,532.9346l1.7104-31.6846l23.0304,1.2422l-0.3054,5.498
			l-16.5958-0.896l-0.3461,6.7605l15.15,0.8145l-0.2851,5.4166l-15.1703-0.8145l-0.4276,8.1451l17.3492,0.9367l-0.3054,5.8645
			L749.9665,532.9346z M787.3323,535.1542l3.3599-31.5625l9.6113,1.0182l3.706,24.7002l8.756-23.3562l9.6317,1.0182l-3.3599,31.5624
			l-6.0885-0.6516l2.7083-25.4536l-9.1226,24.7816l-6.6383-0.7127l-3.7672-26.1459l-2.7286,25.4536L787.3323,535.1542z
			 M871.431,545.9872l6.6383-31.033l22.5417,4.826l-1.1606,5.3962l-16.2292-3.4821l-1.4254,6.6179l14.8649,3.1766l-1.1403,5.3147
			l-14.8649-3.197l-1.7104,7.9822l17.003,3.645l-1.2217,5.7423L871.431,545.9872z M955.4279,547.942l6.1089,1.6494
			c1.6494,0.4276,2.9323,0.4072,3.8689-0.0815c0.9367-0.509,1.629-1.5272,2.0363-3.0952c0.4072-1.4457,0.3258-2.6472-0.2036-3.6042
			c-0.5295-0.9367-1.5272-1.6087-2.9933-1.9956l-6.4143-1.7308L955.4279,547.942z M953.9007,553.4807l-2.9323,10.8942
			l-6.3125-1.6901l8.2469-30.6461l13.6431,3.6653c3.2173,0.8756,5.4166,2.3825,6.6383,4.4799
			c1.2014,2.1177,1.3643,4.8057,0.4887,8.0433c-0.8348,3.1563-2.301,5.3758-4.3984,6.6383c-2.077,1.2828-4.6427,1.5068-7.636,0.7127
			L953.9007,553.4807z M992.0607,558.4697l7.3306,2.2603c1.5883,0.4887,2.8712,0.5294,3.8079,0.1018
			c0.9571-0.4072,1.629-1.3235,2.0566-2.7083c0.4073-1.3032,0.3462-2.4232-0.1629-3.3192c-0.509-0.9163-1.5068-1.5883-2.9323-2.0363
			l-7.636-2.3417L992.0607,558.4697z M980.576,573.6196l9.3058-30.3407l14.7224,4.5206c3.2988,1.0181,5.5387,2.4843,6.6994,4.378
			c1.1607,1.9141,1.2829,4.317,0.3869,7.2288c-0.5702,1.853-1.4254,3.2784-2.5861,4.2762c-1.1607,0.9977-2.525,1.5068-4.1133,1.5068
			c1.1607,0.8756,1.8937,1.8734,2.1585,3.0137c0.2443,1.1403,0.1018,2.7286-0.4277,4.7853l-0.9774,3.6246
			c0,0.0203-0.0203,0.0611-0.0407,0.1222c-0.5091,1.8123-0.4683,3.0341,0.1629,3.645l-0.2851,0.9366l-6.8419-2.1177
			c-0.0814-0.4887-0.1018-1.0588-0.0203-1.7308c0.0814-0.6516,0.2239-1.4254,0.4683-2.301l0.896-3.2173
			c0.509-1.8938,0.5497-3.2784,0.1221-4.1133c-0.4479-0.8552-1.4865-1.5475-3.1563-2.0566l-6.6179-2.0363l-3.6246,11.7901
			L980.576,573.6196z M1028.8972,573.5178c-1.2014,3.2784-1.3848,6.0885-0.5906,8.4506c0.7738,2.3417,2.4843,3.9911,5.1111,4.9482
			c2.6472,0.9571,5.0297,0.8145,7.1677-0.4683c2.1382-1.2828,3.8079-3.5635,5.0093-6.8419c1.181-3.2784,1.3846-6.0885,0.5906-8.4302
			c-0.8146-2.3621-2.5454-4.0319-5.1926-4.9889c-2.6064-0.9571-4.9889-0.7942-7.1066,0.4683
			C1031.7683,567.9384,1030.0986,570.219,1028.8972,573.5178z M1022.6458,571.2168c1.7716-4.8056,4.4799-8.1451,8.1249-10.0186
			c3.6653-1.853,7.7175-1.9752,12.177-0.3461c4.4391,1.629,7.4731,4.3373,9.0818,8.1248c1.6086,3.8079,1.5272,8.1044-0.2444,12.9101
			c-1.7512,4.8056-4.4595,8.1451-8.1451,9.9982c-3.6653,1.8734-7.7379,1.9955-12.177,0.3665
			c-4.4595-1.629-7.4731-4.3373-9.0615-8.1248C1020.8131,580.3394,1020.8946,576.0225,1022.6458,571.2168z M1081.3723,608.5012
			c-1.7104,0.9978-3.4006,1.5476-5.0907,1.6494c-1.6698,0.1018-3.4413-0.2444-5.2943-1.0385
			c-4.0726-1.7512-6.7809-4.5613-8.1045-8.4709c-1.3236-3.9301-0.9978-8.1859,0.957-12.7879
			c1.9956-4.6631,4.8464-7.8397,8.5525-9.5502c3.7061-1.7308,7.6768-1.6901,11.8715,0.1018
			c3.6654,1.5679,6.2719,3.7061,7.8397,6.455c1.568,2.7286,1.9142,5.722,1.0386,8.98l-6.1293-2.6064
			c0.2852-1.6697,0.0204-3.1563-0.7941-4.4391c-0.7942-1.2829-2.1178-2.301-3.9504-3.0952
			c-2.4436-1.0385-4.7446-0.9571-6.9031,0.2443c-2.1584,1.181-3.9097,3.3599-5.2535,6.5161
			c-1.3644,3.1766-1.6902,5.9663-0.9978,8.3895c0.6923,2.4232,2.301,4.1744,4.8259,5.2536c1.9142,0.7942,3.7468,0.9163,5.498,0.3462
			c1.7716-0.5905,3.2173-1.7919,4.3577-3.6042l-6.6179-2.8304l2.1177-4.9889l12.0956,5.1518l-6.7401,15.8016l-4.0115-1.7105
			L1081.3723,608.5012z M1111.5502,607.6664l6.8826,3.3802c1.5068,0.7331,2.749,0.9571,3.7468,0.6924s1.8123-1.0385,2.4639-2.3621
			c0.5906-1.2217,0.7128-2.3214,0.3462-3.2988s-1.2422-1.7919-2.5861-2.4639l-7.1677-3.5024L1111.5502,607.6664z
			 M1097.8256,620.8208l13.9485-28.4877l13.8264,6.7604c3.1156,1.5272,5.0907,3.3192,5.9257,5.3758
			c0.8552,2.0567,0.6108,4.4595-0.733,7.1881c-0.8553,1.7512-1.9346,3.0137-3.2174,3.8282
			c-1.3032,0.7941-2.749,1.0792-4.3169,0.8348c1.0181,1.0589,1.5679,2.1381,1.6697,3.3192c0.0612,1.1607-0.3258,2.7083-1.181,4.6428
			l-1.5272,3.4413c0,0.0203-0.0203,0.0611-0.061,0.1018c-0.7942,1.7104-0.9366,2.9323-0.4072,3.645l-0.4276,0.8552l-6.4347-3.1359
			c0-0.5091,0.0814-1.0792,0.2646-1.7105c0.1833-0.6516,0.448-1.3846,0.835-2.1992l1.3846-3.0341
			c0.7942-1.7919,1.0385-3.1563,0.7534-4.0726c-0.3054-0.9163-1.2422-1.7512-2.7897-2.5046l-6.2107-3.0544l-5.4369,11.0774
			L1097.8256,620.8208z M1133.2976,639.0455l15.4352-27.7342l20.1388,11.1996l-2.6879,4.826l-14.5187-8.0841l-3.2784,5.9256
			l13.2766,7.3714l-2.6472,4.7446l-13.2766-7.3714l-3.9707,7.127l15.2111,8.4506l-2.8508,5.1314L1133.2976,639.0455z
			 M1169.116,648.8808l5.5183,3.3192c-0.6923,1.6087-0.7534,3.0952-0.1832,4.4188s1.8123,2.5657,3.7264,3.7061
			c1.629,0.9978,3.0137,1.4457,4.1947,1.3439c1.181-0.0611,2.0974-0.6719,2.7897-1.8123c0.9774-1.6494-0.5701-4.4391-4.6427-8.3691
			l-0.1426-0.1426c-0.1018-0.1018-0.2646-0.2647-0.4886-0.4683c-2.2196-2.0974-3.645-3.8079-4.2966-5.1518
			c-0.6108-1.1811-0.8348-2.4639-0.7126-3.8079c0.1222-1.344,0.6108-2.7083,1.4662-4.1337
			c1.5883-2.6472,3.7059-4.1133,6.3531-4.4595c2.6472-0.3055,5.6813,0.5498,9.0615,2.5861
			c3.1766,1.9141,5.2129,4.1744,6.0885,6.7401c0.896,2.5861,0.5498,5.274-0.9774,8.0637l-5.3759-3.2377
			c0.6924-1.3846,0.7942-2.6879,0.2852-3.9097c-0.4888-1.2421-1.5884-2.3824-3.2581-3.3802
			c-1.4662-0.8959-2.7694-1.2828-3.9097-1.2014c-1.1404,0.1018-2.016,0.6719-2.6676,1.7308
			c-0.8756,1.4457,0.0408,3.4413,2.6879,6.0274c0.7128,0.6923,1.283,1.2421,1.6698,1.629c1.6901,1.7104,2.8508,2.9526,3.5228,3.7264
			c0.6516,0.7942,1.181,1.5272,1.5883,2.2603c0.733,1.2828,1.0792,2.5861,1.0182,3.93c-0.0612,1.3643-0.5092,2.749-1.3644,4.1541
			c-1.7104,2.8304-3.9707,4.4391-6.8215,4.8464c-2.8508,0.4072-6.0071-0.4276-9.4688-2.525
			c-3.421-2.0566-5.6405-4.4595-6.6179-7.2288C1167.1815,654.7861,1167.4869,651.8945,1169.116,648.8808z M1202.5519,669.7935
			l5.335,3.6246c-0.7737,1.5679-0.8959,3.0341-0.3868,4.3984c0.4886,1.3439,1.6698,2.6472,3.5228,3.8893
			c1.5679,1.0588,2.9323,1.5883,4.1133,1.5679c1.181-0.0204,2.1381-0.5702,2.8711-1.6697c1.0792-1.6087-0.3258-4.4595-4.1947-8.6135
			c-0.0408-0.0407-0.1018-0.1018-0.1222-0.1425c-0.1222-0.1019-0.2648-0.2648-0.4684-0.5091
			c-2.0973-2.1992-3.4413-3.9708-4.0319-5.3555c-0.5294-1.2014-0.6923-2.5046-0.509-3.8282
			c0.2036-1.3439,0.7534-2.6879,1.6902-4.0522c1.7308-2.5657,3.9299-3.93,6.5771-4.1133c2.6676-0.1833,5.6405,0.8349,8.9189,3.0544
			c3.0748,2.077,4.9685,4.4188,5.7219,7.0455c0.7534,2.6268,0.2852,5.274-1.405,7.9822l-5.2129-3.5024
			c0.7738-1.3439,0.9368-2.6472,0.5092-3.9097s-1.4662-2.4435-3.0748-3.5432c-1.4254-0.957-2.7083-1.4254-3.8486-1.3847
			c-1.1403,0.0408-2.0566,0.5702-2.7489,1.5883c-0.9368,1.3847-0.1426,3.4413,2.3621,6.1496
			c0.6923,0.7331,1.2218,1.3236,1.5883,1.7308c1.5884,1.7716,2.688,3.0952,3.3192,3.8893c0.6108,0.8145,1.0996,1.6086,1.4661,2.3417
			c0.672,1.3235,0.9368,2.6472,0.8146,3.9911c-0.1222,1.344-0.6516,2.7083-1.5884,4.0726
			c-1.8326,2.7286-4.1947,4.2355-7.0659,4.4799c-2.8711,0.2647-5.9663-0.7331-9.3262-3.0137
			c-3.2988-2.2399-5.3757-4.7649-6.2107-7.5546C1200.3119,675.5969,1200.7803,672.7258,1202.5519,669.7935z M1242.8906,691.1949
			c-2.1177,2.7897-3.1359,5.4369-3.0543,7.9008c0.061,2.4843,1.2217,4.5613,3.4413,6.2514
			c2.2399,1.6901,4.5817,2.2399,7.0048,1.6494c2.4028-0.5905,4.6632-2.301,6.7809-5.0907c2.0974-2.7693,3.1155-5.4165,3.0341-7.9008
			c-0.1018-2.4843-1.2625-4.5816-3.5024-6.2717c-2.2195-1.6901-4.5409-2.2195-6.9437-1.6087
			C1247.2483,686.715,1244.988,688.4052,1242.8906,691.1949z M1237.5759,687.1834c3.0952-4.0726,6.6587-6.4754,10.6906-7.2085
			c4.0522-0.7126,7.9619,0.3666,11.7494,3.2173c3.7875,2.8712,5.8849,6.3329,6.3125,10.4462
			c0.4072,4.093-0.9164,8.1859-3.9911,12.2585c-3.0952,4.0929-6.6791,6.4957-10.7313,7.188
			c-4.0521,0.7127-7.9822-0.3461-11.7494-3.197c-3.7875-2.8712-5.8848-6.3532-6.2921-10.4462
			C1233.1572,695.3693,1234.4808,691.2764,1237.5759,687.1834z"/>
	</g>
	<title>Layer 1</title>
</g>
<title>Brazil</title>
</svg>
