<svg xmlns="http://www.w3.org/2000/svg" xmlns:ns1="http://sozi.baierouge.fr" xmlns:xlink="http://www.w3.org/1999/xlink" id="svg2" version="1.1" viewBox="0 0 2042.4 1403.5"><rect id="rect2982" width="2042.4" height="1403.5" x="0" y="0" fill="red" stroke-width=".1" ry="4.602"/><g id="g3019" transform="translate(-387.21 344.81)"><path id="path2990" fill="red" d="m1419.4 98.89c-7.5135-0.16796-12.33 2.4914-18.682 6.4467-4.0161 3.773-12.798 2.1882-15.99-1.6578-0.7371-0.88823-2.2308-1.279-3.7663-0.98553-1.7415 0.33291-3.299-0.22216-4.9343-1.7584-51.405-18.335-67.363-19.907-109.08-25.067-1.1031-0.91548-4.8526-1.2119-13.091-1.0349-10.723 0.23037-11.713 0.09038-13.902-1.9667-1.9846-1.8644-2.1764-2.5488-1.2129-4.3267 36.887-74.135 64.732-130.86 127.94-167.01 16.504-7.5202 39.368-17.229 59.342-22.213 3.7337-2.4082 33.592-8.5357 38.5-7.9009 2.475 0.32012 10.35 0.75424 17.5 0.9647 16.541 0.4869 18.199 0.8988 19.041 4.7324 0.5273 2.4006 0.1406 3.5383-1.9411 5.7111-1.4297 1.4923-2.5995 3.1599-2.5995 3.7057-15.294 26.224-35.462 42.677-35.161 77.568 0.055 10.935 0.3482 13.38 1.7991 14.983 5.568 9.4608 8.5274 16.376 12.644 21.682 4.685 6.0376 5.8273 9.6213 9.685 20.041 2.5161 5.3286 4.1471 12.184 5.593 19.188 0.8055 5.1899 1.3385 10.288 1.9392 17.961 0.9512 12.149-0.1189 12.941-2.4243 15.395-1.3334 1.4193-2.0326 2.5806-1.5538 2.5806 0.4787 0-0.6662 1.5854-2.5443 3.5231-3.7551 5.376-4.2822 6.9499-12.514 5.3334-1.3265 0.137-2.7376 0.1344-4.1711 0.0847-3.2633-0.11309-6.6432-0.47025-9.4072 0.0194-12.694 0.85661-17.784 5.3102-30.556 16.219-3.6445-1.2764-5.3807-2.0645-10.448-2.2173zm-73.786 211.52c-9.8094 10.979-22.202 23.581-54.095 20.517-8.7136 0-14.126-0.39527-14.538-1.0617-20.376-5.7594-26.968-8.1097-40.498-19.534-1.6806-4.4202-1.3903-5.1036 8.3427-5.1036 9.3374 0.003 17.921 3.5783 27.487 5.373 9.0177-0.0508 11.706-1.8991 11.706-2.7981 0-0.87407-1.9721-1.1554-6.858-0.97825-5.9478 0.21563-3.2735-0.65306-9.2716-2.0188-13.171-2.4504-28.92-4.2051-37.192-6.2331-13.193-0.19287-71.068-12.318-77.178-30.564 0-1.0798-0.5016-2.2734-1.1147-2.6523-1.6093-0.99456-0.523-10.067 1.4689-12.268 0.9052-1.0002 1.6458-2.7172 1.6458-3.8156 0-1.0983 1.071-3.003 2.3799-4.2327 2.9787-2.7983 2.9187-7.1017-0.1445-10.362-1.2294-1.3087-2.2354-3.0428-2.2354-3.8536 0-0.81076-0.9-3.2394-2-5.397-2.7408-5.376-2.7408-15.624 0-21 1.1-2.1576 2-5.1226 2-6.589 0-2.3177 2.2076-5.411 3.8617-5.411 0.3048 0 0.6296-2.025 0.7216-4.5 0.1116-3.0024-0.4036-5.1656-1.5482-6.5-4.2806-4.9904-4.8394-20.187-0.9454-25.71 1.0507-1.4902 1.9103-3.0782 1.9103-3.5289 0-0.45066 2.925-3.7184 6.5-7.2616s2.6769-5.0403 5.2257-8.4716c-3.4291-9.9414-3.3037-15.56-1.201-25.556 1.4421-1.3548 2.286-3.0109 1.963-3.8524 19.272-23.649 52.015-22.288 58.568-24.693 1.5254-1.838 21.908-2.0586 23.71-0.25664 0.6438 0.64374 3.4209 1.2842 6.1715 1.4233 2.7505 0.1391 5.4133 0.50775 5.9173 0.81923 22.721 2.2102 65.986 5.0492 108.79 24.869 2.8355-0.46014 3.9613-0.0703 6.3187 2.1883 1.5777 1.5115 3.3749 2.4353 3.9936 2.0529 0.6188-0.38243 1.776-0.1551 2.5716 0.50518 1.5844 1.3149 1.2228 4.3568-1.149 9.6672-1.8951 4.243-2.1842 58.637-0.3236 60.879 0.6509 0.78424 0.8335 1.4259 0.406 1.4259-0.4276 0-0.05 0.80409 0.8396 1.7869 1.9955 2.205 1.2154 5.8432-1.3996 6.527-1.0491 0.27436-1.9075 1.1092-1.9075 1.8553 0 0.74607-1.0105 1.8007-2.2456 2.3436-3.1573 1.3879-5.15 6.1732-4.8601 11.671 0.1358 2.5761-0.3304 5.7261-1.0361 7s-1.1814 2.672-1.0571 3.1067c0.1242 0.43478-0.2539 1.687-0.8403 2.7827-4.1365 23.421 12.268 51.446 3.794 59.412-0.412 0.008-0.6375 0.28365-0.5 0.61162 0.4573 1.0908-2.461 3.8913-3.4306 3.2921-0.5247-0.32428-1.2012 0.35568-1.5033 1.511-0.3022 1.1553-1.0934 2.1006-1.7584 2.1006s-2.2529 1.1111-3.5287 2.4692c-1.2759 1.358-2.6244 2.2809-2.9969 2.0507-0.3724-0.23017-4.4659 3.3901-9.0966 8.045-5.2269 5.2542-8.9582 8.2567-9.8403 7.9182zm123.97 19.566c-2.9868 2.1731-5.7296 3.951-6.095 3.951s-9.8918-2.705-10.89-3.8084c-5.4037-5.8717-12.853-8.986-19.084-15.692-3.3453-3.2618-9.0002-4.9266-13-8 0 0.4808-1.35-0.4192-3-2-4.5705-4.341-13.124-8.1182-17.696-16.562 0.1078-0.40569-0.2541-0.82089-0.8041-0.92266-2.005-0.37099-3.5768-2.3723-3.0144-3.838-7.524-15.345-12.455-36.606-13.333-56.462 0.6341-1.1847 1.0563-5.1289 0.9384-8.7648-0.2686-8.2817 0.5468-11.622 2.9935-12.262 1.0534-0.27547 1.9153-1.218 1.9153-2.0945 0-0.92184 0.8351-1.5936 1.9809-1.5936 6.8504 0.41984 7.1813 33.311 12.738 39.201 1.188 1.2646 2.1877 2.7494 2.2207 3.2994s0.5553 1 1.1601 1c0.672 0 1.1354-2.4232 1.1914-6.2318 0.1411-12.255-6.1968-25.444-8.0073-38.629 0.453-2.7915 0.091-3.8781-1.9203-5.7678-2.2583-2.1215-2.4606-3.001-2.2783-9.8992 0.1175-4.4455-0.305-8.5148-1.0235-9.8573-0.6779-1.2575-0.9781-2.532-0.6779-2.8321 0.3001-0.30014-0.1134-1.4867-0.919-2.6369-1.1618-1.6587-1.4647-6.0294-1.4647-21.133 0-17.132 0.2007-19.417 2-22.774 1.1-2.0524 2-4.3111 2-5.0194 0-2.101 10.145-11.35 14.938-13.619 5.1643-2.4445 7.8222-2.5972 10.46-0.60089 1.0435 0.78994 2.3094 1.1815 2.813 0.87024 0.5037-0.31126 1.6832 0.12862 2.6212 0.97752 1.8239 1.6505 5.6685 1.6226 5.6685-0.0413 0-2.1957 11.247-12.515 16.189-14.852 6.3701-3.0136 15.235-4.0404 21.311-2.4686 12.037 3.1139 13.283 3.1197 16.126 0.0745 1.444-1.5471 2.794-3.206 3-3.6864 0.5416-1.2634 7.8301-5.8782 11.592-7.3393 4.457-1.7313 11.477 0.0235 22.266 5.566l8.4836 4.3579 5.6715-4.4043c7.9087-6.1417 10.676-7.3843 17.982-8.0738 5.5302-0.52193 6.8449-0.3022 9.8791 1.6512 1.925 1.2393 4.2186 2.1501 5.0969 2.024 17.237 11.302 27.078 32.144 33.831 48.268 1.8517 1.9715 2.2292 3.2232 1.7887 5.9376 8.6897 36.888 21.777 73.075 18.747 119.8 0.062 7.5845-2.6851 16.878-2.5642 20.605 0.1967 6.0642-0.04 7.0202-2.2521 9.0984-2.2126 2.0786-3.2627 2.2892-10.008 2.0077-18.368-0.73396-45.951 18.529-66.778 22.286-1.8488-1.0499-5.6054-2.4476-8.3481-3.106-2.7427-0.65838-5.2884-1.6851-5.657-2.2816-0.9372-1.5164-6.8092-1.5292-8.0638-0.0175-0.5706 0.6875-2.8948 1.2608-5.1649 1.2739-6.4377 0.0372-11.872 1.6487-13.691 4.0598-6.7425 3.9134-12.242 7.1094-17.868 11.35-1.4131 1.3539-3.0193 2.549-3.5693 2.6559-1.0717 0.20823-2.0306 0.84803-10.431 6.9595zm235.94 30.442c-2.8838 3.0697-5.4374 3.0637-14.009-0.0333-3.575-1.2917-9.425-2.6495-13-3.0173-9.6996-0.99798-11.236-2.7861-10.862-12.644 0.264-6.9674 0.062-7.9548-2.0971-10.253-1.3141-1.3988-1.9902-2.5432-1.5025-2.5432s-1.3295-2.25-4.0381-5-5.4517-5-6.0958-5c-0.644 0-1.3928-0.84824-1.6639-1.885-5.3312-2.3424-5.6575-3.8296-10.281-5.7372-3.4023-3.2833-2.5925-2.0686-2.2995-8.5677 0.2668-5.9169 0.024-6.9856-2.1035-9.25-1.3228-1.4081-2.0134-2.5602-1.5346-2.5602 0.4787 0-0.4553-1.4625-2.0757-3.25-5.1347-5.6642-7.1247-14.993-4.4462-16.648 2.1562-14.728 3.2476-36.888 0.7955-58.799-3.5884-32.065-12.341-64.567-16.464-80.462-1.3269-1.2465-2.331-3.3548-2.331-4.8942 0-4.1917 3.6895-5.1904 16.619-4.4987 10.962 0.58655 20.177 0.69251 30.464 0.35027 3.7159-0.12363 6.8921 0.43956 9.5 1.6845 34.589 9.0389 119.19 32.505 161.12 88.878-0.1087 0.57621 0.2523 1.075 0.8023 1.1084 2.0871 0.12682 3.6131 1.7929 3.0312 3.3094 22.513 28.244 24.592 38.414 40.057 78.339 0.069 4.6006 0.5672 6.419 2.25 8.2102 1.1888 1.2654 2.1614 2.9692 2.1614 3.7863 0 4.1448-5.9762 5.196-9.6924 1.7048-1.7002-1.5973-3.6295-2.1997-7.2112-2.2516-73.347-13.479-88.072-23.472-155.09 49.923zm-275.46 50.164-5.5261 0.0333c-3.0394 0.0183-19.926-0.99677-37.526-2.2558s-32.836-2.3212-33.858-2.3605c-1.4398-0.0553-1.7259-0.59952-1.27-2.4159 0.4283-1.7063-0.1022-2.9932-1.9486-4.7279-13.165-28.114-13.961-40.161-19.924-58.159-0.3989-1.5023-0.4488-3.8331-0.1109-5.1795 0.6335-2.5242 7.6682-8.3652 18.15-15.071 3.2488-2.0782 11.355-9.12 18.013-15.648l12.106-11.87h16.9l6.3945 6.4518c3.517 3.5485 6.6919 6.268 7.0554 6.0434 0.3636-0.22468 2.6101 1.5775 4.9923 4.0048s4.6322 4.2273 5 4 2.6369 1.5922 5.0426 4.0434c2.4056 2.4512 4.8854 4.4566 5.5106 4.4566 0.6253 0 1.9352 0.88214 2.9109 1.9603s2.111 1.8657 2.5229 1.75c0.4118-0.11567 3.7744 2.6406 7.4723 6.1252 5.5816 5.2594 7.1415 6.2306 9.1846 5.7178 2.1738-0.5456 2.3427-0.39669 1.4473 1.2763-0.5575 1.0417-1.8959 5.9365-2.9742 10.877-1.0784 4.9408-2.7065 10.74-3.618 12.888-2.6368 6.2126-10.444 29.065-13.317 38.982zm-357.55 5.752c0 2.1874-3.6525 2.0302-4.231-0.18211-52.865-51.459-93.409-79.673-121.68-160.62-0.73094-0.88074-0.99379-1.6013-0.5841-1.6013s0.12729-0.74413-0.62756-1.6536c-0.88873-1.0708-1.386-4.3319-1.4106-9.2528-0.021-4.1795-0.46412-8.2729-0.98468-9.0964-0.52057-0.82346-0.99109-1.7222-1.0456-1.9972-0.0545-0.275-0.66223-1.85-1.3505-3.5-1.666-3.994-0.0547-58.454 1.864-63 0.74101-1.7556 1.1957-6.4706 1.096-11.367-0.1504-7.3889 0.088-8.6417 2.0401-10.72 1.8131-1.93 2.2291-3.5978 2.3146-9.2791 0.0786-5.2209 0.5578-7.4272 1.9463-8.9609 1.1449-1.2645 1.9778-3.9976 2.2007-7.2209 0.2176-3.1469 1.0585-5.9597 2.1385-7.153 1.0234-1.1308 1.6574-3.134 1.4918-4.713-0.3815-3.637 1.9-5.4492 5.786-4.5957 2.5777 0.56617 3.7674 2.247 2.791 3.9433 1.6772 3.0103 4.5661 2.7788 8.4822 9.2616 8.569 10.325 14.408 15.585 26.262 30.496 1.65 1.5808 7.5055 8.7814 7.5055 8.2919 0-0.48952 1.6875 0.71191 3.75 2.6698 3.5301 3.351 5.8592 4.7511 7.4344 4.4687 0.3764-0.0675 1.9603 1.0998 3.5198 2.5939 1.8728 1.7942 3.5205 2.5374 4.8532 2.1889 1.209-0.31618 3.1193 0.33895 4.7666 1.6347 2.551 2.0066 25.463 2.7587 39.465 2.7028 23.508-0.15931 36.793-1.4282 69.939-0.3895 1.8578-0.46629 3.2097 0.16244 5.8484 2.72 2.097 2.0326 3.2323 3.9554 2.9187 4.9434-0.2964 0.9341 0.5466 2.6126 1.9961 3.9744 3.5855 3.3682 3.575 10.659-0.02 14.036-1.4167 1.3309-2.2841 3.0157-1.9717 3.8298 0.3068 0.7994-0.405 2.4782-1.5816 3.7307-1.9214 2.0452-2.1394 3.4118-2.1394 13.412s0.218 11.367 2.1394 13.412c1.1766 1.2525 1.8884 2.9313 1.5816 3.7307-0.3124 0.81406 0.555 2.4988 1.9717 3.8298 3.2713 3.0732 3.2713 6.9822 0 10.055-1.4167 1.3309-2.2841 3.0157-1.9717 3.8298 0.3068 0.7994-0.4276 2.5023-1.632 3.7843-3.2373 3.446-3.3088 13.596-0.1168 16.594 1.5264 1.4336 2.25 3.2725 2.25 5.7178 0 3.1058-0.8917 4.4884-6.4446 9.9919-39.852 57.928-51.704 80.073-67.078 128.25-1.0864 0.28412-3.4772 0.33259-3.4772 1.2091zm214.44 70.65c-17.472 16.825-11.41 43.783-48.77 59.665-5.6891-0.0186-16.659-3.1959-20.845-6.0375-1.4713-0.9988-3.135-3.135-3.697-4.7473-0.562-1.6122-2.2108-3.473-3.6638-4.1351-2.2537-1.0268-3.2534-0.8799-6.803 1.0001-5.444 2.8834-14.546 2.9614-21.959 0.1881-6.1385-2.2967-7.8844-3.9888-13.268-12.86-4.9287-8.1207-6.7178-8.9828-12.934-6.2329-7.9063 3.4973-13.891 2.6919-24.5-3.2968-0.8764-0.4948-2.0773-1.8448-2.6687-3-5.4846-10.714-7.7187-13.741-11.484-15.56-2.1911-1.0586-4.612-1.6837-5.3798-1.3891-1.5583 0.598-12.998-2.9384-18.603-5.751-5.1012-2.5595-9.1937-8.2239-11.849-16.4-1.2504-3.85-2.9271-7.7512-3.726-8.6692-1.781-2.0466-1.3299-11.094 1.3715-27.509 1.4195-8.6255 2.3599-11.73 4.1179-13.595 1.4081-1.4934 2.0345-3.0514 1.6401-4.0792-1.0515-2.7403 0.4703-8.4798 2.3441-8.8407 1.3204-0.25434 1.6327-1.2159 1.4074-4.3365 11.416-34.208 34.147-71.441 60.796-107.72 0.019-0.4125 0.034-1.3725 0.034-2.1334 0-0.76085 0.9929-1.643 2.2064-1.9603 1.2134-0.31733 1.8924-0.89091 1.5086-1.2746-1.2366-1.2367 1.4484-3.3817 4.2332-3.3817 1.5893 0 3.6694 1.0285 5.0481 2.4961 20.332 10.218 35.265 13.452 56.787 17.771 4.5095-0.41411 4.9124-0.23189 9.1748 4.15 2.452 2.5207 4.0698 4.5831 3.595 4.5831-0.4747 0-0.049 0.9 0.9468 2 12.5 14.405 42.366 21.267 62.52 21.038l20.52-0.1066 3.356 3.4625c2.5837 2.6657 3.2164 4.0185 2.7494 5.8788-0.4501 1.7936 0.052 3.0353 1.9495 4.8175 8.1023 10.622 15.775 37.832 21.107 55.107-0.1439 12.647-9.9828 38.602-17.739 51.34-1.0905 1.1608-1.7688 2.3246-1.5072 2.5862 0.2616 0.26158-4.6569 5.5936-10.93 11.849-9.8205 9.7927-11.622 11.193-12.966 10.078-4.8131-4.3707 10.07-23.433 10.908-29.149-0.5315-1.6746 0.9724-3.3543 3.0314-3.3858 0.55-0.008 1-0.65963 1-1.4471 0-0.9603-1.1142-1.4318-3.3834-1.4318-3.0935 0-7.0096 6.8848-7.2418 9.8368-6.2969 14.194-9.0575 18.545-12.874 23.91-1.1131 2.0738-4.4499 3.2783-5.5603 6.6733zm243.26 63.327c-1.208 0.324-2.7038 0.5926-3.324 0.6026-1.6901 0.0205-3.6437-2.7383-2.8493-4.0238-0.3847-20.334-30.642-38.648-40.068-54.006-7.3755-7.3427-3.5417-8.5802-3.5547-17.898-1.0999-8.1854-25.578-40.072-32.449-47.058 0.5075 0-0.3662-1.3453-1.9415-2.9896s-3.0806-2.7732-3.3451-2.5087c-0.2645 0.26449-1.0848-0.0203-1.8229-0.63288-1.9863-1.6485-1.6313-6.9663 0.8341-12.492 1.1968-2.6824 2.2986-5.9598 2.4484-7.2831 0.2406-2.1257 2.8749-9.8933 10.376-30.594 2.3726-6.5481 5.5116-16.549 6.4345-20.5 0.5336-2.2842 8.2663-9 10.363-9 0.4849 0 3.5413-2.4682 6.7921-5.485 3.2508-3.0167 6.2159-5.492 6.5891-5.5s1.3805-0.71692 2.2383-1.5748c2.6522-2.6521 11.856-8.5541 16.583-10.634 2.475-1.0891 5.6573-2.594 7.0718-3.3443 1.4145-0.75023 3.4395-1.3988 4.5-1.4414 5.9191-0.2375 7.2497-0.0988 10.609 1.1058l3.6804 1.3199-7.7986 3.146c-4.2892 1.7303-9.9773 4.6675-12.64 6.5271-6.7259 4.697-25.422 23.267-25.422 25.251 0 2.0327 3.498 5.6305 5.4743 5.6305 2.0289 0 15.234-11.506 16.01-13.95 0.7117-2.2423 14.045-11.503 19.454-13.512 13.761-5.1114 19.824-7.9117 21.562-9.9574 22.832-13.454 61.107-29.621 82.5-25.08 0.6847 0.825 0.9248 1.5 0.5336 1.5-0.3913 0 0.4787 1.4143 1.9332 3.143 2.4892 2.9582 2.6334 3.698 2.4542 12.585l3.4139 5.2371c4.4295 2.1756 11.967 5.8299 19.176 14.052 4.7936 7.5935 5.6021 10.874 5.4118 21.96-0.1715 9.9845-0.066 10.572 2.1986 12.251 1.3907 1.031 5.8915 2.2326 10.837 2.8933 8.3082 1.11 18.166 5.1109 18.179 7.378 0 0.55 0.6495 1.7115 1.4365 2.5812 0.787 0.86963 1.1941 1.818 0.9046 2.1075-0.2895 0.28949 0.1595 1.0956 0.9978 1.7913 1.6851 1.3985 2.0376 7.0745 0.6076 9.7836-1.2035 2.28-3.1232 7.5347-3.1012 8.4864 0.01 0.4125 0.3553 0.78206 0.7678 0.82126s1.425 0.66938 2.25 1.4004c0.825 0.73104 3.1331 2.0033 5.1292 2.8272 3.4517 1.4248 7.0148 5.9167 12.062 15.206 2.0145 3.7078 2.2301 16.83 0.3367 20.49-0.7128 1.3777-2.4948 4.9799-3.96 8.0049-3.6977 7.6344-8.225 13.767-11.392 15.433-1.4714 0.77371-4.6622 3.4483-7.0909 5.9436-2.4286 2.4953-4.7179 4.35-5.0874 4.1216-0.3696-0.2284-2.4113 1.3662-4.5373 3.5434s-4.3555 3.9586-4.9543 3.9586c-0.5989 0-3.0767 2.0254-5.5063 4.501-2.7819 2.8346-5.0126 4.312-6.0251 3.9907-0.9203-0.2921-2.6034 0.5495-3.9362 1.9682-1.2806 1.3631-2.7433 2.222-3.2504 1.9086-0.507-0.3134-1.1435 0.2776-1.4143 1.3132s-1.928 2.4964-3.6827 3.2462-3.9494 2.0168-4.8773 2.8156c-0.9278 0.7992-2.2019 1.1341-2.8312 0.7452-0.6342-0.3919-2.4456 0.5395-4.0631 2.0891-28.3 20.175-74.007 32.342-103.4 42.28-3.9408-0.2092-5.0787 0.0764-5.3212 1.3355-0.1696 0.8809-1.2968 1.8667-2.5049 2.1906zm-106.8 114.23c-19.104 20.813-37.641 27.315-63.959 11.824-1.6142-1.5466-2.9349-2.4185-2.9349-1.9377s-1.35-0.4192-3-2-9.0074-6.3856-13.513-8.6082c-59.159-50.746-60.449-56.42-91.761-94.883-0.096-1.2739-0.9721-2.5221-1.95-2.7778-0.5336-0.1962-5.9226-11.548-2.343-12.231 0.6703 0 2.2795-1.1292 3.576-2.5093 1.3374-1.4236 3.0455-2.2909 3.9476-2.0046 28.178-12.029 26.257-57.96 51.157-59.851 4.3208 0.1985 5.1864-0.0636 5.6144-1.7001 0.2783-1.0642 0.997-1.9348 1.5972-1.9348 0.6001 0 2.7551-1.6248 4.7888-3.6107 2.0338-1.9859 4.7439-4.1322 6.0225-4.7697s2.8236-2.1596 3.4333-3.3825c0.6096-1.2228 1.9258-3.1265 2.9247-4.2302 8.419-9.4372 15.197-25.964 19.565-37.578 0.7173-0.86425 1.3361-3.7744 1.3751-6.4669 0.048-3.2912 0.6555-5.4799 1.8547-6.6786 2.1188-2.1179 1.7517-2.1243 45.211 0.79392 28.108 1.8874 31.203 2.2706 33.176 4.1071 1.1968 1.114 2.6958 1.7042 3.3312 1.3114 0.6482-0.40061 2.4364 0.51338 4.0741 2.0823 1.6053 1.538 2.9187 2.3916 2.9187 1.8968 0-0.49472 2.1375 1.1578 4.75 3.6722 14.708 14.843 25.832 26.069 30.25 42.905 0 3.0436-0.5512 5.1607-1.5619 5.9995-1.3461 1.1172-3.3148-0.4493-14.25-11.339-9.0797-9.0416-13.257-12.548-14.688-12.328-1.1 0.16851-2 0.82598-2 1.461 0 0.63507 0.332 1.0422 0.7379 0.90467 1.1772-0.39885 31.712 30.522 31.107 31.501-0.3004 0.4861 0.399 1.131 1.5544 1.4331 1.1553 0.3021 2.1006 1.0877 2.1006 1.7456 14.934 16.725 36.021 31.261 39.938 55.032 1.1249 0.6952 1.4309 9.56 0.4556 13.196-2.0032 6.8008-10.743 13.935-22 19.164-1.9923-0.3468-2.6515 2.6511-1.074 4.8847 0.4685 0.6634 0.4924 1.7879 0.053 2.4988s-0.851 1.9681-0.915 2.7938c-1.5273 14.406-10.169 23.336-18.038 27.598-2.0122 1.9279-9.0091 2.5235-10.883 2.1652-3.1383-0.5999-4.0104 0.5075-2.4136 3.0645 0.7151 1.1449 0.8672 2.6611 0.3802 3.7906-0.2673 15.148-17.719 26.067-33.995 25.074-2.8582-0.0522-2.9762 0.1125-2.6652 3.7224 0.2455 2.8494-0.2336 4.3722-1.9506 6.1999zm-218.23 62.368c-17.553 2.0068-27.839 2.207-53.664 1.0444-12.157-0.5472-15.361-1.1227-32.209-5.7849-16.824-4.6558-34.917-10.644-40.291-13.337-4.373-2.1907-8.4002-4.5572-31.25-18.364-27.284-16.486-29.248-17.88-27.591-19.573 0.6375-0.6517 2.4375-1.2912 4-1.4213 41.754-13.846 56.975-20.152 77.683-39.084 3.7311-2.8463 5.7063-5.4807 8.6083-11.482 5.7776-11.947 5.3034-9.4759 6.8068-35.48 0.5651-9.6356 14.181-35.734 17.203-52.964 1.0782-0.9757 1.8657-2.2195 1.75-2.7639-0.1242-0.5848 3.4735-1.0675 8.7897-1.1794 4.95-0.1042 9.9694-0.5464 11.154-0.9826 1.8355-0.6758 2.5415-0.1322 4.7725 3.6746 3.6558 6.2382 12.473 14.3 17.169 15.699 2.1476 0.6397 7.9798 1.4118 12.96 1.7158 7.1163 0.4344 9.7103 0.2144 12.111-1.0273l3.0555-1.58 3.913 4.3546c2.8128 3.1303 5.1714 4.6734 8.3887 5.4881 2.4616 0.6234 5.6006 1.6557 6.9756 2.294s3.2263 1.2338 4.114 1.3228c2.2686 0.2281 4.0096 1.4395 3.4259 2.3839 0.4317 2.0675 2.7555 3.2965 3.4601 5.5452 0 0.6439 1.1051 2.2088 2.4558 3.4777 1.3506 1.2689 2.3631 2.7894 2.25 3.3789 34.842 44.536 50.827 60.11 88.754 93.621 2.126 2.1772 4.1734 3.7682 4.5499 3.5355 0.3764-0.2326 1.9066 0.8526 3.4003 2.4117l2.7158 2.8348-18.999 11.63c-10.449 6.3963-19.676 11.63-20.504 11.63-0.8279 0-1.7575 0.4083-2.066 0.9074-0.3084 0.4991-4.0475 2.3318-8.309 4.0726s-12.556 5.1672-18.433 7.6143c-5.8766 2.4471-11.052 4.3677-11.5 4.2687-0.4484-0.0993-1.4903 0.0851-2.3153 0.4098-0.825 0.3246-3.975 1.2657-7 2.0911-22.562 6.1567-30.528 7.8101-46.336 9.6173zm384.41 76.744c-2.9817 1.9074-5.9613 3.6753-6.6214 3.9286-0.9033 0.3466-1.3816-5.9562-1.9335-25.48-0.4031-14.267-0.4351-26.879-0.071-28.026 0.7171-2.2592-2.8007-16.778-5.2452-21.649-3.7872-7.5457-13.629-20.628-20.34-27.036-8.6707-8.2807-18.196-14.193-29.622-18.387-4.5394-1.6661-9.7144-3.7812-11.5-4.7002-7.1614-3.6862-17.497-11.532-21.814-16.558-5.6212-6.5456-20.039-27.335-20.329-29.314-0.1167-0.7956-0.5253-1.7595-0.9079-2.1421-1.9534-1.9534 1.8509-8.3623 4.9639-8.3623 0.5668 0 1.845-0.9 2.8405-2s2.331-2 2.9679-2c3.9903-0.4787 16.873-13.889 18.664-36.544 17.069-6.5205 23.438-14.831 25.759-28.456 30.652-11.188 111.72-34.128 133.2-53.583 1.4229-1.3632 3.2348-2.2301 4.0264-1.9264 0.8534 0.3276 3.0372-1.0842 5.3657-3.4689 3.8093-3.901 8.5545-5.3934 9.9532-3.1303 2.1603 3.4953 9.7551 42.63 12.056 62.124 2.4213 20.51 2.5972 24.462 2.003 44.985-0.3583 12.375-1.5221 32.39-2.5861 44.479-1.8818 21.378-2.0874 22.472-7.517 40-5.0569 16.325-6.4688 19.58-15.003 34.581-7.7626 13.645-11.959 19.61-23.843 33.89-13.058 15.69-16.061 18.654-31.733 31.32-9.5205 7.6942-19.75 15.55-22.731 17.458zm-16.943 17.41c2.2628 2.2628 2.9108 2.2891 7.6462 0.3112 7.6641-3.2012 19.287-11.222 37.818-26.096 18.053-14.491 19.931-16.333 34.249-33.591 11.466-13.82 17.117-21.663 23.248-32.26 11.504-19.887 12.01-21.022 18.254-41.033 5.411-17.339 5.7047-18.858 7.6389-39.5 1.36-14.514 2.0924-31.023 2.2609-50.967 0.22-26.029-0.025-31.618-2.0832-47.5-1.2829-9.9-3.1954-21.73-4.25-26.289-1.0546-4.5588-1.9175-9.5314-1.9175-11.05 0-1.5187-0.3962-3.1887-0.8805-3.7112-0.4842-0.5225-1.658-4.55-2.6083-8.95-0.9504-4.4-2.3624-9.5372-3.1379-11.416-1.3081-3.169-1.2536-3.5825 0.7537-5.7191 1.1901-1.2668 2.4667-2.116 2.837-1.8871 0.3702 0.2288 5.9489-4.8735 12.397-11.338 8.2318-8.2532 11.542-12.228 11.113-13.346-0.589-1.535 0.958-3.2226 3.0257-3.3007 0.55-0.0208 0.8562-0.86538 0.6805-1.8769s0.6527-2.874 1.8409-4.1388c2.0049-2.134 2.1604-3.3239 2.1604-16.526v-14.227l-8.122-8.1645c-4.4672-4.4905-7.8848-8.4017-7.5949-8.6917 0.29-0.28996-0.596-1.5824-1.9688-2.8721-2.3247-2.1839-2.4961-3.0031-2.4961-11.927v-9.5825c46.991-48.254 64.508-81.092 150.5-59.565 3.85 1.0308 10.825 3.324 15.5 5.0959 16.218 6.1469 16.271 6.1624 17.027 4.94 1.1046-1.7873-0.1182-10.27-1.7503-12.142-1.0193-1.1691-1.3633-3.3651-1.1229-7.1681 0.2956-4.6765 0-5.8564-2.0406-8.0251-1.8921-2.0151-2.2715-3.2558-1.8291-5.9819-11.102-26.317-14.935-51.189-35.796-72.619 0.256-0.41418-0.424-1.5579-1.511-2.5417-1.087-0.98375-1.9767-2.2814-1.9867-2.8836-0.01-0.60225-2.1431-3.3798-4.75-6.1724-50.966-56.311-102.34-74.97-170.29-89.389-7.0349-0.0226-10.964-0.44813-11.793-1.2771-1.7259-1.726-13.09-2.9608-29.767-3.2346-7.7607-0.12738-14.56-0.50954-15.11-0.84926-0.5496-0.33972-3.373-4.7926-6.274-9.8953-4.0903-7.1945-7.8828-11.933-16.89-21.101-7.2394-7.369-13.487-12.785-16.582-14.376-4.4923-2.3092-5.7805-2.5064-13.502-2.0661-7.0554 0.40227-9.5759 1.0314-14.534 3.6279-3.299 1.7276-7.1452 4.0608-8.5472 5.1848l-2.5489 2.0437-6.9511-3.4256c-8.7549-4.3147-17.302-6.3502-20.184-4.8074-1.7959 0.96113-2.144 0.76767-2.7155-1.5092-0.3605-1.4364-0.5908-7.3898-0.5108-13.23 0.1488-10.927-0.2737-13.371-2.8269-16.346-3.5084-16.885-8.4577-32.388-18.828-46.88-1.3893-1.3053-2.1851-2.9481-1.8854-3.8924 0.3029-0.9543-0.5251-2.6144-1.9907-3.9913-2.4843-2.3338-2.5093-2.5238-2.5093-19.009-0.5969-21.98 18.356-58.459 35.936-74.52 1.0554 0.33498 3.0675-0.92301 5.5618-3.4774 2.1494-2.2012 3.5133-4.0023 3.0308-4.0023s0.1934-1.1396 1.5019-2.5325c2.8628-3.0473 3.4426-9.7609 1.0244-11.861-1.6186-1.4058-9.9942-2.1226-37.555-3.2139-13.239-0.52423-16.115-0.33594-24.5 1.6038-44.09 10.088-67.957 12.974-107.56 35.065-19.915 17.253-46.131 34.03-59.969 58.012-9.3369 16.726-15.919 18.718-59.882 111.54-4.0649 3.9154-28.466 6.6279-35.762 10.08-11.99 6.7439-13.162 7.9167-28.723 22.161-2.6162 6.4328-5.4489 16.787-3.161 22.577l0.1499 14.928-7.2977 7.3534-7.2978 7.3534c-29.495 4.6588-36.32 7.4874-65.025 7.1612-11.096-0.1261-24.025 0.74719-48.66-5.6588-18.207-9.8185-32.295-22.469-39.844-28.097-1.2758-1.358-1.9158-2.4692-1.4222-2.4692-4.8766-9.213-26.337-30.598-33.493-39.618-24.289 6.382-27.536 77.798-29.176 102.12-0.0342 2.2-0.52294 10.339-1.086 18.086-0.98634 13.57-0.92722 14.503 1.6159 25.5 1.4518 6.2779 2.8107 13.664 3.0197 16.414 0.20901 2.75 0.76026 5.0073 1.225 5.0153 1.8926 0.0343 3.4443 1.7834 2.8821 3.2487 20.993 52.392 23.107 53.488 49.408 88.915 24.747 31.211 53.851 58.845 80.555 77.321 2.474 2.3242 2.5 2.523 2.5 19.127 0 10.212-0.4365 17.737-1.1153 19.226-0.9097 1.9967-0.6215 3.9301 1.5646 10.494 3.7471 11.252 9.4616 18.497 18.051 22.886 7.5983 3.8824 18.691 7.3817 21.498 6.7818 2.2841-0.488 2.9106 0.2317 7.2048 8.2778 2.5867 4.8467 5.6242 9.6458 6.75 10.665-4.6879 22.779-6.1271 36.166-13.179 50.509-6.2291 12.67 1.2884 27.58-9.5305 43.186-2.514 5.2645-4.103 6.7824-18.96 18.112-23.258 17.736-40.677 19.473-66.983 28.436-3.4092 1.3646-6.7001 2.1712-7.313 1.7925-1.3738-0.8491-4.9882 2.2709-4.9882 4.3057 0 0.8188 3.7045 5.3615 8.2324 10.095 6.0806 6.3568 11.057 10.34 19.039 15.237 5.9438 3.6468 11.577 7.2723 12.518 8.0567 0.9409 0.7843 3.0118 1.9824 4.602 2.6623 1.5901 0.68 6.0901 3.3215 10 5.8701 3.9098 2.5486 9.5838 5.9575 12.609 7.5753 3.0249 1.6179 6.0891 3.4156 6.8091 3.9949s2.3283 1.1619 3.5739 1.2948c1.2456 0.1328 4.0315 0.9796 6.1908 1.8818 2.1594 0.9023 4.1511 1.6799 4.4261 1.7269 0.275 0.0475 2.9334 0.9237 5.9076 1.9469 2.9742 1.0233 13.774 4.0809 24 6.7948l18.592 4.9343 25 0.6441c21.767 0.5608 27.328 0.3727 43-1.4545 24.626-2.8711 52.04-10.169 77.443-20.617 22.451-9.2335 20.632-8.3065 42.323-21.574l17.766-10.867h7.3097c39.474 15.684 56.747 11.406 79.097-20.94 13.296-4.2345 27.438-8.8504 27.562-14.585 0 0.4947 1.2637-0.3112 2.8082-1.791l2.8082-2.6904 6.9418 10.205c16.224 23.851 28.714 34.053 52.363 42.773 9.6011 3.54 17.9 8.6684 24.926 15.403 6.1587 5.9036 17.548 22.177 16.598 23.715-0.3525 0.5705 0.053 1.8036 0.9003 2.7404 2.8085 3.1033 3.4856 10.351 4.2093 45.057 0.6604 31.665 0.8646 34.533 2.5812 36.25z"/><path id="path2997" fill="#fff" stroke-width=".1" d="m1036.5 383.24c-17.848-17.267-39.232-40.414-47.519-51.438-18.13-24.118-36.897-62.17-42.051-85.259-6.2139-27.841-4.5333-81.385 3.5771-113.97 3.9545-15.887 7.5693-29.269 8.033-29.738 0.46368-0.46876 11.419 11.543 24.345 26.692 33.296 39.022 36.866 40.427 102.7 40.427 49.703 0 54.47 0.53986 60.145 6.8106 5.4733 6.0479 5.6759 8.288 1.8091 20.005-2.5423 7.7031-3.4418 18.658-2.1615 26.323 2.3368 13.991 2.3915 16.12 1.0583 41.165-0.6978 13.11-4.2255 21.102-18.779 42.547-20.16 29.705-41.927 71.722-48.379 93.385-2.3657 7.9435-5.6572 14.443-7.3143 14.443s-17.616-14.127-35.465-31.394z"/><path id="path2999" fill="#fff" stroke-width=".1" d="m1268.1 325.52c-11.358-4.0268-30.011-16.246-27.949-18.308 0.7306-0.7306 10.073 0.4278 20.761 2.5742 13.182 2.6473 20.545 2.79 22.891 0.44369 2.3463-2.3463-7.2746-5.2746-29.91-9.1036-74.077-12.531-98.599-22.961-97.146-41.32 0.4352-5.4972 0.7781-13.818 0.7622-18.491-0.2694-78.92-0.038-81.951 7.0141-91.855 4.2736-6.0017 6.725-14.945 6.725-24.535 0-21.266 14.887-32.733 51.105-39.362 24.9-4.5577 97.777 5.8126 134.61 19.155l26.68 9.6648 0.9604 37.929c0.7754 30.623-0.1154 39.571-4.6242 46.452-6.3421 9.6792-7.9435 38.518-3.5943 64.727l2.8341 17.079-25.916 21.271c-14.254 11.699-29.798 22.746-34.541 24.55-11.1 4.22-37.585 3.7641-50.661-0.87206z"/><path id="path3001" fill="#fff" stroke-width=".1" d="m1356.3 93.476c-18.751-6.2789-47.807-13.144-64.568-15.256s-35.432-4.5769-41.492-5.4775l-11.018-1.6375 10.585-21.09c34.003-67.748 71.192-116.7 105.27-138.57 9.611-6.1674 34.487-17.038 55.28-24.158 30.105-10.308 42.823-12.949 62.443-12.966 15.027-0.0128 24.638 1.3773 24.638 3.5637 0 1.9716-5.8495 12.294-12.999 22.939-28.687 42.713-30.76 62.565-10.594 101.49 9.29 17.931 14.415 32.805 15.71 45.596 2.6749 26.415-1.2073 32.211-23.33 34.831-9.8481 1.1664-21.826 5.0189-26.617 8.5612-4.7911 3.5423-14.766 7.2227-22.167 8.1787-7.4008 0.95603-16.514 2.5653-20.252 3.5762-3.7382 1.0109-22.139-3.2993-40.89-9.5781z"/><path id="path3003" fill="#fff" stroke-width=".1" d="m1440.2 318.43c-33.919-24.804-44.241-36.916-49.678-58.29-5.8282-22.914-6.7974-51.391-1.853-54.447 1.8143-1.1213 4.2455 2.2292 5.4026 7.4456 4.179 18.838 8.857 31.522 12.442 33.738 4.52 2.7935 1.4898-22.798-6.1277-51.751-2.9056-11.044-5.5613-31.029-5.9015-44.413-0.5522-21.719 0.2931-25.307 7.8666-33.396 6.5304-6.9748 10.836-8.7118 18.691-7.5393 7.802 1.1647 12.938-0.86504 21.807-8.6187 10.156-8.8787 13.398-9.896 26.017-8.1663 11.564 1.585 16.258 0.52597 23.734-5.354 8.9899-7.0715 9.853-7.1375 24.492-1.8735 14.339 5.1561 15.76 5.0987 25.834-1.0444 5.8635-3.5754 12.519-6.5064 14.79-6.5134 7.696-0.02367 28.549 21.381 36.916 37.894 17.862 35.25 32.314 119.31 26.186 152.32-2.6905 14.492-3.4792 15.324-16.651 17.572-7.6045 1.2982-23.162 6.2894-34.571 11.092-17.259 7.2641-24.059 8.398-40.466 6.7477-18.818-1.8927-20.7-1.3461-41.076 11.927-11.745 7.6509-23.979 13.823-27.186 13.715-3.2078-0.10749-12.508-5.0775-20.668-11.044z"/><path id="path3005" fill="#fff" stroke-width=".1" d="m1681.8 356.46c-8.8473-2.5546-11.044-4.9645-11.044-12.114 0-6.0775-4.6026-13.303-14.427-22.649-19.49-18.54-24.035-31.645-23.168-66.798 0.7013-28.444-5.3694-72.648-14.844-108.08-5.879-21.989-4.6727-22.849 28.078-20.011 48.121 4.1691 124.58 37.133 159.57 68.793 25.919 23.455 44.814 51.553 58.454 86.924 5.8378 15.138 10.147 27.942 9.5765 28.452-0.5707 0.51086-15.566-2.0517-33.322-5.6945-54.984-11.28-78.444-4.5358-115.99 33.344-22.127 22.325-24.263 23.214-42.883 17.837z"/><path id="path3007" fill="#fff" stroke-width=".1" d="m1367.5 405.36c-14.566-1.5242-15.323-2.6119-27.754-39.899l-9.0287-27.082 23.059-21.187c14.027-12.888 26.146-21.248 30.941-21.344 6.5817-0.13133 65.181 41.189 65.181 45.961 0 0.75705-4.6595 15.922-10.354 33.701l-10.354 32.325-24.478-0.57127c-13.463-0.31419-30.208-1.1708-37.212-1.9037z"/><path id="path3009" fill="#fff" stroke-width=".1" d="m1217.7 536.8c-6.8272-5.3703-11.586-6.4568-20.75-4.7377-10.402 1.9514-13.286 0.82681-23.034-8.9806-8.6511-8.7042-13.562-11.011-21.961-10.314-13.112 1.0879-23.675-4.0768-26.492-12.954-1.3014-4.1004-8.4559-8.6949-18.986-12.192-28.406-9.435-34.316-31.929-19.9-75.739 10.251-31.153 23.922-57.939 48.156-94.359l20.523-30.842 19.051 7.6395c10.478 4.2017 25.168 8.7377 32.645 10.08 8.079 1.4505 18.685 6.9975 26.144 13.674 13.926 12.464 27.389 17.001 61.957 20.881l23.284 2.613 10.159 25.467c14.174 35.53 14.966 45.822 5.2963 68.753-8.0134 19.002-25.442 42.294-28.992 38.744-1.0118-1.0118 1.4705-7.4501 5.5163-14.307 4.0458-6.8571 6.631-13.192 5.7448-14.079-3.2732-3.2733-9.2082 3.381-17.356 19.459-4.6016 9.0808-9.959 17.495-11.906 18.698-1.9464 1.203-8.0114 11.047-13.478 21.876-11.115 22.019-27.263 37.587-38.987 37.587-4.2772 0-11.763-3.1358-16.636-6.9684z"/><path id="path3011" fill="#fff" stroke-width=".1" d="m1139 725.01c-28.493-6.2094-58.836-18.031-84.108-32.769-16.354-9.5373-29.735-18.388-29.735-19.668 0-1.2802 4.1805-3.3769 9.2901-4.6593 19.559-4.9089 57.451-25.179 68.115-36.438 8.6011-9.0807 11.882-16.381 14.406-32.049 1.7971-11.159 6.9688-30.923 11.493-43.92 6.4706-18.59 10.105-24.314 17.037-26.838 7.5522-2.7491 10.412-1.6563 20.01 7.6462 8.7929 8.5225 14.111 10.854 24.761 10.854 21.317 0 37.706 10.725 60.866 39.829 11.571 14.541 35.48 40.336 53.132 57.323l32.094 30.885-23.917 13.91c-27.462 15.972-65.067 29.362-96.981 34.533-21.744 3.523-63.158 4.26-76.462 1.3607z"/><path id="path3013" fill="#fff" stroke-width=".1" d="m1360.8 673.72c-26.251-15.206-62.808-48.047-89.626-80.514-13.818-16.729-25.124-32.437-25.124-34.905 0-2.4687 3.4688-6.069 7.7084-8.0007 7.9014-3.6001 14.994-13.059 31.018-41.37 5.7081-10.085 11.48-16.142 15.38-16.142 14.155 0 42.653-37.611 49.664-65.544 2.0488-8.1634 3.0236-8.4604 23.097-7.0383 54.657 3.872 56.518 4.3638 72.588 19.177 14.691 13.541 24.832 28.505 24.832 36.641 0 2.1794-6.2529-1.6866-13.895-8.5912-7.6425-6.9045-14.795-11.654-15.894-10.555-1.0992 1.0992 12.78 17.041 30.843 35.425 45.552 46.365 53.816 68.261 31.273 82.864-8.9021 5.7665-11.862 10.069-11.894 17.284-0.045 10.342-16.171 29.474-24.843 29.474-2.7477 0-5.8247 4.4527-6.9438 10.049-2.0662 10.331-16.204 20.536-28.45 20.536-3.3878 0-7.6691 3.4032-9.5141 7.5627-4.4847 10.11-24.312 23.029-35.292 22.994-4.8635-0.0153-16.081-4.2207-24.928-9.3453z"/><path id="path3015" fill="#fff" stroke-width=".1" d="m1523.4 539.02c-1.1174-4.452-11.22-18.234-22.451-30.626-14.499-15.999-20.419-25.229-20.419-31.834 0-6.0357-6.5627-17.916-18.691-33.834-10.28-13.493-18.691-26.295-18.691-28.45 0-7.9922 18.41-59.329 23.396-65.239 7.7906-9.2358 44.567-32.97 50.905-32.852 4.4347 0.0824 4.1844 0.85847-1.2368 3.835-10.905 5.9874-35.551 30.905-33.635 34.006 3.3696 5.4521 11.216 2.7514 22.381-7.703 22.514-21.082 104.68-55.281 119.32-49.663 2.8243 1.0838 6.1502 6.5922 7.3909 12.241 1.2677 5.7722 5.0903 11.17 8.7275 12.325 10.89 3.4562 20.242 18.492 20.242 32.541 0 12.098 0.7941 13.13 11.672 15.171 15.121 2.8367 23.65 12.251 21.463 23.691-1.2593 6.5878 0.2903 10.114 6.1235 13.937 4.2951 2.8143 9.4639 9.8631 11.486 15.664 3.0482 8.7443 2.4857 12.917-3.291 24.413-13.113 26.096-72.491 64.462-130.71 84.457-50.492 17.341-51.577 17.5-53.982 7.9191z"/><path id="path3017" fill="#fff" stroke-width=".1" d="m1581.9 768.81c-1.1314-32.19-1.5628-33.769-13.76-50.373-9.6127-13.086-19.172-20.683-40.406-32.112-20.99-11.297-31.032-19.233-40.932-32.345-7.2148-9.5559-13.118-18.485-13.118-19.843 0-1.3575 5.2479-7.4175 11.662-13.467 6.414-6.0492 12.749-15.504 14.077-21.011 1.3284-5.507 7.4581-14.254 13.622-19.437 6.1635-5.1836 12.116-12.289 13.227-15.79 1.4654-4.617 14.665-10.677 48.065-22.068 48.281-16.466 60.736-21.797 86.916-37.206l15.954-9.39 3.38 12.956c13.762 52.751 13.407 139.95-0.7282 178.89-10.359 28.54-21.981 47.978-41.992 70.235-16.515 18.368-46.914 44.189-52.025 44.189-1.5261 0-3.3003-14.954-3.9427-33.232z"/></g><metadata/></svg>