<?xml version="1.0"?>
<svg xmlns:rdf="http://www.w3.org/1999/02/22-rdf-syntax-ns#" xmlns="http://www.w3.org/2000/svg" xmlns:cc="http://web.resource.org/cc/" xmlns:xlink="http://www.w3.org/1999/xlink" xmlns:dc="http://purl.org/dc/elements/1.1/" xmlns:svg="http://www.w3.org/2000/svg" id="svg3337" height="140mm" width="245mm">
  <rect id="rect880" fill-rule="evenodd" height="496.06" width="868.11" y="-.000061" x="0" stroke-width="1pt" fill="#fff"/>
  <g id="g877" transform="matrix(.37590 0 0 .37590 182.64 298.58)">
    <path id="path723" d="m398.4-85.658c0.19-0.252 8.76-15.252 7.74-12.836 3.95 3.024 11.16 0.158 5.93-6.646 1.27-2.75 2.87-4.85 4.15-7.6 2.87-5.38-3.28-7.7-5.72-3.98-1.49 2.85-2.93 4.55-4.42 7.4-7.76-3.68-8.26 4.98-4.55 6.49-1.65 2.33-4.45 6.176-6.1 8.508 0.99 2.888 1.98 5.776 2.97 8.664z" fill="#9c4314" fill-rule="evenodd"/>
    <path id="path724" d="m397.37-89.011c-0.25-0.189-15.37-8.544-12.94-7.563 2.97-3.986 0-11.156-6.73-5.826-2.77-1.24-4.89-2.82-7.66-4.05-5.42-2.79-7.66 3.39-3.9 5.78 2.88 1.446 4.59 2.858 7.46 4.308-3.57 7.809 5.1 8.197 6.56 4.464 2.36 1.614 11.48 6.903 13.84 8.517 2.87-1.029 0.5-4.601 3.37-5.63z" fill="#9c4314" fill-rule="evenodd"/>
    <path id="path721" d="m452.07 2.6474c0.05-0.314 0.44-17.585 0.7-14.976 4.91 0.779 9.88-5.174 2.04-8.664-0.19-3.025 0.22-5.634 0.03-8.661-0.04-6.104-6.56-5.212-6.92-0.778 0.05 3.218-0.41 5.394-0.36 8.612-8.58 0.457-4.9 8.316-0.92 7.878-0.33 2.835-0.97 7.5494-1.31 10.384 2.25 2.0684 4.49 4.1374 6.74 6.2054z" fill="#9c4314" fill-rule="evenodd"/>
    <path id="path722" d="m449.57 0.18644c-0.31-0.045-17.59-0.189-14.98-0.485 0.71-4.922-5.31-9.8084-8.69-1.921-3.03 0.233-5.64-0.143-8.66 0.091-6.11 0.124-5.12 6.63-0.68 6.935 3.21-0.094 5.39 0.331 8.61 0.237 0.58 8.5676 8.39 4.78 7.89 0.802 2.84 0.298 11.7 1.224 14.54 1.522 2.04-2.274-0.06-4.907 1.97-7.181z" fill="#9c4314" fill-rule="evenodd"/>
    <path id="path691" d="m628.31 59.395s5.92 7.998 8.59 8.294c8.29 0.592 74.06 0 74.06 0 0-0.099 2.36-1.382 2.36-1.481 2.18-2.765 1.98-4.345 4.15-7.11 3.46-3.456 8.39-4.542 11.85-7.998 14.81-3.555 28.14-7.109 42.96-9.479-1.19-8.788-10.08-6.912-14.82-10.368-1.48-1.383-1.18-2.765-0.29-4.148 10.96-5.036 21.92-10.071 32.88-15.107v-3.5546c-23.31 2.7646-44.83 7.3056-69.91 8.2936-28.54 11.751-57.08 23.501-85.61 35.252-2.08 2.469-4.15 4.937-6.22 7.406z" fill-rule="evenodd" stroke="#000" stroke-width="2.5" fill="#42b2f3"/>
    <path id="path610" d="m391.62-97.904h-0.3c1.49 0 0.31 0.099 0-3.556" stroke="#000" stroke-width="1pt" fill="none"/>
    <path id="path611" d="m392.89-93.966c-4.44-15.704-11.63-29.454-28.38-33.524-3.14-0.72-5.38-9.69-0.14-9.27 2.96 1.18 0.06-0.56 3.02 0.62 2.93 1.05 7.5-1.26 5.62-6.26 0-0.59-5.6-10.52-5.6-10.81-1.04-1.14 0.9-7.5 5.93-4.15 2.37 1.56 4.74 5.21 8.16 5.92 1.25-0.2 2.08-4.11 1.87-7.13 0-0.29 0.3-10.23 0.3-10.23-1.19-6 4.11-9.05 8.37-4.57 0.29 1.48-0.04 1.49 0.26 2.98 0.97 1.98 2.16 2.29 3.55 0.29 1.88-1.87 3.75-3.75 5.63-5.63 3.34-1.24 5.43-2.48 5.63 4.45 0 0-4.61 5.78-6.79 7.87-1.14 1.68-3.6 3.96 0.68 5.21 0.29 0 6.11 0.84 6.11 0.84 3.98 1.66 4.4 6.03 1.47 6.43 0 0-3.11 3.62-8.55 6.64-1.68 1.35-3.06 2.96-1.59 4.81 3.14 1.22 2.14 0.05 7.5 0.05 4.52-1.04 4.1 10.03-4.07 9.28-2.44 0.58-5.67 0.34-6.99 4.25-0.6 3.04-0.74 8.88-0.74 10.36-0.51 7.06 0.53 16.835 0.53 17.131 0.59 5.036-1.19 3.258-1.78 4.443z" fill-rule="evenodd" stroke="#286726" stroke-width="4.625" fill="#008d00"/>
    <path id="path612" d="m441.38-3.6316c-0.58-0.737-15.42-17.004-32.57-15.176-3.2 0.388-8.33-7.306-3.26-8.68 3.19 0.116 0.71-0.34 3.89-0.224 2.7-1.891-2.17-7.708-4.38-5.688-0.19-0.557-5.87 1.216-8.28 0.727-7.45-0.714-10.71-9.04-5.26-12.197 3.38 1.293 9.78 1.413 13.24 0.935 3.42-1.041 1.84-4.154-1.48-4.619-4.71-0.698-23.73-5.333-22.05-7.64-3.15-5.238-0.03-9.277 5.49-6.494 4.56 2.762 5.09 1.211 3.98-0.85-1.35-3.916-2.65-2.977-2.85-6.376-0.33-2.19 0.38-4.17 3.61-2.793 1.36-1.148 3.61 7.053 12.08 3.944 1.56 1.309 2.9-8.873 8.77-7.324 4.41 1.363 1.4 5.944 2.26 12.411 0.7 4.26 4.96 3.282 5.55 1.07-0.93-9.787 8.64-9.958 9.73-6.652 0.91 2.417 1.73 9.001 0.57 15.19-0.63 3.146-0.13 9.39 1.88 10.635 3.37 0.089 1.19-0.675 3.51-4.162 3.9-2.512 9.97 6.585 2.87 11.153-7.49 1.615 4.24 30.162 5.23 31.755-1.08 1.1684-2.37-0.2596-2.53 1.0554z" fill-rule="evenodd" stroke="#286726" stroke-width="4.625" fill="#008d00"/>
    <path id="path702" d="m533.4 72.726c0-0.318-2.32-17.436-1.65-14.9 4.97 0 8.95-6.658 0.66-8.877-0.66-2.958-0.66-5.6-1.33-8.559-0.99-6.023-7.29-4.121-6.96 0.316 0.56 3.171 0.44 5.391 1 8.562-8.4 1.795-3.54 8.981 0.33 7.924 0.11 2.853 0.22 7.608 0.33 10.461l7.62 5.073z" fill="#9c4314" fill-rule="evenodd"/>
    <path id="path720" d="m533.1 70.707c-0.32 0.004-17.4 2.568-14.87 1.868-0.07-4.972-6.79-8.855-8.89-0.536-2.95 0.704-5.59 0.742-8.54 1.447-6.01 1.078-4.02 7.35 0.42 6.956 3.16-0.597 5.38-0.519 8.54-1.116 1.92 8.372 9.03 3.408 7.92-0.444 2.85-0.15 11.75-0.624 14.6-0.775 1.66-2.565-0.83-4.835 0.82-7.4z" fill="#9c4314" fill-rule="evenodd"/>
    <path id="path637" d="m527.27-22.91c41.81 24.682 52.56 21.098 50.81 10.163 2.01 0 2.44 1.745 8.38-2.629-0.83 16.17 16.78 25.466 27.51 23.515 9.69 0.6254 8.44 13.435 8.44 13.435 0.59 13.107-3.82 18.404-3.23 31.512-0.15 0-0.3-1.562-0.45-1.562-11.91-2.834-35.39-3.168-44.18-5.065 40.3-27.494-31-28.247-37.37-29.184-4.82-0.625-1.38-5.311 1.43-6.561 22.18-4.3736-20.85-25.381-19.73-27.88-2.63-1.562 0.18-2.812 0.18-2.812 2.95-1.915 5.27-1.017 8.21-2.932z" fill-rule="evenodd" stroke="#000" stroke-width="2.625" fill="#33b1e9"/>
    <path id="path643" d="m631.68-1.9976c-7.27 0-13.12 5.852-13.12 13.122-2.19 9.998-1.88 24.057 0 37.491 0 7.269 5.85 13.122 13.12 13.122 28.95 3.124 60.09 2.187 86.85 0 7.27 0 13.13-5.853 13.13-13.122 3.43-11.872 2.49-24.369 0-37.491 0-7.2696-5.86-13.122-13.13-13.122-28.95-1.2496-58.53-2.8116-86.85 0.0004z" fill-rule="evenodd" stroke="#000" stroke-width="3.75" fill="#983d25"/>
    <path id="path1138" stroke-linejoin="round" d="m533.89-358.88c-6.61 5.72-13.21 11.44-19.82 17.16-8.14 3.6-16.99 8.08-10.62 27.25-3.71 24.6 16.11 28.49 33.45 23.36 2.88-6.37 3.8-10.77 6.69-17.14-7.67-1.18-11.77 1.51-18.73 1.03-4.78-0.76-5.13-4.36-3.36-6.72 7.49-3.71 14.27-7.25 21.76-10.97-0.17-1.12-0.35-0.29-0.53-1.41-6.19 3.18-10.61 4.24-17.16 6.9-5.19 1.83-6.66-4.84-4.6-7.79 0 0 13.45-19.29 13.45-19.46 1.12-4.06 0.34-10.89-0.53-12.21z" fill-rule="evenodd" stroke="#000003" stroke-linecap="round" stroke-width="2.5" fill="#268728"/>
    <path id="path614" d="m275.88 473.6a10.383 10.383 0 1 0 -20.76 0 10.383 10.383 0 1 0 20.76 0h-10.38z" fill-rule="evenodd" transform="translate(313.41 -495.3)" stroke="#000" stroke-width="2.5" fill="#fff"/>
    <path id="path615" d="m275.88 473.6a10.383 10.383 0 1 0 -20.76 0 10.383 10.383 0 1 0 20.76 0h-10.38z" fill-rule="evenodd" transform="matrix(.94286 0 0 .94286 279.93 -429.08)" stroke="#000" stroke-width="2.6515" fill="#fff"/>
    <path id="path616" d="m275.88 473.6a10.383 10.383 0 1 0 -20.76 0 10.383 10.383 0 1 0 20.76 0h-10.38z" fill-rule="evenodd" transform="matrix(.94286 0 0 .94286 523.18 -407.13)" stroke="#000" stroke-width="2.625" fill="#fff"/>
    <path id="path1143" stroke-linejoin="round" d="m534.83-345.8c0.24 5.89 0.4 13.28 0.4 15.54-0.25-5.51-2.18-9.92-2.9-12.08 0.86-1.42 2.25-3.46 2.5-3.46z" fill-rule="evenodd" stroke="#000" stroke-width="1pt" fill="#ba4600"/>
    <path id="path617" d="m275.88 473.6a10.383 10.383 0 1 0 -20.76 0 10.383 10.383 0 1 0 20.76 0h-10.38z" fill-rule="evenodd" transform="matrix(.94286 0 0 .94286 370.71 -395.26)" stroke="#000" stroke-width="3.8182" fill="#973100"/>
    <path id="path618" d="m275.88 473.6a10.383 10.383 0 1 0 -20.76 0 10.383 10.383 0 1 0 20.76 0h-10.38z" fill-rule="evenodd" transform="matrix(.94286 0 0 .94286 473.94 -395.26)" stroke="#000" stroke-width="3.8182" fill="#973100"/>
    <path id="path619" d="m275.88 473.6a10.383 10.383 0 1 0 -20.76 0 10.383 10.383 0 1 0 20.76 0h-10.38z" fill-rule="evenodd" transform="matrix(.94286 0 0 .94286 473.94 -442.73)" stroke="#000" stroke-width="3.8182" fill="#973100"/>
    <path id="path620" d="m275.88 473.6a10.383 10.383 0 1 0 -20.76 0 10.383 10.383 0 1 0 20.76 0h-10.38z" fill-rule="evenodd" transform="matrix(.94286 0 0 .94286 371.3 -442.73)" stroke="#000" stroke-width="3.8182" fill="#973100"/>
    <path id="path621" d="m534.86 78.038c-0.58-0.737-4.97-13.199-29.82-13.741-3.5-0.205-5.72 0.8-12.8 0.31-4.1 0.337-2.49-4.552-0.86-6.311 2.69-1.891-9.6-0.969-13.83-0.468-4.26-0.245-7.13-0.971-9.54-1.46-7.45-0.714-11.81-5.947-6.37-9.104 2.29-2.242 11.56 0.308 15.02-0.17 3.42-1.041 2.94-6.805-0.38-7.27-4.71-0.698-25.28-2.24-23.6-4.547-3.14-5.238-2.23-7.951 5.94-6.936 4.55 2.762 4.42-0.777 3.31-2.838-1.35-3.916-8.83-4.523-9.03-7.922-1.22-8.1546 4.13-9.2516 7.36-7.8746 1.37-1.148-6.11-7.527 2.36-10.636 2.1-0.66 6.43-0.146 7.89 7.588 4.41 1.363 1.36-5.075 7.34-7.692 5.12-2.147-0.34 22.944 5.77 22.72 5.26 2.142 4.22-13.714 8.63-10.629 9.52-2.4426 4.91 30.433 9.06 28.448 6.88 6.018 7.6-5.412 9.61-4.167 3.36 0.089 5.61 0.209 3.73 7.768-1.4 5.883 0.69 7.247 1.76 9.606 6.44 14.183 16.1 14.051 19.32 20.578 1.04 9.651-0.71 3.433-0.87 4.748z" fill-rule="evenodd" stroke="#286726" stroke-width="4.625" fill="#008d00"/>
    <path id="path622" d="m653.86 99.854c-11.88 9.766-24.22 16.086-28.74 26.246 5.41-0.73 7.5-1.64 11.54-1.13 4.38-9.79 18.14-15.01 26.26-22.93-3.02-0.73-6.04-1.46-9.06-2.186z" fill-rule="evenodd" stroke="#000" stroke-width="2.5" fill="#009400"/>
    <path id="path629" d="m685.64 100.9c10.75 9.92 24.06 15.59 28.75 26.08-5.42-0.73-7.68-1.47-10.91-0.64-4.37-9.78-18.78-15.5-26.9-23.42 3.02-0.72 6.04-1.29 9.06-2.02z" fill-rule="evenodd" stroke="#000" stroke-width="2.5" fill="#009400"/>
    <path id="path630" d="m677.52 102.92c13.02 7.82 18.21 13.44 26.23 23.44-3.85 0.23-9.26 1.97-11.23 3.12-9.69-12.6-17.19-17.08-25.31-24.99 3.02-0.73 7.29-0.84 10.31-1.57z" fill-rule="evenodd" stroke="#000" stroke-width="2.5" fill="#fff"/>
    <path id="path827" d="m554.63-320.04c-5.21 1.43-7.47 5.83-7.94 9.93-19.21 13.45-5.25 39.95 12.57 34.44-13.18-19.74 0-30.89 14.66-23.97 4.44 3.26 7.54 10.06 7.96 9.64 2.79-6.05 13.83-11.32 13.83-11.32s8.89 1.2 10.49-4.55c1.01-3.68 9.2-18.91 9.2-18.91-9.5-1.95-19-3.9-28.49-5.86-6.57-0.14-13.13-0.28-19.69-0.42-3.49 1.54-6.98 3.07-10.48 4.61-1.39 2.23-0.71 4.17-2.11 6.41z" stroke-opacity=".77245" fill-rule="evenodd" stroke="#000" stroke-width="2.5" fill="#ffba00"/>
    <path id="path631" d="m666.9 103.55c13.02 7.81 18.99 15.12 27 25.12-3.52 1.04-4.72 6.85-6.69 8-6.25-12.61-16.59-23.34-27.52-34.07 3.02-0.73 4.19 1.68 7.21 0.95z" fill-rule="evenodd" stroke="#000" stroke-width="2.5" fill="#d40000"/>
    <path id="path627" d="m661.98 102.04c-13.02 7.81-17.56 12.78-25.58 22.78 3.86 0.24 8.61 2.63 10.59 3.78 9.68-12.6 17.18-17.08 25.3-25-3.02-0.73-7.29-0.83-10.31-1.56z" fill-rule="evenodd" stroke="#000" stroke-width="2.5" fill="#fff"/>
    <path id="path628" d="m672.6 102.67c-13.01 7.81-18.49 15.6-26.51 25.6 6.45 4.62 4.88 4.91 6.21 7.51 6.25-12.6 19.99-23.01 30.93-33.74-3.02-0.73-7.61 1.36-10.63 0.63z" fill-rule="evenodd" stroke="#000" stroke-width="2.5" fill="#d40000"/>
    <path id="path635" d="m203.69 472.45a16.127 9.0577 0 1 0 -32.26 0 16.127 9.0577 0 1 0 32.26 0h-16.13z" fill-rule="evenodd" transform="matrix(1.0388 .33938 -.31204 1.1298 462.42 -620.98)" stroke="#000" stroke-width="2.2433" fill="#973000"/>
    <path id="path761" d="m651.45 86.275c-9.39 6.743-22.66 15.755-32.04 22.495-1.93 1.65 6.5 3.37 9.59 1.86 9.91-6.8 15.12-11.256 25.03-18.057 1.89-1.054 3.77-2.109 5.66-3.163-4.04-0.29-4.2-2.845-8.24-3.135z" fill-rule="evenodd" stroke="#005e00" stroke-width="2.5" fill="#008d2b"/>
    <path id="path636" d="m203.69 472.45a16.127 9.0577 0 1 0 -32.26 0 16.127 9.0577 0 1 0 32.26 0h-16.13z" fill-rule="evenodd" transform="matrix(.88202 -.34627 .41478 .92780 208.12 -324.73)" stroke="#000" stroke-width="2.5489" fill="#973000"/>
    <path id="path756" d="m747.16-17.632c0.49-25.749 23.06-3.205 31.93-13.813 20.83-24.55 22.61-26.419 41.02-23.756 49.32 19.382-2.16 64.204-52.57 43.794-5.54-3.043-14.85-3.182-20.38-6.225z" fill-rule="evenodd" stroke="#000" stroke-width="2.6276" fill="#008d00"/>
    <g id="g660" fill-rule="evenodd" fill="#6d390b" transform="translate(315.19 -492.21)">
      <path id="path657" d="m619.32 390.34a7.2344 7.2344 0 1 0 -14.47 0 7.2344 7.2344 0 1 0 14.47 0h-7.23z" transform="matrix(.874 .24840 -.16470 .72013 140.99 -45.21)"/>
      <rect id="rect659" transform="matrix(.75535 .65532 -.65532 .75535 0 0)" height="4.8229" width="15.887" y="-110.5" x="720.08" stroke-width="1pt"/>
    </g>
    <path id="path1192" d="m858.7-65.687l2.62 3.671 9.05-7.888-2.62-3.67-9.05 7.887z" stroke-width="1pt" fill="#6d390b" fill-rule="evenodd"/>
    <path id="path638" d="m631.68-2.3106c15.31 4.687 26.56 60.299 41.55 65.297" stroke="#000" stroke-linecap="round" stroke-width="3.75" fill="none"/>
    <path id="path639" d="m646.36-2.6226c15.31 4.687 26.25 60.299 41.24 65.297" stroke="#000" stroke-linecap="round" stroke-width="3.75" fill="none"/>
    <path id="path640" d="m660.73-3.2476c15.31 4.687 26.56 60.611 41.56 65.609" stroke="#000" stroke-linecap="round" stroke-width="3.75" fill="none"/>
    <path id="path645" d="m203.69 472.45a16.127 9.0577 0 1 0 -32.26 0 16.127 9.0577 0 1 0 32.26 0h-16.13z" fill-rule="evenodd" transform="matrix(.88202 -.34627 .41478 .92780 431.82 -363.47)" stroke="#000" stroke-width="2.2433" fill="#973000"/>
    <path id="path650" d="m865.9-52.92c0.77 2.969-0.56 6.82-5.79 8.169-5.22 1.35-10.13-0.685-10.89-3.655-0.77-2.97 2.26-7.239 7.48-8.589 5.22-1.349 8.43 1.105 9.2 4.075z" fill-rule="evenodd" stroke="#000" stroke-width="2.3875" fill="#dc0000"/>
    <path id="path719" d="m636 89.428c-7.74 1.571-25.4 5.397-33.1 20.832-1.39 2.9-13.01 5.15-11.43 0.14 1.81-2.62 2.46-2.85 4.28-5.48-0.15-3.28-7.67-2.31-7.15 0.63-0.58-0.13-4.22 0.57-5.93 2.34-4.62 5.89-12.5 5.63-12.22-0.66 2.91-2.15 4.39-4.22 5.85-7.395 0.96-3.442-5.77-4.675-7.95-2.133-4.61 2.408-7.5 5.868-12.99 8.538-6.1 2.2-11.97-1.72-6.65-4.87 4.78-2.345 0.79-7.775-1.54-7.951-4.03-0.973-20.52 1.811-23.49 0.148-2.33-0.305-6.57-6.415-1.6-7.506 4.51-1.471 12.03 1.65 13.98-7.159 1.94-14.834 25.48 7.588 21.66 1.397-8.62-12.753 6.06-15.748 10.49-7.064 1.8 3.921 10.77 9.734 13.37 8.642 4.88 0.54-9.07-12.352 2.01-14.455 2.52 0.537 7.03 0.729 10.14 5.038 2.31 2.226 2.8 11.389 11.45 12.148 1.89-2.79 0.07-1.369-1.62-5.201-0.01-4.641 7.67-4.262 10.95 3.592 3.25 5.997 20.4 1.924 36.09 2.285 5.03-0.822 13.12 3.598-14.6 4.144z" fill-rule="evenodd" stroke="#286026" stroke-width="4.625" fill="#008d00"/>
    <path id="path648" d="m848.53-53.47c2.76 4.241 2.7 10.962-4.76 15.819s-16.2 4.251-18.96 0.01c-2.76-4.242-0.27-12.509 7.19-17.366 7.46-4.856 13.77-2.705 16.53 1.537z" fill-rule="evenodd" stroke="#000" stroke-width="2.5" fill="#dc0000"/>
    <path id="path651" d="m853.87-71.056c2.58 1.649 4.23 5.373 1.33 9.921-2.9 4.549-7.88 6.403-10.46 4.753-2.59-1.65-3.28-6.836-0.38-11.385 2.9-4.547 6.92-4.939 9.51-3.289z" fill-rule="evenodd" stroke="#000" stroke-width="2.3875" fill="#dc0000"/>
    <path id="path649" d="m861.73-63.343c1.67 2.57 1.64 6.644-2.88 9.587-4.53 2.944-9.82 2.577-11.49 0.006-1.68-2.571-0.17-7.581 4.35-10.525 4.52-2.943 8.35-1.639 10.02 0.932z" fill-rule="evenodd" stroke="#000" stroke-width="2.3875" fill="#dc0000"/>
    <path id="path653" d="m878.55-78.571c1.26 1.933 1.23 4.999-2.17 7.213-3.4 2.215-7.38 1.939-8.64 0.004-1.26-1.934-0.13-5.704 3.27-7.919 3.41-2.214 6.28-1.233 7.54 0.702z" fill-rule="evenodd" stroke="#000" stroke-width="1.7964" fill="#d90000"/>
    <path id="path633" d="m663.58 77.588c-6.65 0.78-10.44 1.191-11.72 6.006-0.71 3.27-0.14 7.542 0.42 11.212 0 4.214 5.32 7.004 11.52 8.204h10.65c4.49 0 12.79-4.39 12.79-8.604 0.66-2.382 0.64-6.227 0.64-8.831 0-7.087-5-7.524-11.26-8.187l-13.04 0.2z" fill-rule="evenodd" stroke="#000" stroke-width="2.5" fill="#fff"/>
    <path id="path654" d="m900.18-6.1206c-0.73-24.596-7.21-60.238 22.98-72.462 3.9-1.016 5.3 1.179 3.98 4.419-8.99 22.681-17.97 45.362-26.96 68.043z" fill-rule="evenodd" stroke="#286326" stroke-width="4.125" fill="#008f00"/>
    <path id="path656" d="m939.2-56.203c5.37-10.11 18.65-12.656 23.34-12.343-9.27 9.477-18.54 32.701-23.74 40.303-7.5 12.914-29.37 22.078-42.49 29.681 14.68-19.996 28.2-37.646 42.89-57.641z" fill-rule="evenodd" stroke="#286326" stroke-width="4.125" fill="#008c00"/>
    <path id="path692" d="m664.15 77.465s-6.67 1.185-6.81 1.185c-0.15 0-5.19 3.258-5.19 3.258s-1.03 6.369-1.03 6.517 1.18 7.258 1.18 7.258l3.11 4.295 8.15 2.812 0.59-25.325z" fill-rule="evenodd" stroke="#000" stroke-width="1pt" fill="#009400"/>
    <path id="path655" d="m896.21 1.3914c0.88-0.88396 17.28-78.198 44.63-87.355 4.41 5.744 2.28 18.229 0.52 24.857-8.4 28.867-28.8 48.653-45.15 62.498z" fill-rule="evenodd" stroke="#286326" stroke-width="4.125" fill="#008d00"/>
    <g id="g663" fill-rule="evenodd" fill="#6d390b" transform="matrix(-.80432 -.59419 -.59419 .80432 1685.2 -40.01)">
      <path id="path664" d="m619.32 390.34a7.2344 7.2344 0 1 0 -14.47 0 7.2344 7.2344 0 1 0 14.47 0h-7.23z" transform="matrix(.874 .24840 -.16470 .72013 140.99 -45.21)"/>
      <rect id="rect665" transform="matrix(.75535 .65532 -.65532 .75535 0 0)" height="4.8229" width="15.887" y="-110.5" x="720.08" stroke-width="1pt"/>
    </g>
    <g id="g666" fill-rule="evenodd" fill="#6d390b" transform="matrix(1.0037 .37206 -.36090 1.0348 410.2 -647.81)">
      <path id="path667" d="m619.32 390.34a7.2344 7.2344 0 1 0 -14.47 0 7.2344 7.2344 0 1 0 14.47 0h-7.23z" transform="matrix(.874 .24840 -.16470 .72013 140.99 -45.21)"/>
      <rect id="rect668" transform="matrix(.75535 .65532 -.65532 .75535 0 0)" height="4.8229" width="15.887" y="-110.5" x="720.08" stroke-width="1pt"/>
    </g>
    <g id="g669" fill-rule="evenodd" fill="#6d390b" transform="matrix(-.83426 .67078 -.70314 -.84060 1699.1 -80.203)">
      <path id="path670" d="m619.32 390.34a7.2344 7.2344 0 1 0 -14.47 0 7.2344 7.2344 0 1 0 14.47 0h-7.23z" transform="matrix(.874 .24840 -.16470 .72013 140.99 -45.21)"/>
      <rect id="rect671" transform="matrix(.75535 .65532 -.65532 .75535 0 0)" height="4.8229" width="15.887" y="-110.5" x="720.08" stroke-width="1pt"/>
    </g>
    <path id="path682" d="m884.32 24.431c16.8-9.104 6.27 3.669 5.23 10.662-4.97 17.257-9.61 17.367-15.44 20.308-8.71 7.941-36.6 4.089-49.57 7.362 16.25-11.798 43.53-26.535 59.78-38.332z" fill-rule="evenodd" stroke="#286326" stroke-width="3.3559" fill="#008c00"/>
    <path id="path673" d="m859.17 20.429c7.01-5.567 8.16-17.859 7.7-22.118-6.36 9.0814-22.63 19.059-27.85 24.309-8.93 7.687-14.41 28.252-19.22 40.728 13.67-14.711 25.7-28.208 39.37-42.919z" fill-rule="evenodd" stroke="#286326" stroke-width="3.3559" fill="#008c00"/>
    <path id="path675" d="m771.81 91.038c10.99-3.224 29.71 4.895 32.77 8.465-13.26-0.003-34.74 9.207-43.82 10.797-14.47 3.66-54.62-18.988-69-22.223 24-1.209 55.48 6.439 80.05 2.961z" fill-rule="evenodd" stroke="#286326" stroke-width="4.125" fill="#008c00"/>
    <path id="path759" d="m688.17 88.703c9.39 6.743 22.66 15.757 32.04 22.497 1.93 1.64-6.51 3.37-9.6 1.86-9.9-6.8-15.11-11.26-25.02-18.059-1.89-1.054-3.77-2.109-5.66-3.163 4.04-0.29 4.2-2.845 8.24-3.135z" fill-rule="evenodd" stroke="#004500" stroke-width="2.5" fill="#00602b"/>
    <path id="path674" d="m818.41 62.778c1.13-0.426 45.86-60.822 73.67-58.324 1.67 6.628-5.09 16.578-9.25 21.618-18.71 21.686-44.53 30.986-64.42 36.706z" fill-rule="evenodd" stroke="#286326" stroke-width="3.9395" fill="#008c00"/>
    <g id="g676" fill-rule="evenodd" fill="#6d390b" transform="matrix(.70997 .80116 -.80594 .74261 688.26 -730.62)">
      <path id="path677" d="m619.32 390.34a7.2344 7.2344 0 1 0 -14.47 0 7.2344 7.2344 0 1 0 14.47 0h-7.23z" transform="matrix(.874 .24840 -.16470 .72013 140.99 -45.21)"/>
      <rect id="rect678" transform="matrix(.75535 .65532 -.65532 .75535 0 0)" height="4.8229" width="15.887" y="-110.5" x="720.08" stroke-width="1pt"/>
    </g>
    <g id="g679" fill-rule="evenodd" fill="#6d390b" transform="matrix(-1.0595 .15277 -.17740 -1.0815 1548.5 405.75)">
      <path id="path680" d="m619.32 390.34a7.2344 7.2344 0 1 0 -14.47 0 7.2344 7.2344 0 1 0 14.47 0h-7.23z" transform="matrix(.874 .24840 -.16470 .72013 140.99 -45.21)"/>
      <rect id="rect681" transform="matrix(.75535 .65532 -.65532 .75535 0 0)" height="4.8229" width="15.887" y="-110.5" x="720.08" stroke-width="1pt"/>
    </g>
    <path id="path660" d="m445.1-140.67c1.31-1.95 4.33-3.24 8.1-1.13 3.76 2.11 5.35 5.8 4.04 7.76-1.31 1.95-5.54 2.54-9.31 0.44-3.76-2.11-4.14-5.11-2.83-7.07z" fill-rule="evenodd" stroke="#000" stroke-width="1.8674" fill="#dc0000"/>
    <path id="path684" d="m764.14 82.968c18.47-4.885 17.37-13.781 26.01-21.561-19.99-2.924-35.92 4.148-44.46 8.844-13.48 8.695-16.97 18.135-28.65 24.636 19.91-2.543 28.89-5.403 47.1-11.919z" fill-rule="evenodd" stroke="#286326" stroke-width="3.3559" fill="#008c00"/>
    <path id="path685" d="m703.89 88.373c52.84 3.986 44.42-17.465 102.33-16.936-0.86 6.782-11.91 15.29-17.62 18.474-25.32 13.389-66.93 19.669-84.71-1.538z" fill-rule="evenodd" stroke="#286326" stroke-width="3.9395" fill="#008c00"/>
    <path id="path693" d="m677.04 77.317l0.14 24.883 6.82-2.666s2.81-4.444 2.81-4.74 1.19-6.073 1.19-6.221-0.6-7.109-0.6-7.109l-5.18-3.407-5.18-0.74z" fill-rule="evenodd" stroke="#000" stroke-width="1pt" fill="#d40000"/>
    <rect id="rect656" fill-rule="evenodd" transform="matrix(-.67306 -.73958 .76307 -.64632 0 0)" height="3.7693" width="12.563" y="441.79" x="-178.21" stroke-width="1pt" fill="#6d390b"/>
    <path id="path663" d="m446.42-148.02c1.44-2.49 4.74-4.13 8.86-1.44s5.86 7.4 4.43 9.9-6.07 3.25-10.19 0.56-4.53-6.52-3.1-9.02z" fill-rule="evenodd" stroke="#000" stroke-width="2.2073" fill="#dc0000"/>
    <path id="path658" d="m469.7-158.43c2.41 0.09 5.02 2.23 4.88 7.07-0.13 4.84-2.75 8.54-5.16 8.45-2.41-0.1-4.96-3.8-4.83-8.64 0.14-4.85 2.7-6.98 5.11-6.88z" fill-rule="evenodd" stroke="#000" stroke-width="2.0065" fill="#dc0000"/>
    <path id="path661" d="m457.85-156.5c2.73-0.72 6.29 0.5 7.57 5.3 1.28 4.81-0.56 9.33-3.29 10.04-2.73 0.72-6.68-2.05-7.97-6.86-1.28-4.8 0.96-7.76 3.69-8.48z" fill-rule="evenodd" stroke="#000" stroke-width="2.1989" fill="#dc0000"/>
    <path id="path665" stroke-linejoin="round" d="m525.91-79.442c-8.23-20.948-30.72-55.718-53.62-38.958-25.41 21.922 11.59 56.414 43.15 54.459 3.49-5.167 6.98-10.334 10.47-15.501z" fill-rule="evenodd" stroke="#000" stroke-linecap="round" stroke-width="2.5" fill="#008d00"/>
    <path id="path659" d="m460.52-140.84c4.4-2.96 11.46-3.03 16.7 4.66s4.77 16.81 0.37 19.77-13.13 0.52-18.37-7.17c-5.25-7.68-3.11-14.3 1.3-17.26z" fill-rule="evenodd" stroke="#000" stroke-width="2.6168" fill="#dc0000"/>
    <path id="path662" d="m444.24-175.83c2.01-1.35 5.23-1.38 7.62 2.13s2.18 7.67 0.17 9.02-5.99 0.24-8.38-3.27-1.41-6.53 0.59-7.88z" fill-rule="evenodd" stroke="#000" stroke-width="1.8803" fill="#dc0000"/>
    <path id="path666" d="m595.88-54.518c-10.36-18.416-38.6-41.447-67.38-26.713-34.03 23.883 13.73 59.655 62.6 42.017 4.38-4.543 0.39-10.761 4.78-15.304z" fill-rule="evenodd" stroke="#000" stroke-width="2.6276" fill="#008d00"/>
    <path id="path668" d="m691.81-43.626c-10.35-18.416-65.83-39.353-90-21.686-30.25 33.937 14.15 57.56 73.91 40.76 4.39-4.543 11.7-14.531 16.09-19.074z" fill-rule="evenodd" stroke="#000" stroke-width="2.6276" fill="#008d00"/>
    <path id="path669" stroke-linejoin="round" d="m476.34-112.42c0.3 0 6.22 7.41 6.22 7.41l-0.3-10.37" stroke="#000" stroke-linecap="round" stroke-width="2.5" fill="none"/>
    <path id="path671" stroke-linejoin="round" d="m486.71-97.904l6.22 6.221" stroke="#000" stroke-linecap="round" stroke-width="2.5" fill="none"/>
    <path id="path672" stroke-linejoin="round" d="m508.63-102.05l0.59 7.108 3.85-0.296" stroke="#000" stroke-linecap="round" stroke-width="2.5" fill="none"/>
    <path id="path676" stroke-linejoin="round" d="m508.63-78.353c-1.48-0.888-6.52-5.036-6.52-5.036" stroke="#000" stroke-linecap="round" stroke-width="2.5" fill="none"/>
    <path id="path678" stroke-linejoin="round" d="m494.11-77.76l-8.29-2.666" stroke="#000" stroke-linecap="round" stroke-width="2.5" fill="none"/>
    <path id="path679" d="m478.41-93.461l-7.99-2.666" stroke="#000" stroke-width="2.5" fill="none"/>
    <path id="path681" stroke-linejoin="round" d="m463.31-98.2h-6.82" stroke="#000" stroke-linecap="round" stroke-width="2.5" fill="none"/>
    <path id="path683" stroke-linejoin="round" d="m495.3-120.71v-8.89" stroke="#000" stroke-linecap="round" stroke-width="1pt" fill="none"/>
    <path id="path686" stroke-linejoin="round" d="m483.45-72.724c-0.89 0-12.44-0.593-12.44-0.593" stroke="#000" stroke-linecap="round" stroke-width="2.5" fill="none"/>
    <path id="path687" stroke-linejoin="round" d="m504.19-64.726l-8.89 2.962" stroke="#000" stroke-linecap="round" stroke-width="2.5" fill="none"/>
    <path id="path688" stroke-linejoin="round" d="m517.52-96.423c0.29-0.296 7.4-3.847 7.4-3.847" stroke="#000" stroke-linecap="round" stroke-width="2.5" fill="none"/>
    <path id="path689" stroke-linejoin="round" d="m497.37-106.5c0-0.29-2.37-9.77-2.37-9.77" stroke="#000" stroke-linecap="round" stroke-width="2.5" fill="none"/>
    <path id="path694" d="m663.43 77.44c-6.65 0.78-10.44 1.191-11.72 6.006-0.71 3.27-0.14 7.542 0.43 11.212 1.18 6.142 5.31 7.002 11.51 8.212h10.65c4.49 0 11.76-2.917 12.94-8.464 0.81-2.826 0.49-6.375 0.49-8.979-0.59-6.495-5-7.524-11.26-8.187l-13.04 0.2z" stroke="#000" stroke-width="2.5" fill="none"/>
    <path id="path695" d="m664.16 77.449l-0.21 24.711" stroke="#000" stroke-width="2.5" fill="none"/>
    <path id="path696" d="m677.15 77.449l-0.21 24.711" stroke="#000" stroke-width="2.5" fill="none"/>
    <path id="path699" d="m944.45-133.92c3.91-12.85-9.62-15.89-12.63-23.1-6.18 12.08-4.01 24.39-2.92 30.87 2.53 10.51 11.85 17.77 13.4 26.65 2.72-13.25 2.29-21.38 2.15-34.42z" fill-rule="evenodd" stroke="#286326" stroke-width="2.2464" fill="#008c00"/>
    <path id="path700" d="m962.35-145.85c0.27-7.03 9.44-12.07 13.13-13.18-2.29 13.68 1.83 20.1 0.74 25.71-0.82 9.15-17.59 23.14-24.71 30.91 3.61-15.02 7.23-28.43 10.84-43.44z" fill-rule="evenodd" stroke="#286326" stroke-width="2.9852" fill="#008c00"/>
    <path id="path698" d="m943.04-91.049c0.44-0.841-6.98-65.351 11.62-78.741 4.88 2.87 6.47 12.1 6.83 17.16 1.03 22.24 1.76 33.54-18.45 61.581z" fill-rule="evenodd" stroke="#286326" stroke-width="3.195" fill="#008c00"/>
    <path id="path712" d="m569.91-92.582c5.32 1.689 10.01 7.494 7.13 16.929s-7.33 15.503-14.33 13.396c-9.09-2.107-10.72-10.536-7.85-19.971 2.88-9.434 9.73-12.041 15.05-10.354z" fill-rule="evenodd" stroke="#000" stroke-width="2.7639" fill="#dc0000"/>
    <path id="path717" d="m578.91-102.22c1.69 1.18 2.7 3.675 0.64 6.493-2.07 2.818-5.45 3.792-7.14 2.605-1.69-1.188-2.02-4.582 0.04-7.398 2.06-2.82 4.77-2.89 6.46-1.7z" fill-rule="evenodd" stroke="#000" stroke-width="3.1678" fill="#dc0000"/>
    <path id="path718" d="m564.92-105.12c2.02-0.42 4.53 0.53 5.18 3.96 0.66 3.433-0.93 6.573-2.95 7.001-2.02 0.429-4.73-1.64-5.39-5.07-0.66-3.431 1.13-5.461 3.16-5.891z" fill-rule="evenodd" stroke="#000" stroke-width="3.1678" fill="#dc0000"/>
    <path id="path713" d="m570.79-97.632c1.98 0.594 3.73 2.641 2.66 5.965s-3.98 5.313-5.96 4.719c-1.98-0.595-3.36-3.712-2.29-7.037 1.07-3.323 3.61-4.242 5.59-3.647z" fill-rule="evenodd" stroke="#000" stroke-width="3.1678" fill="#dc0000"/>
    <path id="path714" d="m573.66-109.52c1.65 0.45 3.1 2 2.21 4.51-0.89 2.52-3.32 4.02-4.97 3.57s-2.8-2.81-1.91-5.32c0.89-2.52 3.01-3.21 4.67-2.76z" fill-rule="evenodd" stroke="#000" stroke-width="2.5172" fill="#dc0000"/>
    <path id="path715" d="m582.33-94.385c1.81 1.242 2.82 3.607 0.45 5.976-2.37 2.37-6.12 2.935-7.92 1.693-1.81-1.243-2.04-4.366 0.33-6.737 2.37-2.369 5.33-2.175 7.14-0.932z" fill-rule="evenodd" stroke="#000" stroke-width="3.1704" fill="#dc0000"/>
    <path id="path716" d="m559.59-99.569c1.84-0.221 4 0.871 4.3 4.07 0.3 3.2-1.38 5.94-3.22 6.161s-4.09-1.906-4.39-5.105c-0.3-3.198 1.47-4.905 3.31-5.126z" fill-rule="evenodd" stroke="#000" stroke-width="2.8772" fill="#dc0000"/>
    <path id="path701" d="m532.03 66.801v-0.296 0.296z" stroke="#000" stroke-width="1pt" fill="none"/>
    <path id="path750" d="m770.94-57.08c10.36 5.53 6.81 18.465-0.6 21.921-0.39-8.492-5.82-11.059-13.92-13.033 4.25-2.37 8.79-10.073 14.52-8.888z" fill-rule="evenodd" stroke="#000" stroke-width="2.5" fill="#fff"/>
    <path id="path751" d="m671.93-5.3566c3.82-56.218 46.53-63.037 74.84-53.306 41.46 30.083-0.58 55.077-62.64 56.698-5.53-3.0426-6.66-0.3486-12.2-3.3916z" fill-rule="evenodd" stroke="#000" stroke-width="2.6276" fill="#008d00"/>
    <path id="path740" d="m684.35-68.516c-13.26-0.535-17.26 12.403-12.06 19.155 5.28-7.102 12.04-6.539 21.04-4.104-2.76-4.205-2.73-13.148-8.98-15.051z" fill-rule="evenodd" stroke="#000" stroke-width="2.657" fill="#fff"/>
    <path id="path739" d="m691.27-51.693c-10.37 5.53-8.16 18.465-0.75 21.921 0.39-8.492 5.82-11.059 13.92-13.033-4.25-2.37-7.44-10.073-13.17-8.888z" fill-rule="evenodd" stroke="#000" stroke-width="2.5" fill="#fff"/>
    <path id="path738" stroke-linejoin="round" d="m772.31-56.013c0.12-4.626-3.53-8.625-7.81-9.271-5.16-0.628-10.11 2.933-15.27-0.837-0.62-0.419-12.61-10.76-16.04-15.578-3.44-1.885-10.65-5.419-10.65-5.419-4.24 5.53-7.23 11.897-13.36 15.542-3.05 1.221-4.22 2.651-9.78 2.197-5.75-2.688-12.08-4.069-15.37-1.15 2.8 5.541 2.04 12.55 0.86 17.882 2.07 1.185 4.35-0.234 6.85 0.323 7.68 0.204 5.72 8.456 8.59 12.011 8.09 2.2 12.2-1.675 13.38-8.273 2.14-3.366 8.68-3.802 13.33-5.073 5.03-0.972 11.33-2.573 15.94 0.016 3.82 2.025 6.37 4.47 8.3 8.59 0 0 6.07 0.542 12.14-0.592 0.21-3.647-0.54-10.282 8.89-10.368z" fill-rule="evenodd" stroke="#000" stroke-linecap="round" stroke-width="2.5" fill="#f6aa00"/>
    <path id="path741" d="m718.66-81.316c0.1 4.444 0.2 8.887 0.29 13.331 1.58 4.838 12.35 4.344 13.63 1.184-0.1-5.036-0.2-10.071-0.3-15.107" stroke="#000" stroke-width="2.5" fill="none"/>
    <path id="path742" d="m722.21-52.877c2.33-0.787 3.19-7.249 3.19-7.249" stroke="#000" stroke-linecap="round" stroke-width="2.5" fill="none"/>
    <path id="path743" d="m731.69-54.655l0.59-5.332" stroke="#000" stroke-linecap="round" stroke-width="2.5" fill="none"/>
    <path id="path744" d="m741.47-54.656l-0.89-5.627" stroke="#000" stroke-linecap="round" stroke-width="2.5" fill="none"/>
    <path id="path745" d="m715.7-58.802c-0.36 0.2-5.04-5.628-3.56-5.036" stroke="#000" stroke-linecap="round" stroke-width="2.5" fill="none"/>
    <path id="path746" d="m707.1-50.211c0.6 0-7.73-8.627-6.25-8.035" stroke="#000" stroke-linecap="round" stroke-width="2.5" fill="none"/>
    <path id="path747" d="m699.4-66.208c-0.21-0.661-0.59-3.851 0.89-3.259" stroke="#000" stroke-linecap="round" stroke-width="2.5" fill="none"/>
    <path id="path748" d="m717.97-68.191c-12.66 10.924-24.57 6.327-26.29 15.513" stroke="#000" stroke-linecap="round" stroke-width="2.5" fill="none"/>
    <path id="path749" d="m749.3-62.017c0.44-0.535 1.97-3.363 0.37-3.357" stroke="#000" stroke-linecap="round" stroke-width="2.5" fill="none"/>
    <path id="path752" stroke-linejoin="round" d="m546.06-56.613c0.16-0.245 9.61-1.026 9.61-1.026l-8.76-5.543" stroke="#000" stroke-linecap="round" stroke-width="2.5" fill="none"/>
    <path id="path753" stroke-linejoin="round" d="m603.65-47.171c0.17-0.245 9.62-1.026 9.62-1.026l-7.51-8.69" stroke="#000" stroke-linecap="round" stroke-width="2.5" fill="none"/>
    <path id="path754" stroke-linejoin="round" d="m626.94-45.597c-0.46-1.504 9.93 0.233 9.62-1.026l-6.56-7.116" stroke="#000" stroke-linecap="round" stroke-width="2.5" fill="none"/>
    <path id="path755" stroke-linejoin="round" d="m614.51-78.743c0.29 0 6.22 7.405 6.22 7.405l-0.3-10.368" stroke="#000" stroke-linecap="round" stroke-width="2.5" fill="none"/>
    <path id="path757" stroke-linejoin="round" d="m792.89-29.309c0.23 0.192-0.05 10.562-0.05 10.562l6.8-7.379" stroke="#000" stroke-linecap="round" stroke-width="2.5" fill="none"/>
    <path id="path758" stroke-linejoin="round" d="m716.96-31.985c0.2 0.216-1.14 9.604-1.14 9.604l10.14-5.382" stroke="#000" stroke-linecap="round" stroke-width="2.5" fill="none"/>
    <path id="path763" stroke-linejoin="round" d="m539.16-80.097l6.22 6.221" stroke="#000" stroke-linecap="round" stroke-width="2.5" fill="none"/>
    <path id="path764" stroke-linejoin="round" d="m527.83-69.736l6.22 6.221" stroke="#000" stroke-linecap="round" stroke-width="2.5" fill="none"/>
    <path id="path765" stroke-linejoin="round" d="m570.26-53.608l8.77-0.782" stroke="#000" stroke-linecap="round" stroke-width="2.5" fill="none"/>
    <path id="path766" stroke-linejoin="round" d="m556.34-44.946l8.77-0.623" stroke="#000" stroke-linecap="round" stroke-width="2.5" fill="none"/>
    <path id="path767" stroke-linejoin="round" d="m619.78-64.88l6.22 6.221" stroke="#000" stroke-linecap="round" stroke-width="2.5" fill="none"/>
    <path id="path768" stroke-linejoin="round" d="m645.68-61.642l6.22 6.221" stroke="#000" stroke-linecap="round" stroke-width="2.5" fill="none"/>
    <path id="path769" stroke-linejoin="round" d="m597.44-72.974l6.22 6.221" stroke="#000" stroke-linecap="round" stroke-width="2.5" fill="none"/>
    <path id="path770" stroke-linejoin="round" d="m532.04-92.724l6.22 6.222" stroke="#000" stroke-linecap="round" stroke-width="2.5" fill="none"/>
    <path id="path771" stroke-linejoin="round" d="m601.55-16.999l5.76-6.655" stroke="#000" stroke-linecap="round" stroke-width="2.5" fill="none"/>
    <path id="path772" stroke-linejoin="round" d="m630.69-11.495l5.76-6.655" stroke="#000" stroke-linecap="round" stroke-width="2.5" fill="none"/>
    <path id="path773" stroke-linejoin="round" d="m518.78-45.514l8.77-0.782" stroke="#000" stroke-linecap="round" stroke-width="2.5" fill="none"/>
    <path id="path774" stroke-linejoin="round" d="m535.37-51.757c-1.43 0.079 4.44-0.378 6.06 0.27l-8.66-6.191" stroke="#000" stroke-linecap="round" stroke-width="2.663" fill="none"/>
    <path id="path775" stroke-linejoin="round" d="m546.3-33.211l8.77-0.782" stroke="#000" stroke-linecap="round" stroke-width="2.5" fill="none"/>
    <path id="path776" stroke-linejoin="round" d="m650.23-41.708l8.77-0.623" stroke="#000" stroke-linecap="round" stroke-width="2.5" fill="none"/>
    <path id="path777" stroke-linejoin="round" d="m635.34-29.405l8.77-0.623" stroke="#000" stroke-linecap="round" stroke-width="2.5" fill="none"/>
    <path id="path778" stroke-linejoin="round" d="m645.91-74.534c0.3 0 6.22 7.405 6.22 7.405l-0.29-10.368" stroke="#000" stroke-linecap="round" stroke-width="2.5" fill="none"/>
    <path id="path780" stroke-linejoin="round" d="m731.29-48.044l-6.22 6.221" stroke="#000" stroke-linecap="round" stroke-width="2.5" fill="none"/>
    <path id="path781" stroke-linejoin="round" d="m751.69-41.245l-6.22 6.221" stroke="#000" stroke-linecap="round" stroke-width="2.5" fill="none"/>
    <path id="path782" stroke-linejoin="round" d="m742.62-23.761l-6.22 6.221" stroke="#000" stroke-linecap="round" stroke-width="2.5" fill="none"/>
    <path id="path783" stroke-linejoin="round" d="m815.79-22.143l-6.22 6.221" stroke="#000" stroke-linecap="round" stroke-width="2.5" fill="none"/>
    <path id="path784" stroke-linejoin="round" d="m777.27-26.675l-6.23 6.221" stroke="#000" stroke-linecap="round" stroke-width="2.5" fill="none"/>
    <path id="path785" stroke-linejoin="round" d="m815.15-63.908l-6.22 6.22" stroke="#000" stroke-linecap="round" stroke-width="2.5" fill="none"/>
    <path id="path786" stroke-linejoin="round" d="m844.58-21.853l-8.76-0.835" stroke="#000" stroke-linecap="round" stroke-width="2.5" fill="none"/>
    <path id="path787" stroke-linejoin="round" d="m771.03-2.3349l0.42-8.7891" stroke="#000" stroke-linecap="round" stroke-width="2.5" fill="none"/>
    <path id="path788" stroke-linejoin="round" d="m798.79-42.117l4.48-7.575" stroke="#000" stroke-linecap="round" stroke-width="2.5" fill="none"/>
    <path id="path789" stroke-linejoin="round" d="m812.71-33.699l4.48-7.575" stroke="#000" stroke-linecap="round" stroke-width="2.5" fill="none"/>
    <path id="path790" stroke-linejoin="round" d="m824.3-9.6026c-0.19 0.225-9.67-0.074-9.67-0.074l6.79 4.954" stroke="#000" stroke-linecap="round" stroke-width="2.5" fill="none"/>
    <path id="path791" stroke-linejoin="round" d="m692.68-12.235c0.2 0.216-1.14 9.6042-1.14 9.6042l10.14-5.382" stroke="#000" stroke-linecap="round" stroke-width="2.5" fill="none"/>
    <path id="path792" stroke-linejoin="round" d="m614.64-29.408c1.15-0.857 7.02-2.681 6.7-3.94l-6.24-2.26" stroke="#000" stroke-linecap="round" stroke-width="2.5" fill="none"/>
    <path id="path828" stroke-linejoin="round" d="m878.81-88.656c4.11 3.19 11.04-33.114 9.98-44.474 0-0.75-1.29-24.83 3.75-42.04 3.19-5.8 3.3-49.21-1.48-60.62 3.81-0.32 8.42-1.55 8.99-6.21-17.58 6.51-21.75-37.15-38.67-62.23-16.52-25.15-37.02-39.81-58.31-55.07 1.66-4.26 4.12-8.27 7.37-12.27-26.15 13.1-66.9-34.33-127.02-30.79-13.56 1.36-19.94 2.17-23.41 10.42-11.17 0.95-22.62 3.49-22.65 18.24 0.02 3.54 3.23 9.99 10.42 10.08 9.85 2.83 17.85 0.62 24.51 14.34 0.5 3.76 1.27 10.43 1.77 14.19 0 0-8.82-11.17-13.64-13.03 1.28-1.86-0.76-3.14 2.95-6.01-4.51-2.61-12.59-0.49-12.59-0.49s-17.46-8.22-31.53-6c0-1.5-2.69-11.39-2.69-11.39-2.49 6.96-7.98 6.59-8.79 13.2-1.5-4.75-3.53-10.57-5.04-15.33-4.93 6.75-3.5 14.02-5.25 21.03-1.96 1.59-5.86 1.68-6.85-2.83-0.5-5.51-1.17-6.06-1.14-12.63-3.57 6.21-7.84 9.24-9.28 19.96-1.5-4-2.29-7.83-3.8-11.83 0.19 13.94-11.84 22.31-23.23 32.1-3.2 5.93 0.5 6.01 0.75 9.01 2 1 4.01 2.01 6.01 3.01 3.5-0.25 7.27-0.5 10.77-0.76 1.76 2.26 0.32 2.39 4.99 3.85 12.52 3.5 28.18-11.54 40.46 12.1-5.65 4.71-11.31 15.79-9.54 17.84 2.26 0-4.52 3.19 4.64 0.27-9.56 9.29-16.03 21.5-16.03 22.26-1.07 2.6 3.85-0.36 2.82 4.38 1.34-3.55 2.27-0.29 2.27-0.29-21.81 23.59-0.73 48.89-3.08 62.51 3.63 5.84 4.08-0.11 8.61-0.76 3.84 16.72 14.81 26.86 21.57 40.12-3.49-1.07-10.42-1.45-14.18 0.14 0.32 6.29 6.01 12.27 10.52 17.77-3.26 1-6.26 2-9.51 3.01-6.76 3.5-11.25 7.18-16.01 12.43-3.17 7.66 15.14 9.52 23.91 10.81-0.79 2.75-1.91 6.21-0.32 9.23 13.8 1.33 29.75-2.75 29.75-3.5 0-0.76 3.46-2.69 3.46-2.69 1.86 3.72 5.94 4.81 7.76 4.28 2.61 0 6.66-10.39 4.8-18.35 5 6 9.71 15.56 14.72 21.57 1.51 1.594 3.47 0.424 4.72-0.65 4.26 6.764 10.13 13.524 14.39 20.274 2.25 2.58 1.76 1.63 4.81 1.82 2.78-0.9 5.15-1.27 6.61-6.67 0 0 0.92 0.838 2.24 3.815 3.36 2.39 5.73-3.356 7.59-5.216 1.06-2.56 5.2 0.501 5.2-0.999 1.5 1 2.49 5.4 3.99 6.4 2.3-0.85 4.58-5.9 4.76-11.26 2.28 4.7 2.98 4.31 4.74 5.57 1.5-1.26 1.97-6.16 3.47-7.41-0.32-2.59 18.03 17.7 18.78 17.7 1.82 1.32 12.19 4.5 14.32 0.79 5.18 3.46 19.11 5.6 21.37 0.04 11.48 4.9 24.98-0.59 24.41-6.07 10.46 4.18 26.78 1.39 26.78 0.64 1.86-0.22 6.9-5.12 2.12-8.83-34.79-24.284-86.56-64.484-106.48-74.154 0-7.17-5.43-33.02-11.27-40.15-1.06-3.67 1.33-8.2 4.78-7.94 13.54 12.66 18.46 11.45 25.63 13.49 7.76 6.12 10.54 15.47 18.3 23.98 3.66 1.16 7.98 4.87 6.85 1.26-4.84-12.15-10.69-23.92-25.19-39.71 7.51 3.75 19.81 13.69 28.11 20.9 5.54 9.12 7.09 16.39 12.1 27.9 3.63 2.3 7.33 10.78 6.8 3.75-0.79-13.22-10.07-34.22-10.07-35.72 14.74 11.76 14.59 29.99 19.04 41.14 3.85 5.66 5.78 13.18 7.38 11.42 1.85-2.57-4.38-34.41-4.38-34.41-1-4-1.5-8.54-2.5-12.54 10.97 6.32 14.81 30.42 19.94 59.29 0.02 4.6 1.89 9.64 1.64 12.64 2.36 2.91 5.07 10.94 4.94 6.15 0 0 0.01-46.97-3.17-57.76-0.8-5.75 1.41-15.16 1.41-15.16 4 19.52 8.27 40.63 12.28 60.15v14.27c2 2 4 4 6 6.01 1.25-11.77 2.5-23.53 3.76-35.29 0 0-4.51-41.29-4.51-42.04v-12.02c-0.09-4.23 3.8-3.42 6.36 1.38 0.51 10.26 0.47 18.4 0.97 28.66 1.76 11.75 2.98 20.33 3.93 35.28 0.47 12.25 0.94 41.224 3.54 40.724z" stroke-opacity=".77245" fill-rule="evenodd" stroke="#000" stroke-width="2.5" fill="#9c4314"/>
    <path id="path793" stroke-linejoin="round" d="m684.33-20.749c-0.56-1.323-0.97-7.45-2.26-7.437l-3.66 5.541" stroke="#000" stroke-linecap="round" stroke-width="2.5" fill="none"/>
    <path id="path794" stroke-linejoin="round" d="m794.12-54.184l-0.75 6.197" stroke="#000" stroke-linecap="round" stroke-width="2.5" fill="none"/>
    <path id="path795" stroke-linejoin="round" d="m739.51-8.4716c-1.43 0.175-7.42-1.137-7.77 0.113l4.31 5.049" stroke="#000" stroke-linecap="round" stroke-width="2.5" fill="none"/>
    <path id="path823" d="m647.7-147.35v0.65-0.65 0.65-0.65 11.33c0.33 1.61 0.32 3.4 0.32 5.18 0.21 1.37 0.69 3.02 1.3 4.53 0.09 1.92 0.62 3.18 1.29 4.86 0.14 1.66 0.71 3.07 1.3 4.53 0.14 1.67 0.68 2.54 0.97 3.89 0.47 1.55 1.04 2.57 1.62 3.56 0.42 0.42 0.58 0.84 0.97 0.97" stroke="#000" stroke-width="1pt" fill="none"/>
    <path id="path825" d="m622.44-107.53c0-0.52-0.08-2.11 0.65-3.23 1.15-1.63 2.07-2.64 3.56-4.21 1.77-1.13 3.03-2.46 4.54-3.89 1.61-1.03 2.42-1.94 3.88-2.91 0.9-0.92 1.94-1.37 2.92-1.95 1.11-0.54 1.92-1.35 3.56-1.61 0.99-0.5 3.03-0.33 4.53-0.33 1.54 0 2.08-0.3 3.56-0.32" stroke="#000" stroke-width="1pt" fill="none"/>
    <path id="path829" d="m857.8-220c5 3.63 10.51 11.52 12.76 25.78" stroke-opacity=".77245" stroke="#000" stroke-linecap="round" stroke-width="2.5" fill="none"/>
    <path id="path830" d="m829.66-215.14c7.26 6.51 11.35 13.59 16.77 29.53" stroke-opacity=".77245" stroke="#000" stroke-linecap="round" stroke-width="2.5" fill="none"/>
    <path id="path831" d="m812.13-207.36c4.42 5.05 7.09 10.34 9.51 16.64" stroke-opacity=".77245" fill-rule="evenodd" stroke="#000" stroke-linecap="round" stroke-width="2.5" fill="#00c600"/>
    <path id="path832" d="m782.1-223.88c5.75 6.64 15.01 16.77 19.77 27.03" stroke-opacity=".77245" fill-rule="evenodd" stroke="#000" stroke-linecap="round" stroke-width="2.5" fill="#00c600"/>
    <path id="path833" d="m659.86-393.24c0.42 28.84 42.65 21.81 46.2 48.91 8.08 29.58 4.71 48.69-7.11 58.08-6.71 6.91-1.57 17.66 0.42 23.17 10.98 27.82 27.55 32.3 34.67 56.3" stroke-opacity=".77245" stroke="#000" stroke-width="2.5" fill="none"/>
    <path id="path834" d="m644.07-373.55c0-0.55 0.99-1.52 1.97-1.97 4.21-1.37 6.79-1.45 11.09-1.72 3.69 0 7.14 0.16 10.84 0.74" stroke-opacity=".77245" stroke="#000" stroke-linecap="round" stroke-width="2.5" fill="none"/>
    <path id="path835" d="m698.74-108.75l14.68 23.884" stroke-opacity=".77245" stroke="#000" stroke-width="2.5" fill="none"/>
    <path id="path836" d="m745.53-144.28l78.6 60.194" stroke-opacity=".77245" stroke="#000" stroke-width="2.5" fill="none"/>
    <path id="path837" d="m743.44-127.77l57.43 50.424" stroke-opacity=".77245" stroke="#000" stroke-width="2.5" fill="none"/>
    <path id="path838" d="m635.36-190.31c7.57 15.02 28.94 34.96 41.77 38.14 0.44-9.64-0.11-13.37-1.65-20.05" stroke-opacity=".77245" stroke="#000" stroke-width="2.5" fill="none"/>
    <path id="path839" d="m659.7-198.86c7.56 15.02 14.47 31.02 34.53 40.12 2.08-14.58-2.41-34.42-13.49-54.59" stroke-opacity=".77245" stroke="#000" stroke-width="2.5" fill="none"/>
    <path id="path840" d="m663.24-219c6.9 4.16 13.15 6.03 17.76 6.58 2.08-14.58 3.9-30.01-7.99-50.89" stroke-opacity=".77245" stroke="#000" stroke-width="2.5" fill="none"/>
    <path id="path841" d="m636.68-210.37c10.19 11.07 18.41 11.62 23.02 12.17 3.4-9.98 4.82-31.14 0.66-53.94" stroke-opacity=".77245" stroke="#000" stroke-width="2.5" fill="none"/>
    <path id="path842" d="m610.27-201.49c10.15 13.14 33.55 38.07 46.14 47.13 0.44-2.09 1.09-3.06 0.92-9.74" stroke-opacity=".77245" stroke="#000" stroke-width="2.5" fill="none"/>
    <path id="path843" d="m783.62-345.77c10.87 12.53 52.83 54.72 61.14 74.46 14.34 32.28 40.78 38.41 47.37 34.8" stroke-opacity=".77245" stroke="#000" stroke-width="2.5" fill="none"/>
    <path id="path844" d="m711.72-171.38c3.78 15.44 10.64 43.53 20.52 47.97 1.7-1.66 3.14-4.73 2.97-11.42" stroke-opacity=".77245" stroke="#000" stroke-width="2.5" fill="none"/>
    <path id="path845" d="m654.71-258.89c4.43 4.52 5.44 8.63 10.04 9.18 5.61-4.58 15.49-30.16 11.94-49.03" stroke-opacity=".77245" stroke="#000" stroke-width="2.5" fill="none"/>
    <path id="path846" d="m631.43-259.59c2.09 10.16 4.03 18.74 11.23 18.82 11.95-10 15.48-32.37 11.93-51.25" stroke-opacity=".77245" stroke="#000" stroke-width="2.5" fill="none"/>
    <path id="path847" d="m626.8-205.84l-5.39-11.83" stroke-opacity=".77245" stroke="#000" stroke-width="2.5" fill="none"/>
    <path id="path848" d="m742.97-110.09l36.04 32.744" stroke-opacity=".77245" stroke="#000" stroke-width="2.5" fill="none"/>
    <path id="path849" d="m725.81-123.26l11.12 31.314" stroke-opacity=".77245" stroke="#000" stroke-width="2.5" fill="none"/>
    <path id="path850" d="m676.8-151.93c7.56 15.02 23.68 36.7 36.5 39.88 0.44-2.08 0.2-3.89 0.03-10.57" stroke-opacity=".77245" stroke="#000" stroke-width="2.5" fill="none"/>
    <path id="path851" d="m657.28-154.94c7.57 15.01 29.8 39.48 42.62 46.65 0.44-2.08 2.31-2.48 2.14-9.16" stroke-opacity=".77245" stroke="#000" stroke-width="2.5" fill="none"/>
    <path id="path852" d="m712.64-112.68l16.06 26.634" stroke-opacity=".77245" stroke="#000" stroke-width="2.5" fill="none"/>
    <path id="path853" d="m693.43-179.51c6.91 4.17 14.15 7.66 18.76 8.21 0.7-16.24-4.96-42.42-16.58-62.47" stroke-opacity=".77245" stroke="#000" stroke-width="2.5" fill="none"/>
    <path id="path854" d="m613.51-264.65c-2.05 7.68-1.77 16.07 5.42 16.15 19.96-8.61 8.04-17.19 25.18-46.28" stroke-opacity=".77245" stroke="#000" stroke-width="2.5" fill="none"/>
    <path id="path855" d="m639.84-317.47c7.56 15.02 9.78 25.23 21.56 29.09 2.36-1.07 8.23-27.61-11.67-49.16" stroke-opacity=".77245" stroke="#000" stroke-width="2.5" fill="none"/>
    <path id="path856" d="m664.08-304.95c3.89 4.52 9.58 5.6 14.19 5.32 4.51-9-5.13-34.5-17.81-47.69" stroke-opacity=".77245" stroke="#000" stroke-width="2.5" fill="none"/>
    <path id="path857" d="m775.54-325.74c9.5 13.36 51.16 60 69.02 74.9 4.01-0.52 9.94 4.47 4.39-12.39" stroke-opacity=".77245" stroke="#000" stroke-width="2.5" fill="none"/>
    <path id="path858" d="m770.86-296.23c9.49 13.36 26.88 35.99 44.73 50.88 4.49 1.67 8.83 1.13 10.26-0.03 1.53-1.48 0.14-12.07 0.53-22.84" stroke-opacity=".77245" stroke="#000" stroke-width="2.5" fill="none"/>
    <path id="path859" d="m759.55-279.4c10.87 11.98 25.22 25.78 42.8 41.77 4.49 1.67 8.37 1.74 8.88-0.03 0.43-1.75 1.24-1.31 0.26-12.08" stroke-opacity=".77245" stroke="#000" stroke-width="2.5" fill="none"/>
    <path id="path860" d="m744.38-257.89c10.87 11.98 20.81 20.82 30.67 23.02 4.76 0.57 7.26 0.64 7.77-1.13 0.43-1.76 0.14-10.14-0.02-19.81" stroke-opacity=".77245" stroke="#000" stroke-width="2.5" fill="none"/>
    <path id="path861" d="m728.93-241.89c10.87 11.98 10.88 16.95 20.74 19.15 4.76 0.58 8.29-0.05 9.15-1.68 1.54-3.41 2.07-7.1 1.92-16.77" stroke-opacity=".77245" stroke="#000" stroke-width="2.5" fill="none"/>
    <path id="path862" d="m724.52-320.23c10.95 1.99 11.86-7.47 10.97-14.25-1.08-8.49-7.09-12.21-14.2-10.42" stroke-opacity=".77245" stroke="#000" stroke-linecap="round" stroke-width="2.5" fill="none"/>
    <path id="path863" d="m718.45-282.72c5.16 2 11.64 1.87 14-4.04 1.91-4.5 1.19-15.52-5.92-13.74" stroke-opacity=".77245" stroke="#000" stroke-linecap="round" stroke-width="2.5" fill="none"/>
    <path id="path864" d="m726.17-300.64c9.85 0.61 10.77-3.89 10.42-9.57-0.39-6.61-4.87-11.65-11.99-9.87" stroke-opacity=".77245" stroke="#000" stroke-linecap="round" stroke-width="2.5" fill="none"/>
    <path id="path869" d="m735.75-326.38c14.39-8.66 55.82 26.06 24.31 37.12" stroke-opacity=".77245" stroke="#000" stroke-width="2.5" fill="none"/>
    <path id="path870" d="m732.7-301.78c14.39-8.66 46.06 19.67 13.94 30.7" stroke-opacity=".77245" stroke="#000" stroke-width="2.5" fill="none"/>
    <path id="path871" d="m727.31-282.24c16.06 0.56 34.53 26.33 3.05 29.49" stroke-opacity=".77245" stroke="#000" stroke-width="2.5" fill="none"/>
    <path id="path872" d="m708.39-268.47c5.17 1.99 8.15 3.28 12.75-0.69 1.82-1.67 4.22-9.32-2.57-13.56" stroke-opacity=".77245" stroke="#000" stroke-linecap="round" stroke-width="2.5" fill="none"/>
    <path id="path873" d="m573.93-299.62c5.43-7.01 18.7-11.48 23.25-2.2" stroke-opacity=".77245" stroke="#000" stroke-width="2.5" fill="none"/>
    <path id="path874" d="m718.08-267.22c9.35 3.07 24.24 29.1-0.76 31.75" stroke-opacity=".77245" stroke="#000" stroke-width="2.5" fill="none"/>
    <path id="path875" d="m706.15-384.95c10.79 2.04 16.23 19.47 24.83 20.81 15.73 2.35-2.03-18.19-5.43-20.5" stroke-opacity=".77245" stroke="#000" stroke-linecap="round" stroke-width="2.5" fill="none"/>
    <path id="path876" d="m547.07-310.44c4.84 0.2 9.39-0.69 12.45-6.42" stroke-opacity=".77245" stroke="#000" stroke-width="2.5" fill="none"/>
    <path id="path883" d="m595.04-260.47c2.68 5.01 9.59 3.01 15.3-0.47 7.81-4.46 1.23-20.16 19.85-33.54" stroke-opacity=".77245" stroke="#000" stroke-width="2.5" fill="none"/>
    <path id="path884" d="m604.93-194.38c10.15 13.14 29.41 32.74 41.41 43.27 0.44-2.08 2.38-3.14 2.22-9.83" stroke-opacity=".77245" stroke="#000" stroke-width="2.5" fill="none"/>
    <path id="path885" d="m645.95-152l23.08 32.07" stroke-opacity=".77245" stroke="#000" stroke-width="2.5" fill="none"/>
    <path id="path886" d="m694.09-159.73c3.77 15.43 18.79 39.88 28.67 44.32 1.7-1.67 2.84-8.29 2.68-14.98" stroke-opacity=".77245" stroke="#000" stroke-width="2.5" fill="none"/>
    <path id="path887" d="m688.72-115.52l-1.41 14.31" stroke-opacity=".77245" stroke="#000" stroke-width="2.5" fill="none"/>
    <path id="path888" d="m723.28-187.08c3.77 15.44 9.45 53.01 18.14 59.82 1.7-1.66 5.21-32.87 5.05-39.56" stroke-opacity=".77245" stroke="#000" stroke-width="2.5" fill="none"/>
    <path id="path889" d="m711.61-188.14c5.13 0.61 8.12 0.59 12.13 0.55 0.71-16.24-6.33-35.32-17.95-55.37" stroke-opacity=".77245" stroke="#000" stroke-width="2.5" fill="none"/>
    <path id="path890" d="m740.21-228.23l-0.8 16.42" stroke-opacity=".77245" fill-rule="evenodd" stroke="#000" stroke-linecap="round" stroke-width="2.5" fill="#00c600"/>
    <path id="path891" d="m682.24-235.25c5.43 2.09 9.3 2.77 13.61 2.43 4.46-21.98-6.75-22.01-20.72-37.55" stroke-opacity=".77245" stroke="#000" stroke-width="2.5" fill="none"/>
    <path id="path892" d="m744.66-381.4c10.78 2.04 3.94 18.18 18.61 23.19 12.31 4.1 5.38-12.87 1.97-15.18" stroke-opacity=".77245" stroke="#000" stroke-linecap="round" stroke-width="2.5" fill="none"/>
    <path id="path893" d="m728.62-345.15c7.78-5.66 35.61 2.18 45.03 10.09 2.69 2.51 6.81 12.55-5.98 21.78" stroke-opacity=".77245" stroke="#000" stroke-width="2.5" fill="none"/>
    <path id="path902" d="m581.18-331.85c22.34-21.8 32.7-19.32 58.28-3.24 3.67 0.86 7.66 0.11 10.04-1.29 1.29-3.14 0.06-6.32-1.62-8.75-11.44-8.2-19.97-10.57-30.76-9.06" stroke-opacity=".77245" stroke="#000" stroke-width="2.5" fill="none"/>
    <path id="path903" d="m613.33-250.95c-5.02 7.4-9.13 23.51-0.65 41.44 0.34 2.07 2.51 4.13 0.33 5.51-4.18 2.1-6.07 5.58-8.42 9.06" stroke-opacity=".77245" stroke="#000" stroke-width="2.5" fill="none"/>
    <path id="path904" d="m743.52-136.46c0.16-27.16-3.81-48.83-14.65-68.45" stroke-opacity=".77245" stroke="#000" stroke-width="2.5" fill="none"/>
    <path id="path905" d="m696.59-242.22c3.59-0.38 8.09 0.61 10.3-0.46 1.07-3.97-1.98-8.85-3.2-12.59 2.06-0.23 4.58-0.23 6.18-0.69 0.92-3.43 0-8.24 0-12.36" stroke-opacity=".77245" stroke="#000" stroke-width="2.5" fill="none"/>
    <path id="path906" d="m562.4-319.55c0.87-6.04 6.26-12.73 12.31-16.19 2.91-1.62 4.85 0.33 6.15 0.97 1.62 2.59 0.65 7.45 0 9.39-1.62 3.24-4.86 5.83-10.68 8.1-3.03-1.3-4.75-0.97-7.78-2.27z" stroke-opacity=".77245" fill-rule="evenodd" stroke="#000" stroke-width="2.5" fill="#fff"/>
    <path id="path907" d="m614.21-204.29c1.29 0.65 14.24 14.89 14.24 14.89h7.77l0.65-21.69" stroke-opacity=".77245" stroke="#000" stroke-width="2.5" fill="none"/>
    <path id="path908" stroke-linejoin="round" d="m635.25-246.05c-2.59 8.52-1.62 17.05 0 25.57" stroke-opacity=".77245" stroke="#000" stroke-linecap="round" stroke-width="2.5" fill="none"/>
    <path id="path909" d="m618.38-205.84l3.03-11.83" stroke-opacity=".77245" stroke="#000" stroke-width="2.5" fill="none"/>
    <path id="path910" d="m623.92-250.59c-3.88 7.13-4.99 18.83-2.97 27.32" stroke-opacity=".77245" stroke="#000" stroke-width="2.5" fill="none"/>
    <path id="path911" d="m729.76-203.25l-7.33 0.15" stroke-opacity=".77245" stroke="#000" stroke-width="2.5" fill="none"/>
    <path id="path1170" d="m467.29-230.77c1.03 3.17-2.43 1.47-3.18 2.36-3.63 1.29-9.4-3.17-13.04-13.95 1.77-3.01 12.22-9.5 15.57-8.1 0 0 6.58 2.5 7.37 5.25-1.26 4-6.94 14.89-6.72 14.44z" fill-rule="evenodd" stroke="#000" stroke-width="2.5" fill="#9f3000"/>
    <path id="path912" d="m729.76-203.25l0.12-14.42" stroke-opacity=".77245" stroke="#000" stroke-width="2.5" fill="none"/>
    <path id="path913" d="m741.67-127.47l2.06 35.194" stroke-opacity=".77245" stroke="#000" stroke-width="2.5" fill="none"/>
    <path id="path1153" d="m467.05-229.54c7.1 6.68 18.25 2.2 20.03 18.51 0.76 9.12-12.17 27.38 0 43.86 4.31 6.33 15.47 13.18 15.47 13.18 5.83 6.51 7.6 18.09 11.4 27.13 8.03 12 19.1 14.62 27.89 11.66 0 0 28.9-12.93 28.9-13.18 0-0.26-14.7-19.78-14.7-19.52 0 0.25-16.48 13.94-16.73 13.94-1.78-0.26-11.41 0.76-14.96-11.41-0.25-15.55-7.94-24.16-20.28-30.42-6.26-4.74-11.24-12.26-5.83-22.82 3.12-9.63 6.25-25.86-4.82-36.76-7.1-4.73-12.17-8.45-19.78-9.89-10.05 3.8-9.97 2.79-6.59 15.72z" fill-rule="evenodd" stroke="#000" stroke-width="2.5" fill="#238700"/>
    <path id="path914" d="m609.97-365.26c-3.89 7.12-3.53 11.39-2.89 18.51" stroke-opacity=".77245" stroke="#000" stroke-width="2.5" fill="none"/>
    <path id="path915" d="m590.25-330.23h9.06c2.41-0.07 3.45-0.98 5.19-2.27 1.16-0.66 2.4-1.65 3.56-2.59 0.96-0.69 2.11-1.49 3.23-1.94 1.84 0 3.28 0.13 4.86 0.65 1.47 0.61 2.67 1.49 3.89 2.26 1.21 0.49 2.3 0.65 4.2 0.65 1.98 0 4.05-0.09 5.83 0.32 1.71 0.12 3.63 0.49 4.86 0.97 1.57 0.99 2.51 2.17 3.56 3.24 0.06 1.72 0.63 2.77 0.65 4.53 0 1.51 0.17 3.55-0.33 4.54 0 1.86-0.29 3.18-0.64 4.53-1.19 1.12-1.62 1.98-3.24 2.27-1.27 0.99-3.18 0.97-5.18 0.97h-5.18c-1.13-0.94-2.49-1.92-3.89-3.24-0.75-1.74-1.24-2.31-2.91-2.91-1.4-0.22-3.07-0.33-4.86-0.33-1.58 0-2.9 0.11-3.88-0.64-0.9-0.86-2.19-1.3-3.56-1.62-1.47-0.42-3.2-0.33-4.86-0.33h-2.59" stroke-opacity=".77245" stroke="#000" stroke-width="2.5" fill="none"/>
    <path id="path916" d="m598.67-327.32c0.11 0.11 0.21 0.22 0.32 0.32-0.73-0.73-0.47-0.38 1.3 0.33 2.14 0.49 4.45 0.9 6.79 0.97 2.23 0 4.26 0.27 6.48 0.32 1.55 0 3.18 0.13 4.53-0.32" stroke-opacity=".77245" stroke="#000" stroke-width="2.5" fill="none"/>
    <path id="path917" d="m619.39-332.5h-0.33c1.02 0 0.4-0.08-0.97 1.62-0.13 1.85-0.53 2.87 0.33 4.53 1.05 0.35 2.84 1.14 3.56 1.94 1.04 0.75 0.97 1.42 0.97 3.24-0.62 1.01-1.18 1.83-1.94 3.24-0.41 1.02-0.94 2.38-1.3 3.56-0.37 1.48-0.63 2.89-0.65 4.53v3.24" stroke-opacity=".77245" stroke="#000" stroke-width="2.5" fill="none"/>
    <path id="path918" d="m736.59-370.2c0.36 0.69 6.57 13.09 14.28 5.22 1.14-1.34 1.54-2.31 1.54-4.59 0-1.19-0.16-2.58-0.45-3.56" stroke-opacity=".77245" stroke="#000" stroke-width="2.5" fill="none"/>
    <path id="path1183" d="m549.75-120.93c3.74 5.2 10.52 2.52 11.89-1.64-4.65 0.3-6.43-2.45-8.07-6.65-0.99 2.41-4.86 5.3-3.82 8.29z" fill-rule="evenodd" stroke="#000" stroke-width="1.3573" fill="#fff"/>
    <path id="path919" d="m769.35-358.63c0 0.24 6.58 6.29 16.53 6.29 2.4 0 13.8-2.88 17.44-7.95" stroke-opacity=".77245" stroke="#000" stroke-width="2.5" fill="none"/>
    <path id="path920" d="m783.13-352.8c0.15 0.97 0.46 4.51 0.46 6.87-0.03 2.49 0.57 4.58-0.37 6.66-1.03 2.65-2.16 3.71-4.67 4.62-2.04 0.92-2.47 0.04-4.74 0.12" stroke-opacity=".77245" stroke="#000" stroke-width="2.5" fill="none"/>
    <path id="path921" d="m728.37-365.33c0 0.15 7.02 16.82 9.33 18.51" stroke-opacity=".77245" stroke="#000" stroke-width="2.5" fill="none"/>
    <path id="path1184" d="m554.31-123.97c3.73 5.2 10.52 2.52 11.88-1.64-4.65 0.3-6.42-2.44-8.06-6.65-0.99 2.41-4.87 5.3-3.82 8.29z" fill-rule="evenodd" stroke="#000" stroke-width="1.3573" fill="#fff"/>
    <path id="path1185" d="m561.4-127.01c3.73 5.21 10.52 2.53 11.88-1.64-4.65 0.3-6.42-2.44-8.06-6.65-1 2.41-4.87 5.3-3.82 8.29z" fill-rule="evenodd" stroke="#000" stroke-width="1.3573" fill="#fff"/>
    <path id="path922" d="m688.35-373.86h2.29c7.27-1.23 31.72 3.28 35.96 7.78" stroke-opacity=".77245" stroke="#000" stroke-width="2.5" fill="none"/>
    <path id="path923" d="m692.93-255.73c-0.15-0.15 0.34 2.8 0.19 2.65 0.9 0.9-0.14-2.44-0.65-4.48-0.76-1.82-0.91-3.02-0.91-5.5v-1.83" stroke-opacity=".77245" stroke="#000" stroke-width="2.5" fill="none"/>
    <path id="path924" d="m647.23-147.96v0.65-0.65 0.65-2.65 13.33c0.33 1.61 0.33 3.4 0.33 5.18 0.2 1.38 0.68 3.02 1.29 4.54 0.09 1.92 0.63 3.18 1.3 4.85 0.13 1.66 0.7 3.08 1.29 4.54 0.14 1.66 0.68 2.53 0.97 3.88 0.47 1.56 1.04 2.57 1.62 3.56 0.42 0.43 0.83 2.6 1.22 2.72" stroke-opacity=".77245" stroke="#000" stroke-width="2.5" fill="none"/>
    <path id="path925" d="m627.48-167.06v8.75c0.42 2.14 0.5 4.41 0.97 6.47 0.18 1.85 0.63 3.43 0.97 5.18 0.16 1.73 2.23 7.87 2.92 9.39 0.76 1.43 1.9 2.92 2.59 3.88 1.29 0.4 2.35 0.86 3.88 0.97h4.54c1.81-0.35 2.44-0.54 3.23-1.94 0.44-0.87 0.42-1.48 0.98-1.94" stroke-opacity=".77245" stroke="#000" stroke-width="2.5" fill="none"/>
    <path id="path926" d="m621.98-108.13c0-0.53-0.08-2.12 0.65-3.24 1.14-1.63 2.06-2.64 3.56-4.21 1.77-1.13 6.17-7.18 19.42-10.68 1.55 0 2.09-0.3 3.57-0.33" stroke-opacity=".77245" stroke="#000" stroke-width="2.5" fill="none"/>
    <path id="path927" d="m623.55-137.51c0.11 0.11 7.25 3.84 10.95 4" stroke-opacity=".77245" stroke="#000" stroke-width="2.5" fill="none"/>
    <path id="path1104" d="m643.94-124.97h-0.35 0.35c-0.12 0-0.23 0 0 0z" stroke="#000" stroke-width="1pt" fill="none"/>
    <path id="path1106" d="m640.76-125.32c-1.06-0.71-35.39-10.62-34.68-10.62 0.7 0-12.57 9.03-12.57 9.03l32.74 11.15 13.09-9.56h1.42z" fill-rule="evenodd" stroke="#000" stroke-width="2.5" fill="#ffbc00"/>
    <path id="path1107" d="m607.96-136.2c2.17-5.51 1.58-12.77-5.51-17.27-16.18-9.93-43.37-9.09-48.54 2.5-5.59-0.75-8.43 3.76-9.26 8.26-14.43 3.92-1.08 20.59 2.5 21.27 4.85 1.65 6.17 0.44 7.01-1.15 2.7 0.67 6.4-2.22 7.33-4.21 3.43 0.63 6.03 0.57 6.09-2.87 9.82 9.21 23.36 15.58 24.86 3.73 5.18-3.42 10.35-6.84 15.52-10.26z" fill-rule="evenodd" stroke="#000" stroke-width="2.5" fill="#f7b200"/>
    <path id="path1109" d="m544.67-142.96c-0.91 6.42 3.4 13.34 10.24 20.02" stroke="#000" stroke-width="2.5" fill="none"/>
    <path id="path1110" d="m553.66-150.97c-0.92 6.43 0.92 17.35 7.76 24.02" stroke="#000" stroke-width="2.5" fill="none"/>
    <path id="path1111" d="m563.8-157.87c-6.28 5.28-2.85 21.6 3.99 28.27" stroke="#000" stroke-width="2.5" fill="none"/>
    <path id="path1108" stroke-linejoin="round" d="m580.6-291.29c14.49 19.2-5.78 40.4-23.49 52.63-20.87 16.42-32.15 48.43 4.67 50.39 13.3-0.24 27.74-1.42 35.86 8.99 8.13 10.42 8.43 29.65-12.04 41.98-2-1.77-4.99-7.05-7.21-8.66s-3.68 0.45-5.68-1.32c-0.71-6.6 10.09-16.43-0.12-18.81-13.22 2.24-59.47 2.43-58.87-41.68 1.01-9.84 6.27-20.87 14.7-32.1 8.44-11.23 31.56-25.15 33.78-31.25 3.56-5.26-2.95-15.51-8.14-16.92-4.25-11.33 14.51-23.42 26.54-3.25z" fill-rule="evenodd" stroke="#000100" stroke-width="2.5" fill="#288800"/>
    <path id="path1117" d="m548.4-257.32l0.5 25.78" stroke="#000" stroke-width="2.5" fill="none"/>
    <path id="path1118" d="m534.89-247.06l27.53 4.01" stroke="#000" stroke-width="2.5" fill="none"/>
    <path id="path1119" d="m555.16-263.07l23.27 4.75" stroke="#000" stroke-width="2.5" fill="none"/>
    <path id="path1120" d="m530.66-242.57l19.37 11.48" stroke-opacity=".64151" stroke="#000" stroke-width="2.5" fill="none"/>
    <path id="path1121" d="m516.85-218.33l15.14 16.08" stroke-opacity=".64151" stroke="#000" stroke-width="2.5" fill="none"/>
    <path id="path1122" d="m530.83-241.51l2.57 38.02" stroke-opacity=".64151" stroke="#000" stroke-width="2.5" fill="none"/>
    <path id="path1123" d="m520.39-225.58l24.87 0.5" stroke-opacity=".64151" stroke="#000" stroke-width="2.5" fill="none"/>
    <path id="path1125" d="m494.38-161.36c3.85-3.64 7.87-8.88 10.36-14" stroke="#000" stroke-width="2.5" fill="none"/>
    <path id="path1126" d="m502.17-154.81c5.2-3.22 11.87-5.75 18.49-7.1" stroke="#000" stroke-width="2.5" fill="none"/>
    <path id="path1127" d="m511.72-132.69c4.51-3.76 9.36-7.74 12.68-12.98" stroke="#000" stroke-width="2.5" fill="none"/>
    <path id="path1128" d="m511.9-131.83c7.93-0.19 15.98-1.01 23.8-2.45" stroke="#000" stroke-width="2.5" fill="none"/>
    <path id="path1129" d="m526.06-116.24c5.9-2.22 11.29-5.63 15.66-9.04" stroke="#000" stroke-width="2.5" fill="none"/>
    <path id="path1130" d="m485-169.32c4.58-3.69 9.16-7.9 12.88-12.27" stroke="#000" stroke-width="2.5" fill="none"/>
    <path id="path1131" d="m481.64-181.17c4.98-1.34 9.84-3.87 14.07-6.22" stroke="#000" stroke-width="2.5" fill="none"/>
    <path id="path1132" d="m483.38-193.51c4.03-1.56 8.73-2.21 13.09-2.47" stroke="#000" stroke-width="2.5" fill="none"/>
    <path id="path1133" d="m487.13-204.88c4.87-0.48 8.14-0.19 13.01 1.34" stroke="#000" stroke-width="2.5" fill="none"/>
    <path id="path1134" d="m487.94-212.11c4.03-2.16 8.55-3.57 13.08-2.97" stroke="#000" stroke-width="2.5" fill="none"/>
    <path id="path1135" d="m485.94-217.45l14.02-9.57" stroke="#000" stroke-width="2.5" fill="none"/>
    <path id="path1136" d="m483.46-221.41l11.94-11.84" stroke="#000" stroke-width="2.5" fill="none"/>
    <path id="path1137" d="m480.07-223.05l8.75-14.95" stroke="#000" stroke-width="2.5" fill="none"/>
    <path id="path1140" d="m514.98-311.4l-0.11 21.3" stroke="#000" stroke-width="2.5" fill="none"/>
    <path id="path1141" d="m536.53-308c-3.14 6.13-7.54 13.39-13.19 18.81" stroke="#000" stroke-width="2.5" fill="none"/>
    <path id="path1142" d="m520.63-312.12c-6.26-0.5-12.17 2.89-16.92 6.9" stroke="#000" stroke-width="2.5" fill="none"/>
    <path id="path1145" stroke-linejoin="round" d="m553.98-295.86c10.4 3.82 24.2 9.08 22.76 39.62 8.61-9.33 12.55-22.41 1.62-38.91-7.35-7.94-18.11-9.62-24.38-0.71z" fill-rule="evenodd" fill-opacity=".99371" stroke="#000" stroke-linecap="round" stroke-width="1pt" fill="#9d4600"/>
    <path id="path1146" d="m558.67-285.68c0.42-5.91 8.69-13.23 13.06-14.84" stroke="#000" stroke-width="2.5" fill="none"/>
    <path id="path1147" d="m561.85-280.33c2.18-7.56 11.61-13.56 15.97-15.17" stroke="#000" stroke-width="2.5" fill="none"/>
    <path id="path1148" d="m562.05-269.61c4.03 0.06 19.27-8.39 22.75-13.42" stroke="#000" stroke-width="2.5" fill="none"/>
    <path id="path1149" d="m563.3-275.25c4.9-3.4 14.1-11.11 18.46-12.73" stroke="#000" stroke-width="2.5" fill="none"/>
    <path id="path1150" d="m576.75-269.08c3.67-2.08 4.93-1.57 8.77-5.53" stroke="#000" stroke-width="2.5" fill="none"/>
    <path id="path1151" d="m553.98-295.68c10.46 3.4 23.24 11.11 22.41 39.43" stroke="#000" stroke-width="2.5" fill="none"/>
    <path id="path1154" d="m519.17-186.24l14.23-17.25" stroke-opacity=".64151" stroke="#000" stroke-width="2.5" fill="none"/>
    <path id="path1155" d="m520.94-182.69l12.72-0.01" stroke-opacity=".64151" stroke="#000" stroke-width="2.5" fill="none"/>
    <path id="path1156" d="m513.85-199.93l17.78 10.13" stroke-opacity=".64151" stroke="#000" stroke-width="2.5" fill="none"/>
    <path id="path1157" d="m537.79-201.65c-3.41-0.32-5.36-0.97-8.32-2.06 1.39 22.91 3.68 24.09 7.3 32.73 10.84 6.87 29.59 5.27 37.52 3.55 0.86 1.2 5.55 7.02 2.66 8.72-3.11 1.95-4.37 5.73-4.48 11.84 1.83 2.07 3.75 0.27 5.62 1.6s4.07 6.05 5.8 10.1 23.04-15.84 19.31-30.74c-2.46-13.99-11.92-18.76-11.92-18.76-13.38-6.69-32.18-2.25-39.04-4.81-8.54-1.9-13.91-9.28-14.45-12.17z" fill-rule="evenodd" stroke="#000" stroke-width="1pt" fill="#9d4600"/>
    <path id="path1158" d="m575.75-161.22c11.54-5.27 23.75-5.7 27.06-5.22" stroke="#000" stroke-width="2.5" fill="none"/>
    <path id="path1159" d="m530.61-191.83c2.51-1.47 6.2-4.6 10.44-4.53" stroke="#000" stroke-width="2.5" fill="none"/>
    <path id="path1160" d="m551.84-166.59c2.05-12.14 7.25-20.33 9.93-22.39" stroke="#000" stroke-width="2.5" fill="none"/>
    <path id="path1161" d="m558.77-165.64c2.05-12.14 7.73-20.81 10.41-22.86" stroke="#000" stroke-width="2.5" fill="none"/>
    <path id="path1162" d="m566.5-166.43c2.05-12.14 7.25-20.02 9.93-22.07" stroke="#000" stroke-width="2.5" fill="none"/>
    <path id="path1163" d="m572.33-167.38c2.05-12.14 8.83-18.12 11.51-20.18" stroke="#000" stroke-width="2.5" fill="none"/>
    <path id="path1164" d="m576.21-163.94c2.05-12.14 12.36-18.88 15.04-20.94" stroke="#000" stroke-width="2.5" fill="none"/>
    <path id="path1165" d="m576.53-162.05c7.03-10.11 18.58-15.02 21.88-15.73" stroke="#000" stroke-width="2.5" fill="none"/>
    <path id="path1167" d="m544.58-168.16c2.05-12.14 7.41-18.76 10.09-20.82" stroke="#000" stroke-width="2.5" fill="none"/>
    <path id="path1168" d="m537.65-170.37c2.05-12.14 8.35-18.29 11.03-20.34" stroke="#000" stroke-width="2.5" fill="none"/>
    <path id="path1113" d="m573.66-145.43c5.45-4.29 9.15 9.55 9.42 11.23s1.29 3.39 4 4.96" stroke="#000" stroke-width="2.5" fill="none"/>
    <path id="path1169" d="m533.39-178.73c2.21-6.15 7.09-12.92 9.77-14.97" stroke="#000" stroke-width="2.5" fill="none"/>
    <path id="path1112" d="m563.26-157.31c-7.07 11.23 1.09 21.15 10.24 17.17-1.05-7.76-3.03-12.69 4.05-20.16-5.02 0.3-9.53-1.48-14.29 2.99z" fill-rule="evenodd" stroke="#000" stroke-width="2.657" fill="#fff"/>
    <path id="path1171" d="m536.59-239.89l3.35 16.5" stroke="#000" stroke-width="2.5" fill="none"/>
    <path id="path1172" d="m539.94-224.73l-6.02 20.29" stroke="#000" stroke-width="2.5" fill="none"/>
    <path id="path1173" d="m575.5-160.16c12.45-2.42 24.42 0 27.52 1.25" stroke="#000" stroke-width="2.5" fill="none"/>
    <path id="path1174" d="m574.03-158.17c12.76-0.19 23.89 5.03 26.64 7.08" stroke="#000" stroke-width="2.6888" fill="none"/>
    <path id="path1175" d="m574.16-155.8c12.28 2.79 17.78 9.02 19.93 11.65" stroke="#000" stroke-width="2.6707" fill="none"/>
    <path id="path1176" d="m573.31-152.97c11.02 6.1 13.5 11.1 14.83 14.23" stroke="#000" stroke-width="2.6707" fill="none"/>
    <rect id="rect1177" fill-rule="evenodd" transform="rotate(-13.197)" height="28.102" width="6.0762" y="-2.1958" x="402.17" stroke-width="1pt" fill="#296526"/>
    <path id="path1179" d="m440.25-1.5053l12.42 14.145 4.63-3.924-11.66-14.652-5.39 4.4307z" stroke-width="1pt" fill="#296526" fill-rule="evenodd"/>
    <path id="path1180" d="m819.38 58.927l-15.39 10.842 3.41 5.03 15.81-10.032-3.83-5.84z" stroke-width="1pt" fill="#296526" fill-rule="evenodd"/>
    <path id="path1181" d="m900.56-8.7546l-13.72 12.881 4.07 4.506 14.26-12.137-4.61-5.25z" stroke-width="1pt" fill="#296526" fill-rule="evenodd"/>
    <path id="path1182" d="m944.08-99.626l-4.99 12.325 2.73 3.534 5.37-11.727-3.11-4.132z" stroke-width="1pt" fill="#296526" fill-rule="evenodd"/>
    <path id="path1186" d="m537.48-169.7c-6.67-10.98-7.52-22.45-7.85-33.68 3.54 1.69 6.33 2.62 8.35 2.03" stroke="#000" stroke-width="2.5" fill="none"/>
    <path id="path1187" d="m514.26-312.04c-5.49-13.72 0.85-21.16 7.7-27.68" stroke="#000" stroke-width="2.5" fill="none"/>
    <path id="path1188" d="m209.1 154.93a4.4755 3.0433 0 1 0 -8.96 0 4.4755 3.0433 0 1 0 8.96 0h-4.48z" transform="matrix(.81813 -.73130 .68731 .87049 245.65 -325.49)" fill-rule="evenodd"/>
    <path id="path1189" d="m487.66-239.05c-1.15 0-21.03-2.68-21.03-2.68" stroke="#000" stroke-width="3.25" fill="none"/>
    <path id="path1190" d="m479.25-224.52c0-0.76-13.01-16.82-13.01-16.82" stroke="#000" stroke-width="3.25" fill="none"/>
  </g>
  <rect id="rect1200" fill-rule="evenodd" height="496.06" width="290.69" y="-.000188" x="0" stroke-width="1pt" fill="#0b7226"/>
  <rect id="rect1201" fill-rule="evenodd" height="496.06" width="289.02" y="-.000051" x="579.09" stroke-width="1pt" fill="#bc0000"/>
  <metadata>
    <rdf:RDF>
      <cc:Work>
        <dc:format>image/svg+xml</dc:format>
        <dc:type rdf:resource="http://purl.org/dc/dcmitype/StillImage"/>
        <cc:license rdf:resource="http://creativecommons.org/licenses/publicdomain/"/>
        <dc:publisher>
          <cc:Agent rdf:about="http://openclipart.org/">
            <dc:title>Openclipart</dc:title>
          </cc:Agent>
        </dc:publisher>
        <dc:title>mexico</dc:title>
        <dc:date>2011-02-16T18:32:00</dc:date>
        <dc:description>Originally uploaded by Cezary Biele for OCAL. 0.18</dc:description>
        <dc:source>http://openclipart.org/detail/119479/mexico-by-anonymous</dc:source>
        <dc:creator>
          <cc:Agent>
            <dc:title>Anonymous</dc:title>
          </cc:Agent>
        </dc:creator>
        <dc:subject>
          <rdf:Bag>
            <rdf:li>clip art</rdf:li>
            <rdf:li>clipart</rdf:li>
            <rdf:li>flag</rdf:li>
            <rdf:li>mexico</rdf:li>
            <rdf:li>north america</rdf:li>
          </rdf:Bag>
        </dc:subject>
      </cc:Work>
      <cc:License rdf:about="http://creativecommons.org/licenses/publicdomain/">
        <cc:permits rdf:resource="http://creativecommons.org/ns#Reproduction"/>
        <cc:permits rdf:resource="http://creativecommons.org/ns#Distribution"/>
        <cc:permits rdf:resource="http://creativecommons.org/ns#DerivativeWorks"/>
      </cc:License>
    </rdf:RDF>
  </metadata>
</svg>
