<svg xmlns="http://www.w3.org/2000/svg" xmlns:cc="http://web.resource.org/cc/" xmlns:ns1="http://sozi.baierouge.fr" xmlns:svg="http://www.w3.org/2000/svg" xmlns:xlink="http://www.w3.org/1999/xlink" id="svg548" x="0" y="0" version="1" viewBox="0 0 825.59 496.06"><rect id="rect1062" style="fill-rule:evenodd;stroke-width:1pt;fill:#5387f4" width="825.59" height="166.54" x="0" y="329.53"/><rect id="rect1063" style="fill-rule:evenodd;stroke-width:1pt;fill:#5387f4" width="825.59" height="166.54" x="0" y="0"/><rect id="rect1064" style="fill-rule:evenodd;stroke-width:1pt;fill:#fff" width="825.59" height="162.99" x="0" y="166.54"/><g id="g968" transform="matrix(.24214 0 0 .24229 306.67 101.41)"><g id="g784" transform="translate(-23.549 -.000030518)"><path id="path580" style="fill-rule:evenodd;stroke-width:1pt;fill:#ffd200" d="m496.06 627.16l17.72-17.71 17.72 17.71h-35.44z" transform="matrix(11.097 0 0 19.115 -5241.2 -11263)"/><path id="path562" style="fill-rule:evenodd;stroke-width:1pt;fill:#0ff" d="m496.06 627.16l17.72-17.71 17.72 17.71h-35.44z" transform="matrix(10 0 0 17.321 -4677.2 -10147)"/><g id="g619"><path id="path604" style="stroke:#ffd200;stroke-width:1pt;fill:none" d="m462.73 556.66l-1.18-108.32"/><path id="path606" style="stroke:#ffd200;stroke-width:1pt;fill:none" d="m468.62 563.73l38.85-54.17"/><path id="path607" style="stroke:#ffd200;stroke-width:1pt;fill:none" d="m474.51 569.61l62.4-25.9"/><path id="path609" style="stroke:#ffd200;stroke-width:1pt;fill:none" d="m479.22 577.86l73 2.35"/><path id="path611" style="stroke:#ffd200;stroke-width:1pt;fill:none" d="m474.51 587.28l42.38 37.67" transform="translate(0 -.000030518)"/><path id="path612" style="stroke:#ffd200;stroke-width:1pt;fill:none" d="m462.73 583.74v34.15"/><path id="path613" style="stroke:#ffd200;stroke-width:1pt;fill:none" d="m449.78 575.5l-55.34 48.28"/><path id="path614" style="stroke:#ffd200;stroke-width:1pt;fill:none" d="m455.67 579.03l-24.73 45.92"/><path id="path615" style="stroke:#ffd200;stroke-width:1pt;fill:none" d="m446.25 569.61l-91.84 31.79"/><path id="path616" style="stroke:#ffd200;stroke-width:1pt;fill:none" d="m445.07 564.9l-64.76-2.35"/><path id="path617" style="stroke:#ffd200;stroke-width:1pt;fill:none" d="m393.26 537.82l56.52 18.84"/><path id="path618" style="stroke:#ffd200;stroke-width:1pt;fill:none" d="m420.34 489.55l34.15 65.93"/></g><g id="g572" transform="translate(0 318.54)"><path id="path565" style="fill-rule:evenodd;stroke-width:1pt;fill:#c453d7" d="m460.63 219.69c-35.43 0-61.25 6.5-83.05 14.14l5.54-9.57 5.54-9.6 5.54-9.6 5.54-9.57 5.52-9.6 5.54-9.58 6.14-9.77c8.26-7.25 25.98-10.65 43.68-10.65 17.72 0 35.44 3.59 44.3 10.83l5.54 9.59 5.54 9.58 5.54 9.6 5.54 9.57 5.52 9.6 5.54 9.6 5.54 9.57c-22.98-7.64-47.62-14.14-83.05-14.14z" transform="translate(.00055313 -.0036163)"/><path id="path566" style="fill-rule:evenodd;stroke-width:1pt;fill:#5000c1" d="m460.63 212.93c-35.55-0.05-75.28 10.59-77.51 11.33l5.54-9.6 5.54-9.6 5.54-9.57 5.52-9.6 5.54-9.58 6.14-9.77c8.26-7.25 25.98-10.65 43.68-10.65 17.72 0 35.44 3.59 44.3 10.83l5.54 9.59 5.54 9.58 5.54 9.6 5.54 9.57 5.52 9.6 5.54 9.6s-42.08-11.33-77.51-11.33z" transform="translate(.012903 .00088501)"/><path id="path567" style="fill-rule:evenodd;stroke-width:1pt;fill:#0053d7" d="m460.63 205.27c-26.25-0.11-68.69 7.14-71.68 8.51l5.25-8.72 5.54-9.57 5.52-9.6 5.54-9.58 6.14-9.77c8.26-7.25 25.98-10.65 43.68-10.65 17.72 0 35.44 3.59 44.3 10.83l5.54 9.59 5.54 9.58 5.54 9.6 5.54 9.57 5.52 9.6s-36.54-9.39-71.97-9.39z" transform="translate(-.00020024 -.0065155)"/><path id="path568" style="fill-rule:evenodd;stroke-width:1.25;fill:#009f9f" d="m460.63 197.32c-34.8-0.06-63.72 6.64-66.43 7.74l5.54-9.57 5.52-9.6 5.54-9.58 6.14-9.77c8.26-7.25 25.98-10.65 43.68-10.65 17.72 0 35.44 3.59 44.3 10.83l5.54 9.59 5.54 9.58 5.54 9.6 5.54 9.57s-31.02-7.74-66.45-7.74z" transform="translate(-.015031 -.0081177)"/><path id="path569" style="fill-rule:evenodd;stroke-width:1pt;fill:#ff0" d="m460.63 190.56c-35.61-0.13-57.96 4.46-60.89 4.93l5.52-9.6 5.54-9.58 6.14-9.77c8.26-7.25 25.98-10.65 43.68-10.65 17.72 0 35.44 3.59 44.3 10.83l5.54 9.59 5.54 9.58 5.54 9.6s-25.48-4.93-60.91-4.93z" transform="translate(-.00020024 -.012848)"/><path id="path570" style="fill-rule:evenodd;stroke-width:1pt;fill:#f50" d="m460.34 181.72c-31.02-0.67-53.79 4.25-55.08 4.17l5.54-9.58 6.14-9.77c8.26-7.25 25.98-10.65 43.68-10.65 17.72 0 35.44 3.59 44.3 10.83l5.54 9.59 5.54 9.58s-20.23-4.17-55.66-4.17z" transform="translate(-.014536 -.012848)"/><path id="path571" style="fill-rule:evenodd;stroke-width:1pt;fill:#ff0b00" d="m461.51 171.42c-31.13 0.26-47.25 4.34-50.71 4.89l6.14-9.77c8.26-7.25 25.98-10.65 43.68-10.65 17.72 0 35.44 3.59 44.3 10.83l5.54 9.59s-13.52-4.89-48.95-4.89z" transform="translate(-.029404 .0029449)"/></g><path id="path581" style="fill-rule:evenodd;stroke-width:1pt;fill:#4363ff" d="m496.06 627.16l4.99-4.98h25.46l4.99 4.98h-35.44z" transform="matrix(10 0 0 17.321 -4677.2 -10147)"/><g id="g592" transform="matrix(.96712 0 0 1 -10.643 -6.6606)"><path id="path590" style="fill-rule:evenodd;stroke:#000;stroke-width:1pt;fill:#6da700" d="m334.69 674.38s28.31-5 46.63-19.99c18.31-14.98 18.32-39.96 26.64-39.96 8.33 0 9.99 28.31 29.97 38.3s51.62 23.31 51.62 23.31l-154.86-1.66z" transform="translate(149.03 .83256)"/><path id="path591" style="fill-rule:evenodd;stroke-width:1pt;fill:#ffbd00" d="m447.92 662.72c-44.96-19.98-18.31-9.99-31.63-18.32-6.67-16.65-16.65-29.97-8.33-29.97 8.33 0 9.99 28.31 29.97 38.3s28.31 12.49 28.31 12.49l-18.32-2.5z" transform="translate(149.03 .83256)"/><path id="path588" style="fill-rule:evenodd;stroke:#000;stroke-width:1pt;fill:#6da700" d="m334.69 674.38s28.31-5 46.63-19.99c18.31-14.98 18.32-39.96 26.64-39.96 8.33 0 9.99 28.31 29.97 38.3s51.62 23.31 51.62 23.31l-154.86-1.66z" transform="translate(111.56 .83256)"/><path id="path589" style="fill-rule:evenodd;stroke-width:1pt;fill:#ffbd00" d="m447.92 662.72c-44.96-19.98-18.31-9.99-31.63-18.32-6.67-16.65-16.65-29.97-8.33-29.97 8.33 0 9.99 28.31 29.97 38.3s28.31 12.49 28.31 12.49l-18.32-2.5z" transform="translate(111.56 .83256)"/><path id="path586" style="fill-rule:evenodd;stroke:#000;stroke-width:1pt;fill:#6da700" d="m334.69 674.38s28.31-5 46.63-19.99c18.31-14.98 18.32-39.96 26.64-39.96 8.33 0 9.99 28.31 29.97 38.3s51.62 23.31 51.62 23.31l-154.86-1.66z" transform="translate(74.099 .83249)"/><path id="path587" style="fill-rule:evenodd;stroke-width:1pt;fill:#ffbd00" d="m447.92 662.72c-44.96-19.98-18.31-9.99-31.63-18.32-6.67-16.65-16.65-29.97-8.33-29.97 8.33 0 9.99 28.31 29.97 38.3s28.31 12.49 28.31 12.49l-18.32-2.5z" transform="translate(74.099 .83249)"/><path id="path584" style="fill-rule:evenodd;stroke:#000;stroke-width:1pt;fill:#6da700" d="m334.69 674.38s28.31-5 46.63-19.99c18.31-14.98 18.32-39.96 26.64-39.96 8.33 0 9.99 28.31 29.97 38.3s51.62 23.31 51.62 23.31l-154.86-1.66z" transform="translate(31.638 -.000030518)"/><path id="path585" style="fill-rule:evenodd;stroke-width:1pt;fill:#ffbd00" d="m447.92 662.72c-44.96-19.98-18.31-9.99-31.63-18.32-6.67-16.65-16.65-29.97-8.33-29.97 8.33 0 9.99 28.31 29.97 38.3s28.31 12.49 28.31 12.49l-18.32-2.5z" transform="translate(31.638 -.000030518)"/><path id="path582" style="fill-rule:evenodd;stroke:#000;stroke-width:1pt;fill:#6da700" d="m334.69 674.38s28.31-5 46.63-19.99c18.31-14.98 18.32-39.96 26.64-39.96 8.33 0 9.99 28.31 29.97 38.3s51.62 23.31 51.62 23.31l-154.86-1.66z"/><path id="path583" style="fill-rule:evenodd;stroke-width:1pt;fill:#ffbd00" d="m447.92 662.72c-44.96-19.98-18.31-9.99-31.63-18.32-6.67-16.65-16.65-29.97-8.33-29.97 8.33 0 9.99 28.31 29.97 38.3s28.31 12.49 28.31 12.49l-18.32-2.5z"/></g><path id="path603" style="fill-rule:evenodd;stroke:#000;stroke-width:1pt;fill:red" d="m438.01 565.49c0.41 0 0.72-1.87 1.76-3.53 2.22-1.61 4.57-2.87 7.65-3.53 1.67-0.83 5.08-0.59 7.66-0.59 3.61 0.32 3.84 1.86 5.89 4.12 0.9 1.84 3.03 4.39 4.12 7.06 1.17 1.42 2.1 3.63 2.94 5.3 0.85 1.81 1.77 4.53 2.94 7.07 0.61 2.82 1.18 5.03 1.18 8.24 0 3.35-0.55 4.78-1.18 7.07-1.79 0.59-5.29 0.88-7.06 0-1.9-1.7-5.16-0.62-6.48-2.36-3.38-0.47-4.2-4.46-5.88-6.48-1.18-1.72-1.16-3.03-2.36-4.7-1.86-1.33-2.11-2.95-2.94-5.3 0.73-2.52 2.01-3.07 4.12-4.12 1.13-1.65 1.77-2.31 1.77-5.3-0.43-3.34-1.63-2.98-4.72-3.54-3.81 0-5.76 0.4-9.41 0.59z" transform="matrix(.67241 0 0 .52247 155.85 268.72)"/><g id="g651" transform="matrix(1.0073 0 0 1.4304 -11.671 -306.49)"><path id="path632" style="stroke:#0ff;stroke-width:1pt;fill:none" d="m314.38 690.89h1.17c-3.18 0-1.56-0.08 4.71 1.18 5.44 0.64 10.55 1.17 16.49 1.17"/><path id="path633" style="stroke:#0ff;stroke-width:1pt;fill:none" d="m308.49 708.55v-1.18c0 3.69-0.31 1.43 5.89-3.53 5.26-0.91 7.74 0.94 14.12 1.18 3.39 1.69 9.53 1.14 12.96 0 1.75-0.75 1.78-1.6 3.53-2.36"/><path id="path634" style="stroke:#0ff;stroke-width:1pt;fill:none" d="m321.44 710.91v-1.18c0.78 0.31 5.26 0 8.24 0 6.16 0 10.92-0.3 14.13 2.35h2.36"/><path id="path635" style="stroke:#0ff;stroke-width:1pt;fill:none" d="m366.18 686.18h1.18 4.71c3.75-1.25 9.2-1.25 12.95 0 1.48 4.88 3.39 5.78 9.42 5.89 1.98-1.48 6.05-2.53 8.24-3.53"/><path id="path636" style="stroke:#0ff;stroke-width:1pt;fill:none" d="m369.71 694.42h1.18 4.71 10.6"/><path id="path637" style="stroke:#0ff;stroke-width:1pt;fill:none" d="m380.31 705.02v-1.18c0 3.69-0.31 1.42 5.89-3.53 4.69-2.31 7.16-3.6 14.13-2.36 5.01 2.68 6.79 4.24 12.95 4.71 5.6 0 8.06-0.9 12.95-1.17"/><path id="path638" style="stroke:#0ff;stroke-width:1pt;fill:none" d="m395.62 710.91h1.18c-3.3 0-1.55 0.14 4.7-2.36 5.86 1.47 9.81 3.45 16.49 3.53 3.82-0.19 6.57-1.17 10.6-1.17"/><path id="path639" style="stroke:#0ff;stroke-width:1pt;fill:none" d="m438.01 686.18h1.17 4.71c5.76 0 11.38-0.1 16.49 1.18h16.48c1.57 0 1.18 0.39 1.18-1.18"/><path id="path640" style="stroke:#0ff;stroke-width:1pt;fill:none" d="m433.3 695.6h1.17c-3.29 0-1.54 0.14 4.71-2.36 4.95 0.38 10.53 1.09 14.13 3.54 5.17 2.26 7.22 4.21 14.13 4.71 3.95-0.21 4.22-1.75 8.24-2.36"/><path id="path641" style="stroke:#0ff;stroke-width:1pt;fill:none" d="m450.96 707.37c1.84-0.92 8.04-3.28 12.95-1.17 5.1 1.27 10.72 1.17 16.48 1.17 3.67-1.57 9.87-2.9 12.95-4.71h3.54"/><path id="path642" style="stroke:#0ff;stroke-width:1pt;fill:none" d="m500.41 692.07c2.37 0 12.45-0.56 17.66 1.17 6.37-0.76 8.62-3.87 12.95-7.06 4.35 0 8.02 0.1 11.78 1.18"/><path id="path643" style="stroke:#0ff;stroke-width:1pt;fill:none" d="m522.78 706.2c0.1-0.02 4.71-0.93 8.24-1.18 5.31-3.98 6.23 0.08 11.78 1.18 6.15-1.4 9.25-4.42 11.77-8.25"/><path id="path644" style="stroke:#0ff;stroke-width:1pt;fill:none" d="m535.73 697.95h1.18c-3.47 0-1.51 0.21 4.71-3.53 4.14-2.07 4.63-4.16 10.6-4.71 3.29-2.47 5.73-0.3 8.24 1.18"/><path id="path645" style="stroke:#0ff;stroke-width:1pt;fill:none" d="m560.46 707.37c0.2-0.93 2.33-6.01 3.53-8.24 5.25-2.1 7.76-3.06 11.78 2.36 4.27 1.16 8.27 3.49 12.95 4.71 1.73 0 0.9 0.27 2.35-1.18"/><path id="path646" style="stroke:#0ff;stroke-width:1pt;fill:none" d="m576.94 690.89v-1.18c0 3.69-0.24 1.49 4.71-4.71 5.46 1 6.89 4.3 9.42 8.24 5.85 0 9.7-0.14 12.95-2.35"/><path id="path647" style="stroke:#0ff;stroke-width:1pt;fill:none" d="m605.2 703.84c0.72-1.04 5.42-8.71 9.42-4.71 5.23 1.43 6.04 3.81 11.78 5.89 1-1.75 2.1-2.1 4.7-2.36"/><path id="path648" style="stroke:#0ff;stroke-width:1pt;fill:none" d="m501.59 708.55h1.17c-3.29 0-1.54 0.15 4.71-2.35 4.9-2.83 7.33-3.98 10.6-8.25 5.47 0.2 9.66 1.18 15.31 1.18 0-1.57-0.4-1.18 1.18-1.18"/><path id="path649" style="stroke:#0ff;stroke-width:1pt;fill:none" d="m350.88 694.42c0-0.81 3.21-2.09 7.06-3.53 2.81-2.11 5.13-0.13 9.42 0"/><path id="path650" style="stroke:#0ff;stroke-width:1pt;fill:none" d="m356.76 705.02h1.18c-3.29 0-1.54 0.14 4.71-2.36 4.52 0.64 6.55 2.88 11.77 3.54"/></g></g><path id="path862" style="stroke:#000;stroke-width:1pt;fill:#ffd200" d="m749.42 355.13c0 11.71 4.74 17.08 16.39 17.08 2.69 0 6.14-0.7 8.19-1.66 7.23-3.46 7.87-9.09 7.87-16.32v-20.16c0-1.86 0.96-3.9 6.02-3.9v-1.22h-14.85v1.22c5.06 0 6.02 2.04 6.02 3.9v20.16c0 6.08-0.07 15.1-12.04 15.1-8 0-11.07-3.77-11.07-13.76v-21.5c0-1.86 0.96-3.9 5.63-3.9v-1.22h-17.79v1.22c4.67 0 5.63 2.04 5.63 3.9v21.06z" transform="matrix(-.015647 .99988 -.99988 -.015647 1071.5 -162.39)"/><path id="path863" style="stroke:#000;stroke-width:1pt;fill:#ffd200" d="m735.98 328.05h-1.34c-1.6 4.74-6.59 0-14.4 0-12.74 0-21.95 9.48-21.95 22.21 0 15.04 11.84 21.95 22.72 21.95 5.25 0 12.41-2.43 16.13-4.54v-12.16c0-3.65 0.32-5.7 4.48-5.76v-1.22h-16.32v1.22c5.31 0 5.63 2.11 5.63 5.76v9.54c0 1.85 0 2.24-1.86 3.13-2.17 1.03-4.86 1.41-7.23 1.41-10.75 0-16.19-8.96-16.19-18.82 0-11.2 4.61-20.16 15.23-20.16 7.55 0 11.78 4.23 14.21 11.01h1.47l-0.58-13.57z" transform="matrix(.15771 .98748 -.98748 .15771 935.34 -214.65)"/><path id="path870" style="stroke:#000;stroke-width:1pt;fill:#ffd200" d="m558.19 328.12h-1.34c-2.11 5.18-5.31-0.07-14.08-0.07-12.87 0-21.89 9.41-21.89 22.15 0 14.01 9.54 22.01 22.02 22.01 6.14 0 12.73-3.2 16.64-8l-1.09-1.28c-4.42 4.36-8.71 6.4-14.98 6.4-10.49 0-15.17-9.66-15.17-18.62 0-11.52 4.55-20.03 15.11-20.03 7.29 0 11.97 4.8 13.82 11.84h1.54l-0.58-14.4z" transform="matrix(.76764 .64088 -.64088 .76764 411.98 -224.79)"/><path id="path871" style="stroke:#000;stroke-width:1pt;fill:#ffd200" d="m511.41 334.07c0-1.86 0.96-3.9 6.27-3.9v-1.22h-19.07v1.22c5.31 0 6.27 2.04 6.27 3.9v32.13c0 1.85-0.96 3.9-6.27 3.9v1.22h19.07v-1.22c-5.31 0-6.27-2.05-6.27-3.9v-32.13z" transform="matrix(.87269 .53240 -.48758 .84843 302.18 -196.24)"/><path id="path872" style="stroke:#000;stroke-width:1pt;fill:#ffd200" d="m490.42 334.07c0-1.86 0.96-3.9 6.2-3.9v-1.22h-15.23v1.22c5.25 0 6.21 2.04 6.21 3.9v25.66l-24.64-30.78h-10.94v1.22c3.13 0.06 3.71 0.64 5.69 2.88l0.51 0.64v32.51c0 1.85-0.96 3.9-6.2 3.9v1.22h15.23v-1.22c-5.25 0-6.21-2.05-6.21-3.9v-29.25l28.42 35.26h0.96v-38.14z" transform="matrix(.92166 .38801 -.38801 .92166 242.32 -151.83)"/><path id="path873" style="stroke:#000;stroke-width:1pt;fill:#ffd200" d="m431.47 371.32l2.88-10.82h-1.79c-3.39 8.13-8.26 8.19-13.38 8.19h-8.44c-1.28 0-1.67-1.34-1.67-2.49v-15.75h9.03c4.28 0 7.93 1.22 7.93 6.21h1.35v-14.97h-1.35c0 4.99-3.65 6.14-7.93 6.14h-9.03v-13.76c0-1.6 1.22-2.5 2.82-2.5h10.3c4.48 0 6.59 3.08 7.3 6.53h1.41v-9.15h-33.99v1.22c4.67 0 5.63 2.04 5.63 3.9v32.13c0 1.85-0.96 3.9-5.63 3.9v1.22h34.56z" transform="matrix(.99769 .067952 -.067952 .99769 69.593 -42.496)"/><path id="path878" style="stroke:#000;stroke-width:1pt;fill:#ffd200" d="m284.46 328.12h-1.34c-2.11 5.18-5.31-0.07-14.08-0.07-12.86 0-21.89 9.41-21.89 22.15 0 14.01 9.54 22.01 22.02 22.01 6.14 0 12.73-3.2 16.64-8l-1.09-1.28c-4.42 4.36-8.7 6.4-14.98 6.4-10.49 0-15.16-9.66-15.16-18.62 0-11.52 4.54-20.03 15.1-20.03 7.3 0 11.97 4.8 13.82 11.84h1.54l-0.58-14.4z" transform="matrix(.85522 -.51827 .51827 .85522 -113.64 211.06)"/><path id="path879" style="stroke:#000;stroke-width:1pt;fill:#ffd200" d="m237.68 334.07c0-1.86 0.96-3.9 6.27-3.9v-1.22h-19.07v1.22c5.31 0 6.27 2.04 6.27 3.9v32.13c0 1.85-0.96 3.9-6.27 3.9v1.22h19.07v-1.22c-5.31 0-6.27-2.05-6.27-3.9v-32.13z" transform="matrix(.77259 -.63491 .63491 .77259 -134.85 270.84)"/><path id="path880" style="stroke:#000;stroke-width:1pt;fill:#ffd200" d="m219.82 371.32l3.08-11.14h-1.6c-3.52 8.77-9.22 8.51-17.35 8.51-3.97 0-6.4-0.7-6.4-2.49v-32.13c0-1.86 0.96-3.9 5.63-3.9v-1.22h-17.79v1.22c4.67 0 5.63 2.04 5.63 3.9v32.13c0 1.85-0.96 3.9-5.63 3.9v1.22h34.43z" transform="matrix(.68725 -.72642 .72642 .68725 -149.29 322.56)"/><path id="path884" style="stroke:#000;stroke-width:1pt;fill:#ffd200" d="m102.38 355.13c0 11.71 4.74 17.08 16.39 17.08 2.69 0 6.14-0.7 8.19-1.66 7.23-3.46 7.87-9.09 7.87-16.32v-20.16c0-1.86 0.96-3.9 6.02-3.9v-1.22h-14.85v1.22c5.06 0 6.02 2.04 6.02 3.9v20.16c0 6.08-0.07 15.1-12.04 15.1-8 0-11.07-3.77-11.07-13.76v-21.5c0-1.86 0.96-3.9 5.63-3.9v-1.22h-17.787v1.22c4.667 0 5.627 2.04 5.627 3.9v21.06z" transform="matrix(.47347 -.88081 .88081 .47347 -169.71 425.81)"/><path id="path887" style="stroke:#000;stroke-width:1pt;fill:#ffd200" d="m56.369 371.32l2.88-10.82h-1.792c-3.392 8.13-8.256 8.19-13.376 8.19h-8.448c-1.28 0-1.664-1.34-1.664-2.49v-15.75h9.024c4.288 0 7.936 1.22 7.936 6.21h1.344v-14.97h-1.344c0 4.99-3.648 6.14-7.936 6.14h-9.024v-13.76c0-1.6 1.216-2.5 2.816-2.5h10.304c4.48 0 6.592 3.08 7.296 6.53h1.408v-9.15h-33.984v1.22c4.672 0 5.632 2.04 5.632 3.9v32.13c0 1.85-0.96 3.9-5.632 3.9v1.22h34.56z" transform="matrix(.19479 -.98084 .98084 .19479 -181.27 537.16)"/><path id="path892" style="stroke:#000;stroke-width:1pt;fill:#ffd200" d="m-15.439 366.2c0 1.85-0.96 3.9-5.44 3.9v1.22h17.6v-1.22c-4.672 0-5.632-2.05-5.632-3.9v-14.47l3.584-0.12 15.232 19.71h10.304v-1.22c-2.88-0.19-4.352-1.47-6.08-3.58l-12.672-15.62c6.016-0.83 11.584-3.97 11.584-10.75 0-7.49-6.4-11.2-17.024-11.2h-16.896v1.22c4.48 0 5.44 2.04 5.44 3.9v32.13zm6.528-31.81c0-3.01 0.576-3.01 4.736-3.01 5.76 0 10.24 2.5 10.24 8.83 0 6.92-5.696 8.84-14.976 9.16v-14.98z" transform="matrix(.010619 -.99994 .99994 .010619 -182.07 608.65)"/><path id="path895" style="stroke:#000;stroke-width:1pt;fill:#ffd200" d="m66.481 366.2c0 1.85-0.96 3.9-5.632 3.9v1.22h17.792v-1.22c-4.672 0-5.632-2.05-5.632-3.9v-13.7c1.856 0.19 3.712 0.32 5.568 0.32 8.192 0 16.256-3.26 16.256-12.73 0-7.56-7.68-11.14-17.536-11.14h-16.128v1.22c4.352 0 5.312 2.04 5.312 3.9v32.13zm6.528-31.94c0-2.62 0.128-2.94 2.816-2.94 6.144 0 12.032 2.05 12.032 9.28 0 7.42-4.8 9.73-11.712 9.73-1.024 0-2.112-0.13-3.136-0.2v-15.87z" transform="matrix(.24519 -.96948 .96948 .24519 -179.51 515.06)"/><path id="path899" style="stroke:#000;stroke-width:1pt;fill:#ffd200" d="m149.36 366.2c0 1.85-0.96 3.9-6.14 3.9v1.22h20.16c10.04 0 16.7-3.97 16.7-11.65 0-6.14-5.18-9.54-10.69-10.62 4.93-1.16 8.51-3.91 8.51-9.28 0-8.2-7.68-10.82-17.53-10.82h-17.15v1.22c5.18 0 6.14 2.04 6.14 3.9v32.13zm6.53-15.75h3.2c6.01 0 13.63 1.41 13.63 9.03 0 7.49-4.93 9.47-11.58 9.47-4.68 0-5.25-1.15-5.25-3.39v-15.11zm0-2.56v-14.52c0-2.24 2.05-2.12 7.93-1.73 4.48 0.83 7.56 3.45 7.56 8.32 0 5.18-3.78 7.93-10.24 7.93h-5.25z" transform="matrix(.57567 -.81768 .81768 .57567 -162.29 378.54)"/><path id="path902" style="stroke:#000;stroke-width:1pt;fill:#ffd200" d="m368.24 371.32c17.15 0 25.79-8.07 25.79-21.06 0-14.4-9.92-21.31-26.3-21.31h-16.51v1.22c4.67 0 5.63 2.04 5.63 3.9v32.13c0 1.85-0.96 3.9-5.63 3.9v1.22h17.02zm-4.86-36.74c0-3.07 0.57-3.26 3.64-3.26 11.84 0 20.04 6.46 20.04 19.01 0 11.9-7.56 18.94-20.61 18.36-1.41-0.06-3.07-0.76-3.07-3.13v-30.98z" transform="matrix(.99696 -.077916 .077916 .99696 22.208 13.662)"/><path id="path905" style="stroke:#000;stroke-width:1pt;fill:#ffd200" d="m613.87 366.2c0 1.85-0.96 3.9-5.44 3.9v1.22h17.6v-1.22c-4.67 0-5.63-2.05-5.63-3.9v-14.47l3.58-0.12 15.24 19.71h10.3v-1.22c-2.88-0.19-4.35-1.47-6.08-3.58l-12.67-15.62c6.01-0.83 11.58-3.97 11.58-10.75 0-7.49-6.4-11.2-17.02-11.2h-16.9v1.22c4.48 0 5.44 2.04 5.44 3.9v32.13zm6.53-31.81c0-3.01 0.58-3.01 4.74-3.01 5.76 0 10.24 2.5 10.24 8.83 0 6.92-5.7 8.84-14.98 9.16v-14.98z" transform="matrix(.50910 .86071 -.86071 .50910 646.29 -258.77)"/><path id="path908" style="stroke:#000;stroke-width:1pt;fill:#ffd200" d="m584.94 328.05h-1.28l-12.99 30.85c-2.62 6.21-4.29 10.88-8.25 11.2v1.22h12.67v-1.22c-2.18 0-4.35-0.57-4.35-2.69 0-2.36 2.62-7.48 3.45-9.92h16.77l2.3 5.44c2.44 5.7 2.5 6.92-2.94 7.17v1.22h16.32v-1.22c-3.58 0.19-4.93-3.65-6.08-6.27l-15.62-35.78zm-2.3 9.22l7.42 17.6h-14.78l7.36-17.6z" transform="matrix(.67256 .74004 -.74004 .67256 502.4 -247.73)"/><path id="path911" style="stroke:#000;stroke-width:1pt;fill:#ffd200" d="m673.84 328.05h-1.28l-12.99 30.85c-2.63 6.21-4.29 10.88-8.26 11.2v1.22h12.67v-1.22c-2.17 0-4.35-0.57-4.35-2.69 0-2.36 2.63-7.48 3.46-9.92h16.77l2.3 5.44c2.43 5.7 2.5 6.92-2.94 7.17v1.22h16.32v-1.22c-3.59 0.19-4.93-3.65-6.08-6.27l-15.62-35.78zm-2.3 9.22l7.42 17.6h-14.78l7.36-17.6z" transform="matrix(.40179 .91573 -.91573 .40179 739.21 -252.03)"/><path id="path914" style="stroke:#000;stroke-width:1pt;fill:#ffd200" d="m812.46 328.05h-1.28l-12.99 30.85c-2.62 6.21-4.29 10.88-8.25 11.2v1.22h12.67v-1.22c-2.18 0-4.35-0.57-4.35-2.69 0-2.36 2.62-7.48 3.45-9.92h16.77l2.3 5.44c2.44 5.7 2.5 6.92-2.94 7.17v1.22h16.32v-1.22c-3.58 0.19-4.93-3.65-6.08-6.27l-15.62-35.78zm-2.3 9.22l7.42 17.6h-14.78l7.36-17.6z" transform="matrix(-.11764 .99306 -.99306 -.11764 1148.5 -122.34)"/><path id="path918" style="stroke:#000;stroke-width:1pt;fill:#ffd200" d="m311.22 328.05h-1.28l-13 30.85c-2.62 6.21-4.28 10.88-8.25 11.2v1.22h12.67v-1.22c-2.18 0-4.35-0.57-4.35-2.69 0-2.36 2.62-7.48 3.45-9.92h16.77l2.31 5.44c2.43 5.7 2.49 6.92-2.95 7.17v1.22h16.32v-1.22c-3.58 0.19-4.93-3.65-6.08-6.27l-15.61-35.78zm-2.31 9.22l7.43 17.6h-14.79l7.36-17.6z" transform="matrix(.92940 -.36908 .36908 .92940 -77.682 140.58)"/><path id="path932" style="stroke:#000;stroke-width:1pt;fill:#ffd200" d="m728.93 940.02l4.37-10.7-1.59-0.19c-4.53 8.29-10.16 7.36-18.23 6.4-3.94-0.47-6.27-1.46-6.06-3.24l3.81-31.9c0.22-1.84 1.42-3.76 6.06-3.21l0.14-1.21-17.66-2.11-0.15 1.21c4.64 0.55 5.35 2.7 5.13 4.55l-3.81 31.9c-0.22 1.84-1.42 3.76-6.05 3.2l-0.15 1.21 34.19 4.09z" transform="matrix(.41659 -.90910 .90910 .41659 -458.69 1006.7)"/><path id="path937" style="stroke:#000;stroke-width:1pt;fill:#ffd200" d="m594.21 883.96l4.58 0.55c4.45 0.53 7.65 0.72 8.05 9.21l1.52 0.18 0.91-10.85-35.84-4.28-1.67 10.76 1.53 0.18c0.68-1.91 1.25-4.04 2.78-5.53 2.17-2.45 7.08-1.54 11.66-0.99l-4.1 34.31c-0.22 1.85-1.41 3.77-6.05 3.21l-0.15 1.21 17.67 2.11 0.14-1.21c-4.64-0.55-5.35-2.7-5.13-4.54l4.1-34.32z" transform="matrix(.73379 -.67937 .67937 .73379 -457.69 566.21)"/><path id="path938" style="stroke:#000;stroke-width:1pt;fill:#ffd200" d="m564.31 882.84c0.22-1.84 1.42-3.76 6.63-3.14l0.14-1.21-15.12-1.8-0.15 1.2c5.21 0.63 5.92 2.77 5.7 4.62l-3.04 25.48-20.81-33.49-10.87-1.3-0.15 1.21c3.11 0.43 3.61 1.07 5.32 3.53l0.43 0.7-3.86 32.28c-0.22 1.85-1.41 3.77-6.62 3.14l-0.15 1.21 15.13 1.81 0.14-1.21c-5.21-0.62-5.92-2.77-5.7-4.61l3.47-29.04 24.03 38.38 0.96 0.12 4.52-37.88z" transform="matrix(.86944 -.49404 .49404 .86944 -371.79 341.97)"/><path id="path939" style="stroke:#000;stroke-width:1pt;fill:#ffd200" d="m517.25 914.73l4.14-10.4-1.78-0.21c-4.33 7.67-9.17 7.16-14.25 6.55l-8.39-1c-1.27-0.15-1.49-1.53-1.35-2.68l1.86-15.63 8.96 1.07c4.26 0.51 7.74 2.15 7.15 7.1l1.33 0.16 1.78-14.87-1.34-0.16c-0.59 4.96-4.35 5.67-8.6 5.16l-8.96-1.07 1.63-13.66c0.19-1.59 1.5-2.33 3.09-2.14l10.23 1.22c4.45 0.53 6.18 3.83 6.47 7.35l1.4 0.16 1.08-9.08-33.74-4.04-0.14 1.21c4.64 0.56 5.34 2.7 5.12 4.55l-3.8 31.9c-0.23 1.84-1.42 3.76-6.06 3.21l-0.14 1.2 34.31 4.1z" transform="matrix(.93823 -.34602 .34602 .93823 -276.66 203.91)"/><path id="path940" style="stroke:#000;stroke-width:1pt;fill:#ffd200" d="m484.06 867.26l-1.34-0.16c-2.71 4.9-5.27-0.69-13.97-1.73-12.78-1.53-22.85 6.74-24.36 19.39-1.67 13.92 6.85 22.99 19.25 24.47 6.1 0.73 13.02-1.67 17.47-5.97l-0.93-1.4c-4.9 3.8-9.4 5.32-15.63 4.58-10.42-1.24-13.91-11.4-12.85-20.29 1.36-11.44 6.89-19.35 17.37-18.1 7.25 0.86 11.32 6.18 12.32 13.39l1.53 0.19 1.14-14.37z" transform="matrix(.98636 -.16458 .16458 .98636 -142.32 76.797)"/><path id="path943" style="stroke:#000;stroke-width:1pt;fill:#ffd200" d="m379.9 854.82l-1.34-0.16c-2.71 4.9-5.26-0.69-13.97-1.73-12.77-1.53-22.85 6.74-24.36 19.39-1.66 13.92 6.86 22.99 19.25 24.47 6.1 0.73 13.03-1.67 17.47-5.97l-0.93-1.4c-4.9 3.8-9.4 5.32-15.62 4.58-10.43-1.25-13.92-11.4-12.86-20.29 1.37-11.44 6.89-19.35 17.38-18.1 7.24 0.86 11.31 6.18 12.32 13.39l1.52 0.19 1.14-14.37z" transform="matrix(.98504 .17233 -.17233 .98504 161.14 -58.103)"/><path id="path944" style="stroke:#000;stroke-width:1pt;fill:#ffd200" d="m332.74 855.18c0.22-1.84 1.42-3.76 6.69-3.13l0.15-1.21-18.94-2.26-0.15 1.21c5.28 0.63 5.99 2.77 5.77 4.62l-3.81 31.9c-0.22 1.84-1.42 3.76-6.69 3.13l-0.15 1.21 18.94 2.26 0.14-1.21c-5.27-0.63-5.98-2.78-5.76-4.62l3.81-31.9z" transform="matrix(.96020 .27931 -.27931 .96020 264.57 -72.664)"/><path id="path947" style="stroke:#000;stroke-width:1pt;fill:#ffd200" d="m268.33 885l4.15-10.4-1.78-0.21c-4.34 7.67-9.17 7.15-14.26 6.55l-8.39-1c-1.27-0.16-1.49-1.54-1.35-2.68l1.86-15.63 8.96 1.07c4.26 0.51 7.74 2.15 7.15 7.1l1.33 0.16 1.78-14.87-1.34-0.16c-0.59 4.96-4.35 5.67-8.6 5.16l-8.96-1.07 1.63-13.66c0.19-1.59 1.5-2.34 3.09-2.14l10.23 1.22c4.45 0.53 6.18 3.83 6.47 7.34l1.4 0.17 1.08-9.09-33.74-4.03-0.14 1.21c4.64 0.56 5.35 2.7 5.13 4.54l-3.81 31.91c-0.22 1.84-1.42 3.76-6.06 3.21l-0.14 1.2 34.31 4.1z" transform="matrix(.84216 .53922 -.53922 .84216 521.41 -47.221)"/><path id="path948" style="stroke:#000;stroke-width:1pt;fill:#ffd200" d="m230.87 843.01c0.22-1.84 1.42-3.76 6.06-3.21l0.14-1.2-12.65-1.51-17.87 30.41-10.85-33.84-12.58-1.51-0.14 1.21c5.08 0.61 5.79 2.76 5.57 4.6l-3.81 31.9c-0.22 1.84-1.42 3.76-6.63 3.14l-0.14 1.21 15.12 1.8 0.15-1.2c-5.22-0.63-5.93-2.77-5.71-4.62l3.54-29.61 11.81 36.6 0.89 0.11 20.59-34.22-3.72 31.08c-0.22 1.84-1.41 3.76-6.05 3.21l-0.15 1.2 17.67 2.11 0.14-1.2c-4.63-0.56-5.35-2.71-5.13-4.55l3.75-31.91z" transform="matrix(.75139 .65985 -.65985 .75139 643.34 -.61954)"/><path id="path953" style="stroke:#000;stroke-width:1pt;fill:#ffd200" d="m278.85 881.1c-0.22 1.84-1.41 3.76-5.86 3.23l-0.15 1.21 17.48 2.09 0.14-1.21c-4.64-0.55-5.34-2.7-5.12-4.54l1.71-14.37 3.57 0.3 12.79 21.38 10.23 1.22 0.15-1.21c-2.84-0.53-4.15-1.97-5.61-4.27l-10.74-17.01c6.08-0.12 11.98-2.57 12.78-9.3 0.89-7.44-5.02-11.88-15.57-13.14l-16.78-2.01-0.15 1.21c4.45 0.53 5.16 2.68 4.94 4.52l-3.81 31.9zm10.26-30.81c0.35-2.99 0.93-2.92 5.06-2.42 5.72 0.68 9.87 3.69 9.12 9.98-0.82 6.86-6.71 8.09-15.96 7.31l1.78-14.87z" transform="matrix(.93272 .36060 -.36060 .93272 344.85 -74.044)"/><path id="path956" style="stroke:#000;stroke-width:1pt;fill:#ffd200" d="m406.47 857.93l-1.27-0.15-16.56 29.09c-3.34 5.85-5.55 10.29-9.53 10.14l-0.14 1.21 12.58 1.5 0.15-1.21c-2.16-0.26-4.26-1.09-4.01-3.18 0.29-2.35 3.5-7.13 4.61-9.44l16.65 1.99 1.65 5.67c1.73 5.94 1.65 7.16-3.78 6.77l-0.14 1.2 16.2 1.94 0.15-1.21c-3.59-0.23-4.46-4.2-5.3-6.95l-11.26-37.37zm-3.38 8.88l5.28 18.35-14.68-1.75 9.4-16.6z" transform="translate(0 -5.828)"/><path id="path959" style="stroke:#000;stroke-width:1pt;fill:#ffd200" d="m159.33 828.41l-1.27-0.15-16.56 29.09c-3.34 5.85-5.55 10.29-9.52 10.14l-0.15 1.21 12.58 1.5 0.15-1.21c-2.16-0.26-4.26-1.09-4-3.18 0.28-2.35 3.49-7.13 4.6-9.44l16.65 1.99 1.65 5.67c1.74 5.95 1.65 7.16-3.78 6.77l-0.14 1.21 16.2 1.93 0.15-1.21c-3.59-0.23-4.46-4.2-5.3-6.94l-11.26-37.38zm-3.38 8.88l5.28 18.35-14.67-1.75 9.39-16.6z" transform="matrix(.56328 .82627 -.82627 .56328 819.55 133)"/><path id="path962" style="stroke:#000;stroke-width:1pt;fill:#ffd200" d="m612.48 920.95c-0.22 1.84-1.41 3.76-5.86 3.23l-0.15 1.21 17.48 2.09 0.14-1.21c-4.64-0.55-5.35-2.7-5.13-4.55l1.72-14.36 3.57 0.3 12.79 21.38 10.23 1.22 0.15-1.2c-2.84-0.54-4.15-1.98-5.62-4.28l-10.73-17.01c6.07-0.12 11.97-2.57 12.78-9.31 0.89-7.43-5.03-11.88-15.58-13.14l-16.77-2-0.15 1.21c4.45 0.53 5.16 2.68 4.94 4.52l-3.81 31.9zm10.26-30.81c0.35-2.99 0.92-2.92 5.06-2.42 5.72 0.68 9.87 3.69 9.12 9.98-0.82 6.86-6.71 8.09-15.96 7.31l1.78-14.87z" transform="matrix(.66250 -.74906 .74906 .66250 -474.31 673.26)"/><path id="path965" style="stroke:#000;stroke-width:1pt;fill:#ffd200" d="m676.55 890.19l-1.27-0.15-16.56 29.08c-3.34 5.86-5.55 10.3-9.53 10.15l-0.14 1.21 12.58 1.5 0.15-1.21c-2.16-0.26-4.26-1.09-4-3.19 0.28-2.35 3.49-7.12 4.6-9.44l16.65 1.99 1.65 5.68c1.73 5.94 1.65 7.16-3.78 6.77l-0.14 1.2 16.2 1.94 0.15-1.21c-3.59-0.23-4.46-4.21-5.3-6.95l-11.26-37.37zm-3.38 8.87l5.28 18.36-14.68-1.75 9.4-16.61z" transform="matrix(.48593 -0.874 0.874 .48593 -475.12 919.05)"/><ellipse id="path966" style="fill-rule:evenodd;stroke:#000;stroke-width:1pt;fill:#ffd200" cx="176.92" cy="676.04" rx="9.575" ry="9.158" transform="translate(2.4977 8.3258)"/><ellipse id="path967" style="fill-rule:evenodd;stroke:#000;stroke-width:1pt;fill:#ffd200" cx="176.92" cy="676.04" rx="9.575" ry="9.158" transform="translate(514.53 19.982)"/></g><metadata/></svg>