<svg xmlns="http://www.w3.org/2000/svg" xmlns:xlink="http://www.w3.org/1999/xlink" id="Layer_1" x="0" y="0" enable-background="new -444.209 -522.103 1546.109 1670.376" version="1.1" viewBox="-444.209 -522.103 1546.109 1670.376" xml:space="preserve"><g><g><defs><path id="SVGID_1_" d="M709.0203,1090.323c-1.9415,1.5732-3.8829,1.908-5.791,3.3809 c-3.6486,2.7783-3.5482,6.7616-5.3223,11.1466c-1.9749,4.8202-5.8244,8.2345-11.1467,8.2345 c-3.3809,0-4.4855-3.046-6.7951-5.3223c-3.9834-4.0168-6.1592-6.6613-10.176-10.6781c-3.749-3.749-4.5859-7.2302-7.7324-11.6152 c-2.0754-2.8788-5.088-3.8829-8.7031-3.8829c-4.9875,0-8.0002-0.1005-12.6195,1.4728c-3.4813,1.2051-3.7156,4.9875-5.3223,8.2345 c-0.9373,1.9415-2.6444,2.9122-4.8202,2.9122c-3.8829,0-5.3557-3.0126-8.7366-4.8536c-3.5147-1.908-6.293-2.0419-9.6738-4.3516 c-2.3097-1.5732-2.1758-4.7533-4.8536-5.8243c-1.3055-0.5022-2.5775-1.3055-3.8829-0.9708 c-13.5568,3.7156-27.1135,7.4312-40.6703,11.1467c-4.5859,1.272-7.2638-2.0753-11.6154-3.8829s-7.1633-2.7449-11.6153-4.3516 c-6.0587-2.1423-9.9417-3.8829-16.4689-3.8829c-5.6905,0-9.3391,0.3347-14.5275,2.4436 c-3.5147,1.4059-5.8244,2.8787-9.6738,2.8787c-5.6905,0-9.1383-2.611-14.0589-5.3223 c-5.3223-2.9122-7.3642-6.4269-12.1174-10.1425c-2.0084-1.6067-4.2177-2.0753-5.7909-4.385 c-1.8076-2.6444-3.0461-5.3223-6.293-5.3223c-1.4728,0-2.544,0.7363-3.8829,0.9707c-2.1758,0.3682-3.749,0.2343-5.8244,0.9707 c-2.2762,0.8368-3.2469,2.9122-5.7909,2.9122s-2.6444-3.2804-3.8829-5.3223c-1.3055-2.2094-3.3808-2.9122-5.8244-3.8829 c-3.5147-1.4395-5.9248-1.2051-9.6739-1.9415c-4.7198-0.9373-7.3642-2.3097-11.6153-4.3516 c-3.0126-1.4728-4.3516-3.8829-7.7659-3.8829c-1.6737,0-2.3097,1.9081-3.8495,2.4102c-2.8118,0.9373-4.8536,0.5021-7.7658,0.9707 c-2.9122,0.5021-4.7198,1.4728-7.7324,1.4728c-9.2052,0-14.1593-3.3807-23.3645-3.3807c-3.1465,0-6.293,0-9.4395,0 c-3.2804,0-5.4562,1.3054-7.8663,3.3807c-2.4436,2.042-3.5147,4.8202-6.7951,4.8202c-1.7072,0-2.3097-1.4059-3.8829-1.908 c-7.7993-2.611-26.2432-0.0669-34.8459,3.7825c-1.0042-2.9121-1.4728-4.6527-1.4728-7.6654 c0-6.8955,2.4435-10.5441,2.4435-17.4397c0-3.9833-1.5063-6.293-3.4143-9.6738c-0.1674-0.3347-4.3181-2.8787-0.9707-3.8829 c4.0838-1.205,8.6362,0,10.1759-3.8829c1.7072-4.2177-0.8703-8.0002,1.9415-11.6154c0.9707-1.2385,2.3097,1.4394,3.8829,1.4394 c7.1299,0,9.0044-7.3976,12.586-13.5568c1.6067-2.7449-8.3684-4.2177-5.8244-6.293c5.1549-4.1842,9.5734-3.8829,15.4982-6.293 c3.0126-1.205,5.2219-1.7072,7.7659-3.8494c3.1465-2.6779,2.9457-9.2053,6.7617-8.2345 c1.3055,0.3013,2.5775,1.2385,3.8829,0.9707c5.3893-1.205-8.5023-8.2344,3.3808-8.2344c7.7659,0,4.2846-11.6488,4.8537-19.3812 c0.2678-3.8829,1.5732-5.9248,2.4101-9.6739c0.7364-3.1799,0.1004-6.3599,2.9122-7.7658 c1.4728-0.7365,1.841,2.1758,2.9122,3.3808c0.8369,0.9708,1.4394,2.4436,2.9122,2.4436c0.9707,0,2.2093,0.4351,2.4101-0.5021 c0.9373-4.385-1.4394-7.1298-1.4394-11.6153c0-2.4101,0.7699-3.9833,0.9707-6.293c0.0335-0.7364,0.9707-1.1046,0.9707-1.9415 c0-0.9707-0.1004-2.4101-0.9707-2.4101c-1.3055,0-2.6109,0-3.8829,0c-8.3684,0,3.8829-12.8538,3.8829-21.1887 c0-3.9499,0-7.9332,0-11.8831c0-1.5732,1.7072-1.908,2.4101-3.2469c1.4728-2.7783,1.4394-4.8537,2.9122-7.7659 c1.205-2.4101,2.8787-3.9833,2.8787-6.7617c0-2.0419-1.908-3.8494-1.908-4.8536c0-0.9708,1.0377-1.2385,1.4394-1.9415 c1.5398-2.7783,8.0671-0.6695,7.2637-3.8829c-0.1674-0.636-0.3347-1.272-0.4686-1.908c-1.0042-3.9499-5.3557-5.088-5.3557-9.2053 c0-2.3096-0.3347-4.1172,0.9707-5.8243c2.4435-3.1465,5.8244-2.6444,9.7073-3.8829c4.9541-1.5398,8.3684-1.8745,13.5568-2.8787 c2.9122-0.5691,4.9541-0.1005,7.7324-0.9708c3.0461-0.9707,4.4854-3.4143,5.8244-6.293c1.339-2.9122,2.3097-5.4562,5.3223-6.3265 c2.544-0.7029,6.5273,0.2678,6.5273-2.4101c0-2.3096-0.2343-3.5147-0.2343-5.7909c0-0.6695,0-1.3055,0-1.9415 c0-1.5063-0.7029-2.6779-1.4394-3.8829c-0.9707-1.5732-3.8829-1.4393-3.8829-3.3808c0-3.0461,2.9122-4.1172,5.3223-5.8244 c1.3389-0.9373,3.3808-1.2051,3.3808-2.9122c0-1.205-0.9707-1.6736-0.9707-2.9122c0-2.1758,2.1423-2.6779,3.4143-4.3516 c2.0084-2.6779,2.6444-4.954,4.3516-7.7324c1.1046-1.8076,2.9122-2.6779,2.9122-4.8536c0-1.4394-0.9707-2.4101-0.9707-3.8829 c0-3.8495,3.6486-5.1884,6.7617-7.2638c5.088-3.3474,8.7701-5.7909,10.678-11.6153c1.4728-4.5859,3.2469-6.8955,4.3516-11.6153 c0.7029-3.1465,1.6737-6.0587,4.8202-6.7951c2.1758-0.4686,4.1172,0,5.8244-1.4394c1.205-1.0042,1.205-2.4101,1.9415-3.8829 c0.7364-1.4393,1.5398-2.3096,1.9415-3.8494c1.4059-5.8244,0.5356-9.7073,1.9415-15.4982 c0.3682-1.5398,0.569-2.9122,0.6695-4.2177c-3.3808-3.2469-6.7951-6.4604-10.176-9.6738 c-1.3055-1.2385-11.0128-16.7033-11.5818-18.5109c-3.18-9.5065-31.4986-47.9675-42.5448-46.093 c-11.6488,1.9749-7.1633-6.4939-16.5694-9.4061c-14.8288-4.5859-24.0005-12.4521-34.2099-17.3727 c-6.0922-2.9457-14.6949,9.4061-17.9753,9.9417c-12.0504,1.9415-18.0422-19.0464-28.988-24.8708 c-14.494-7.6654-23.3645-1.205-36.9882-11.314c-7.7993-5.7909-18.1426-2.3431-27.6157-9.3726 c-7.7324-5.7574-17.2723-16.5359-28.1512-18.7787c-3.9833-0.8368-16.2681-2.1088-18.7786-6.3599 c-6.4604-10.812-29.3228-15.7326-37.0217-21.2557c-12.1174-8.7366-16.9711-28.4525-32.8375-38.1263 c-30.9295-18.7451-61.859-37.5238-92.7886-56.3024c-0.5021-0.3347-2.3097-2.3097-3.0461-2.5105 c-6.293-1.5398-13.289,5.5901-20.151,6.929c-7.6654,1.4728-16.8372,0.4017-24.5696,0 c-12.7534-0.7029-21.8917-13.3894-36.9882-16.3016c-9.8412-1.8745-17.0045-5.7909-19.8833-11.5818 c-0.1004-0.2008-0.2008-0.3682-0.2678-0.569c-1.4728-2.9457-9.7408,0.1004-12.4521-1.9415 c-7.3976-5.5901-16.4355-1.7741-24.3018-4.6863c-7.632-2.8452-12.017-11.1132-19.3142-15.197 c-21.2222-11.8161-22.5611-24.2683-33.6744-42.2436c-3.5817-5.7909-21.9921-6.5608-26.7788-11.0462 c-9.3391-8.7031-16.469-10.2429-27.0801-13.5233c-12.4521-3.8495-8.5023-17.9753-20.151-20.9879 c-6.5943-1.6737-6.3265-8.3349-14.0923-10.4772c-13.4229-3.749-11.6823-5.4562-19.3142-15.7325 c-9.2721-12.4521-20.9879-17.4397-32.871-27.0801c-13.7911-11.1802-7.9332-22.3268-19.8832-35.6158 c-2.4101-2.7113-13.7242-17.7075-16.0003-18.5108c-13.858-4.8202-9.4395-21.8917-16.0003-30.896 c-9.2722-12.6865-6.0922-29.5571-25.1386-29.5571c-15.0631,0-9.3056-6.2261-18.243-12.4187 c-10.6446-7.4311-15.7326-1.841-20.9544-17.9418c-0.4017-1.205-6.4604-4.385-9.2722-6.2261l68.3864-221.8289l2.4101-93.9601 l58.11-92.9559l30.4944-84.7549l233.4107-41.641l75.5497-23.7327l83.7842,6.7951l69.2567,0.4687l166.5641,87.6671 c2.2093,1.908,3.8829,3.7491,3.8829,6.7617c0,7.2638-6.293,10.1759-6.293,17.4397c0,2.4101,1.7072,3.5147,2.4101,5.8244 c1.2385,3.6151,1.1046,6.0252,2.4436,9.6739c1.0711,2.9122,2.9122,4.4854,2.9122,7.632v13.7911 c0,1.7072,1.5732,2.3097,2.4101,3.749c0.3682,0.6025,0.4686,0.5356,0.7364,1.1716c-0.4352,0.2678-0.7364,0.6695-0.7364,1.2385 c0,1.2385,1.4394,1.7072,1.4394,2.9122c0,3.6486-3.8495,5.088-3.8495,8.7366c0,0.9707,0.9707,1.205,1.4394,1.9414 c1.3389,2.0419,3.2804,2.6444,5.3223,3.8495c3.0461,1.8076,4.8537,4.6194,4.8537,8.2345c0,1.9415-0.9707,2.9122-0.9707,4.8536 c0,2.4101,1.4394,3.5147,2.9122,5.3223c3.5817,4.385,5.9248,6.7951,8.7031,11.6153c1.339,2.3097,2.9122,3.8829,2.9122,6.6612 c0,1.9415-0.9707,3.0461-0.9707,4.9541c0,0.8703,0.4686,1.2385,0.4686,2.0753c0,8.3349,2.9122,12.8204,2.9122,21.1887 c0,2.4101,2.4101,3.1465,3.4143,5.3223c0.569,1.3389-0.1004,2.4101,0,3.8829c0.1339,2.4101,1.5732,4.8202,3.9833,4.8202 c2.1758,0,3.5147-0.4686,5.6905-0.4686c2.544,0,3.6151,2.1758,4.8537,4.3516c1.3055,2.3097,5.3558,3.6821,3.8495,5.8244 c-2.8452,4.0838-7.7324,1.9415-11.6153,4.8202c-0.4686,0.3682-0.569,1.2385-0.4686,1.9415 c0.1339,1.3055,0.3013,2.5775,0.4686,3.8829c0.3347,2.6444,4.2512,0.0669,6.7951,0.4686 c3.5147,0.569,5.3223,4.1172,5.3223,7.7659c0,6.1591-8.904,8.0336-7.2638,14.0254c1.4394,5.3558,6.8955,6.1926,8.2345,11.6488 c0.9707,4.0838,2.4101,6.3934,2.4101,10.6446c0,1.4394-0.9707,2.4101-0.9707,3.8829c0,3.5147,2.9122,5.1884,2.9122,8.7031 c0,3.8829-3.3808,5.6905-3.3808,9.5734c0,3.3139,0,6.6277,0,9.9082c0,4.6193-0.7364,7.5315-2.9122,11.5149 c-1.5733,2.9122-4.3516,4.2511-4.3516,7.632c0,1.3389,0,2.6444,0,3.9833c0,1.7071,2.6444-0.4686,4.3516-0.4686 c1.4394,0,1.7741,1.7071,2.4101,2.9122c0.8033,1.4728,1.9415,2.1758,1.9415,3.8495c0,2.4436-1.7741,3.5482-2.4101,5.8244 c-1.5398,5.4562-2.4436,8.837-5.3223,13.5568c-2.4436,3.9833-4.4854,5.9248-7.2638,9.6738 c-1.8076,2.4436-3.8829,3.749-3.8829,6.7951c0,1.205,0.9707,1.8076,1.4394,2.9122c0.636,1.4394,0.8368,2.7783,1.9414,3.8495 c1.339,1.3389,3.8829,1.4728,3.8829,3.4143c0,4.3516-1.9415,6.7616-1.9415,11.1132c0,4.1172,3.2135,5.8244,4.3516,9.7073 c0.1674,0.569-0.0335,1.841-0.4686,2.4101c-2.2093,2.8452-5.8244,3.6486-5.8244,7.2638c0,2.3097,3.3808,2.544,3.3808,4.8537 c0,5.6905-5.3223,7.8663-5.3223,13.5568c0,2.4101,3.0126,3.5817,2.4435,5.7909c-3.0796,11.95-6.1591,23.9001-9.2052,35.8501 c-0.6025,2.3097-0.5021,4.3181-0.067,6.2261c1.1046,0.7364,5.4897,0.9038,6.8286,1.0377 c5.4562,0.8368,7.0294,6.7617,12.586,6.7617c1.1046,0,0.9707-1.6737,1.9415-1.908c0.6025-0.1339,1.205,0,1.9415,0 c4.9541,0,7.632,2.8787,12.586,2.8787c3.3808,0,5.5901-0.3347,8.7366-1.4394c1.8076-0.6025,2.0419-2.3097,3.8495-2.9122 c3.5147-1.205,5.9583-0.7029,9.7073-0.9707c2.2762-0.1004,3.5147-0.9707,5.7909-0.9707c1.4728,0,2.0754,1.4728,2.9122,2.4436 c1.205,1.3389,2.0753,2.1758,2.9122,3.8495c2.544,4.7532,5.1884,9.2052,10.6446,9.2052c2.6779,0,4.1172-1.4394,6.7951-1.4394 c5.6905,0,7.8663,4.9541,13.5568,5.3223c2.3097,0.1339,3.9834-1.205,5.7909,0c2.6779,1.7071,2.0754,6.293,5.3558,6.293 c3.2469,0,4.452-2.9122,7.7324-2.9122c4.7198,0,7.0294,3.4143,11.7492,3.4143h5.6905c0.2343-1.3389,0.3682-2.0754,0.4686-3.4143 h13.4564c3.3808,0,5.1884,2.4436,7.3641,4.8537c0.6025-0.3682,1.4728,0,1.9415-0.4686c1.7072-1.7071,2.4436-3.8829,4.8537-3.8829 c2.3096,0,3.5147,1.205,5.7909,1.4394c6.0587,0.7364,9.9417,0.1339,15.4982,2.4436c2.4435,0.9373,3.5147,2.6444,5.8244,3.8495 c5.8244,3.2804,9.8077,5.3223,16.4689,5.3223c3.6152,0,5.088-3.1465,6.7617-6.293c0.8703-1.6737,0.9708-3.8495,2.9122-3.8495 c1.4728,0,2.4435,0.9707,3.8829,0.9707c2.9122,0,2.9122-3.6486,3.8829-6.3265c2.8787,1.6067,4.7198,2.8118,7.2638,4.8537 c1.205,0.9707,1.6736,2.9122,3.3808,2.9122c2.3097,0,2.544-2.544,3.8829-4.3516c1.4393-1.9415,3.2469-2.4436,5.3223-3.8829 c3.2804-2.3097,3.8829-5.3223,5.3223-9.2052c1.1046-3.0126,2.0419-4.8537,3.3808-7.7324 c0.6025-1.4728,0.7364-2.9122,1.9415-3.8829c2.544-2.0754,5.3223-1.9415,8.7366-1.9415c4.452,0,6.7617,2.6779,11.1132,3.3808 c1.3389,0.1339,2.5439-0.9707,3.8829-0.4686c1.4393,0.4686,1.9415,2.0419,2.4101,3.3808 c2.8118,6.5273,5.2219,10.6446,10.678,15.0296c2.5439,2.0419,4.452,3.3808,7.7324,3.8495c1.3389,0.1339,2.6779-0.7029,3.8829,0 c2.0419,1.205,1.8076,3.8829,3.3808,5.8244c3.749,4.7198,7.8663,7.2637,14.0589,7.2637c4.2177,0,6.5273-1.4394,10.7784-1.4394 c10.6446,0,16.7033-0.5021,27.3479-0.5021c3.2804,0,5.088,0.7364,8.3349,0.5021c3.0461-0.2678,5.2219-1.9415,7.7658-0.5021 c1.4394,0.8368,1.7072,2.544,2.4101,3.8829c0.9708,1.5732,2.0754,2.1758,2.9122,3.8829 c1.4393,2.7783,1.9415,4.8202,3.3808,7.7324c1.4728,2.9122,5.088,1.1046,7.7659,2.9122 c2.6444,1.8076,2.4101,4.5859,2.9122,7.7324c1.2051,7.7659,2.0419,12.586,5.791,19.3812 c0.8703,1.7071,1.9415,2.3097,2.9122,3.8829c1.8076,2.9122,2.7783,4.9541,4.8536,7.7324 c1.0712,1.4728,2.8787,1.8076,3.8495,3.3808c2.4435,3.6486,3.4143,6.293,3.4143,10.678c0,5.6905-0.7365,9.2052-2.4436,14.5275 c-1.205,3.6151-1.205,6.0587-2.4101,9.6738c-1.4393,4.3515-2.4101,7.0294-2.4101,11.6153c0,3.4143,1.9415,5.3223,1.9415,8.7366 c0,4.1172-0.2678,6.7616-1.4728,10.6446c-0.8368,2.544-2.4101,3.9834-2.4101,6.7616c0,1.1046,1.4394,1.1046,1.9415,1.9415 c0.3682,0.6025,0.6025,1.205,0.9708,1.9415c0.7029,1.4728,1.8076,2.4436,2.4101,3.8829c0.2343,0.6025-0.2343,1.3389,0,1.9415 c1.5732,2.7783,3.9833,3.9834,4.3516,7.2637c0.7364,6.0587-1.4394,11.6153,3.3808,14.9961 c1.9415,1.3389,3.6486,0.9707,5.8244,1.9415c3.749,1.7072,5.6905,4.3516,6.7951,8.2345c1.6737,5.8244,0,9.9416,0.4686,16.0003 c-0.1339,1.908-0.4686,3.0126-0.4686,4.9541c0,2.0419,1.6737,2.9122,2.4101,4.7198c1.2051,2.7783,1.4394,4.7198,1.4394,7.7324 c0,7.0294-4.8202,10.3098-4.8202,17.3393v29.6575c3.2469,0.4686,5.088,1.5733,7.7324,3.3808 c1.5732,0.9707,3.0461,1.7072,3.8829,3.3808c1.8076,3.3808,2.0419,5.9248,2.9122,9.6738 c0.7029,3.0461,2.4101,4.4855,2.4101,7.632c0,4.8537-0.4686,7.5316-0.4686,12.3517v5.8244 c0,8.1006,2.5105,13.3224,7.2303,19.7159c2.9122,3.8829,4.6193,6.4269,9.2052,8.7366c1.2385-1.9415,2.3097-3.1465,4.3851-4.3516 l17.4062,10.1425c2.9122-1.908,4.6193-3.6151,7.7659-4.8202c2.0419-0.8703,3.749-0.6025,5.7909-1.4728 c2.3097-0.9707,3.2804-3.3808,5.8244-3.3808c1.7072,0,2.4101,1.7072,3.8829,2.4101c1.6736,0.8703,2.9122,1.4728,4.8202,1.4728 c1.1046,0,1.1046-1.3389,1.9415-1.9415c2.3096-1.8076,3.2804-4.3516,6.293-4.3516c1.2385,0,1.7072,0.8369,2.9122,0.9707 c4.3516,0.7029,6.7951,0.3682,11.1467,0.9707c0-3.7825-1.4393-7.0294,0.9708-9.7073c0.8368-0.9707,2.41-0.8369,3.8829-0.9707 c3.0126-0.2343,4.9541,0,7.7324-0.9707c2.4101-0.8368,3.3808-2.8787,5.8243-3.8495c4.1172-1.7072,7.2638-0.3682,11.6154-1.4728 c3.2804-0.7029,4.7197-2.6444,7.2637-4.8202c2.7783-2.3097,4.3516-3.7825,6.293-6.7951 c8.0001,3.9833,13.5568,2.7783,21.7913,5.8244c8.3683,3.0126,11.8495,7.9667,19.3812,12.586 c3.749,2.3097,6.8955,3.0126,9.2052,6.7617c1.2051,1.9414,0.1005,3.749,0.9373,5.8244c0.9707,2.1758,3.046,2.6444,5.3557,3.3808 c3.8495,1.205,6.2931,2.1758,9.6738,4.3516c2.1758,1.4728,3.749,2.3097,5.8245,3.8829c1.3054,0.9707,3.3807,1.5732,3.4812,3.5147 c-1.3724,2.1088-2.4771,4.4185-4.4519,8.1006c-2.1758,4.0168-6.7952,5.088-6.7952,9.7073 c0,13.1886-0.5356,12.9543,7.2638,19.3477c2.9121,2.4101,2.0419,5.9583,2.9121,9.7073c0.703,3.1465,2.9122,4.4855,2.9122,7.7324 c0,6.4269-2.0419,10.4437-5.8243,15.4982c-3.6152,4.8537-7.7324,7.4981-7.7324,13.5568c0,2.3097,0.9373,3.6486,1.4393,5.8244 c0.8369,3.6151,0.9707,5.9248,0.9707,9.6738c0,4.6194-1.6736,7.1633-2.41,11.6153c-0.7365,4.3851-0.1339,7.2638-0.9707,11.6488 c-4.3181,22.2599-20.8206,47.298-20.8206,69.7253c0,7.632,2.8787,11.7492,2.8787,19.3477c0,6.8621-6.6277,21.0214-9.6738,27.147 c-1.5732,3.1465-2.6779,4.954-5.3223,7.2637c-2.6779,2.2762-5.1884,3.0126-6.7951,6.293 c-3.113,6.4269-3.3808,10.7784-5.7909,17.4062c-1.5732,4.3851-3.8829,6.929-3.8829,11.6488c0,2.4101,1.205,4.0837,1.9415,6.293 c0.7364,2.3096,1.4393,3.6151,2.4101,5.7909c0.8703,1.9415,1.205,3.5482,1.3724,5.3558c0.067,1.0377,0.1005,2.1423,0.1005,3.3808 c0,4.2177,3.2804,10.8789-0.9708,10.8789c-17.2054,0-8.7031,0.569-7.2637,13.3224c0.569,5.3223,1.7741,8.2345,2.4101,13.5568 c1.1716,9.8077,2.9122,15.2639,2.9122,25.0717c0,3.2469,0,6.5273,0,9.8077c0,2.0419-8.837,0.1004-11.1467,0.9707 c-1.4393,0.5021-3.3808,0.8369-3.3808,2.4101c0,3.2805,2.4101,4.6194,2.9122,7.7659c0.4686,2.8787,1.4394,4.8202,1.9415,7.7324 c0.6025,3.6486-0.569,6.1592,0.4686,9.6739c0.5356,1.8076,2.3766,2.0753,2.9122,3.8829c1.4059,4.7532,2.9122,7.632,2.9122,12.586 c0,2.7783-0.636,4.7198-2.4436,6.7951c-1.1046,1.3055-3.8494,1.4394-3.8494,3.3809c0,2.4101,1.908,3.3808,1.908,5.8244 c0,6.1591-5.8579,8.201-7.7324,14.0254c-0.9037,2.7783,0,4.8536-0.5021,7.7659c-0.3682,2.2762-1.272,3.5147-1.908,5.7909 c-1.6736,5.8244-2.9122,9.5734-7.2637,13.5568c-1.205,1.1046-2.0419,2.3431-3.4143,3.4143 c-2.7448,2.1758-6.293,3.1465-6.293,6.7617c0,1.205,0.7029,1.841,0.9708,2.9122c0.9373,3.6486,1.4728,5.9248,1.4728,9.6738 c0,3.0461-0.2009,4.8202-0.9708,7.7659c-0.569,2.0419-1.2385,4.3516-3.4143,4.3516c-6.4938,0-9.8077-1.5398-17.4062,0.4686 c-2.3097,0.636-4.2177,0.8703-5.3558,2.9122c-2.9791,5.4562,0.9708,11.381-3.3808,16.0004 c-1.5733,1.6736-3.6152,1.4393-5.791,2.4101c-3.0461,1.3389-4.1507,3.7156-7.2637,4.8536 c-7.0629,2.5105-12.3517,4.7532-16.9711,10.6446c-1.9749,2.5105-2.8787,4.5859-3.3808,7.7324 c-0.5691,3.6486,0.7364,6.4269-0.9708,9.7073c-1.5732,3.0126-4.7197,3.8494-8.2345,3.8494c-4.2177,0-6.7616-0.5021-10.6445-1.908 c-3.0126-1.1381-4.4855-3.4143-7.7659-3.4143c-3.1465,0-5.4227,0.2678-7.7324,2.4435c-1.2051,1.1046-1.339,2.7783-2.4436,3.8495 c-1.0711,1.1046-2.4101,1.7072-3.8494,2.4435c-2.1758,1.0712-4.1172,1.6737-5.8244,3.3809 c-1.6736,1.7071-1.9415,3.5147-2.9122,5.8243c-1.1047,2.6444-2.9792,3.749-4.8202,5.791 c-2.6444,2.9457-5.3223,4.1507-9.2052,4.8536c-2.1758,0.4017-4.0168-0.3682-5.8244,0.9707 c-2.9122,2.1423-3.0126,5.088-5.3223,7.7324c-3.0126,3.5147-7.7324,4.4854-7.7324,9.2052c0,2.0753,1.8076,2.6779,2.8787,4.3516 c1.5732,2.4436,1.9415,4.7197,1.9415,7.7659c0,5.3223-1.5732,8.3348-2.4101,13.5568c-0.4686,2.9122-0.1004,4.9541-0.9707,7.7324 c-1.0712,3.4142-3.0461,5.0879-5.3223,7.7657c-4.385,5.088-7.7659,9.674-14.5275,9.674c-4.6194,0-7.1299-1.7072-11.6154-2.4102 c-7.1633-1.1046-12.017-3.749-16.0003-9.6738c-3.3808-5.088-9.54-2.7113-15.4982-3.8829 c-6.8956-1.3724-9.3057-7.7659-16.469-7.7659c-3.6151,0-6.1926,1.0712-8.7031,3.4143c-1.9415,1.774-1.9415,4.4855-4.3516,5.7909 c-2.0419,1.1046-3.5147,1.6737-5.8244,2.4436c-3.6151,1.1715-5.9248,1.6737-9.6738,2.41 c-4.3516,0.8369-9.0714,0.7365-10.6446,4.8538c-1.3389,3.3807,0.3347,5.9248,0,9.6738 C711.1961,1086.574,710.9618,1088.7498,709.0203,1090.323z"/></defs><clipPath id="SVGID_2_"><use overflow="visible" xlink:href="#SVGID_1_"/></clipPath><g clip-path="url(#SVGID_2_)"><g><rect width="2996.31" height="549.323" x="-1169.31" y="587.747" fill="#0038A8"/><rect width="2996.31" height="549.323" x="-1169.31" y="38.423" fill="#FFF"/><rect width="2996.31" height="549.323" x="-1169.31" y="-510.9" fill="#D52B1E"/></g><g id="g10"><g id="g12"><circle id="circle14" cx="328.845" cy="313.085" r="210.74" fill="none" stroke="#000" stroke-width="5.373"/><circle id="circle16" cx="328.845" cy="313.085" r="173.137" fill="none" stroke="#000" stroke-width="2.388"/><circle id="circle18" cx="328.845" cy="313.085" r="132.637" fill="none" stroke="#000" stroke-width="2.188"/></g><g id="g20"><path id="path22" d="M216.6332,394.3849l-24.4334,14.5091l-7.4723-12.5836c-1.3855-2.3333-2.2446-4.2354-2.5769-5.7065 c-0.3326-1.4708-0.1812-2.9057,0.4534-4.3046c0.6346-1.3988,1.7297-2.5602,3.2853-3.4839 c1.3556-0.8049,2.6966-1.2104,4.0229-1.2167c1.3265-0.005,2.5955,0.3151,3.807,0.9631 c0.7716,0.4135,1.6183,1.1055,2.5402,2.076c-0.2342-1.0781-0.3235-1.9118-0.2676-2.5011 c0.0349-0.3965,0.2237-1.0533,0.5659-1.9704c0.3421-0.917,0.6382-1.57,0.8882-1.959l4.9158-7.8563l5.0673,8.5335l-5.0717,8.467 c-0.6631,1.0852-1.0203,1.9135-1.0717,2.485c-0.0544,0.7688,0.1228,1.4976,0.5319,2.1865l0.3961,0.6667l9.9168-5.8887 L216.6332,394.3849z M197.5966,395.4317l-1.8904-3.1833c-0.2047-0.3446-0.7114-0.9451-1.521-1.8021 c-0.397-0.4404-0.8949-0.6971-1.4941-0.7698c-0.5991-0.0724-1.1654,0.0499-1.6987,0.3665 c-0.7888,0.4684-1.246,1.078-1.3713,1.8287c-0.1253,0.7507,0.2213,1.8149,1.0392,3.1927l1.9695,3.3167L197.5966,395.4317z"/><path id="path24" d="M174.5849,376.5569l-7.4263-22.329l5.7569-1.9147l4.6491,13.9788l4.2856-1.4253l-4.3126-12.967 l5.4997-1.829l4.3126,12.9671l5.3154-1.7679l-4.7835-14.3833l6.1065-2.0309l7.5607,22.734L174.5849,376.5569z"/><path id="path26" d="M164.847,343.3477l-1.6595-14.5011c-0.3615-3.1583,0.1189-5.6096,1.4411-7.3544 c1.3222-1.7446,3.3699-2.7756,6.1429-3.093c2.8502-0.3261,5.1757,0.2761,6.9769,1.8062 c1.8009,1.5303,2.9028,4.0544,3.3053,7.5721l0.5465,4.776l10.4761-1.1989l1.0028,8.7622L164.847,343.3477z M175.8804,333.2082 l-0.2448-2.1376c-0.1923-1.6818-0.6198-2.8296-1.2818-3.4432c-0.662-0.6136-1.4487-0.8682-2.3604-0.764 c-0.8859,0.1013-1.6031,0.4829-2.1517,1.1438c-0.5486,0.6611-0.7297,1.8069-0.5432,3.4374l0.2841,2.4843L175.8804,333.2082z"/><path id="path28" d="M163.9481,290.0134l0.9394-8.7107l16.8437,1.8164c1.6703,0.1803,3.2193,0.6104,4.6471,1.2907 c1.4278,0.6804,2.6374,1.6362,3.629,2.8673s1.6462,2.4814,1.9643,3.7503c0.4464,1.7638,0.5418,3.8342,0.2856,6.2108 c-0.1483,1.3747-0.4064,2.8643-0.7744,4.4688c-0.368,1.6045-0.8967,2.922-1.5862,3.9523 c-0.6895,1.0305-1.6098,1.9417-2.761,2.7339s-2.3037,1.295-3.4575,1.5085c-1.8568,0.3456-3.4791,0.4435-4.8667,0.2941 l-16.8437-1.8165l0.9394-8.7107l17.2482,1.8601c1.5417,0.1663,2.7923-0.1308,3.7516-0.8919 c0.9594-0.7609,1.5208-1.8993,1.6843-3.4154c0.1623-1.5031-0.1378-2.728-0.9002-3.6746 c-0.7622-0.9466-1.9271-1.5043-3.4945-1.6734L163.9481,290.0134z"/><path id="path30" d="M167.7433,269.1891l5.4238-15.5169c0.9039-2.5861,2.2383-4.3475,4.0031-5.2845 c1.7648-0.9368,3.5927-1.0748,5.4832-0.414c1.5859,0.5543,2.7732,1.5238,3.5623,2.9084 c0.5261,0.9231,0.787,2.0957,0.7827,3.5179c1.1372-1.7653,2.429-2.9052,3.8749-3.4196c1.446-0.5143,3.023-0.4729,4.7308,0.1238 c1.3906,0.4859,2.528,1.2465,3.4121,2.281c0.8841,1.0347,1.4533,2.226,1.7075,3.5742 c0.1593,0.8361,0.0853,1.9875-0.2218,3.4542c-0.4084,1.9517-0.7192,3.2325-0.9324,3.8424l-5.0018,14.3089L167.7433,269.1891z M181.1878,264.5046l1.2601-3.6047c0.452-1.293,0.5438-2.2705,0.2757-2.9324c-0.2682-0.6618-0.8233-1.1399-1.665-1.4341 c-0.7807-0.2726-1.4792-0.2327-2.0952,0.1198s-1.1438,1.1574-1.583,2.4138l-1.2793,3.6596L181.1878,264.5046z M191.7273,268.1887l1.4775-4.2268c0.499-1.4272,0.5976-2.5221,0.2961-3.2846c-0.3016-0.7625-0.8793-1.2929-1.7332-1.5914 c-0.7929-0.2771-1.5315-0.2102-2.2159,0.2008c-0.6844,0.411-1.2803,1.3423-1.7877,2.794l-1.4711,4.2085L191.7273,268.1887z"/><path id="path32" d="M181.1768,235.0311l4.5368-7.5178l18.3385,11.0668l7.0808-11.7331l5.9912,3.6155l-11.6176,19.2513 L181.1768,235.0311z"/><path id="path34" d="M198.3557,209.0132l5.6341-6.7602l21.829,18.1926l-5.6341,6.7602L198.3557,209.0132z"/><path id="path36" d="M236.5586,194.3312l7.3524-3.2511c1.0144,1.9736,1.5719,3.8715,1.6721,5.6935 c0.1004,1.822-0.2342,3.5493-1.0039,5.1816c-0.7696,1.6324-2.1197,3.2782-4.0505,4.9373 c-2.3424,2.0129-4.5488,3.3167-6.6189,3.9113c-2.0702,0.5947-4.3812,0.4979-6.9334-0.2912 c-2.5519-0.7887-4.9776-2.5209-7.2765-5.1966c-3.0655-3.5675-4.4734-7.1243-4.2233-10.6698 c0.2502-3.5457,2.1098-6.8091,5.5791-9.7904c2.7148-2.3328,5.3204-3.6178,7.8174-3.855 c2.4968-0.2372,5.0992,0.457,7.8079,2.0823l-4.7563,6.3616c-0.7701-0.4799-1.3984-0.7747-1.8849-0.8849 c-0.8103-0.1897-1.6029-0.1897-2.3779-0.0012c-0.7748,0.1888-1.4955,0.5695-2.1619,1.1422 c-1.5094,1.297-2.1437,2.8984-1.9032,4.8043c0.1673,1.4239,1.0802,3.1013,2.7394,5.0318 c2.055,2.3915,3.8262,3.7191,5.3134,3.9828c1.4874,0.2636,2.8878-0.1688,4.2012-1.2972 c1.2741-1.0948,1.9297-2.2801,1.9667-3.5556c0.0349-1.2755-0.383-2.7208-1.2594-4.3358L236.5586,194.3312z"/><path id="path38" d="M266.8213,183.4446l-8.8261,4.7055l0.9924,4.7867l-7.9192,4.2222l-3.944-30.1l8.4495-4.5049 l22.7934,20.0508l-8.1075,4.3224L266.8213,183.4446z M262.3057,178.8888l-7.5767-7.5367l2.0519,10.4821L262.3057,178.8888z"/><path id="path40" d="M289.1438,149.7861l12.8546-2.2202c2.534-0.4375,4.6404-0.4474,6.3193-0.03 c1.6787,0.4185,3.1384,1.1825,4.3792,2.2926c1.2408,1.1102,2.2379,2.4789,2.9908,4.106 c0.7532,1.6272,1.2946,3.3958,1.6246,5.306c0.5168,2.9925,0.577,5.3719,0.1808,7.1387 c-0.3965,1.7667-1.1034,3.3117-2.1207,4.6347c-1.0173,1.3231-2.188,2.2892-3.5122,2.8982 c-1.8094,0.8371-3.4845,1.3887-5.0252,1.6548l-12.8547,2.2202L289.1438,149.7861z M298.8918,154.6332l2.6425,15.2997 l2.1202-0.3661c1.8082-0.3121,3.0598-0.735,3.7544-1.2681s1.1722-1.3368,1.4326-2.4112 c0.2601-1.0743,0.1967-2.7321-0.1902-4.9734c-0.5125-2.967-1.347-4.9145-2.5041-5.8423 c-1.1569-0.928-2.856-1.1984-5.0972-0.8114L298.8918,154.6332z"/><path id="path42" d="M325.6489,144.8922l23.51,1.0052l-0.2592,6.0616l-14.7179-0.6293l-0.1928,4.5123l13.6532,0.5838 l-0.2477,5.7904l-13.6532-0.5838l-0.2393,5.5966l15.1443,0.6475l-0.2746,6.4296l-23.9366-1.0235L325.6489,144.8922z"/><path id="path44" d="M359.8568,147.5888l8.5289,2.0875l-5.0923,20.8049l13.3111,3.258l-1.6636,6.7966l-21.8401-5.3454 L359.8568,147.5888z"/><path id="path46" d="M405.4506,162.7202l12.5645,7.4274c2.7365,1.6177,4.4013,3.4801,4.9949,5.5871 c0.5933,2.1071,0.1798,4.362-1.2407,6.7647c-1.4598,2.4696-3.3434,3.9607-5.6505,4.4733 c-2.307,0.5126-4.9846-0.1318-8.0326-1.9338l-4.1381-2.4462l-5.3659,9.0773l-7.5921-4.4881L405.4506,162.7202z M406.8779,177.6373l1.8521,1.0949c1.4572,0.8615,2.6303,1.2133,3.5191,1.0558c0.8888-0.1578,1.5667-0.6313,2.0335-1.4211 c0.454-0.7676,0.5825-1.5696,0.3865-2.406c-0.1963-0.8364-1.0005-1.6722-2.4132-2.5074l-2.1525-1.2725L406.8779,177.6373z"/><path id="path48" d="M431.5185,210.761l-7.324-6.8116l-4.2023,2.4977l-6.5719-6.112l27.1731-13.5344l7.0119,6.521 l-11.5314,28.0819l-6.7277-6.2573L431.5185,210.761z M434.3547,205.0076l4.6573-9.6187l-9.2422,5.3549L434.3547,205.0076z"/><path id="path50" d="M437.7608,223.8948l23.4311-16.0772l8.2798,12.0671c1.5353,2.2376,2.5169,4.0795,2.9448,5.5252 c0.4279,1.446,0.3711,2.8877-0.1708,4.325c-0.5418,1.4374-1.5586,2.6678-3.0503,3.6914 c-1.3,0.8919-2.6115,1.3844-3.9347,1.4774c-1.3233,0.0929-2.6105-0.1443-3.8618-0.7119 c-0.797-0.362-1.6872-0.9972-2.6707-1.9052c0.3047,1.0605,0.4479,1.8866,0.431,2.4782 c-0.0101,0.398-0.1544,1.0657-0.4354,2.0031c-0.2816,0.9375-0.5341,1.6084-0.758,2.0129l-4.3911,8.1609l-5.615-8.1834 l4.5065-8.7812c0.5907-1.1262,0.8931-1.9762,0.9068-2.5499c0.0041-0.7707-0.2207-1.4863-0.6738-2.1469l-0.4384-0.6393 l-9.5098,6.5249L437.7608,223.8948z M456.688,221.6043l2.0946,3.0528c0.2268,0.3301,0.7718,0.8965,1.6357,1.6986 c0.425,0.4135,0.9386,0.6371,1.5412,0.6703c0.6026,0.035,1.1596-0.1259,1.6711-0.4764 c0.7565-0.5191,1.1727-1.1573,1.2486-1.9146c0.0759-0.7574-0.3395-1.7966-1.246-3.1179l-2.1824-3.1807L456.688,221.6043z"/><path id="path52" d="M465.4767,264.1452l-3.7068-9.2895l-4.8669,0.4604l-3.3261-8.3358l30.3511-0.6118l3.549,8.8935 l-22.4344,20.4513l-3.4052-8.5335L465.4767,264.1452z M470.5014,260.1577l8.3238-6.7022l-10.6444,0.8874L470.5014,260.1577z"/><path id="path54" d="M477.9114,291.2119l5.8468-0.8749l2.0079,13.419l-11.9812,1.7928 c-2.1353-2.3069-3.6669-4.4002-4.5949-6.2802c-0.9281-1.8799-1.5949-4.1746-2.0002-6.884 c-0.499-3.3356-0.3371-6.1394,0.4858-8.4121c0.8228-2.2725,2.2724-4.1554,4.3486-5.6486 c2.0761-1.4932,4.5712-2.4578,7.4853-2.8938c3.0672-0.4589,5.8297-0.2257,8.2878,0.7003 c2.4578,0.9258,4.4571,2.5212,5.9982,4.7863c1.1924,1.7685,2.0294,4.263,2.5114,7.4838 c0.4644,3.1056,0.5311,5.4702,0.1992,7.0948c-0.3321,1.6241-1.013,3.0326-2.0431,4.2255 c-1.0302,1.1929-2.4143,2.1807-4.1527,2.9635l-2.7487-8.1535c1.009-0.5038,1.7331-1.21,2.1721-2.1184 c0.4389-0.9084,0.5628-2.0017,0.3716-3.2797c-0.2852-1.9042-1.1733-3.3229-2.6653-4.256 c-1.492-0.9331-3.6693-1.1855-6.532-0.7572c-3.0416,0.4549-5.1287,1.3522-6.2614,2.691 c-1.1323,1.3389-1.5457,3.0307-1.2396,5.0758c0.1454,0.9713,0.4244,1.8768,0.8377,2.7166 c0.413,0.8397,1.0435,1.7777,1.891,2.8138l2.6455-0.396L477.9114,291.2119z"/><path id="path56" d="M496.4886,332.4612l-0.7778,8.7267l-16.8742-1.5041c-1.6734-0.1494-3.23-0.5506-4.6702-1.2044 c-1.4402-0.6539-2.6673-1.587-3.6815-2.7996c-1.0141-1.2126-1.692-2.4504-2.0335-3.7133 c-0.4795-1.7553-0.6128-3.8235-0.4005-6.2048c0.1228-1.3772,0.3531-2.8714,0.6914-4.4824 c0.338-1.611,0.8425-2.938,1.5127-3.9811c0.6703-1.043,1.5737-1.9711,2.71-2.7845c1.1363-0.8134,2.2793-1.3375,3.429-1.5723 c1.8502-0.38,3.4703-0.508,4.8604-0.384l16.8742,1.5041l-0.7778,8.7267l-17.2798-1.5402 c-1.5446-0.1378-2.7894,0.1828-3.7346,0.9612c-0.9452,0.7785-1.4854,1.9272-1.6208,3.446 c-0.1343,1.5059,0.1888,2.7251,0.9682,3.6573c0.7797,0.9322,1.9547,1.4683,3.525,1.6084L496.4886,332.4612z"/><path id="path58" d="M465.0772,362.5241l3.1242-9.5013l-4.0263-2.7726l2.8033-8.5255l23.6583,19.0221l-2.991,9.0963 l-30.3307,1.27l2.8698-8.7283L465.0772,362.5241z M471.4893,362.6938l10.6848,0.2077l-8.7292-6.1555L471.4893,362.6938z"/><path id="path60" d="M481.6568,385.7954l-5.0123,8.3627l-11.1792-0.01l5.2805,9.8539l-4.9824,8.3133l-8.4855-17.9669 l-10.2084-6.1185l4.524-7.5482l10.2084,6.1185L481.6568,385.7954z"/></g><g id="g62"><path id="path64" fill="#009B3A" stroke="#000" stroke-width=".499" d="M356.7106,214.7062 c0,0,80.1613,34.5369,66.1635,105.9046s-58.6277,70.8877-76.1262,78.778c-17.5,7.8868-29.5727,19.1744-36.4781,17.5958 c-6.9049-1.5787-16.0322-6.9075-16.0322-6.9075s-0.7304,11.7211,13.3256,13.8539c14.056,2.1328,32.5324-18.4982,41.407-20.7924 c8.8746-2.2939,63.3619-8.2079,76.6206-80.8254c15.4724-77.5146-68.3807-105.3303-68.8751-107.6075L356.7106,214.7062z"/><path id="path66" fill="#009B3A" stroke="#000" stroke-width=".499" d="M397.1608,229.8874 c1.4897,5.8848,1.5074,10.7132,0.039,10.7845c-1.4537,0.0706-3.8233-4.5535-5.3185-10.3795 c-1.5098-5.8833-1.5604-10.7762-0.1128-10.9285c1.4475-0.1524,3.8449,4.4934,5.3549,10.3767 C397.136,229.7895,397.1485,229.8385,397.1608,229.8874z"/><path id="path68" fill="#009B3A" stroke="#000" stroke-width=".499" d="M394.4143,230.6366 c2.7848,5.608,3.9848,10.5709,2.6804,11.0846c-1.3044,0.5138-4.6194-3.616-7.4042-9.224 c-0.0189-0.0381-0.0378-0.0762-0.0565-0.1143c-2.7699-5.6135-3.9327-10.5295-2.5969-10.9803 C388.3622,220.9556,391.6516,225.073,394.4143,230.6366z"/><path id="path70" fill="#009B3A" stroke="#000" stroke-width=".499" d="M386.3741,235.93 c5.683,1.6763,10.1393,4.2383,9.9534,5.7225c-0.1836,1.4668-4.8361,1.3345-10.4543-0.2972 c-5.683-1.6762-10.1393-4.2383-9.9536-5.7225C376.1034,234.1661,380.7559,234.2984,386.3741,235.93z"/><path id="path72" fill="#009B3A" stroke="#000" stroke-width=".499" d="M387.5727,232.9837 c5.1792,3.4669,8.8767,7.3111,8.2589,8.5862c-0.618,1.2752-5.3172-0.5015-10.4964-3.9684 c-0.0227-0.0152-0.0454-0.0303-0.068-0.0456c-5.1792-3.4669-8.8767-7.3111-8.2589-8.5863s5.3174,0.5016,10.4964,3.9685 C387.5273,232.9533,387.55,232.9684,387.5727,232.9837z"/><path id="path74" fill="#009B3A" stroke="#000" stroke-width=".499" d="M390.9685,231.5853 c4.3989,4.5662,7.1933,9.0789,6.2417,10.0794c-0.9518,1.0004-5.2892-1.8902-9.6879-6.4564 c-0.0148-0.0152-0.0294-0.0305-0.0441-0.0457c-4.3935-4.5718-7.1638-9.0683-6.1877-10.0433 C382.2628,224.148,386.587,227.0372,390.9685,231.5853z"/><path id="path76" fill="#009B3A" stroke="#000" stroke-width=".499" d="M396.5616,241.6729 c0.045,0.0499-3.0927,1.7435-3.8032,1.9965c-0.7106,0.2527-1.674-0.9465-3.7177,0.1023 c-2.0437,1.0489-3.4465,2.9621-3.8928,4.0849c-0.4459,1.1227,0.579,1.5933,3.0491,0.3925 c2.4701-1.2006,3.1203-3.1029,4.3112-3.8482c1.1909-0.7452,3.1885-1.842,4.3256-2.2467 c0.4924-1.0749,2.0911-3.3792,2.9175-4.7016c0.8265-1.3224,4.0691-3.505,5.2496-6.046 c1.0304-2.102,0.6434-3.8921-0.7356-3.1441c-1.3792,0.748-3.1623,2.8609-3.9926,4.3775 c-0.8304,1.5167-0.1173,3.4477-1.0397,4.8687c-0.7265,1.0298-2.4834,4.1614-2.6714,4.1642L396.5616,241.6729z"/><path id="path78" fill="#009B3A" stroke="#000" stroke-width=".499" d="M421.381,249.8628 c0.1285,9.0984-1.4341,16.075-3.4901,15.5827c-2.0562-0.4923-3.8272-8.2671-3.9557-17.3655 c-0.1285-9.0984,1.4341-16.075,3.4903-15.5827C419.4815,232.9897,421.2525,240.7645,421.381,249.8628L421.381,249.8628z"/><path id="path80" fill="#009B3A" stroke="#000" stroke-width=".499" d="M417.2362,249.713 c1.9941,9.2785,2.0039,16.9034,0.0219,17.0307c-1.982,0.1273-5.2051-7.2913-7.1992-16.5698 c-0.0072-0.0331-0.0142-0.0662-0.0213-0.0994c-1.9941-9.2785-2.0039-16.9035-0.0219-17.0308 c1.982-0.1274,5.2051,7.291,7.1992,16.5696C417.2219,249.6466,417.2292,249.6797,417.2362,249.713z"/><path id="path82" fill="#009B3A" stroke="#000" stroke-width=".499" d="M404.4019,253.7081 c7.3259,4.9106,12.7516,10.6106,12.119,12.7314c-0.6329,2.1206-7.0848-0.1412-14.4106-5.0519 c-0.0663-0.0444-0.1324-0.089-0.1987-0.1337c-7.3259-4.9107-12.7518-10.6106-12.1189-12.7313 c0.6328-2.1206,7.0846,0.1412,14.4105,5.0518C404.2695,253.6189,404.3358,253.6635,404.4019,253.7081z"/><path id="path84" fill="#009B3A" stroke="#000" stroke-width=".499" d="M406.9987,250.0626 c6.0111,7.2982,9.7987,14.411,8.46,15.8872c-1.3265,1.4626-7.1943-3.159-13.1671-10.371 c-6.0279-7.2784-9.8922-14.4516-8.6313-16.0221c1.261-1.5703,7.1697,3.057,13.1975,10.3354 C406.9048,249.9488,406.9518,250.0057,406.9987,250.0626z"/><path id="path86" fill="#009B3A" stroke="#000" stroke-width=".499" d="M412.1924,249.5632 c4.5784,8.509,6.9501,16.2177,5.2974,17.2179c-1.6528,1.0003-6.7042-5.0866-11.2826-13.5956 c-0.011-0.0203-0.0219-0.0408-0.0329-0.0612c-4.5786-8.5089-6.9507-16.218-5.2982-17.2189 c1.6525-1.0009,6.7038,5.0857,11.2823,13.5945C412.1696,249.521,412.1809,249.542,412.1924,249.5632z"/><path id="path88" fill="#009B3A" stroke="#000" stroke-width=".499" d="M416.587,266.4924 c0.05,0.0889-4.8602,1.1129-5.9282,1.1573c-1.0679,0.045-2.0047-2.1046-5.1827-1.5171 c-3.1777,0.5875-5.7539,2.6997-6.7437,4.108c-0.9897,1.4084,0.2742,2.541,4.0926,1.927 c3.8184-0.6141,5.3489-3.0475,7.2451-3.5819c1.896-0.5343,5.0258-1.2111,6.7347-1.282 c1.0375-1.3191,4.015-3.9037,5.5977-5.4278c1.5825-1.524,6.7961-3.1987,9.272-6.3092c2.1231-2.5492,2.1801-5.286,0.025-4.8321 c-2.1577,0.4539-5.327,2.682-6.9789,4.4824c-1.6523,1.8005-1.304,4.8853-3.0523,6.5075 c-1.3471,1.1497-4.8172,4.8486-5.0787,4.7683L416.587,266.4924z"/><path id="path90" fill="#009B3A" stroke="#000" stroke-width=".499" d="M434.415,283.1219 c-1.5156,9.0105-4.3013,15.6007-6.2222,14.7195c-1.9208-0.8812-2.2494-8.9-0.7338-17.9105l0,0 c1.5156-9.0105,4.3015-15.6006,6.2224-14.7195C435.6021,266.0926,435.9307,274.1114,434.415,283.1219z"/><path id="path92" fill="#009B3A" stroke="#000" stroke-width=".499" d="M430.4699,282.1231 c0.283,9.5476-1.0758,17.1111-3.0349,16.8932c-1.9591-0.2178-3.7766-8.1342-4.0598-17.6819 c-0.0021-0.079-0.0044-0.158-0.0066-0.2371c-0.2828-9.5476,1.0758-17.111,3.0349-16.8932s3.7766,8.1343,4.0596,17.6819 C430.4655,281.9652,430.4677,282.0441,430.4699,282.1231z"/><path id="path94" fill="#009B3A" stroke="#000" stroke-width=".499" d="M417.1862,283.6213 c6.2672,6.272,10.4979,12.9178,9.4499,14.8437c-1.048,1.926-6.9782-1.5972-13.2454-7.8693l0,0 c-6.2672-6.272-10.4981-12.9179-9.4499-14.8438C404.9889,273.8261,410.919,277.3492,417.1862,283.6213z"/><path id="path96" fill="#009B3A" stroke="#000" stroke-width=".499" d="M420.3822,280.5251 c4.5689,8.355,7.0201,16.1453,5.4748,17.4c-1.5453,1.2549-6.5019-4.5008-11.071-12.8559 c-4.5689-8.3549-7.0201-16.1452-5.4748-17.4001C410.8564,266.4142,415.8131,272.1701,420.3822,280.5251 C420.3822,280.5251,420.3822,280.5251,420.3822,280.5251z"/><path id="path98" fill="#009B3A" stroke="#000" stroke-width=".499" d="M425.476,281.0245 c2.9526,9.2785,3.9065,17.3957,2.1309,18.1302c-1.7756,0.7344-5.6083-6.1919-8.5608-15.4704 c-0.0317-0.0994-0.0633-0.1989-0.0945-0.2986c-2.9525-9.2785-3.9066-17.3957-2.131-18.1303 c1.7755-0.7347,5.6083,6.1914,8.5608,15.47C425.4132,280.825,425.4446,280.9247,425.476,281.0245z"/><path id="path100" fill="#009B3A" stroke="#000" stroke-width=".499" d="M426.7743,298.5529 c0.03,0.0974-4.9514,0.1658-6.0031,0.0033c-1.0519-0.1613-1.5798-2.4637-4.7918-2.4938 c-3.2118-0.0299-6.1109,1.5611-7.3324,2.7619c-1.2213,1.2008-0.1902,2.5623,3.6526,2.6892 c3.8429,0.1273,5.778-1.9824,7.7274-2.146c1.9496-0.1633,5.1307-0.2307,6.8137,0.025c1.2521-1.1035,4.6285-3.0843,6.45-4.2856 c1.8216-1.2013,7.2196-1.8538,10.2009-4.4505c2.535-2.1098,3.0844-4.8021,0.8937-4.7681 c-2.1909,0.035-5.6905,1.6257-7.6301,3.0866c-1.9398,1.4608-2.1559,4.5744-4.1572,5.8408 c-1.524,0.8767-5.5832,3.8634-5.8243,3.7338"/><path id="path102" fill="#009B3A" stroke="#000" stroke-width=".499" d="M435.4137,320.1762 c-4.8707,7.729-9.9514,12.6885-11.3483,11.0772c-1.3968-1.6112,1.4193-9.183,6.29-16.912l0,0 c4.8707-7.7291,9.9514-12.6884,11.3482-11.0773C443.1005,304.8754,440.2844,312.4473,435.4137,320.1762"/><path id="path104" fill="#009B3A" stroke="#000" stroke-width=".499" d="M432.1678,317.6294 c-3.4625,8.9637-7.6194,15.3601-9.2847,14.2867c-1.6653-1.0734-0.2085-9.21,3.254-18.1737l0,0 c3.4626-8.9637,7.6194-15.3601,9.2847-14.2867C437.0871,300.5291,435.6301,308.6657,432.1678,317.6294"/><path id="path106" fill="#009B3A" stroke="#000" stroke-width=".499" d="M419.5833,313.5344 c3.2383,8.4069,4.488,16.3185,2.7915,17.6712c-1.6967,1.3526-5.6972-4.3661-8.9354-12.773l0,0 c-3.2384-8.407-4.488-16.3186-2.7915-17.6712C412.3446,299.4089,416.345,305.1275,419.5833,313.5344"/><path id="path108" fill="#009B3A" stroke="#000" stroke-width=".499" d="M423.6782,311.9863 c0.8828,9.6388,0.0658,17.8385-1.8249,18.3147c-1.8773,0.4727-4.1099-6.8495-5.0053-16.4144 c-0.9017-9.6335-0.1074-17.9077,1.7741-18.481s4.138,6.7713,5.0397,16.4047 C423.6673,311.869,423.6728,311.9277,423.6782,311.9863"/><path id="path110" fill="#009B3A" stroke="#000" stroke-width=".499" d="M428.1227,314.5832 c-0.9466,9.8239-3.2414,17.674-5.1257,17.5337s-2.6443-8.2178-1.6979-18.0417l0,0c0.9464-9.8239,3.2412-17.674,5.1255-17.5337 C428.309,296.6818,429.0693,304.7593,428.1227,314.5832L428.1227,314.5832"/><path id="path112" fill="#009B3A" stroke="#000" stroke-width=".499" d="M422.4797,331.3625 c-0.0101,0.1029-4.5467-1.8935-5.4363-2.4779c-0.8896-0.5845-0.4734-2.9377-3.3696-4.2936 c-2.8961-1.3558-6.1384-1.0789-7.7105-0.4704c-1.572,0.6086-1.1672,2.2973,2.2625,4.0038 c3.4296,1.7066,6.0002,0.5504,7.8288,1.2048c1.8285,0.6544,4.7345,1.9073,6.1579,2.8425 c1.562-0.5056,5.3878-0.9464,7.5033-1.3073c2.1155-0.3606,7.2556,1.2657,10.9631,0.0904 c3.1141-0.9084,4.6569-3.1778,2.6603-4.052c-1.9966-0.8742-5.7828-0.8451-8.106-0.2926 c-2.3232,0.5527-3.7277,3.3505-6.0311,3.6974c-1.7202,0.1828-6.5544,1.2743-6.7222,1.0545"/><path id="path114" fill="#009B3A" stroke="#000" stroke-width=".499" d="M425.426,357.7799 c-7.9016,6.7692-15.1242,10.4053-16.1322,8.1216c-1.008-2.2839,4.5805-9.6226,12.482-16.3918 c7.9017-6.7692,15.1242-10.4053,16.1322-8.1216C438.916,343.6719,433.3277,351.0107,425.426,357.7799L425.426,357.7799"/><path id="path116" fill="#009B3A" stroke="#000" stroke-width=".499" d="M422.6795,353.8348 c-6.7574,8.6416-13.4353,14.1981-14.9157,12.4109c-1.4804-1.7871,2.7976-10.2413,9.5549-18.8829 c6.7574-8.6415,13.4355-14.1981,14.9157-12.4109C433.7146,336.739,429.4369,345.1933,422.6795,353.8348L422.6795,353.8348"/><path id="path118" fill="#009B3A" stroke="#000" stroke-width=".499" d="M410.1949,344.746 c0.8102,10.4475-0.4049,19.6612-2.7141,20.5791c-2.309,0.9181-4.8376-6.8073-5.6479-17.2548 c-0.0035-0.0467-0.0072-0.0935-0.0107-0.1403c-0.8102-10.4476,0.4049-19.6611,2.7139-20.5791 c2.3092-0.918,4.838,6.8073,5.6479,17.2548C410.1877,344.6524,410.1912,344.6992,410.1949,344.746"/><path id="path120" fill="#009B3A" stroke="#000" stroke-width=".499" d="M415.1887,344.4963 c-2.1964,10.9586-5.7906,19.7116-8.0275,19.5504c-2.2203-0.1599-2.2717-9.0459-0.1154-19.9235 c2.1845-10.9593,5.7784-19.7601,8.0271-19.657s2.3006,9.0709,0.116,20.0301"/><path id="path122" fill="#009B3A" stroke="#000" stroke-width=".499" d="M419.2337,348.9408 c-4.262,10.5043-9.3754,18.3759-11.4206,17.5821c-2.0454-0.7939-0.2483-9.9529,4.0139-20.4571 c0.0209-0.0514,0.0417-0.1027,0.0626-0.1541c4.2622-10.5043,9.3754-18.376,11.4207-17.5821 c2.0452,0.7939,0.2481,9.9529-4.0141,20.4571C419.2755,348.8381,419.2546,348.8894,419.2337,348.9408"/><path id="path124" fill="#009B3A" stroke="#000" stroke-width=".499" d="M407.4981,365.4705 c-0.045,0.1099-4.3826-3.7347-5.1696-4.7016c-0.787-0.9669,0.4444-3.4139-2.298-5.9582 c-2.7423-2.5442-6.4022-3.4115-8.3328-3.3084c-1.9303,0.1034-2.0397,2.1136,1.1746,5.2381 c3.2144,3.1244,6.4241,2.7781,8.2218,4.1619c1.7975,1.3838,4.5847,3.8179,5.8438,5.3649 c1.8857,0.005,6.2419,0.9043,8.6888,1.2713c2.4472,0.367,7.5706,4.0218,12.0376,4.0656 c3.7265,0.1238,6.1704-1.8229,4.26-3.5101c-1.9105-1.6873-6.0875-3.0247-8.8266-3.255 c-2.7389-0.2307-5.2046,2.3499-7.8544,1.8994c-1.9536-0.4205-7.6336-0.9644-7.7459-1.2678"/><path id="path126" fill="#009B3A" stroke="#000" stroke-width=".499" d="M399.6079,390.6894 c-11.3252,1.8861-20.3439,1.1919-20.1443-1.5506c0.1998-2.7426,9.5427-6.4948,20.8679-8.381 c0.0902-0.0151,0.1804-0.0299,0.2707-0.0446c11.3252-1.8862,20.3439-1.1919,20.1443,1.5506 c-0.2,2.7425-9.5427,6.4948-20.8679,8.381C399.7884,390.6597,399.6981,390.6747,399.6079,390.6894"/><path id="path128" fill="#009B3A" stroke="#000" stroke-width=".499" d="M399.2083,385.346 c-11.2418,4.3103-20.722,5.7327-21.1746,3.1767c-0.4526-2.5558,8.2939-8.122,19.5357-12.4323 c11.242-4.3103,20.7222-5.7326,21.1747-3.1768C419.1967,375.4696,410.4503,381.0357,399.2083,385.346 C399.2083,385.3459,399.2083,385.3459,399.2083,385.346"/><path id="path130" fill="#009B3A" stroke="#000" stroke-width=".499" d="M392.0671,369.4655 c-4.9349,10.403-11.1337,18.4301-13.8454,17.9291c-2.712-0.5011-0.9098-9.3405,4.0251-19.7435l0,0 c4.9348-10.403,11.1337-18.4301,13.8456-17.9291C398.8041,350.223,397.002,359.0625,392.0671,369.4655"/><path id="path132" fill="#009B3A" stroke="#000" stroke-width=".499" d="M397.061,372.1622 c-8.0949,9.1594-16.3708,15.4507-18.4849,14.0522c-2.114-1.3986,2.7345-9.9575,10.8294-19.1169 c8.0949-9.1594,16.3708-15.4508,18.4849-14.0521C410.0043,354.444,405.1559,363.0029,397.061,372.1622L397.061,372.1622"/><path id="path134" fill="#009B3A" stroke="#000" stroke-width=".499" d="M398.5092,378.7541 c-9.8545,7.5212-19.0756,12.0347-20.5958,10.0812c-1.5202-1.9534,5.2362-9.634,15.0908-17.1551 c0.0238-0.0181,0.0474-0.0362,0.0712-0.0543c9.8604-7.5133,19.0546-11.9961,20.5353-10.0128 C415.0873,363.5909,408.336,371.2542,398.5092,378.7541"/><path id="path136" fill="#009B3A" stroke="#000" stroke-width=".499" d="M378.1342,387.6431 c-0.1033,0.0784-2.1898-6.0865-2.4215-7.4613c-0.2316-1.3749,2.2935-2.99,1.0365-6.9954 c-1.257-4.0056-4.3159-6.9475-6.2353-7.9657c-1.9195-1.0184-3.1231,0.8304-1.7273,5.6611 c1.3958,4.8305,4.6828,6.3571,5.662,8.7132c0.9792,2.3557,2.3397,6.2828,2.71,8.4825 c1.8162,1.0971,5.5302,4.4698,7.6921,6.2343c2.1615,1.7644,5.1101,8.2034,9.3979,10.8286 c3.529,2.2729,6.9514,1.8349,6.0291-0.8746c-0.9223-2.7096-4.2235-6.3971-6.7413-8.2004 c-2.5178-1.8032-6.3068-0.7753-8.6179-2.7361c-1.6558-1.5297-6.8406-5.332-6.7837-5.686"/><path id="path138" fill="#009B3A" stroke="#000" stroke-width=".499" d="M365.7994,409.1667 c-11.6351,0.1408-20.9748-2.4567-20.8604-5.8017c0.1129-3.3023,9.4078-6.1074,20.8953-6.3058 c11.6353-0.1408,20.9747,2.4567,20.8604,5.8016C386.5817,406.1632,377.2871,408.9683,365.7994,409.1667"/><path id="path140" fill="#009B3A" stroke="#000" stroke-width=".499" d="M363.0029,390.24 c-7.3722,9.5199-15.3592,15.5559-17.8394,13.4818c-2.4805-2.0742,1.4851-11.4731,8.8574-20.993l0,0 c7.372-9.5199,15.3592-15.5559,17.8395-13.4817C374.3407,371.3212,370.3751,380.7201,363.0029,390.24"/><path id="path142" fill="#009B3A" stroke="#000" stroke-width=".499" d="M365.9492,399.8781 c-10.8172,4.6641-20.5439,5.9426-21.7253,2.8555s6.6299-9.3706,17.4471-14.0348c10.8172-4.6641,20.544-5.9425,21.7253-2.8556 C384.5777,388.9304,376.7665,395.214,365.9492,399.8781L365.9492,399.8781"/><path id="path144" fill="#009B3A" stroke="#000" stroke-width=".499" d="M371.6921,216.504 c5.3552,4.8251,8.5774,9.3364,7.1971,10.0765c-1.3772,0.7384-6.8178-2.5575-12.1655-7.3698 c-5.3593-4.8228-8.5984-9.3443-7.2346-10.0992c1.3637-0.7548,6.8138,2.5429,12.1731,7.3657 C371.6723,216.486,371.6823,216.495,371.6921,216.504"/><path id="path146" fill="#009B3A" stroke="#000" stroke-width=".499" d="M365.2502,221.9472 c7.244,0.9412,13.3423,2.9223,13.6209,4.4249c0.2786,1.5026-5.368,1.9577-12.6122,1.0164 c-7.2442-0.9412-13.3423-2.9223-13.6209-4.4249C352.3594,221.4611,358.0062,221.006,365.2502,221.9472L365.2502,221.9472"/><path id="path148" fill="#009B3A" stroke="#000" stroke-width=".499" d="M367.847,218.5015 c6.8229,3.4718,11.7656,7.2489,11.0396,8.4364c-0.726,1.1873-6.8455-0.6646-13.6686-4.1364l0,0 c-6.823-3.4718-11.7656-7.249-11.0397-8.4364C354.9044,213.1777,361.024,215.0296,367.847,218.5015"/><path id="path150" fill="#009B3A" stroke="#000" stroke-width=".499" d="M272.864,388.642 c0,0,17.6577,3.7871,33.0079,9.366c15.3506,5.5792,38.6738,24.7281,44.9427,25.8127 c7.0319,0.3201,16.7834-2.0801,20.4843-12.2329c-10.8291,2.8884-17.3232,7.2761-27.6609,1.5963 c-3.6526-1.3834-15.6133-12.2739-28.7247-18.1027c-13.1115-5.8289-39.5553-12.4737-39.5553-12.4737l-2.4937,6.0341"/><path id="path152" fill="#009B3A" stroke="#000" stroke-width=".499" d="M291.6907,228.9886 c-0.0634-0.1513,20.3255-10.7238,20.3255-10.7238l-22.4134,5.7315l-2.6041,3.9434L291.6907,228.9886"/><path id="path154" fill="#009B3A" stroke="#000" stroke-width=".499" d="M310.9671,233.9324 c-7.8693-1.4305-19.9714-4.0766-27.6765-4.6937c5.3259-5.8993,12.6645-15.8749,17.1874-21.9984 c-2.9866,5.8403-7.6746,13.5418-9.5247,19.1325c5.4244,2.9279,13.9509,5.2206,20.0144,7.5597"/><path id="path156" fill="#009B3A" stroke="#000" stroke-width=".499" d="M288.0452,230.237 c-0.0884-0.1393,18.0617-13.9848,18.0617-13.9848l-20.9771,9.3844l-1.8671,4.337l4.7825,0.2632"/><path id="path158" fill="#009B3A" stroke="#000" stroke-width=".499" d="M307.3215,233.7327 c-7.9237-1.5065-20.1187-4.2844-27.8627-4.9499c5.2325-6.0765,12.4068-16.3579,16.8288-22.6691 c-2.8858,6.0241-7.4438,13.9653-9.1942,19.7357C292.5926,228.8945,301.1921,231.2942,307.3215,233.7327"/><path id="path160" fill="#009B3A" stroke="#000" stroke-width=".499" d="M285.049,231.3856 c-0.05-0.1553,21.2693-8.908,21.2693-8.908l-22.9038,3.7693l-2.957,3.6939l4.5915,1.4451"/><path id="path162" fill="#009B3A" stroke="#000" stroke-width=".499" d="M304.9244,233.9324 c-8.0146-0.6681-20.4029-2.1634-28.1404-1.9962c4.4606-6.7467,10.3478-17.9799,13.9792-24.8769 c-2.1459,6.4381-5.7199,15.007-6.7731,21.0631c5.7968,2.4962,14.585,3.9987,20.9341,5.8099"/><path id="path164" fill="#009B3A" stroke="#000" stroke-width=".499" d="M282.8517,231.4855 c-0.1163-0.1183,14.4093-17.5579,14.4093-17.5579l-18.258,13.6522l-0.8474,4.6568l4.6962-0.7511"/><path id="path166" fill="#009B3A" stroke="#000" stroke-width=".499" d="M304.8246,235.0811 c-8.5875-0.1633-21.9075-0.9203-30.1164-0.1913c4.0631-7.6785,9.1913-20.3544,12.3578-28.1389 c-1.6334,7.1781-4.5708,16.7833-5.0807,23.4671c6.4141,2.315,15.9074,3.3344,22.8393,4.8629"/><path id="path168" fill="#009B3A" stroke="#000" stroke-width=".499" d="M279.9551,235.6304 c-0.1114-0.1538,17.498-16.7888,17.498-16.7888l-21.1729,11.7146l-1.4501,5.0179l5.1248,0.0565"/><path id="path170" fill="#009B3A" stroke="#000" stroke-width=".499" d="M300.9794,235.6304 c-9.2286,0.035-23.4391-0.466-32.444,0.5427c5.9736-8.5605,14.1316-22.6521,19.1599-31.3064 c-3.2493,7.9482-8.4076,18.6021-10.3428,25.9785c6.4382,2.3898,16.4667,3.275,23.6269,4.7854"/><path id="path172" fill="#009B3A" stroke="#000" stroke-width=".499" d="M274.0624,236.8789 c-0.0879-0.1663,22.3525-18.9322,22.3525-18.9322l-25.2644,13.4345l-2.6039,5.5637l5.5163-0.0659"/><path id="path174" fill="#009B3A" stroke="#000" stroke-width=".499" d="M297.6334,236.1797 c-9.1387,1.3179-23.2903,2.8067-32.0685,5.0423c4.6926-9.1757,10.7567-24.0479,14.4992-33.1836 c-2.0809,8.2004-5.6661,19.3037-6.5264,26.7635c6.7218,1.4339,16.7849,0.9017,24.0959,1.378"/><path id="path176" fill="#009B3A" stroke="#000" stroke-width=".499" d="M271.0661,240.6243 c-0.1294-0.1338,17.2223-23.8551,17.2223-23.8551l-21.4926,19.4335l-1.1518,5.9537l5.4222-1.5321"/><path id="path178" fill="#009B3A" stroke="#000" stroke-width=".499" d="M292.5896,239.0262 c-9.2016,0.8569-23.4207,1.6327-32.3137,3.424c5.2026-8.925,12.0955-23.4686,16.3474-32.4016 c-2.5393,8.0826-6.7442,18.9876-8.0231,26.3915c6.6328,1.7691,16.7143,1.7431,23.9895,2.5857"/><path id="path180" fill="#009B3A" stroke="#000" stroke-width=".499" d="M267.9699,243.1212 c-0.0894-0.1688,21.924-18.9722,21.924-18.9722l-24.8743,13.4055l-2.5143,5.5996l5.4648-0.035"/><path id="path182" fill="#009B3A" stroke="#000" stroke-width=".499" d="M289.893,239.975 c-9.1737,1.9348-23.4076,4.3869-32.1709,7.2011c4.2861-9.3705,9.674-24.4509,13.002-33.716 c-1.6942,8.2274-4.7642,19.4206-5.2615,26.833c6.8676,0.9456,17.0155-0.2791,24.431-0.3181"/><path id="path184" fill="#009B3A" stroke="#000" stroke-width=".499" d="M264.3244,244.1199 c-0.1498-0.1064,14.0053-26.0045,14.0053-26.0045l-18.9561,22.4863l-0.3136,5.9412L264.3244,244.1199"/><path id="path186" fill="#009B3A" stroke="#000" stroke-width=".499" d="M289.893,241.4732 c-9.8423,2.5603-25.1809,5.9187-34.465,9.4434c3.5651-10.6534,7.6446-27.7323,10.1695-38.2259 c-0.8571,9.2636-2.8639,21.9001-2.5059,30.2008c7.6606,0.7576,18.66-1.0519,26.802-1.4184"/><path id="path188" fill="#009B3A" stroke="#000" stroke-width=".499" d="M261.5778,250.1125 c-0.1487-0.1513,17.6452-26.0604,17.6452-26.0604l-22.5618,21.0635l-0.9519,6.5744l5.8683-1.5775"/><path id="path190" fill="#009B3A" stroke="#000" stroke-width=".499" d="M285.9978,244.4196 c-9.6751,3.0598-24.7815,7.2041-33.8559,11.1867c3.0503-10.7188,6.3123-27.8147,8.3347-38.3198 c-0.4205,9.1996-1.8273,21.7941-1.0834,29.9776c7.6581,0.3361,18.5192-2.0441,26.6048-2.8445"/><path id="path192" fill="#009B3A" stroke="#000" stroke-width=".499" d="M258.0322,253.9578 c-0.1713-0.1208,13.4109-28.7681,13.4109-28.7681l-19.0685,24.776l0.0864,6.6149L258.0322,253.9578"/><path id="path194" fill="#009B3A" stroke="#000" stroke-width=".499" d="M282.3023,248.3647 c-9.9113,2.259-25.3298,5.1546-34.7267,8.3827c4.0104-10.4351,8.8101-27.2105,11.778-37.5168 c-1.2538,9.1362-3.7981,21.5759-3.8003,29.7943c7.5947,0.9613,18.6256-0.523,26.7491-0.6597"/><path id="path196" fill="#009B3A" stroke="#000" stroke-width=".499" d="M254.8361,256.7045 c-0.1189-0.1768,21.9135-22.5133,21.9135-22.5133l-25.8332,16.6695l-2.1039,6.3232l6.0236-0.4799"/><path id="path198" fill="#009B3A" stroke="#000" stroke-width=".499" d="M277.9077,252.2599 c-9.8179,1.3178-25.0531,2.7383-34.4286,5.0937c4.5581-10.2234,10.2774-26.8214,13.809-37.0169 c-1.7863,9.1742-5.0358,21.5829-5.5437,29.9466c7.3579,1.7303,18.2216,1.3117,26.1628,1.9768"/><path id="path200" fill="#009B3A" stroke="#000" stroke-width=".499" d="M250.4915,254.4572 c-0.1612-0.1353,14.9101-28.1698,14.9101-28.1698l-20.2246,23.7038l-0.3152,6.7122l5.6295-2.246"/><path id="path202" fill="#009B3A" stroke="#000" stroke-width=".499" d="M279.1063,248.914 c-10.6773,4.3724-27.3554,10.4661-37.36,15.8559c3.2807-12.6764,6.7391-32.7577,8.8846-45.0985 c-0.3845,10.6919-1.83,25.4002-0.9351,34.8146c8.476-0.2662,20.4722-3.9531,29.4104-5.5727"/><path id="path204" fill="#009B3A" stroke="#000" stroke-width=".499" d="M248.444,262.9967 c-0.1728-0.1508,17.8465-32.3267,17.8465-32.3267l-23.5589,27.3533l-0.6507,7.6386L248.444,262.9967"/><path id="path206" fill="#009B3A" stroke="#000" stroke-width=".499" d="M275.0113,252.9091 c-10.4626,4.9174-26.838,11.8729-36.584,17.7546c2.7101-12.6749,5.268-32.6548,6.86-44.9347 c0.0928,10.5545-0.6957,25.1265,0.6168,34.3497c8.4486-0.7467,20.2581-5.0638,29.1072-7.1702"/><path id="path208" fill="#009B3A" stroke="#000" stroke-width=".499" d="M244.7986,267.8906 c-0.1958-0.1124,13.0229-34.7897,13.0229-34.7897l-19.4905,31.0717l0.4944,7.5317l5.9732-3.8135"/><path id="path210" fill="#009B3A" stroke="#000" stroke-width=".499" d="M270.4169,255.8055 c-10.4382,5.0003-26.7801,12.0856-36.4945,18.0433c2.6307-12.6884,5.0627-32.6747,6.5768-44.9591 c0.1603,10.5465-0.5354,25.1146,0.837,34.3208C249.7852,262.3946,261.5748,257.9829,270.4169,255.8055"/><path id="path212" fill="#009B3A" stroke="#000" stroke-width=".499" d="M241.8521,272.0355 c-0.1593-0.1688,20.1478-30.6787,20.1478-30.6787l-25.4033,25.1101l-1.2381,7.6071l6.4935-2.0384"/><path id="path214" fill="#009B3A" stroke="#000" stroke-width=".499" d="M269.468,254.2075 c-9.3065,7.4294-24.0294,18.3504-32.4216,26.5134c-0.0149-12.8077-1.7296-32.5479-2.765-44.6859 c2.3352,10.0506,4.6531,24.1662,7.9123,32.6278c8.1999-2.9218,18.9662-10.1305,27.2738-14.4547"/><path id="path216" fill="#009B3A" stroke="#000" stroke-width=".499" d="M242.8509,273.4838 c-0.2233-0.0299,2.334-36.7612,2.334-36.7612l-9.707,35.74l2.7086,6.7328l4.6642-5.711"/><path id="path218" fill="#009B3A" stroke="#000" stroke-width=".499" d="M266.8213,257.6033 c-9.3334,7.3819-24.0958,18.2271-32.519,26.347c0.0399-12.8127-1.5935-32.5699-2.578-44.718 c2.2925,10.0671,4.5507,24.2007,7.7735,32.6828c8.2089-2.8783,19.0006-10.0316,27.3234-14.3123"/><path id="path220" fill="#009B3A" stroke="#000" stroke-width=".499" d="M240.5038,279.7261 c-0.2077-0.0874,9.3889-35.9187,9.3889-35.9187l-16.2465,33.0318l1.282,7.3749l5.5756-4.4876"/><path id="path222" fill="#009B3A" stroke="#000" stroke-width=".499" d="M265.7726,258.4523 c-8.8202,8.6893-22.8628,21.5819-30.6602,30.9189c-1.3824-13.1418-5.2656-33.2031-7.6327-45.5409 c3.4868,10.0466,7.3899,24.2672,11.6612,32.5769c8.1589-3.9369,18.5107-12.567,26.6312-17.9554"/><path id="path224" fill="#009B3A" stroke="#000" stroke-width=".499" d="M240.5538,284.3204 c-0.2307-0.035,1.7575-38.2019,1.7575-38.2019l-9.383,37.1178l2.9139,7.0058L240.5538,284.3204"/><path id="path226" fill="#009B3A" stroke="#000" stroke-width=".499" d="M262.9761,264.7945 c-9.4394,7.8044-24.3904,19.2863-32.8706,27.8438c-0.2952-13.3086-2.5-33.8053-3.8351-46.4088 c2.6304,10.4227,5.3325,25.0696,8.8811,33.8323c8.3966-3.1102,19.3472-10.6984,27.8248-15.2672"/><path id="path228" fill="#009B3A" stroke="#000" stroke-width=".499" d="M237.7572,288.6651 c-0.2013-0.1238,13.2997-35.9318,13.2997-35.9318l-19.944,31.8363l0.5217,7.8868l6.1225-3.7911"/><path id="path230" fill="#009B3A" stroke="#000" stroke-width=".499" d="M262.8263,264.9443 c-8.3543,8.8372-21.6558,21.9515-29.0402,31.4423c-1.3193-13.3216-5.0138-33.6526-7.2655-46.1561 c3.3116,10.1774,7.0214,24.5852,11.0754,32.9988c7.731-4.016,17.5368-12.7973,25.2305-18.2855"/><path id="path232" fill="#009B3A" stroke="#000" stroke-width=".499" d="M238.2565,290.5128 c-0.2338-0.0033-1.5732-37.9882-1.5732-37.9882l-6.1515,37.8354l3.5268,6.5764l4.198-6.4241"/><path id="path234" fill="#009B3A" stroke="#000" stroke-width=".499" d="M258.7313,267.7907 c-8.083,8.9165-20.9811,22.1557-28.077,31.7184c-1.7095-13.3251-5.9971-33.6471-8.614-46.1452 c3.6069,10.1605,7.7355,24.5533,12.0317,32.9425c7.6022-4.0848,17.1374-12.9576,24.6591-18.5152"/><path id="path236" fill="#009B3A" stroke="#000" stroke-width=".499" d="M236.1092,294.3081 c-0.2143-0.0634,4.2422-38.5905,4.2422-38.5905l-11.3151,36.5021l2.2551,7.4962l4.818-5.4073"/><path id="path238" fill="#009B3A" stroke="#000" stroke-width=".499" d="M256.9834,269.2889 c-7.3899,9.6556-19.2568,24.0804-25.6119,34.2828c-2.7178-13.0869-8.5394-32.882-12.0997-45.058 c4.3708,9.755,9.5832,23.6678,14.5082,31.5931C241.0571,285.3034,249.8992,275.5497,256.9834,269.2889"/><path id="path240" fill="#009B3A" stroke="#000" stroke-width=".499" d="M235.9594,297.9037 c-0.2213-0.01-2.4486-38.6374-2.4486-38.6374l-4.8648,38.3313l3.5034,6.7527l3.8099-6.4465"/><path id="path242" fill="#009B3A" stroke="#000" stroke-width=".499" d="M256.2344,271.4862 c-6.937,10.1105-18.1312,25.2579-24.0005,35.8643c-3.3923-13.0355-10.2424-32.6628-14.4352-44.7369 c4.8847,9.5932,10.8256,23.3298,16.1745,31.0518c7.0688-5.2186,15.4595-15.5034,22.2616-22.1792"/><path id="path244" fill="#009B3A" stroke="#000" stroke-width=".499" d="M238.3564,301.4992 c-0.2162-0.0709,3.9313-38.8112,3.9313-38.8112l-11.0609,36.4811l2.3322,7.6356l4.7976-5.3054"/><path id="path246" fill="#009B3A" stroke="#000" stroke-width=".499" d="M254.8361,275.0818 c-5.9796,11.0164-15.7336,27.633-20.6082,38.994c-4.5432-12.4886-13.1143-31.0498-18.3663-42.4712 c5.7155,8.8586,12.8531,21.6898,18.8612,28.6237c6.5509-6.1709,13.9588-17.5634,20.1132-25.1465"/><path id="path248" fill="#009B3A" stroke="#000" stroke-width=".499" d="M237.008,304.6954 c-0.2172,0.0604-10.8466-36.8057-10.8466-36.8057l3.6657,38.7952l4.887,5.4708l2.2938-7.4603"/><path id="path250" fill="#009B3A" stroke="#000" stroke-width=".499" d="M254.5865,279.3765 c-6.2303,10.983-16.3829,27.5491-21.4805,38.8762c-4.5706-12.4507-13.2328-30.9559-18.5396-42.3429 c5.8039,8.8321,13.0374,21.6244,19.1564,28.5369c6.7792-6.1524,14.4802-17.5104,20.8633-25.0702"/><path id="path252" fill="#009B3A" stroke="#000" stroke-width=".499" d="M237.5074,311.6368 c-0.2292,0.0001-3.9822-38.7003-3.9822-38.7003l-3.5846,38.7043l3.8731,6.6323l3.6937-6.6368"/><path id="path254" fill="#009B3A" stroke="#000" stroke-width=".499" d="M255.2357,282.7723 c-6.4061,10.8357-16.8238,27.1611-22.1038,38.3668c-4.3676-12.557-12.7279-31.2645-17.8485-42.7753 c5.6591,8.9674,12.6834,21.929,18.689,28.9853C240.8494,301.3569,248.7317,290.1812,255.2357,282.7723"/><path id="path256" fill="#009B3A" stroke="#000" stroke-width=".499" d="M237.158,314.733 c-0.2281,0.025-7.1811-38.0052-7.1811-38.0052l-0.3511,38.9236l4.407,6.1279L237.158,314.733"/><path id="path258" fill="#009B3A" stroke="#000" stroke-width=".499" d="M252.489,288.2656 c-6.91,10.3772-18.0858,25.9585-23.8886,36.7837c-3.7609-12.8422-11.2132-32.1035-15.776-43.9529 c5.2206,9.3475,11.6143,22.7774,17.2717,30.2398c7.1492-5.5078,15.5488-16.1221,22.3934-23.0706"/><path id="path260" fill="#009B3A" stroke="#000" stroke-width=".499" d="M233.812,318.9777 c-0.2233-0.0609,3.2137-38.8472,3.2137-38.8472l-10.586,36.8357l2.5574,7.5078l4.8148-5.4962"/><path id="path262" fill="#009B3A" stroke="#000" stroke-width=".499" d="M252.8886,289.2144 c-5.9072,11.2382-15.5729,28.2213-20.338,39.755c-4.9314-12.2474-14.1286-30.3711-19.7651-41.5239 c6.0585,8.5789,13.6616,21.0551,19.9794,27.7029C239.3618,308.7138,246.7283,297.0387,252.8886,289.2144"/><path id="path264" fill="#009B3A" stroke="#000" stroke-width=".499" d="M232.5136,322.2238 c-0.2222,0.0694-11.9214-36.2054-11.9214-36.2054l4.5888,38.5005l5.1357,5.2391l2.1975-7.5342"/><path id="path266" fill="#009B3A" stroke="#000" stroke-width=".499" d="M251.2905,292.1108 c-4.1249,12.3333-11.0853,31.1316-14.0417,43.5055c-6.6957-10.9555-18.4743-26.7526-25.6994-36.4786 c7.2536,7.1053,16.6136,17.7012,23.8322,22.8524C240.9078,314.2261,246.403,301.1447,251.2905,292.1108"/><path id="path268" fill="#009B3A" stroke="#000" stroke-width=".499" d="M243.1005,325.1701 c-0.2202,0.0784-12.9086-35.7055-12.9086-35.7055l5.6411,38.2908l5.277,5.0308l1.9902-7.6161"/><path id="path270" fill="#009B3A" stroke="#000" stroke-width=".499" d="M251.1907,295.9061 c-4.0359,12.3753-10.8606,31.2455-13.7276,43.6493c-6.7746-10.8841-18.6675-26.5563-25.963-36.206 c7.305,7.0283,16.7413,17.5254,23.9974,22.6002c5.4703-7.8213,10.8712-20.9592,15.6931-30.0435"/><path id="path272" fill="#009B3A" stroke="#000" stroke-width=".499" d="M243.2005,331.2626 c-0.2103,0.1118-16.6086-33.3919-16.6086-33.3919l9.6721,37.0778l5.7719,4.17l1.1648-7.8563"/><path id="path274" fill="#009B3A" stroke="#000" stroke-width=".499" d="M249.9422,299.0023 c-2.5803,12.8472-7.1802,32.533-8.598,45.2413c-7.9731-9.8194-21.5739-23.6519-29.9212-32.1724 c8.0551,5.9207,18.6245,14.9745,26.4065,18.9657C242.3566,322.4989,246.2038,308.6999,249.9422,299.0023"/><path id="path276" fill="#009B3A" stroke="#000" stroke-width=".499" d="M244.2991,336.5062 c-0.2268,0.045-8.956-37.4434-8.956-37.4434l1.4768,38.8741l4.6888,5.8158l2.7903-7.2461"/><path id="path278" fill="#009B3A" stroke="#000" stroke-width=".499" d="M249.9921,302.9974 c-1.3651,13.1353-4.0974,33.3494-4.3218,46.1891c-8.8232-8.7003-23.603-20.6371-32.6763-27.994 c8.542,4.8085,19.8695,12.3972,27.961,15.3221c3.6971-9.1082,6.2303-23.3612,9.0373-33.5172"/><path id="path280" fill="#009B3A" stroke="#000" stroke-width=".499" d="M244.7486,339.2528 c-0.1768,0.1729-23.6738-27.0317-23.6738-27.0317l17.8391,32.7397l6.5185,2.2273L244.7486,339.2528"/><path id="path282" fill="#009B3A" stroke="#000" stroke-width=".499" d="M250.4915,307.5917 c-1.4167,13.1263-4.229,33.323-4.5037,46.1606c-8.7892-8.7498-23.523-20.7699-32.5679-28.1778 c8.5234,4.8568,19.8216,12.5096,27.9022,15.48c3.733-9.0863,6.3222-23.3238,9.1698-33.4628"/><path id="path284" fill="#009B3A" stroke="#000" stroke-width=".499" d="M247.3953,345.4951 c-0.2047,0.1208-18.1832-32.5848-18.1832-32.5848l11.423,36.5764l5.9677,3.903l0.7926-7.8942"/><path id="path286" fill="#009B3A" stroke="#000" stroke-width=".499" d="M251.5401,312.9851 c-0.864,13.2053-2.8244,33.5622-2.5608,46.4099c-9.1382-8.2119-24.3455-19.3322-33.683-26.1878 c8.7103,4.3372,20.306,11.3001,28.4944,13.779C247.1356,337.6781,249.1232,323.2914,251.5401,312.9851"/><path id="path288" fill="#009B3A" stroke="#000" stroke-width=".499" d="M249.6924,351.4877 c-0.1842,0.1613-22.4658-28.4854-22.4658-28.4854l16.3829,33.8078l6.416,2.639l-0.3331-7.9617"/><path id="path290" fill="#009B3A" stroke="#000" stroke-width=".499" d="M251.7899,319.0776 c-0.7846,13.2137-2.6222,33.5891-2.2814,46.4358c-9.1862-8.133-24.4589-19.1214-33.8359-25.8966 c8.7348,4.2617,20.3713,11.1243,28.5738,13.5323c3.2885-9.338,5.1897-23.7433,7.5437-34.0715"/><path id="path292" fill="#009B3A" stroke="#000" stroke-width=".499" d="M251.7399,356.3318 c-0.2132,0.0984-15.7521-34.3427-15.7521-34.3427l8.7173,37.5972l5.6665,4.515L251.7399,356.3318"/><path id="path294" fill="#009B3A" stroke="#000" stroke-width=".499" d="M252.3892,323.0228 c0.4509,13.2587,0.5226,33.7869,2.0553,46.5277c-9.8699-6.8585-26.0429-15.7396-35.9762-21.2199 c9.0619,3.0657,21.2443,8.3297,29.6056,9.6222c2.3941-9.7375,2.9401-24.3321,4.3152-34.9295"/><path id="path296" fill="#009B3A" stroke="#000" stroke-width=".499" d="M254.4865,354.9834 c-0.1329,0.2172-28.7725-19.6997-28.7725-19.6997l24.392,26.8789l6.7792,0.3501l-2.3991-7.5292"/><path id="path298" fill="#009B3A" stroke="#000" stroke-width=".499" d="M253.288,324.4211 c1.1447,13.1978,2.2903,33.6555,4.4914,46.2965c-10.2419-6.463-26.9009-14.7039-37.1338-19.7911 c9.2347,2.7133,21.7083,7.4998,30.1484,8.4716c1.8879-9.7959,1.6714-24.363,2.4942-34.9774"/><path id="path300" fill="#009B3A" stroke="#000" stroke-width=".499" d="M257.5828,362.3243 c-0.1763,0.1678-23.9735-27.5575-23.9735-27.5575l18.1576,33.0882l6.5619,2.392l-0.7463-7.9228"/><path id="path302" fill="#009B3A" stroke="#000" stroke-width=".499" d="M255.3855,329.4648 c1.6982,13.1423,3.7041,33.5526,6.4316,46.0742c-10.4781-5.8523-27.4258-13.0979-37.8368-17.5739 c9.3161,2.1596,21.9474,6.1993,30.398,6.6638c1.4673-9.9198,0.6361-24.4888,1.0074-35.1642"/><path id="path304" fill="#009B3A" stroke="#000" stroke-width=".499" d="M262.3769,366.9686 c-0.1353,0.2153-28.5523-20.1766-28.5523-20.1766l24.0838,27.2755l6.7786,0.4659L262.3769,366.9686"/><path id="path306" fill="#009B3A" stroke="#000" stroke-width=".499" d="M256.2844,335.0579 c2.5591,12.988,5.9063,33.2186,9.4459,45.488c-10.7957-4.8633-28.1094-10.5075-38.7468-14.0002 c9.3959,1.2786,22.2102,4.1244,30.6343,3.7889c0.7989-10.0636-0.9938-24.5613-1.3335-35.2771"/><path id="path308" fill="#009B3A" stroke="#000" stroke-width=".499" d="M265.523,370.9637 c-0.1783,0.1638-23.6159-27.995-23.6159-27.995l17.7226,33.4093l6.5334,2.5163l-0.6398-7.9302"/><path id="path310" fill="#009B3A" stroke="#000" stroke-width=".499" d="M257.8324,338.6535 c3.7481,12.6309,8.9544,32.3906,13.6048,44.1726c-11.1283-3.4135-28.7736-6.7352-39.6176-8.8007 c9.4089,0.02,22.3429,1.1483,30.6397-0.3137c-0.1544-10.159-3.2862-24.4004-4.6272-35.0583"/><path id="path312" fill="#009B3A" stroke="#000" stroke-width=".499" d="M266.7715,371.0137 c-0.05,0.2582-32.9914-7.0673-32.9914-7.0673l31.3743,15.5973l6.3377-2.3851l-4.7203-6.1449"/><path id="path314" fill="#009B3A" stroke="#000" stroke-width=".499" d="M259.9798,342.5987 c3.6987,12.6494,8.8276,32.4341,13.4324,44.2395c-11.1173-3.4757-28.7526-6.8965-39.5907-9.0224 c9.4104,0.0734,22.3435,1.2744,30.6472-0.1404c-0.1138-10.1575-3.19-24.4134-4.4888-35.0768"/><path id="path316" fill="#009B3A" stroke="#000" stroke-width=".499" d="M272.1648,374.5094 c-0.0984,0.2337-31.5656-15.2452-31.5656-15.2452l28.3111,22.9512l6.7832-0.6356l-3.529-7.0703"/><path id="path318" fill="#009B3A" stroke="#000" stroke-width=".499" d="M258.3318,344.796 c6.2693,11.5268,15.4355,29.7039,22.4099,40.201c-11.5648-0.8826-29.4692-0.2367-40.4777,0.1363 c9.1847-2.0568,22.0394-3.808,29.8328-7.0693C267.8456,368.1617,261.8445,354.924,258.3318,344.796"/><path id="path320" fill="#009B3A" stroke="#000" stroke-width=".499" d="M277.1586,377.9551 c-0.0614,0.2537-32.8-9.0588-32.8-9.0588l30.783,17.4305l6.473-1.9768l-4.4563-6.3946"/><path id="path322" fill="#009B3A" stroke="#000" stroke-width=".499" d="M261.7276,349.6899 c6.3366,11.4818,15.6097,29.5951,22.6445,40.0412c-11.5612-0.7858-29.4477,0.01-40.4452,0.4774 c9.1647-2.1357,21.9984-3.9963,29.7653-7.3255c-2.3116-9.8903-8.3911-23.087-11.9643-33.1926"/><path id="path324" fill="#009B3A" stroke="#000" stroke-width=".499" d="M281.3036,380.6518 c-0.1169,0.2202-30.5649-18.2845-30.5649-18.2845l26.7051,25.5565l6.867,0.0679l-3.0073-7.3404"/><path id="path326" fill="#009B3A" stroke="#000" stroke-width=".499" d="M264.2745,352.5864 c7.339,10.7168,18.2056,27.7159,26.1293,37.3001c-11.4314,0.7168-28.9224,3.8489-39.6786,5.7509 c8.7941-3.3413,21.2184-6.8845,28.5238-11.2432C276.0182,374.7531,268.7655,362.2794,264.2745,352.5864"/><path id="path328" fill="#009B3A" stroke="#000" stroke-width=".499" d="M283.5507,383.3485 c-0.01,0.2687-32.9924-0.7775-32.9924-0.7775l32.6403,9.6457l5.8038-3.606l-5.4523-5.2625"/><path id="path330" fill="#009B3A" stroke="#000" stroke-width=".499" d="M302.6773,223.4953 c0.0032-0.1029,23.7372-3.9601,23.7372-3.9601l-23.6164,0.5509l-4.1201,2.1164l3.9995,1.2929"/><path id="path332" fill="#009B3A" stroke="#000" stroke-width=".499" d="M315.7112,228.5391 c-6.887-2.0811-17.2943-5.5672-24.3635-7.1037c7.5123-2.9859,18.6306-8.2823,25.4726-11.5308 c-5.2641,3.295-12.9181,7.5287-16.9981,10.8322c3.9414,2.6772,11.0953,5.4073,15.8894,7.8024"/><path id="path334" fill="#009B3A" stroke="#000" stroke-width=".499" d="M301.6284,224.2943 c-0.025-0.0994,22.9647-6.3088,22.9647-6.3088l-23.7917,3.0328l-3.5881,2.4628L301.6284,224.2943"/><path id="path336" fill="#009B3A" stroke="#000" stroke-width=".499" d="M316.8098,230.237 c-8.047-0.7581-20.3889-2.3015-28.3291-2.3809c5.9826-5.2975,14.3698-14.1606,19.5365-19.6019 c-3.5523,5.1137-9.0139,11.8999-11.3684,16.7364c5.3954,2.1657,14.0566,3.6155,20.1612,5.2461"/><path id="path338" fill="#009B3A" stroke="#000" stroke-width=".499" d="M293.089,225.9423 c0.02-0.1044,23.8682-2.6951,23.8682-2.6951l-23.2564-0.7445l-4.3495,1.9123l3.7381,1.5274"/><path id="path340" fill="#009B3A" stroke="#000" stroke-width=".499" d="M310.7673,231.1359 c-7.3175-1.3992-18.4363-3.8369-25.8382-4.705c7.0323-3.4519,17.2817-9.392,23.5905-13.0365 c-4.7102,3.5579-11.6602,8.2034-15.1759,11.6711c4.4559,2.2084,12.1595,4.2001,17.4236,6.0706"/><path id="path342" fill="#009B3A" stroke="#000" stroke-width=".499" d="M291.0415,225.6926 c-0.0604-0.0899,21.0091-9.0418,21.0091-9.0418l-23.0112,6.074l-2.7574,2.8012l4.7595,0.1663"/><path id="path344" fill="#009B3A" stroke="#000" stroke-width=".499" d="M310.0681,233.7826 c-6.0894-2.5149-15.4189-6.7752-21.4436-8.548c4.6648-4.34,11.2386-11.9458,15.2882-16.611 c-2.8164,4.6619-7.1208,10.6898-9.0219,15.3132c4.0438,3.442,10.583,6.8206,15.1774,9.8463"/><path id="path346" fill="#009B3A" stroke="#000" stroke-width=".499" d="M292.2401,227.2407 c-0.045-0.1408,16.3458-7.0833,16.3458-7.0833l-17.8007,2.4388l-2.1886,3.1725l3.6436,1.472"/><path id="path348" fill="#009B3A" stroke="#000" stroke-width=".499" d="M278.5569,380.3022 c0.0149,0.2617-33.8752,0.2556-33.8752,0.2556l34.3013,8.3862l5.6275-3.6875l-6.0535-4.9543"/><path id="path350" fill="#009B3A" stroke="#000" stroke-width=".499" d="M284.6494,382.4995 c-0.0399,0.2482-34.4051-8.0022-34.4051-8.0022l33.0388,16.196l6.474-2.0831l-5.1077-6.1109"/><path id="path352" fill="#009B3A" stroke="#000" stroke-width=".499" d="M290.2924,384.7967 c0,0.2597-34.1564-1.7218-34.1564-1.7218l34.1548,10.2959l5.8563-3.3199l-5.8543-5.254"/><path id="path354" fill="#009B3A" stroke="#000" stroke-width=".499" d="M268.6192,360.6764 c8.886,9.7935,22.1986,25.3987,31.5226,34.0341c-11.4739,1.7333-28.7515,6.3712-39.3805,9.2002 c8.4471-4.0558,20.5413-8.6364,27.3423-13.5503c-4.5818-9.1153-13.6197-20.6311-19.4845-29.6834"/><path id="path356" fill="#009B3A" stroke="#000" stroke-width=".499" d="M294.9867,386.5446 c-0.0625,0.2392-34.1425-11.1728-34.1425-11.1728l32.083,19.076l6.7212-1.417l-4.6618-6.4865"/><path id="path358" fill="#009B3A" stroke="#000" stroke-width=".499" d="M271.7653,362.9236 c9.6846,8.8327,24.2911,23.0111,34.2808,30.6168c-10.994,3.166-27.3363,9.9887-37.3925,14.161 c7.8018-5.1477,19.1005-11.2756,25.2094-17.0909C288.4422,381.9362,278.4286,371.3767,271.7653,362.9236"/><path id="path360" fill="#009B3A" stroke="#000" stroke-width=".499" d="M297.7832,388.642 c0.0529,0.2632-32.3976,6.3706-32.3976,6.3706l34.139,2.3265l4.8198-4.7591l-6.561-3.9379"/><path id="path362" fill="#009B3A" stroke="#000" stroke-width=".499" d="M291.0415,386.5945 c0.0349,0.2601-33.7918,2.5928-33.7918,2.5928l34.8655,5.9911l5.3399-4.0638l-6.4141-4.5203"/><path id="path364" fill="#009B3A" stroke="#000" stroke-width=".499" d="M297.2838,388.3922 c-0.025,0.2502-34.9409-5.6016-34.9409-5.6016l34.1919,13.8629l6.3053-2.5231l-5.5567-5.7384L297.2838,388.3922z"/><path id="path366" fill="#009B3A" stroke="#000" stroke-width=".499" d="M303.0767,390.2899 c0.02,0.2587-34.2209,0.641-34.2209,0.641l34.8631,7.9048l5.5957-3.7132L303.0767,390.2899z"/><path id="path368" fill="#009B3A" stroke="#000" stroke-width=".499" d="M279.6057,367.7177 c9.6047,9.1482,24.0634,23.7832,34.0182,31.7469c-11.3215,2.5194-28.2187,8.3347-38.615,11.8874 c8.1264-4.6253,19.8535-10.0256,26.2726-15.393c-5.2575-8.7692-15.1434-19.6234-21.6763-28.2412H279.6057z"/><path id="path370" fill="#009B3A" stroke="#000" stroke-width=".499" d="M307.9207,391.6882 c-0.045,0.2433-34.9166-8.7797-34.9166-8.7797l33.4543,16.7993l6.6024-1.8763L307.9207,391.6882L307.9207,391.6882z"/><path id="path372" fill="#009B3A" stroke="#000" stroke-width=".499" d="M282.9515,369.7152 c10.3298,8.1355,25.9729,21.2593,36.5145,28.1503c-10.7352,3.9143-26.5342,11.8424-36.2578,16.6949 c7.4004-5.669,18.2176-12.5565,23.8781-18.7744C301.0246,387.5142,290.237,377.6804,282.9515,369.7152L282.9515,369.7152z"/><path id="path374" fill="#009B3A" stroke="#000" stroke-width=".499" d="M310.8671,393.5858 c0.0724,0.2592-31.8577,8.5854-31.8577,8.5854l34.2483-0.035l4.4533-5.0762l-6.8441-3.4722L310.8671,393.5858z"/></g><path id="path376" fill="#FEDF00" stroke="#000" stroke-width="1.492" d="M354.8629,345.6449l-26.024-17.9854 l-26.0245,17.9854l9.7589-28.7766l-22.7715-17.9858h29.277l9.7589-28.7766l9.7589,28.7766h29.277l-22.7711,17.9858 l9.759,28.7766H354.8629z"/></g></g></g><path fill="none" stroke="#000" d="M709.0203,1090.323c-1.9415,1.5732-3.8829,1.908-5.791,3.3809 c-3.6486,2.7783-3.5482,6.7616-5.3223,11.1466c-1.9749,4.8202-5.8244,8.2345-11.1467,8.2345c-3.3809,0-4.4855-3.046-6.7951-5.3223 c-3.9834-4.0168-6.1592-6.6613-10.176-10.6781c-3.749-3.749-4.5859-7.2302-7.7324-11.6152 c-2.0754-2.8788-5.088-3.8829-8.7031-3.8829c-4.9875,0-8.0002-0.1005-12.6195,1.4728c-3.4813,1.2051-3.7156,4.9875-5.3223,8.2345 c-0.9373,1.9415-2.6444,2.9122-4.8202,2.9122c-3.8829,0-5.3557-3.0126-8.7366-4.8536c-3.5147-1.908-6.293-2.0419-9.6738-4.3516 c-2.3097-1.5732-2.1758-4.7533-4.8536-5.8243c-1.3055-0.5022-2.5775-1.3055-3.8829-0.9708 c-13.5568,3.7156-27.1135,7.4312-40.6703,11.1467c-4.5859,1.272-7.2638-2.0753-11.6154-3.8829s-7.1633-2.7449-11.6153-4.3516 c-6.0587-2.1423-9.9417-3.8829-16.4689-3.8829c-5.6905,0-9.3391,0.3347-14.5275,2.4436c-3.5147,1.4059-5.8244,2.8787-9.6738,2.8787 c-5.6905,0-9.1383-2.611-14.0589-5.3223c-5.3223-2.9122-7.3642-6.4269-12.1174-10.1425c-2.0084-1.6067-4.2177-2.0753-5.7909-4.385 c-1.8076-2.6444-3.0461-5.3223-6.293-5.3223c-1.4728,0-2.544,0.7363-3.8829,0.9707c-2.1758,0.3682-3.749,0.2343-5.8244,0.9707 c-2.2762,0.8368-3.2469,2.9122-5.7909,2.9122s-2.6444-3.2804-3.8829-5.3223c-1.3055-2.2094-3.3808-2.9122-5.8244-3.8829 c-3.5147-1.4395-5.9248-1.2051-9.6739-1.9415c-4.7198-0.9373-7.3642-2.3097-11.6153-4.3516 c-3.0126-1.4728-4.3516-3.8829-7.7659-3.8829c-1.6737,0-2.3097,1.9081-3.8495,2.4102c-2.8118,0.9373-4.8536,0.5021-7.7658,0.9707 c-2.9122,0.5021-4.7198,1.4728-7.7324,1.4728c-9.2052,0-14.1593-3.3807-23.3645-3.3807c-3.1465,0-6.293,0-9.4395,0 c-3.2804,0-5.4562,1.3054-7.8663,3.3807c-2.4436,2.042-3.5147,4.8202-6.7951,4.8202c-1.7072,0-2.3097-1.4059-3.8829-1.908 c-7.7993-2.611-26.2432-0.0669-34.8459,3.7825c-1.0042-2.9121-1.4728-4.6527-1.4728-7.6654c0-6.8955,2.4435-10.5441,2.4435-17.4397 c0-3.9833-1.5063-6.293-3.4143-9.6738c-0.1674-0.3347-4.3181-2.8787-0.9707-3.8829c4.0838-1.205,8.6362,0,10.1759-3.8829 c1.7072-4.2177-0.8703-8.0002,1.9415-11.6154c0.9707-1.2385,2.3097,1.4394,3.8829,1.4394c7.1299,0,9.0044-7.3976,12.586-13.5568 c1.6067-2.7449-8.3684-4.2177-5.8244-6.293c5.1549-4.1842,9.5734-3.8829,15.4982-6.293c3.0126-1.205,5.2219-1.7072,7.7659-3.8494 c3.1465-2.6779,2.9457-9.2053,6.7617-8.2345c1.3055,0.3013,2.5775,1.2385,3.8829,0.9707c5.3893-1.205-8.5023-8.2344,3.3808-8.2344 c7.7659,0,4.2846-11.6488,4.8537-19.3812c0.2678-3.8829,1.5732-5.9248,2.4101-9.6739c0.7364-3.1799,0.1004-6.3599,2.9122-7.7658 c1.4728-0.7365,1.841,2.1758,2.9122,3.3808c0.8369,0.9708,1.4394,2.4436,2.9122,2.4436c0.9707,0,2.2093,0.4351,2.4101-0.5021 c0.9373-4.385-1.4394-7.1298-1.4394-11.6153c0-2.4101,0.7699-3.9833,0.9707-6.293c0.0335-0.7364,0.9707-1.1046,0.9707-1.9415 c0-0.9707-0.1004-2.4101-0.9707-2.4101c-1.3055,0-2.6109,0-3.8829,0c-8.3684,0,3.8829-12.8538,3.8829-21.1887 c0-3.9499,0-7.9332,0-11.8831c0-1.5732,1.7072-1.908,2.4101-3.2469c1.4728-2.7783,1.4394-4.8537,2.9122-7.7659 c1.205-2.4101,2.8787-3.9833,2.8787-6.7617c0-2.0419-1.908-3.8494-1.908-4.8536c0-0.9708,1.0377-1.2385,1.4394-1.9415 c1.5398-2.7783,8.0671-0.6695,7.2637-3.8829c-0.1674-0.636-0.3347-1.272-0.4686-1.908c-1.0042-3.9499-5.3557-5.088-5.3557-9.2053 c0-2.3096-0.3347-4.1172,0.9707-5.8243c2.4435-3.1465,5.8244-2.6444,9.7073-3.8829c4.9541-1.5398,8.3684-1.8745,13.5568-2.8787 c2.9122-0.5691,4.9541-0.1005,7.7324-0.9708c3.0461-0.9707,4.4854-3.4143,5.8244-6.293c1.339-2.9122,2.3097-5.4562,5.3223-6.3265 c2.544-0.7029,6.5273,0.2678,6.5273-2.4101c0-2.3096-0.2343-3.5147-0.2343-5.7909c0-0.6695,0-1.3055,0-1.9415 c0-1.5063-0.7029-2.6779-1.4394-3.8829c-0.9707-1.5732-3.8829-1.4393-3.8829-3.3808c0-3.0461,2.9122-4.1172,5.3223-5.8244 c1.3389-0.9373,3.3808-1.2051,3.3808-2.9122c0-1.205-0.9707-1.6736-0.9707-2.9122c0-2.1758,2.1423-2.6779,3.4143-4.3516 c2.0084-2.6779,2.6444-4.954,4.3516-7.7324c1.1046-1.8076,2.9122-2.6779,2.9122-4.8536c0-1.4394-0.9707-2.4101-0.9707-3.8829 c0-3.8495,3.6486-5.1884,6.7617-7.2638c5.088-3.3474,8.7701-5.7909,10.678-11.6153c1.4728-4.5859,3.2469-6.8955,4.3516-11.6153 c0.7029-3.1465,1.6737-6.0587,4.8202-6.7951c2.1758-0.4686,4.1172,0,5.8244-1.4394c1.205-1.0042,1.205-2.4101,1.9415-3.8829 c0.7364-1.4393,1.5398-2.3096,1.9415-3.8494c1.4059-5.8244,0.5356-9.7073,1.9415-15.4982c0.3682-1.5398,0.569-2.9122,0.6695-4.2177 c-3.3808-3.2469-6.7951-6.4604-10.176-9.6738c-1.3055-1.2385-11.0128-16.7033-11.5818-18.5109 c-3.18-9.5065-31.4986-47.9675-42.5448-46.093c-11.6488,1.9749-7.1633-6.4939-16.5694-9.4061 c-14.8288-4.5859-24.0005-12.4521-34.2099-17.3727c-6.0922-2.9457-14.6949,9.4061-17.9753,9.9417 c-12.0504,1.9415-18.0422-19.0464-28.988-24.8708c-14.494-7.6654-23.3645-1.205-36.9882-11.314 c-7.7993-5.7909-18.1426-2.3431-27.6157-9.3726c-7.7324-5.7574-17.2723-16.5359-28.1512-18.7787 c-3.9833-0.8368-16.2681-2.1088-18.7786-6.3599c-6.4604-10.812-29.3228-15.7326-37.0217-21.2557 c-12.1174-8.7366-16.9711-28.4525-32.8375-38.1263c-30.9295-18.7451-61.859-37.5238-92.7886-56.3024 c-0.5021-0.3347-2.3097-2.3097-3.0461-2.5105c-6.293-1.5398-13.289,5.5901-20.151,6.929c-7.6654,1.4728-16.8372,0.4017-24.5696,0 c-12.7534-0.7029-21.8917-13.3894-36.9882-16.3016c-9.8412-1.8745-17.0045-5.7909-19.8833-11.5818 c-0.1004-0.2008-0.2008-0.3682-0.2678-0.569c-1.4728-2.9457-9.7408,0.1004-12.4521-1.9415 c-7.3976-5.5901-16.4355-1.7741-24.3018-4.6863c-7.632-2.8452-12.017-11.1132-19.3142-15.197 c-21.2222-11.8161-22.5611-24.2683-33.6744-42.2436c-3.5817-5.7909-21.9921-6.5608-26.7788-11.0462 c-9.3391-8.7031-16.469-10.2429-27.0801-13.5233c-12.4521-3.8495-8.5023-17.9753-20.151-20.9879 c-6.5943-1.6737-6.3265-8.3349-14.0923-10.4772c-13.4229-3.749-11.6823-5.4562-19.3142-15.7325 c-9.2721-12.4521-20.9879-17.4397-32.871-27.0801c-13.7911-11.1802-7.9332-22.3268-19.8832-35.6158 c-2.4101-2.7113-13.7242-17.7075-16.0003-18.5108c-13.858-4.8202-9.4395-21.8917-16.0003-30.896 c-9.2722-12.6865-6.0922-29.5571-25.1386-29.5571c-15.0631,0-9.3056-6.2261-18.243-12.4187 c-10.6446-7.4311-15.7326-1.841-20.9544-17.9418c-0.4017-1.205-6.4604-4.385-9.2722-6.2261l68.3864-221.8289l2.4101-93.9601 l58.11-92.9559l30.4944-84.7549l233.4107-41.641l75.5497-23.7327l83.7842,6.7951l69.2567,0.4687l166.5641,87.6671 c2.2093,1.908,3.8829,3.7491,3.8829,6.7617c0,7.2638-6.293,10.1759-6.293,17.4397c0,2.4101,1.7072,3.5147,2.4101,5.8244 c1.2385,3.6151,1.1046,6.0252,2.4436,9.6739c1.0711,2.9122,2.9122,4.4854,2.9122,7.632v13.7911 c0,1.7072,1.5732,2.3097,2.4101,3.749c0.3682,0.6025,0.4686,0.5356,0.7364,1.1716c-0.4352,0.2678-0.7364,0.6695-0.7364,1.2385 c0,1.2385,1.4394,1.7072,1.4394,2.9122c0,3.6486-3.8495,5.088-3.8495,8.7366c0,0.9707,0.9707,1.205,1.4394,1.9414 c1.3389,2.0419,3.2804,2.6444,5.3223,3.8495c3.0461,1.8076,4.8537,4.6194,4.8537,8.2345c0,1.9415-0.9707,2.9122-0.9707,4.8536 c0,2.4101,1.4394,3.5147,2.9122,5.3223c3.5817,4.385,5.9248,6.7951,8.7031,11.6153c1.339,2.3097,2.9122,3.8829,2.9122,6.6612 c0,1.9415-0.9707,3.0461-0.9707,4.9541c0,0.8703,0.4686,1.2385,0.4686,2.0753c0,8.3349,2.9122,12.8204,2.9122,21.1887 c0,2.4101,2.4101,3.1465,3.4143,5.3223c0.569,1.3389-0.1004,2.4101,0,3.8829c0.1339,2.4101,1.5732,4.8202,3.9833,4.8202 c2.1758,0,3.5147-0.4686,5.6905-0.4686c2.544,0,3.6151,2.1758,4.8537,4.3516c1.3055,2.3097,5.3558,3.6821,3.8495,5.8244 c-2.8452,4.0838-7.7324,1.9415-11.6153,4.8202c-0.4686,0.3682-0.569,1.2385-0.4686,1.9415 c0.1339,1.3055,0.3013,2.5775,0.4686,3.8829c0.3347,2.6444,4.2512,0.0669,6.7951,0.4686c3.5147,0.569,5.3223,4.1172,5.3223,7.7659 c0,6.1591-8.904,8.0336-7.2638,14.0254c1.4394,5.3558,6.8955,6.1926,8.2345,11.6488c0.9707,4.0838,2.4101,6.3934,2.4101,10.6446 c0,1.4394-0.9707,2.4101-0.9707,3.8829c0,3.5147,2.9122,5.1884,2.9122,8.7031c0,3.8829-3.3808,5.6905-3.3808,9.5734 c0,3.3139,0,6.6277,0,9.9082c0,4.6193-0.7364,7.5315-2.9122,11.5149c-1.5733,2.9122-4.3516,4.2511-4.3516,7.632 c0,1.3389,0,2.6444,0,3.9833c0,1.7071,2.6444-0.4686,4.3516-0.4686c1.4394,0,1.7741,1.7071,2.4101,2.9122 c0.8033,1.4728,1.9415,2.1758,1.9415,3.8495c0,2.4436-1.7741,3.5482-2.4101,5.8244c-1.5398,5.4562-2.4436,8.837-5.3223,13.5568 c-2.4436,3.9833-4.4854,5.9248-7.2638,9.6738c-1.8076,2.4436-3.8829,3.749-3.8829,6.7951c0,1.205,0.9707,1.8076,1.4394,2.9122 c0.636,1.4394,0.8368,2.7783,1.9414,3.8495c1.339,1.3389,3.8829,1.4728,3.8829,3.4143c0,4.3516-1.9415,6.7616-1.9415,11.1132 c0,4.1172,3.2135,5.8244,4.3516,9.7073c0.1674,0.569-0.0335,1.841-0.4686,2.4101c-2.2093,2.8452-5.8244,3.6486-5.8244,7.2638 c0,2.3097,3.3808,2.544,3.3808,4.8537c0,5.6905-5.3223,7.8663-5.3223,13.5568c0,2.4101,3.0126,3.5817,2.4435,5.7909 c-3.0796,11.95-6.1591,23.9001-9.2052,35.8501c-0.6025,2.3097-0.5021,4.3181-0.067,6.2261 c1.1046,0.7364,5.4897,0.9038,6.8286,1.0377c5.4562,0.8368,7.0294,6.7617,12.586,6.7617c1.1046,0,0.9707-1.6737,1.9415-1.908 c0.6025-0.1339,1.205,0,1.9415,0c4.9541,0,7.632,2.8787,12.586,2.8787c3.3808,0,5.5901-0.3347,8.7366-1.4394 c1.8076-0.6025,2.0419-2.3097,3.8495-2.9122c3.5147-1.205,5.9583-0.7029,9.7073-0.9707c2.2762-0.1004,3.5147-0.9707,5.7909-0.9707 c1.4728,0,2.0754,1.4728,2.9122,2.4436c1.205,1.3389,2.0753,2.1758,2.9122,3.8495c2.544,4.7532,5.1884,9.2052,10.6446,9.2052 c2.6779,0,4.1172-1.4394,6.7951-1.4394c5.6905,0,7.8663,4.9541,13.5568,5.3223c2.3097,0.1339,3.9834-1.205,5.7909,0 c2.6779,1.7071,2.0754,6.293,5.3558,6.293c3.2469,0,4.452-2.9122,7.7324-2.9122c4.7198,0,7.0294,3.4143,11.7492,3.4143h5.6905 c0.2343-1.3389,0.3682-2.0754,0.4686-3.4143h13.4564c3.3808,0,5.1884,2.4436,7.3641,4.8537c0.6025-0.3682,1.4728,0,1.9415-0.4686 c1.7072-1.7071,2.4436-3.8829,4.8537-3.8829c2.3096,0,3.5147,1.205,5.7909,1.4394c6.0587,0.7364,9.9417,0.1339,15.4982,2.4436 c2.4435,0.9373,3.5147,2.6444,5.8244,3.8495c5.8244,3.2804,9.8077,5.3223,16.4689,5.3223c3.6152,0,5.088-3.1465,6.7617-6.293 c0.8703-1.6737,0.9708-3.8495,2.9122-3.8495c1.4728,0,2.4435,0.9707,3.8829,0.9707c2.9122,0,2.9122-3.6486,3.8829-6.3265 c2.8787,1.6067,4.7198,2.8118,7.2638,4.8537c1.205,0.9707,1.6736,2.9122,3.3808,2.9122c2.3097,0,2.544-2.544,3.8829-4.3516 c1.4393-1.9415,3.2469-2.4436,5.3223-3.8829c3.2804-2.3097,3.8829-5.3223,5.3223-9.2052c1.1046-3.0126,2.0419-4.8537,3.3808-7.7324 c0.6025-1.4728,0.7364-2.9122,1.9415-3.8829c2.544-2.0754,5.3223-1.9415,8.7366-1.9415c4.452,0,6.7617,2.6779,11.1132,3.3808 c1.3389,0.1339,2.5439-0.9707,3.8829-0.4686c1.4393,0.4686,1.9415,2.0419,2.4101,3.3808 c2.8118,6.5273,5.2219,10.6446,10.678,15.0296c2.5439,2.0419,4.452,3.3808,7.7324,3.8495c1.3389,0.1339,2.6779-0.7029,3.8829,0 c2.0419,1.205,1.8076,3.8829,3.3808,5.8244c3.749,4.7198,7.8663,7.2637,14.0589,7.2637c4.2177,0,6.5273-1.4394,10.7784-1.4394 c10.6446,0,16.7033-0.5021,27.3479-0.5021c3.2804,0,5.088,0.7364,8.3349,0.5021c3.0461-0.2678,5.2219-1.9415,7.7658-0.5021 c1.4394,0.8368,1.7072,2.544,2.4101,3.8829c0.9708,1.5732,2.0754,2.1758,2.9122,3.8829c1.4393,2.7783,1.9415,4.8202,3.3808,7.7324 c1.4728,2.9122,5.088,1.1046,7.7659,2.9122c2.6444,1.8076,2.4101,4.5859,2.9122,7.7324c1.2051,7.7659,2.0419,12.586,5.791,19.3812 c0.8703,1.7071,1.9415,2.3097,2.9122,3.8829c1.8076,2.9122,2.7783,4.9541,4.8536,7.7324c1.0712,1.4728,2.8787,1.8076,3.8495,3.3808 c2.4435,3.6486,3.4143,6.293,3.4143,10.678c0,5.6905-0.7365,9.2052-2.4436,14.5275c-1.205,3.6151-1.205,6.0587-2.4101,9.6738 c-1.4393,4.3515-2.4101,7.0294-2.4101,11.6153c0,3.4143,1.9415,5.3223,1.9415,8.7366c0,4.1172-0.2678,6.7616-1.4728,10.6446 c-0.8368,2.544-2.4101,3.9834-2.4101,6.7616c0,1.1046,1.4394,1.1046,1.9415,1.9415c0.3682,0.6025,0.6025,1.205,0.9708,1.9415 c0.7029,1.4728,1.8076,2.4436,2.4101,3.8829c0.2343,0.6025-0.2343,1.3389,0,1.9415c1.5732,2.7783,3.9833,3.9834,4.3516,7.2637 c0.7364,6.0587-1.4394,11.6153,3.3808,14.9961c1.9415,1.3389,3.6486,0.9707,5.8244,1.9415 c3.749,1.7072,5.6905,4.3516,6.7951,8.2345c1.6737,5.8244,0,9.9416,0.4686,16.0003c-0.1339,1.908-0.4686,3.0126-0.4686,4.9541 c0,2.0419,1.6737,2.9122,2.4101,4.7198c1.2051,2.7783,1.4394,4.7198,1.4394,7.7324c0,7.0294-4.8202,10.3098-4.8202,17.3393v29.6575 c3.2469,0.4686,5.088,1.5733,7.7324,3.3808c1.5732,0.9707,3.0461,1.7072,3.8829,3.3808c1.8076,3.3808,2.0419,5.9248,2.9122,9.6738 c0.7029,3.0461,2.4101,4.4855,2.4101,7.632c0,4.8537-0.4686,7.5316-0.4686,12.3517v5.8244c0,8.1006,2.5105,13.3224,7.2303,19.7159 c2.9122,3.8829,4.6193,6.4269,9.2052,8.7366c1.2385-1.9415,2.3097-3.1465,4.3851-4.3516l17.4062,10.1425 c2.9122-1.908,4.6193-3.6151,7.7659-4.8202c2.0419-0.8703,3.749-0.6025,5.7909-1.4728c2.3097-0.9707,3.2804-3.3808,5.8244-3.3808 c1.7072,0,2.4101,1.7072,3.8829,2.4101c1.6736,0.8703,2.9122,1.4728,4.8202,1.4728c1.1046,0,1.1046-1.3389,1.9415-1.9415 c2.3096-1.8076,3.2804-4.3516,6.293-4.3516c1.2385,0,1.7072,0.8369,2.9122,0.9707c4.3516,0.7029,6.7951,0.3682,11.1467,0.9707 c0-3.7825-1.4393-7.0294,0.9708-9.7073c0.8368-0.9707,2.41-0.8369,3.8829-0.9707c3.0126-0.2343,4.9541,0,7.7324-0.9707 c2.4101-0.8368,3.3808-2.8787,5.8243-3.8495c4.1172-1.7072,7.2638-0.3682,11.6154-1.4728 c3.2804-0.7029,4.7197-2.6444,7.2637-4.8202c2.7783-2.3097,4.3516-3.7825,6.293-6.7951 c8.0001,3.9833,13.5568,2.7783,21.7913,5.8244c8.3683,3.0126,11.8495,7.9667,19.3812,12.586 c3.749,2.3097,6.8955,3.0126,9.2052,6.7617c1.2051,1.9414,0.1005,3.749,0.9373,5.8244c0.9707,2.1758,3.046,2.6444,5.3557,3.3808 c3.8495,1.205,6.2931,2.1758,9.6738,4.3516c2.1758,1.4728,3.749,2.3097,5.8245,3.8829c1.3054,0.9707,3.3807,1.5732,3.4812,3.5147 c-1.3724,2.1088-2.4771,4.4185-4.4519,8.1006c-2.1758,4.0168-6.7952,5.088-6.7952,9.7073c0,13.1886-0.5356,12.9543,7.2638,19.3477 c2.9121,2.4101,2.0419,5.9583,2.9121,9.7073c0.703,3.1465,2.9122,4.4855,2.9122,7.7324c0,6.4269-2.0419,10.4437-5.8243,15.4982 c-3.6152,4.8537-7.7324,7.4981-7.7324,13.5568c0,2.3097,0.9373,3.6486,1.4393,5.8244c0.8369,3.6151,0.9707,5.9248,0.9707,9.6738 c0,4.6194-1.6736,7.1633-2.41,11.6153c-0.7365,4.3851-0.1339,7.2638-0.9707,11.6488 c-4.3181,22.2599-20.8206,47.298-20.8206,69.7253c0,7.632,2.8787,11.7492,2.8787,19.3477c0,6.8621-6.6277,21.0214-9.6738,27.147 c-1.5732,3.1465-2.6779,4.954-5.3223,7.2637c-2.6779,2.2762-5.1884,3.0126-6.7951,6.293 c-3.113,6.4269-3.3808,10.7784-5.7909,17.4062c-1.5732,4.3851-3.8829,6.929-3.8829,11.6488c0,2.4101,1.205,4.0837,1.9415,6.293 c0.7364,2.3096,1.4393,3.6151,2.4101,5.7909c0.8703,1.9415,1.205,3.5482,1.3724,5.3558c0.067,1.0377,0.1005,2.1423,0.1005,3.3808 c0,4.2177,3.2804,10.8789-0.9708,10.8789c-17.2054,0-8.7031,0.569-7.2637,13.3224c0.569,5.3223,1.7741,8.2345,2.4101,13.5568 c1.1716,9.8077,2.9122,15.2639,2.9122,25.0717c0,3.2469,0,6.5273,0,9.8077c0,2.0419-8.837,0.1004-11.1467,0.9707 c-1.4393,0.5021-3.3808,0.8369-3.3808,2.4101c0,3.2805,2.4101,4.6194,2.9122,7.7659c0.4686,2.8787,1.4394,4.8202,1.9415,7.7324 c0.6025,3.6486-0.569,6.1592,0.4686,9.6739c0.5356,1.8076,2.3766,2.0753,2.9122,3.8829c1.4059,4.7532,2.9122,7.632,2.9122,12.586 c0,2.7783-0.636,4.7198-2.4436,6.7951c-1.1046,1.3055-3.8494,1.4394-3.8494,3.3809c0,2.4101,1.908,3.3808,1.908,5.8244 c0,6.1591-5.8579,8.201-7.7324,14.0254c-0.9037,2.7783,0,4.8536-0.5021,7.7659c-0.3682,2.2762-1.272,3.5147-1.908,5.7909 c-1.6736,5.8244-2.9122,9.5734-7.2637,13.5568c-1.205,1.1046-2.0419,2.3431-3.4143,3.4143 c-2.7448,2.1758-6.293,3.1465-6.293,6.7617c0,1.205,0.7029,1.841,0.9708,2.9122c0.9373,3.6486,1.4728,5.9248,1.4728,9.6738 c0,3.0461-0.2009,4.8202-0.9708,7.7659c-0.569,2.0419-1.2385,4.3516-3.4143,4.3516c-6.4938,0-9.8077-1.5398-17.4062,0.4686 c-2.3097,0.636-4.2177,0.8703-5.3558,2.9122c-2.9791,5.4562,0.9708,11.381-3.3808,16.0004 c-1.5733,1.6736-3.6152,1.4393-5.791,2.4101c-3.0461,1.3389-4.1507,3.7156-7.2637,4.8536 c-7.0629,2.5105-12.3517,4.7532-16.9711,10.6446c-1.9749,2.5105-2.8787,4.5859-3.3808,7.7324 c-0.5691,3.6486,0.7364,6.4269-0.9708,9.7073c-1.5732,3.0126-4.7197,3.8494-8.2345,3.8494c-4.2177,0-6.7616-0.5021-10.6445-1.908 c-3.0126-1.1381-4.4855-3.4143-7.7659-3.4143c-3.1465,0-5.4227,0.2678-7.7324,2.4435c-1.2051,1.1046-1.339,2.7783-2.4436,3.8495 c-1.0711,1.1046-2.4101,1.7072-3.8494,2.4435c-2.1758,1.0712-4.1172,1.6737-5.8244,3.3809 c-1.6736,1.7071-1.9415,3.5147-2.9122,5.8243c-1.1047,2.6444-2.9792,3.749-4.8202,5.791 c-2.6444,2.9457-5.3223,4.1507-9.2052,4.8536c-2.1758,0.4017-4.0168-0.3682-5.8244,0.9707 c-2.9122,2.1423-3.0126,5.088-5.3223,7.7324c-3.0126,3.5147-7.7324,4.4854-7.7324,9.2052c0,2.0753,1.8076,2.6779,2.8787,4.3516 c1.5732,2.4436,1.9415,4.7197,1.9415,7.7659c0,5.3223-1.5732,8.3348-2.4101,13.5568c-0.4686,2.9122-0.1004,4.9541-0.9707,7.7324 c-1.0712,3.4142-3.0461,5.0879-5.3223,7.7657c-4.385,5.088-7.7659,9.674-14.5275,9.674c-4.6194,0-7.1299-1.7072-11.6154-2.4102 c-7.1633-1.1046-12.017-3.749-16.0003-9.6738c-3.3808-5.088-9.54-2.7113-15.4982-3.8829 c-6.8956-1.3724-9.3057-7.7659-16.469-7.7659c-3.6151,0-6.1926,1.0712-8.7031,3.4143c-1.9415,1.774-1.9415,4.4855-4.3516,5.7909 c-2.0419,1.1046-3.5147,1.6737-5.8244,2.4436c-3.6151,1.1715-5.9248,1.6737-9.6738,2.41 c-4.3516,0.8369-9.0714,0.7365-10.6446,4.8538c-1.3389,3.3807,0.3347,5.9248,0,9.6738 C711.1961,1086.574,710.9618,1088.7498,709.0203,1090.323z"/></g></svg>