<?xml version="1.0" encoding="utf-8"?>

<!DOCTYPE svg PUBLIC "-//W3C//DTD SVG 1.1//EN" "http://www.w3.org/Graphics/SVG/1.1/DTD/svg11.dtd">
<svg version="1.1" id="Layer_1" xmlns="http://www.w3.org/2000/svg" xmlns:xlink="http://www.w3.org/1999/xlink" x="0px" y="0px"
	 viewBox="0 0 1495.2756 1649.3699" enable-background="new 0 0 1495.2756 1649.3699" xml:space="preserve">
<g>
	<g>
		<defs>
			<path id="SVGID_1_" d="M1182.395,1518.9937c-2.7955,0.6748-4.3699-2.8918-4.3699-5.6873c0-2.2814,1.1567-3.406,1.1567-5.6874
				c0-3.7915-2.8597-5.4945-2.8597-9.286c0-2.0564,1.3495-2.9561,2.2814-4.9161c1.7672,1.7673,2.8275,3.406,5.3016,3.406
				c0.4177,0,0.3213-0.739,0.7712-0.739c1.6387,0,2.3456,1.2531,3.7915,2.0564v-2.2493c-1.6709-1.6708-3.3739-1.5101-5.6874-1.7029
				v-1.1567c0.9319-0.4498,1.8959-0.8354,1.8959-1.8958c0-2.6991-2.8918-3.3418-5.3018-4.5306
				c0.1285-0.4177,0.3534-0.6747,0.3534-1.1567c0-2.6027-2.6348-3.5988-2.6348-6.2014l0.7711-1.3816
				c3.1489,0,3.2775-8.5149-3.6309,1.1567c-1.0282,1.478-0.3534,3.1167-1.5101,4.5305c-1.3174,1.6709-3.1168,1.7351-5.3018,1.7351
				c-6.0729,0-7.1974-13.0454-7.1974-2.5383c0,4.5626,3.663,6.6833,7.583,8.9647c-6.0729,4.0164-10.2179,4.7233-16.6763,7.9686
				c-2.7955,1.3495-3.1168,4.5305-6.2657,4.9161c0,2.0885-0.739,3.2131-0.739,5.3016c0,5.0768,2.4741,7.5831,4.7234,12.1136
				c0.8032-0.3213,1.703-0.6105,1.703-1.5101c0-1.8315-0.7069-2.8597-1.3817-4.4663c-0.1285-0.2892-0.1606-0.2892,0.0964-0.0964
				c1.8636,1.4459,2.6669,3.4381,5.0768,3.4381c3.5344,0,5.4302-3.2775,6.0408-6.8119c0.0321-0.1929,0-0.225,0.1606-0.0964
				c3.4381,2.6027,4.3378,5.4945,6.1371,9.5431c0.7712,1.7993,2.0886,2.4099,2.7633,4.2092
				c0.0643,0.1606,0.0964,0.1606-0.0321,0.1927c-5.8479,1.4781-8.0007,5.0447-13.5596,7.3582
				c-14.3949,5.9766-23.424,7.808-36.7264,16.098c-9.6715,6.0085-15.391,9.0931-25.2233,14.7805
				c-4.7234,2.7633-7.3903,4.3699-12.3064,6.8119c-4.9803,2.5062-9.1254,4.7555-10.025,10.3463
				c0,0.0964-0.0322,0.0964-0.1285,0.0322c-1.928-1.0283-2.4741-2.9883-4.627-2.9883c-5.3018,0-8.1936,1.5745-13.2383,3.2452
				c-5.366,1.3174-7.3582,4.7234-12.1458,7.3582c-2.699,1.478-4.7876,1.7672-7.0046,3.9844
				c-2.5706,2.5706-4.5627,3.5665-7.3903,5.6873c-1.6709,1.2211-2.5062,2.8597-4.5948,2.8597h-3.6951
				c-3.3738,0-6.0086,0.9961-7.7437,3.8558c-0.0964,0.1284-0.0643,0.0963-0.1606,0c-2.3777-2.2172-13.3989-14.6842-13.174-13.7202
				c1.221,3.181,0.0643,6.0729,2.4741,8.322c2.5384,2.3778,4.8519,2.5063,7.3582,4.9161c0.1285,0.1285,0.1606,0.1285,0.0321,0.2571
				c-6.2014,6.8119-11.1176,7.2296-18.1865,13.3989c-2.2171,1.96-2.2814,4.5626-4.9161,5.6229
				c-0.2892,0.0964-0.1928,0.0322-0.1285-0.2249c0.8354-3.0204,2.3777-4.627,2.3777-7.8401c0-5.2375-4.402-7.2939-8.7077-10.25
				c-2.9882-2.0243-4.7876-3.9844-8.3864-3.9844c-3.2774,0-5.1732,0.1929-8.4185,0.1929c-1.1567,0-1.8315,0.7069-2.5063,1.6066
				c-0.1927,0.2892-0.2249,0.3855-0.1927,0c0.0964-1.478,0-2.3778,0-3.92c0-0.7069,0.3535-1.1246,0.3535-1.8315
				c0-6.4585-8.7398-6.4585-15.1983-6.4585c-3.2131,0-5.0125,0.1929-8.2256,0.1929c-9.9929,0-15.6802,1.7993-25.0627,5.3016
				c-2.6027,0.964-3.2774,3.7916-6.0729,3.7916c-0.6426,0-0.8997-0.7712-1.5423-0.7712h-3.7594l-0.739-0.3534
				c-0.0964-1.4459,0.1285-2.8918-1.1567-3.406c-1.2853-0.5463-3.5988,0.4498-3.5988-0.9639c0-0.3214,0.3856-0.4177,0.3856-0.7712
				c0-0.739-0.3856-1.1246-0.3856-1.8958c0-1.0603,1.1567-1.5424,1.1567-2.6348c0-3.92-7.2296-3.0846-7.2296-7.0048
				c0-0.8997,0.1928-1.4137,0.1928-2.3135c0-1.9921-2.2171-2.2491-3.2132-3.9521c-4.4341-7.3903-10.507-9.7358-19.1183-11.1818
				c-0.2892-3.5345-4.7876-3.7915-8.3542-3.7915c-8.9968,0-13.7202,3.7915-22.717,3.7915c-0.8997,0-1.0603-0.9319-1.7029-1.5103
				h-4.4984c-1.0925,0-1.6387,0.7712-2.6991,0.7712c-2.3777,0-3.1489-2.4741-5.4945-2.4741c-0.5784,0-0.9639,0.3855-1.5423,0.3855
				c-1.4138,0-1.1889-2.0885-2.442-2.6669c-1.5745-0.7069-2.8918,0.4819-4.5627,0c-0.9318-0.2892-0.6105-1.6387-1.3174-2.2493
				c-2.3135-2.0564-4.8198-1.1567-7.9686-1.1567c-4.0165,0-6.2014,1.8958-10.2179,1.8958c-3.6951,0-4.4662-4.9161-8.1614-4.9161
				c-8.6434,0-12.9169,5.4945-21.5925,5.4945c-2.6027,0-3.2774-3.2131-5.8801-3.2131c-7.9365,0-11.6959,4.1129-19.3111,6.6191
				c-3.5988,1.7993-6.0729,1.4138-9.6716,3.2131c-8.2257,4.1129-11.6317,8.547-19.6967,12.8848
				c-9.4146,5.0768-13.4953,9.9929-22.7492,15.3589c-3.0525,1.7351-4.3378,4.7234-7.9365,4.7234h-2.6027
				c-0.6105,0-0.996,0.2892-1.5744,0.3856l-2.2814-1.3174c-3.1489,0.739-5.4302,0.0963-8.1293,1.8958
				c-1.2532,0.8032-1.96,1.6066-3.4059,1.703c0,0.8997,0,1.3495-0.1928,2.2491c-0.8033,0-1.0925-0.739-1.8958-0.739
				c-2.1849,0-1.4138,3.1168-2.6669,4.9161c-0.9961,1.5101-2.3135,1.96-2.924,3.5667c-0.1285,0.2892-0.0964,0.2249-0.2249-0.0643
				c-1.1246-2.3777-1.478-4.1771-3.4702-5.9443c-1.3174-1.1888-2.8597-0.4819-4.5627-0.964
				c-2.8276-0.8032-4.4662-1.478-7.3903-1.5101c-0.2249,0-0.1606-0.0321-0.1606-0.2571v-1.0603
				c1.2531-3.181,5.1089-3.7594,5.1089-7.1975c0-2.9561-3.5024-3.9843-6.4585-3.9843c-1.5102,0-1.9921,1.4459-3.0525,2.5062
				c-0.1928,0.1606-0.1606,0.1285-0.2892-0.0964c-0.482-0.8354-0.9961-1.5745-1.8958-1.9279
				c-0.2571-0.1285-0.2571-0.1606-0.2571,0.1285v4.2734c0,2.0565-3.1168,1.703-4.145,3.4381
				c-0.482,0.8676-0.0964,1.6066-0.5784,2.4741c-1.8636-1.2531-3.2774-1.5745-5.4945-1.703
				c0.1285-0.739,0.0964-1.1888,0.0321-1.8635c-0.0321-0.2892-0.0964-0.225-0.3534-0.1608
				c-0.8033,0.225-1.2532,0.7069-1.8315,1.3175c-0.1606,0.1606-0.1285,0.1284-0.2892-0.0322
				c-0.6105-0.5784-0.9961-1.3495-1.9279-1.3495c-2.3456,0-2.7955,2.5062-4.7234,3.7915c-2.4099-2.4098-3.7594-3.8557-5.6873-6.6512
				c-0.8676-1.2209-0.1285-2.699-1.1246-3.7594c-2.9882-3.2452-7.1653-1.3495-10.6356-3.9843
				c-2.5384-1.9601-2.3456-4.9484-5.1089-6.6512c-2.3456-1.4459-4.3056-1.0282-6.8119-2.2493
				c-1.4459-0.739-1.8958-1.8958-3.2131-2.7312c-0.1928-0.1285-0.2249-0.0963-0.0643-0.2892
				c1.7994-2.3456,4.2735-2.3456,6.105-4.7555c1.1889-1.5101,2.3456-1.9921,3.7916-3.2131
				c0.8033-0.6747,0.6105-2.2814,1.7029-2.2814c2.7634,0,4.0807,1.703,6.8441,1.703c3.0204,0,2.0886-4.1449,3.2774-6.9404
				c0.1285-0.2892,0.1606-0.2571-0.1606-0.2571c-3.7594-0.0642-5.8158-1.5422-9.5752-2.2813
				c-3.8237-0.739-6.4263-0.3856-9.8323-2.2814c-3.5667-1.9922-5.0768-5.1089-9.1575-5.1089h-7.5188l-10.4427,1.3174h-5.2375
				c-1.5102,0-1.96,1.7029-3.4702,1.7029c-4.2092,0-4.9803-4.4341-8.5148-6.619c-6.105-3.7916-10.4106-4.4342-17.0619-7.1975
				c-9.993-4.1128-16.2907-4.3699-26.8942-7.0046c-6.5548-1.6067-10.7962-0.2892-16.8691-3.0204
				c-3.5023-1.5745-5.5266-2.6991-9.0932-4.1771c-3.3738-1.3817-4.9161-3.0847-8.3221-4.3699
				c-2.9883-1.0925-5.6552-0.5463-7.5831-3.0204c-1.6066-2.0243-1.3174-3.9844-2.6669-6.2657
				c-1.0925-1.8958-2.6348-2.699-2.6348-4.8839c0-0.45,0.1285-0.7069,0.1928-1.1567c-6.9726-2.8918-9.0933-7.6794-15.3589-11.953
				c-6.6191-4.5305-9.6074-8.033-16.2907-12.4991c-4.5948-3.0204-7.6152-4.8198-10.2179-9.6716
				c-4.4984-8.3864-6.6512-15.7124-15.7445-18.7328c-4.4984-4.9803-9.1254-5.366-15.7124-6.4584
				c-4.2735-0.7069-6.5548-2.0886-10.8605-2.0886h-5.2053c-2.6991,0-4.1771-0.5463-6.8762-0.5463
				c-7.6473,0-11.8244,2.442-19.5039,2.442c-1.7994,0-4.1771-0.2892-4.1771-2.0885c0-1.0282,0.8354-1.5745,1.6066-2.2172
				c0.3535-0.2892,0.3213-0.257-0.0964-0.1927c-1.8315,0.225-2.9883,0.5142-4.9483,0.5142h-7.4867
				c-5.8801,0-9.768,0.8032-14.4271,4.2092c-0.2249,0.1606-0.1928,0.2249-0.2892-0.0643c-0.8997-2.217-1.4781-4.8839-3.92-4.8839
				c-5.0125,0-7.808,1.6387-12.4992,3.4059c-4.3056,1.5745-8.0972,2.5385-9.5431,6.8762c-0.1285,0.3855-0.0964,0.3534-0.3213,0.0321
				c-2.4099-3.1489-4.5305-4.5627-7.5509-7.2939c-1.8958-1.7029-2.699-4.177-5.3017-4.177c-7.3903,0-10.989,3.7594-17.9937,6.0729
				c-6.4585,2.1206-10.4428,2.699-16.6763,5.3016c-1.2853,0.4177-2.2492,0.964-3.5987,0.964c-0.7069,0-0.9961-0.7711-1.703-0.7711
				c-5.0447,0-7.1011,4.5626-12.1458,4.5626c-1.4138,0-1.9922-1.3495-3.4059-1.3495c-5.9765,0-9.029,3.0525-15.0055,3.0525
				c-1.2531,0-1.96,0-3.1168-0.0964c-0.2892,0-0.257,0-0.1607-0.2571c0.7069-1.8958,1.2531-3.0525,1.2531-5.141
				c0-4.145-4.5305-5.0447-8.3542-6.4585c-3.3738-1.2209-5.3017-3.9843-5.3017-7.583c0-1.928,0.5784-2.9883,0.5784-4.9161
				c0-12.467-8.2578-17.6082-13.4632-28.9828c-2.0885-4.5626-5.7837-5.4623-8.7077-9.4788
				c-4.6912-6.4263-7.0047-12.2743-14.7805-14.2021c0-2.9562-3.3738-4.1771-6.2978-4.1771c-0.8676,0-1.3817,0.1927-2.2171,0.1927
				c-0.7712,0-0.7712-1.0924-0.7712-1.8314v-3.1489c0-2.1849-0.6105-3.8879-2.6669-4.884c0.1607-0.4177,0.3856-0.6426,0.3856-1.1246
				c0-3.7273-3.3417-5.1089-6.4263-7.1975c-6.2978-4.3055-11.3746-4.7233-18.9898-4.7233h-7.6795
				c-1.0603,0-1.6708-0.3856-2.6991-0.3856c-3.1168,0-3.7915-3.2773-6.2657-5.1089c1.3495-2.667,1.9922-3.9844,2.4741-6.844
				c0-2.7955-0.7712-4.5306-0.7712-7.326v-4.0807c0-8.9647-7.2939-12.178-13.6238-18.5078c-2.3135-2.3135-4.884-2.3778-6.6512-5.109
				c-3.2453-5.0768-3.406-9.061-7.3903-13.6559c-1.96-2.3135-3.0525-3.8879-5.6552-5.4945
				c-2.2813-1.4138-4.3699-1.2853-6.0729-3.406c-0.8033-1.0603-0.7069-2.1849-1.703-3.0203
				c-2.1849-1.9601-4.7555-1.1567-6.8119-3.2454c-2.8918-2.8918-5.366-3.92-7.0368-7.583c-1.7351-3.92-1.3174-6.6512-1.3174-10.989
				c0-3.7594,2.0886-5.6552,2.0886-9.4468c0-2.0885,0.9318-3.6951-0.3856-5.3016c-1.5423-1.9601-4.3378-2.3778-4.3378-4.9482
				c0-5.8801,2.9561-8.8362,2.9561-14.7163c0-4.9161,0.0643-7.6794,0.0643-12.5956c0-4.5627-2.924-16.4514-5.6873-19.6324
				c-0.1928-0.2249-0.2249-0.1927-0.0321-0.4177c1.703-2.0885,4.145-2.3135,5.3338-4.7233
				c0.7069-1.4781,0.0964-2.5706,0.0964-4.2094v-7.3903c0-10.3463-0.7069-16.1621-1.9922-26.4764
				c-0.3213-2.9561-1.3174-4.4663-1.3174-7.3903c0-6.9404,0.482-11.8887,5.1089-17.0619c2.6027-2.924,5.1089-4.7876,5.1089-8.7076
				c0-3.181-1.7351-4.9803-3.9843-7.1975l3.7915-9.8644c0.1928-0.5463,0.3213-0.6748-0.2571-0.3213
				c-2.1528,1.2853-2.9882,3.5344-5.5909,3.5344c-0.2892,0-0.482-0.1927-0.7712-0.1927c-0.3856-1.6066,0-2.217,0-3.8558
				c0-3.3417,1.5102-5.141,1.5102-8.4506c0-1.6387-0.9318-2.5062-0.9318-4.1771c0-3.4381,3.0204-4.8197,6.0407-6.4263
				c4.402-2.3778,7.3903-3.0847,11.3746-6.0729v-5.3339c0-4.884,1.1567-7.5831,1.1567-12.467c0-3.406-1.3495-5.2697-1.3495-8.6755
				v-1.5103c0-2.0885,0.1928-3.3096,0.1928-5.3981c0-1.8958-0.739-2.924-0.739-4.8197v-4.2736c0-2.5062-0.7712-3.8879-0.7712-6.3942
				c0-5.5909-0.3213-9.3824,2.8276-14.0094c2.185-3.181,5.1411-3.3738,8.7398-4.5627c2.3456-0.7712,3.4702-1.9279,5.7194-2.7312
				c0.0964-0.0321,0.1928-0.0643,0.2249-0.0964c3.1168-0.5141,4.7555-1.5745,7.8722-1.8958
				c1.6066-0.1928,2.6991-0.0322,4.1771-0.5784c0.8997-0.3214,1.3817-0.964,2.2813-1.3174
				c0.8033-0.3213,1.4138-0.2892,2.2492-0.5784c2.3777-0.7711,3.7915-1.5102,6.2657-1.8958
				c2.4741-0.3856,3.9201-0.8354,6.4263-0.739c2.2813,0.0643,4.2092,0.4177,5.6873-1.3495
				c0.8676-0.9961,1.1567-1.6387,1.8958-2.6348c0.7069-0.9639,1.5102-1.3817,2.2813-2.2814
				c5.2696-6.1371,5.5266-5.8801,10.7962-11.1818c0.8033-0.8033,1.4781-1.2853,2.2813-2.0886
				c1.3174-1.3174,2.0564-2.1528,3.0204-3.7916c0.9961-1.6387,2.2813-2.5384,2.2813-4.4984c0-1.4138,0-2.8276,0-4.2413
				c0-0.8676-0.3213-1.3817-0.3856-2.2493c-0.3534-4.5305-0.6105-7.2938-2.6348-11.3424c-1.1567-2.2814-2.0564-3.5988-2.6669-6.0729
				c-0.3535-1.4781-0.8354-2.3135-1.1246-3.7916c-0.5141-2.5062-0.3856-4.0164-0.5784-6.6191
				c-0.1607-2.1849-0.4177-3.4381-0.9639-5.4945c-0.4498-1.7994-1.0282-2.8597-1.0282-4.6912c0-3.3738,0-6.7798,0-10.1536
				c0-3.6309-0.482-5.7837-1.6066-9.2218c-0.482-1.4138-0.8033-2.3135-1.1246-3.7915c-0.8033-3.3738-1.8636-5.1089-3.0525-8.3542
				c-0.6105-1.6387-1.221-2.6669-1.221-4.4984c0-6.2978,0.0964-9.8965,0.0964-16.1943c0-0.5463-0.3213-0.9318-0.3856-1.4459
				c-0.3534-2.3777-0.739-3.6951-1.1246-6.0729c-0.8676-5.2696-1.4138-8.3864-2.2813-13.6559
				c-0.5141-3.1168-1.5102-4.7554-1.5102-7.9365c0-4.0807,1.3495-6.3621,0.9318-10.4428
				c-0.5462-5.2696-2.3777-8.0329-4.5306-12.8527c-0.6426-1.4138-0.7712-2.3777-1.3495-3.7915
				c-0.4498-1.1888-0.9961-1.7994-1.5102-3.0525c-0.7712-1.8315-1.4138-2.924-1.8958-4.9161
				c-0.4177-1.7673-0.8354-2.7955-1.1246-4.5627c-0.4177-2.5384-0.2249-4.0165-0.3856-6.6191
				c-0.1285-2.0243-0.3856-3.2131-0.3856-5.2696c0-1.7351,0-3.4702,0-5.2053c0-4.3056,0.5141-6.7155,1.5423-10.9247
				c0.2892-1.221,0.4498-2.0886,0.9318-3.2131c0.5141-1.2853,1.3495-1.96,1.8958-3.2453c0.3856-0.8997,0.6426-1.4138,1.1246-2.2492
				c1.9279-3.3738,3.5987-5.2374,6.844-7.3903c0.5141-0.3535,0.964-0.3856,1.5102-0.7712c0.2571-0.1928,0.2892-0.5141,0.5462-0.7712
				c1.3817-1.1246,2.2813-1.6708,3.7915-2.6348c1.3495-0.8354,1.96-1.5745,3.0525-2.6669c1.5423-1.5423,2.6027-2.6027,3.2132-4.7233
				c0.482-1.7351,0.8354-2.7955,1.3174-4.5627c0.9961-3.4381,1.3495-5.623,1.3495-9.2539c0-4.5948,0.1607-7.1975-0.5784-11.7602
				c-0.257-1.478-0.4177-2.3135-0.7712-3.7915c-0.4177-1.8315-0.9318-2.8597-1.703-4.5306c-0.739-1.6708-1.6387-2.442-2.8276-3.7915
				c-1.4781-1.703-2.3777-2.7633-3.9843-4.3699c-0.7712-0.7711-1.3817-1.1246-1.8958-2.0886
				c-0.9639-1.7351-1.4138-2.8276-2.4741-4.5305c-1.3495-2.2492-1.9279-3.7594-3.2132-6.0729
				c-1.3495-2.4741-3.4059-3.5988-3.4059-6.4584c0-1.9279,0.482-3.0204,0.7712-4.9161c0.1607-1.221,0.9318-2.4099,1.3174-3.5988
				c1.1246-3.4702,0.5784-5.6873,1.1246-9.2861c0.1607-1.0282,0.6748-1.5423,0.7712-2.6348
				c0.3213-3.5023,1.5102-5.2696,2.0886-8.7398c0.1607-1.1246,0.2571-1.8315,0.3534-3.0204
				c0.3535-4.1128,0.2571-6.4905,0.5784-10.6034c0.1928-2.3777,0.7712-3.6951,0.7712-6.0729c0-2.924-0.2249-4.7233-0.7712-7.5831
				c-0.1607-0.8354-0.2249-1.478-0.5784-2.2492c-1.0925-2.5384-2.1528-3.7594-3.5987-6.0729
				c-1.5423-2.5706-2.0243-4.402-3.7915-6.8119c-0.8354-1.1889-1.7994-1.4781-2.6348-2.6669
				c-0.6748-0.9318-0.5141-1.8958-0.7712-3.0204c-0.2249-1.1567-0.5462-1.8636-0.5462-3.0525c0-2.7312,0.4177-4.2414,0.739-7.0047
				c0.1928-1.5102,0.1607-2.5063,0.9639-3.7915c0.3213-0.5463,0.8354-0.8354,1.3174-1.3174
				c1.8315-1.8315,2.9561-2.9882,5.1089-4.5305c1.0925-0.8033,1.6387-1.5745,2.8597-2.0886
				c1.3817-0.6105,2.4099-0.5463,3.7915-1.1567c0.8676-0.3856,1.3495-0.8354,2.2492-1.1246
				c2.8597-0.9318,4.6591-0.9318,7.5831-1.7029c0.6105-0.1606,0.8997-0.7712,1.5744-0.7712c1.4781,0,2.9561,0,4.4342,0
				c1.1889,0,2.1528,0.3535,3.0846-0.3535c1.5102-1.1567,1.3174-2.7954,2.0886-4.5627c0.8033-1.8315,1.8315-2.699,2.6669-4.5305
				c1.1567-2.6348,1.3495-4.3699,2.442-7.0369c0.9961-2.4099,2.3135-3.5345,3.0525-6.0407c1.0282-3.663,0.3213-6.0729,0.9318-9.8644
				c0.1928-1.1888,0.5141-1.8958,0.9639-3.0203c1.1246-3.0526,2.1528-4.6912,3.5987-7.5831
				c1.0603-2.1849,2.1528-3.1489,3.406-5.3018c1.1246-1.96,1.478-3.2774,1.703-5.4944c0.1285-1.4781,0.0321-2.3456,0.1928-3.7916
				c0.2249-2.0886,0.6105-3.2774,0.9318-5.3017c0.482-3.0847,1.5744-4.6591,2.6669-7.5831
				c0.3856-1.0925,0.3535-1.8958,0.5462-3.0204c0.2892-1.703,0.5784-2.7954,0.5784-4.5627c0-4.5305-3.5023-6.2657-4.7234-10.6034
				c-0.3213-1.1567-0.3213-1.8958-0.5784-3.0204c-0.3856-1.6066-1.0925-2.3777-1.8958-3.7915
				c-1.0282-1.8315-1.7351-2.9883-3.406-4.1771c-1.2853-0.8997-2.2813-1.1567-3.7915-1.703
				c-2.6991-0.9961-4.3699-1.5102-6.8119-3.0525c-2.5705-1.5423-3.4381-3.5345-4.7555-6.2336
				c-0.3856-0.8033-0.5784-1.4138-0.9318-2.2813c-0.4498-0.9961-0.964-1.5423-0.964-2.6348c0-2.0885,1.4781-3.2774,3.2453-4.3699
				c1.1246-0.7069,1.9279-1.1567,3.0204-1.8958c0.8354-0.5784,1.1889-1.1889,1.8958-1.8958
				c1.5102-1.5102,2.6991-2.185,4.3378-3.5988c0.5784-0.482,0.8676-0.8354,1.5423-1.1246c1.8315-0.8033,2.6991-1.6708,4.5305-2.4741
				c1.5744-0.7069,2.5705-1.221,3.7915-2.4742c1.0282-1.0282,1.5102-1.9279,2.8597-2.6348
				c0.5462-0.2892,1.0282-0.3534,1.5102-0.7711c1.5102-1.3174,1.703-2.8918,1.703-4.9161c0-1.3174-0.482-2.1528-0.7712-3.4059
				c-0.4177-1.7994-0.6105-2.8597-1.3174-4.5627c-0.3534-0.8354-0.9639-1.3174-0.9639-2.2492c0-1.2853,0.8676-1.8958,1.3495-3.0525
				c0.4177-1.0925,0.3535-1.9279,0.739-3.0204c0.8997-2.442,1.3174-4.0164,2.8597-6.0729c0.1928-0.257,0.5462-0.2892,0.739-0.5784
				c1.703-2.2171,2.3456-3.9201,4.1771-6.0407c2.185-2.5063,3.4381-3.5345,4.9161-6.6191c0.0964-0.257,0.1607-0.4177,0.1928-0.5784
				c0.5141-2.185,1.5102-3.2453,2.2813-5.3017c1.9922-5.366,1.9922-8.7719,3.2132-14.395
				c0.8676-3.8558,1.7994-6.0729,1.7994-10.0251v-7.4545c0-5.4624,2.6991-8.1614,4.6591-13.2382
				c2.185-5.623,3.2453-8.9326,5.4945-14.5878c1.4459-3.7273,2.8276-5.9443,2.8276-9.9929v-3.8879
				c0-9.2539-7.1975-13.3989-7.1975-22.6849c0-3.5987,1.6066-5.4945,3.2132-8.7077c2.3456-0.5784,3.6951-1.5102,6.105-1.5102
				c2.8597,0,4.4663,0.1928,7.2939,0.1928c5.8801,0,7.2939-7.3582,7.2939-13.2061v-23.0705l-1.0603-14.4914v-16.5478
				c0-6.3942-0.8997-10.5713-4.6591-15.6802c-2.5705-3.5023-4.627-5.3981-5.6873-9.6395
				c-1.1889-4.7555,0.6748-9.2539-3.2132-12.1458c-2.2813-1.703-4.7234-0.739-7.0047-2.442
				c-2.1528-1.5744-1.1567-4.0807-1.1567-6.7798v-8.5791c0-2.8276-0.2249-4.402-0.2249-7.2617
				c0-6.4263,4.0164-9.6073,8.5791-14.1379c3.3096-3.3417,5.7194-4.884,10.0251-6.844
				c11.0854-5.0447,15.7445-10.5392,25.7695-17.4153c6.7798-4.6591,9.8965-8.065,16.0979-13.4631
				c2.0886-1.7994,4.884-3.0204,6.2657-4.7234c0.3213-4.1128,1.6066-5.6552,3.0204-9.4788
				c0.6105-1.6387,0.5784-2.8276,1.1567-4.5306c1.0282-3.181,1.96-5.0447,2.442-8.3542c0.0964-0.5141,0.0321-0.9961,0.1928-1.5102
				c0.5462-1.7672,1.5102-2.6991,1.5102-4.5627c0-2.2171-1.0925-3.406-2.2492-5.3017c-0.9961-1.6066-1.1889-2.8276-2.0886-4.5306
				c-0.7712-1.4781-1.7672-2.1849-2.2813-3.7915c-0.3535-1.0925-0.2249-1.96-0.5784-3.0204
				c-0.2892-0.9961-0.739-1.5744-0.739-2.6669c0-2.4099,1.9279-4.3699,4.3378-4.3699c2.8597,0,4.3699,1.1567,7.1975,1.1567
				c0.257,0,0.5141,0,0.7712-0.0321c2.442,2.4741,4.6591,3.181,6.8119,5.9122c0.9318,1.1246,1.2531,2.0564,2.2813,3.0204
				c1.4459,1.3174,3.0204,2.185,3.0204,4.1771c0,0.9318-0.4498,1.4138-0.739,2.2492c-0.6105,1.7672-1.1567,2.8597-1.1567,4.7555
				c0,1.9279,0.9961,2.8276,1.8958,4.5306c1.3174,2.4741,1.9922,4.0807,3.9843,6.0729c2.2492,2.2171,4.402,2.7954,7.5831,3.0204
				c1.1889,0.0964,1.8636,0.5784,3.0204,0.5784c1.2531,0,1.6708-1.2531,2.2813-2.2813c0.6105-0.9961,1.4781-1.3174,2.0886-2.2492
				c1.1246-1.7351,1.703-3.7915,3.7915-3.7915c1.1889,0,1.8958,0.482,3.0204,0.739c1.4781,0.3534,2.442,0.3213,3.7915,0.964
				c1.9922,0.8997,3.0525,1.703,4.5627,3.2132c1.0925,1.1246,1.7994,2.0243,2.0886,3.5987c0.1285,0.7712,0.257,1.5102,0.9318,1.8958
				c0.7712,0.4177,1.4138,0.3213,2.2813,0.5784c1.4138,0.3856,2.2814,1.1246,3.7915,1.1246c1.2853,0,2.0243-0.6105,2.8276-1.5102
				c0.257-0.2892,0.6426-0.3856,0.7711-0.7712c0.3856-1.0925,0.0321-1.8315,0.1928-3.0204
				c0.2892-2.5063,2.6027-3.9843,5.1089-3.9843c1.4138,0,2.1207,0.8997,3.406,1.5102c0.9639,0.482,1.6066,1.0282,2.6669,0.7712
				c2.8918-0.7712,5.7837-1.5102,8.7077-2.2813c1.4781-0.3856,1.6066,1.6066,2.6348,2.6669
				c1.4781,1.4459,2.4741,2.8276,4.5627,2.8276c0.6748,0,1.0603-0.5462,1.5102-0.9318c1.5102-1.2853,1.6066-3.5987,3.5987-3.5987
				c1.3817,0,2.0886,0.6105,3.406,0.9318c1.4138,0.3534,2.3777,0.257,3.7915,0.5784c0.8997,0.1928,1.3817,0.739,2.2814,0.9318
				c1.5744,0.3534,2.5384,0.3856,4.1771,0.3856c2.2171,0,4.6591-0.1928,5.3017-2.2813c0.5784-1.9922,0.7069-3.3417,1.5102-5.3017
				c0.5141-1.2853,1.5423-1.6066,2.6348-2.4741c0.5784-0.4177,0.6748-0.9318,1.1567-1.5102
				c0.7069-0.8354,1.3495-1.221,2.2813-1.8958c1.1567-0.8354,3.1489-1.3495,2.6348-2.8276
				c-0.4177-1.1889-1.0603-2.3456-1.221-3.5987c-0.2249-1.6066,0-3.2453,0-4.884c0-1.3817,0.4177-2.1849,0.8354-3.4702
				c0.4498-1.3174,0.8676-2.1207,1.703-3.2132c0.4177-0.5141,0.9639-0.739,1.3495-1.3174c0.5141-0.8033,0.6748-1.4459,1.1246-2.2813
				c1.3174-2.5063,2.6669-3.7915,4.3699-6.0729c0.3856-0.5141,0.5462-0.9639,0.9318-1.5102
				c0.3856-0.5141,0.8033-0.8033,1.1246-1.3174c1.221-1.7994,2.2171-2.6991,3.6309-4.3699c0.4177-0.5141,0.4177-1.0925,0.739-1.703
				c0.7069-1.2853,1.4459-1.8315,2.2813-3.0204c1.1246-1.6066,1.7672-2.6348,2.6348-4.3699
				c0.4498-0.8354,0.9639-1.3495,1.3495-2.2492c0.3213-0.8033,0.4177-1.8958,1.3174-1.8958c3.8879,0,5.3981,3.7915,9.286,3.7915
				c1.703,0,2.6669-0.8997,3.9843-1.8958c1.6066-1.221,2.7955-1.7351,4.7234-2.2813c2.9882-0.8354,4.8197-0.5784,7.9686-0.5784
				c2.7954,0,4.4342-0.2249,7.1975,0.1928c1.8315,0.2892,2.9883,0.6426,4.7234,1.3174c2.3777,0.9318,3.7273,1.4459,6.0729,2.4741
				c1.7351,0.7712,2.6027,2.0886,4.5305,2.0886c1.2853,0,1.8636-0.9639,2.6669-1.8958c0.9961-1.1567,1.6066-1.96,3.0204-2.4741
				c1.96-0.7069,3.2453-0.5462,5.3017-0.5462c2.9883,0,4.5948,0.5784,7.5831,0.9318c3.0525,0.3534,5.2696,0.739,7.3903,2.8597
				c0.739,0.7069,1.6066,0.739,2.2813,1.5102c1.1246,1.2853,0.6105,2.6669,1.1246,4.3378c0.1928,0.5462,0.964,0.1928,1.5102,0.1928
				c0.9318,0,1.5744-0.482,2.2813,0c0.9961,0.7069,0.7711,1.8636,0.964,3.0525c0.4177,2.6348,0.8033,4.1128,1.1246,6.8119
				c0.0964,0.739,0.6105,0.9961,1.1246,1.5102c0.5462,0.5141,0.7711,1.0603,1.5423,1.1246c1.4459,0.1607,2.442-0.1285,3.7915,0.3856
				c2.3456,0.9318,3.5023,2.8597,6.105,2.8597c1.4781,0,2.9561,0,4.4342,0c1.5744,0,2.3777,1.3174,3.0846,2.6348
				c0.5141,0.964,1.0925,1.4138,1.703,2.2813c0.7711,1.0282,1.3495,1.7994,1.703,3.0204c0.3535,1.0925-0.0321,2.8597,1.1567,2.8597
				c0.6426,0,0.9318-0.5141,1.5102-0.7712c0.8354-0.3534,1.4138-0.4177,2.2813-0.7712c1.3495-0.5462,2.2492-1.1246,3.7594-1.1246
				c0.5784,0,1.1888,0,1.5423,0.3856c0.5463,0.6105,0.2249,1.4138,0.3535,2.2813c0.1928,1.1567,0.482,1.8958,0.964,3.0204
				c1.2209,3.0204,3.3095,3.9843,5.3017,6.6191c3.4059,4.5627,6.2656,7.5509,6.2656,13.2703c0,1.6066-0.9639,2.6027-0.5784,4.1771
				c0.0643,0.2571,0.1285,0.5141,0.1928,0.739c0.2249,0.9318,1.4138-0.5784,2.2814-0.9318
				c1.6066-0.6426,2.8276-0.0643,4.5305-0.3856c0.5784-0.0964,0.8997-0.5784,1.5102-0.5784c0.6105,0,0.9961,0.482,1.3495,0.964
				c0.8354,1.221,0.6105,2.3456,1.1246,3.7915c0.2571,0.7069,0.8354,0.9318,1.3174,1.5102c0.4819,0.5784,0.4819,1.221,1.1567,1.5102
				c0.6426,0.2892,1.1246,0.5784,1.8636,0.3856c1.2853-0.3213,2.5384-0.6426,3.7916-0.9318
				c2.8276-0.7069,1.3495,4.2414,1.8958,7.0047c0.5784,2.7312,1.703,3.5987,2.6669,6.2335c1.0282,2.8276,2.4741,4.0807,3.5988,6.844
				c0.4819,1.1246,0.4819,1.9279,1.1246,3.0204c0.7712,1.221,1.96,1.703,3.4059,1.703c1.96,0,2.9883-0.5784,4.9483-0.5784
				c3.6951,0,6.6833,2.9561,6.8119,6.6512c0.0643,1.5423-0.0964,2.6991,0.7712,3.9522c0.5462,0.8676,1.2852,1.1246,2.0564,1.7351
				c1.1567,0.8354,1.6387,2.0564,3.0525,2.0564c1.1889,0,1.8315-0.739,3.0204-0.739c0.7712,0,0.8033,0.9961,0.9639,1.703
				c0.1606,0.8997,0.4498,1.3817,0.739,2.2813c0.2892,0.8354,0.0964,1.5102,0.5784,2.2492c0.5784,0.964,1.5424,1.0925,2.0886,2.0886
				c0.7391,1.4138,0.6105,2.6027,1.1246,4.1771c0.8354,2.5063,1.2853,4.2092,3.0525,6.2335
				c0.7069,0.8676,1.3495,1.2531,2.2492,1.8958c1.1567,0.8676,1.7673,2.0886,3.2132,2.0886c1.7672,0,2.442-1.8958,4.1771-1.8958
				c0.6748,0,0.964,0.482,1.5102,0.7712c0.964,0.5141,1.4781,1.0603,2.0886,1.8958c0.4177,0.5784,0.9318,0.8033,1.1567,1.5102
				c0.5463,1.8636-0.2892,3.1168,0.3535,4.9161c0.5784,1.6066,1.8636,2.6669,3.5988,2.6669c1.5423,0,2.3456-0.8033,3.5988-1.5102
				c0.6426-0.3535,0.9639-0.9639,1.7351-0.9639c1.0282,0,1.3174,1.0603,2.0564,1.703c0.482,0.4177,1.0282,0.739,1.3495,1.3495
				c0.4177,0.8354,0.1285,1.6066,0.5462,2.442c0.3856,0.8033,1.0925,1.0282,1.8958,1.5102
				c1.3495,0.8033,1.7994,1.7672,3.0526,2.6669c1.7351,1.2853,2.7633,2.6991,2.8276,4.9161
				c0.0321,1.7994-0.0964,4.3699,1.7029,4.3699c0.8997,0,0.9961-0.9639,1.703-1.5102c0.9961-0.7712,1.8636-1.1567,3.1489-1.1567
				c1.4138,0,3.1168,0.6426,3.1168,2.0564c0,1.2853,0,2.5705,0,3.8879c0,0.6105,0.6105,0.8033,1.1246,1.0925
				c0.9639,0.5141,1.7029,0.3213,2.6669,0.739c1.1246,0.5141,1.7351,1.0282,3.0204,1.1246
				c2.4741,0.1928,4.6591,1.0603,5.3017,3.4381c0.4498,1.5423,0.5462,2.6027,0.9639,4.145c0.2249,0.8997,0.1928,1.5744,0.739,2.2813
				c0.1928,0.2249,0.5463,0.1928,0.7712,0.3856c1.703,1.5423,2.6348,2.9882,2.6348,5.3017c0,1.3174-0.739,2.0885-0.739,3.4059
				c0,0.8676,0.8033,1.0925,1.5102,1.5102c0.8997,0.5462,1.4138,1.1567,1.8958,2.0885c0.6105,1.221,0.9318,1.7994,2.0886,2.4741
				c0.8033,0.4498,2.2814,0.2249,2.0886,1.1246c-0.482,2.185-2.8597,2.6991-2.8597,4.9161c0,0.482,0.0642,0.5462,0.1927,0.964
				c0.3856,1.1889,0.964,1.9922,2.0886,2.4741c0.8033,0.3213,1.6387,0,2.2814,0.5462c0.1606,0.1606,0.0643,0.5462,0.1927,0.7711
				c0.6426,1.3174,0.7391,2.2813,0.7391,3.7915c0,1.6066,0.4819,3.5987,2.0885,3.5987c1.0925,0,1.1889-1.703,2.2814-1.703
				c0.3856,0,0.4177,0.482,0.739,0.5462c1.6066,0.4498,2.2814,1.6066,3.7916,2.2813c1.478,0.6748,2.6669,0.3856,3.7915,1.5102
				c0.8033,0.8033,0.2892,1.8958,0.5784,3.0525c0.482,1.8958,1.2853,3.2453,3.0204,3.9843
				c2.8918,1.1567,5.2053,1.1567,7.5831,3.2132c1.3174,1.1246,1.3817,2.4741,2.6669,3.5988c0.7068,0.6426,1.5744,0.739,2.442,0.7711
				c0.1606,0.9639,0.6748,1.8315,1.3495,2.442c0.9639,0.8997,2.8276,0.8676,2.8276,2.2813c0,0.482-0.5784,0.6426-0.5784,1.1246
				c0,1.4781,2.1528,1.1889,2.8597,2.4741c0.4177,0.739,0.0642,1.3817,0,2.2813c-0.1285,1.7351,0.2249,2.8276,0.5462,4.5306
				c0.3535,1.7672,0.482,2.8918,1.1567,4.5627c0.482,1.1567,0.9961,1.8315,1.5102,3.0204c0.8033,1.0282,2.4741,1.3817,3.4059,2.6348
				c4.7555,6.4906,4.402,11.8887,8.3542,18.9576c1.0925,1.9922,2.8918,2.2813,4.3378,3.9843
				c3.1168,3.5987,6.4584,4.1771,9.286,7.9686c3.181,4.2414,3.5988,7.8401,3.5988,13.2061c0,4.5305-0.0322,7.1011-0.0322,11.6317
				c0,3.1489-0.8997,4.7876-0.8997,7.9365c0,1.9279,0.6105,2.9883,0.739,4.9161c0.2892,0,0.482,0.1928,0.7712,0.1928
				c2.0886,0,2.7311-1.8636,4.5305-2.8597c2.185-1.1567,3.3417-2.2492,5.3018-3.7915c3.181-2.4099,6.7797-1.8315,8.9326-5.3017
				c4.8198-7.7437,10.989-8.8041,18.1865-14.2022c7.0046-5.2375,9.5431-13.2704,18.3793-13.2704
				c7.2296,0,13.0454-6.0407,13.0454-13.3025v-3.6951c0-2.4099-1.1246-3.6951-1.1246-6.105c0-5.9765,2.3777-12.8848,8.3221-12.8848
				c3.0846,0,5.366-0.5784,7.7758,1.3174c3.1168,2.4741,2.1849,6.1371,4.7555,9.0932c3.0525,3.5666,6.105,4.145,9.6395,7.1975
				c2.3777,2.0564,2.5063,4.1771,4.1771,6.844c4.1771,6.6834,9.3824,7.9044,15.3589,13.0776
				c5.3339,4.5948,4.3057,10.6998,9.6395,15.3268c5.0768,4.402,9.993,4.1128,14.395,9.286
				c5.4944,6.4585,6.1693,11.7602,7.1974,20.0823c0.5463,4.2735,0.1928,7.2617,2.8597,10.6034
				c3.2131,4.0807,7.4866,3.9843,10.6034,8.1614c2.8918,3.8879,2.0565,7.4867,4.9161,11.3746
				c3.3417,3.6951,5.1411,6.0407,7.0368,10.6034c1.2532,3.181,0.9961,5.5909,3.0204,8.3221
				c2.9883,3.9843,7.2296,3.3738,12.1136,4.5627c13.6559,3.4059,17.1583,17.8009,31.1355,17.8009h3.8879
				c3.5345,0,6.4906-0.8997,8.1935-3.9843c2.1528-3.8879,2.924-8.7077,7.3903-8.7077c3.6951,0,3.4059,4.7234,5.4945,7.7758
				c2.3456,3.4381,5.9444,3.8879,7.551,7.7437c2.699,6.4906,0.996,12.3707,6.2656,17.0619
				c2.1207,1.8958,4.2735,1.6066,7.0047,2.4741c4.2735,1.3174,6.5549,2.442,10.4106,4.5306
				c6.6512,3.5666,7.2296,12.692,14.7805,12.692c6.9726,0,10.732-2.442,17.6724-2.442c2.6669,0,4.1771-0.1928,6.8119-0.1928
				c8.1293,0,11.8245,6.0407,19.9216,6.0407h4.6591l4.3699,0.9639c8.3864,3.2132,12.4028,6.4906,20.8534,9.286
				c5.2053,1.703,9.511,1.5423,12.8848,5.8801c4.4984,5.7194,4.8519,10.3142,8.1294,16.8369
				c1.3816,2.7633,4.7876,1.8958,6.6512,4.3699c5.2053,7.0047,6.9082,12.0172,10.7319,19.7288
				c-0.739,0.6426-1.2853,1.3495-2.2172,2.0565c-1.0603,0.8033-1.8314,0.9961-3.0203,1.5102
				c-0.5784,0.257-0.9319,0.5784-1.5424,0.7711c-1.1246,0.3535-2.1207,0.1285-3.0204,0.9318
				c-0.7069,0.6426-0.6105,1.3817-0.7711,2.2814c-0.1285,0.8997-0.3214,1.5102-0.3535,2.4741
				c-0.0321,0.5463-0.0642,1.0925-0.0642,1.6066l81.1323,60.8894c1.4137,0.739,1.478,2.0564,2.8596,2.6669
				c3.4381,1.6066,5.8159,2.0243,8.7078,4.5627c4.177,3.6309,5.3016,9.0933,10.7961,9.0933c3.3096,0,6.0729-0.8354,7.7759-3.5988
				c1.0925-1.7672,0.9318-4.3699,3.0204-4.3699c5.6873,0,5.4945,7.8722,10.7963,9.8322c4.6591,1.7351,7.7115,1.1889,12.6919,1.7351
				c-0.1285,1.3174-0.0963,2.1207-0.0963,3.4381v3.4702c0,3.2131,3.3094,3.6951,6.5548,4.2414
				c2.3456,1.6066,4.2413,1.3495,6.8119,2.4741c1.4138,0.6426,1.9922,1.6708,2.6669,3.0204
				c0.5784,1.2531,1.189,1.8636,1.8636,3.0525c0.9961,1.7029,0.8676,3.2131,2.2814,4.5305
				c0.6105,0.5784,1.3817,0.5463,2.2814,0.5784c1.7993,0.0322,2.8275,0.225,4.5626,0.7712
				c0.4821,0.1606,1.0604,0.0643,1.5103,0.3535c0.2249,0.1606,0.1927,0.5463,0.3534,0.7712
				c1.4138,1.8958,1.1567,3.6951,1.5424,6.0729c0.4177,2.699,2.8275,3.3417,3.9521,5.8479c1.2211,2.6669,1.703,4.5306,3.4381,6.8441
				c1.0603,1.4459,1.8636,2.1849,3.2131,3.4059c0.739,0.6747,1.2853,1.3174,2.3135,1.3174c1.478,0,2.9562,0,4.4663,0
				c3.0204,0,4.6913,1.1889,7.6152,1.8958c1.1246,0.2892,1.8958,0.2892,3.0204,0.5784c1.8958,0.4498,2.7633,1.2209,4.5626,1.8958
				c2.2814,0.8354,4.7234,1.5423,4.7234,3.9843c0,1.96-1.703,2.6669-3.0204,4.145c-0.1927,0.2249-0.1927,0.5784-0.3856,0.7712
				c-0.8353,0.8354-1.7029,1.4138-1.7029,2.6348c0,1.1889,0.0642,1.9922,0.5784,3.0525c0.4819,0.9961,1.3495,1.2853,1.8958,2.2493
				c1.2852,2.4099,2.4419,3.5666,3.5986,6.0729c0.8998,1.9921,0.9319,3.2774,1.703,5.3017c0.739,2.0564,2.6348,2.7633,2.6348,4.9482
				c0,1.6387-0.9318,2.5063-0.9318,4.145c0,1.478,1.1888,2.1207,2.2814,3.0525c1.6066,1.3495,2.5706,2.3456,3.5988,4.145
				c0.6747,1.1889,1.3816,1.8315,1.8958,3.0525c0.6426,1.6066,0.8354,2.5706,0.739,4.3378
				c-0.0643,1.1889-0.5784,1.8636-0.5784,3.0525c0,1.7994,0.1606,2.924,0.964,4.5306c0.4498,0.8997,0.6105,1.7673,1.5101,2.2814
				c0.8033,0.4819,1.4138,0.3856,2.2814,0.739c0.9318,0.4498,1.6066,0.8033,2.0885,1.7351c0.3856,0.739-0.0963,1.5423,0.3856,2.2492
				c0.514,0.8033,1.4138,0.9318,2.2491,1.3495c0.5142,0.2249,1.3496,0.3213,1.3496,0.9318c0,0.3214-0.3856,0.4177-0.3856,0.7712
				c-0.0964,1.5102-0.2892,2.442-0.964,3.7916c-0.3213,0.6426-1.1888,0.5141-1.5101,1.1246
				c-0.3213,0.6105-0.5784,1.1246-0.5784,1.8958c0,4.4985,4.5627,6.105,4.5627,10.6035c0,2.699-1.5103,4.1129-1.5103,6.8119
				c0,2.5063,0.4498,4.5948,2.6348,5.8801c1.4781,0.8676,3.0847,0.482,3.9844,1.8958c0.2892,0.4819,0.1285,0.996,0.1927,1.5102
				c0.2571,1.7029-0.1285,2.9882,0.5784,4.5627c0.225,0.5462,0.739,0.8033,1.1246,1.3174c1.5101,1.9921,2.5706,3.0846,4.5626,4.5627
				c3.0204,2.2492,4.9161,3.5988,7.1975,6.6191c1.1246,1.5102,2.2172,2.185,3.2131,3.7916
				c2.5385,4.1129,5.1732,7.5831,10.0251,7.5831c1.2531,0,1.8958-0.5463,3.0525-0.964c1.6387-0.6105,2.7954-0.6426,4.5305-0.9318
				c2.3778-0.3856,3.6952-1.3495,6.105-1.3495c0.5142,0,0.9961,0,1.4781,0c3.2131,0,1.1245,5.0447,2.4741,7.9686
				c1.8958,4.1771,3.3417,6.3942,5.1089,10.6035c1.6066,3.8879,2.8918,6.105,5.8801,9.0932
				c1.0282,1.0604,1.7993,1.6066,2.8275,2.6669c0.8033,0.8033,0.964,1.6387,1.8958,2.2814
				c1.2211,0.8033,2.2814,0.9318,3.7916,0.9318c0.5784,0,0.996,0.0964,1.5101,0c0.3534-0.0643,0.2892-0.5142,0.5784-0.7391
				c0.739-0.6426,1.2853-1.3495,2.2814-1.3495s1.4459,0.6747,2.2491,1.1567c1.189,0.7068,1.8958,1.3174,3.0525,2.0564
				c1.9922,1.3495,3.2454,2.0243,5.3018,3.2453c0.8033,0.482,1.478,0.8354,2.2814,1.3174c1.2209,0.739,1.703,1.6066,2.8275,2.4741
				c1.4138,1.0604,2.7633,1.1246,4.5627,1.1246c1.7351,0,2.7954,0,4.5305-0.1928c1.9922-0.2249,2.924-1.3174,4.9161-1.3174
				c1.0925,0,1.8636,0.0964,2.667,0.739c1.3174,1.0925,1.5422,2.3777,2.4741,3.7916c0.3855,0.6105,0.8997,0.7711,1.5101,1.1567
				c0.9319,0.5784,1.8315,0.9639,2.442,1.8958c1.478,2.0886,2.667,2.9561,4.9482,3.7915c0.225,0.0643,0.5142-0.0964,0.739,0
				c1.7673,0.5784,2.6027,1.6066,4.4342,2.0243c-0.8676,1.0283-2.3456,10.4749-2.3456,11.7923
				c0,4.0165,1.1888,6.2014,1.5101,10.2179c-0.7069-0.2249-1.1246-0.5463-1.8958-0.5463c-8.322,0-17.8009,3.5988-17.8009,11.9208
				c-6.105,0.3856-14.2021,0.7069-14.2021,6.8119c0,3.2774-0.964,5.0447-0.964,8.29v3.8879c0,3.2453,1.6709,5.1732,3.7915,7.551
				c0.2892,1.6066,1.1567,2.3456,1.1567,3.9843c0,2.1528-1.7993,3.0204-2.4741,5.1089l0.3856,1.5101v2.2814
				c-4.3699,0.7069-7.7115,1.0282-10.25,4.5306c0.7712,0.8676,1.7351,1.2852,1.7351,2.4741c0,5.6873-6.9725,6.0086-9.6716,10.989
				v1.1246c3.5988,0.2892,5.7837,0.1607,9.0933,1.5102c-0.7069,1.2532-1.7993,1.703-3.2131,1.703
				c-1.3495,0-2.0885-0.5463-3.4381-0.5463c-2.5062,0-3.92,0.3856-6.4263,0.3856c-5.0126,0-7.8723-0.2571-12.8848-0.3856
				c-5.7195,0.9318-8.9969,0.9318-14.5878,2.0886c-3.5023,0.7069-5.623,3.0204-6.6191,6.4263
				c-0.5784,1.9921,0.1285,3.5666-0.964,5.3017c-1.2852,2.0565-4.5305,1.8958-4.5305,4.3057v3.8558
				c-6.9725,5.2053-13.0775,9.4146-13.0775,18.1223v5.3981c0,2.0565-1.0604,3.8558-3.0204,4.3057
				c-1.7672,0.4498,1.703-0.739,1.703-2.6991v-4.4341c0-3.663-3.181-6.4906-6.8441-6.4906c-2.6027,0-3.7915,2.8918-3.7915,5.4945
				c0,3.8879,1.478,6.5228,4.7555,8.7077c-1.8636,0.8997-3.181,2.2813-4.5627,3.7915c-2.2491,1.3174-3.2452,2.5063-5.1089,4.3699
				c-1.1246,1.1246-3.0204,1.3495-3.0204,3.0203c0,0.8354,2.2814,8.9326,3.2454,7.7116c0.739-0.9318,1.5422-2.7955,1.8314-1.6708
				c1.2211,4.8519,3.6631,7.1332,5.366,11.8566c0.225,0.6105,0.1285,0.4819-0.4176,0.2892
				c-3.7594-1.3495-5.9122-3.0204-10.0251-3.0204c-4.1449,0-5.6873,4.7876-5.6873,8.9005c0,3.8878,1.3174,6.1371,3.2131,9.4788
				c1.9922,3.406,2.4741,6.0087,5.1089,8.9005c2.667,2.8918,4.4985,4.5947,7.9688,6.4263c1.6066,0.8676,2.3135,2.2814,4.177,2.2814
				c2.7312,0,3.9523-2.0886,5.4945-4.3699c0.5142-1.0604,0.5463-0.5463,0.5463,0.4498c0,3.3417-2.5062,4.627-4.7234,7.1332
				c-1.6066,1.7993-1.3174,3.6952-1.8958,6.0729c-0.6747,2.6348-2.0885,4.0165-2.0885,6.7798v3.8879
				c0,3.5023,1.2209,7.7115,4.7555,7.7115c2.0243,0,2.9561-1.6066,4.1449-3.2131c2.1851-2.924-4.2413,8.4828-4.5305,8.9004
				c-3.7915,5.4303-3.4059,10.0251-3.4059,16.6764c0,9.9286,3.0525,15.4231,7.5509,24.4199
				c3.2452,4.884,9.0933,6.1051,9.0933,11.953c0,0.739-0.5463,1.1246-0.5463,1.8958c0,2.0243,1.8958,2.8918,1.8958,4.9161
				c0,1.6709-0.964,2.5063-0.964,4.1771c0,1.0282,0.0964,1.6066,0.0964,2.6348c0,1.703-0.4819,2.667-0.4819,4.37
				c0,3.0203,1.1888,5.2374,3.7915,6.8119l1.1567,23.1025l11.728,0.964h8.6755c4.1128,0,5.2695,4.7876,5.7194,8.9005
				c0.45,3.5665,1.5424,5.366,2.0886,8.9004c4.0486,0.3534,5.8479,1.7672,9.5431,3.2775
				c-3.7915,4.3378-5.3981,8.1935-10.6677,11.6959c-8.8683,11.8566-16.5477,17.3832-21.2068,31.4568
				c-1.189,3.5344-3.2454,5.3339-3.2454,9.0933c0,2.7312,1.8958,4.0807,1.8958,6.8119c0,1.3817-0.9318,2.0243-0.9318,3.406
				c0,0.6105,0.5463,0.8997,0.5463,1.5101c0,2.3777-2.7312,2.6027-3.7594,4.7555c-2.0886,4.1449-3.5988,6.7155-3.5988,11.3745
				c0,1.1567,0.739,1.8315,0.739,3.0204c0,3.406-3.5988,4.5306-3.5988,7.9686c0,1.3175,1.0924,2.1528,2.2814,2.6349
				c-0.3535,0.7069-0.5784,1.1245-0.5784,1.8958c0,0.8032,0.9639,1.0924,0.9639,1.8958c0,1.8315-1.96,2.1849-3.4059,3.2131
				c-1.9601,1.4138-2.8597,2.8918-3.2454,5.3018c-3.3417,0-4.8197,2.1528-7.3903,4.3699
				c-4.7876,4.1771-6.5227,7.4867-11.5352,11.3746c-8.3542,6.4263-12.692,10.7961-18.0259,19.8894
				c-6.844,9.1897-11.2461,13.7844-17.8009,23.2954c-6.105,8.9647-10.2179,14.9734-10.2179,25.7695
				c0,3.5023,0.8033,6.587,3.9844,8.1615l1.3174-0.6748c0.1927-0.0964,0.1606-0.1285,0.2249,0.0642
				c0.3214,1.3817,0.7069,2.1851,0.7069,3.631c0.6748,0.0642,1.0604,0.1284,1.6388,0.1606c0.2892,0.0321,0.2892,0,0.1285,0.2249
				c-3.0526,4.0486-5.3661,6.8119-5.3661,11.9209c0,1.3174,0.5784,2.0885,0.5784,3.4059c0,0.2892-0.0963,0.5142-0.1927,0.7069
				c-0.2571,0.5784-0.2249,0.3856-0.739,0.0642c-1.2209-0.8032-2.3777-1.1567-3.9844-1.1567c-5.6552,0-8.3541,2.8918-13.6559,4.7555
				c-10.025,3.5024-13.5273,9.8002-23.1027,14.5878c-15.391,7.6794-20.9819,16.8691-35.9873,24.9984
				c-5.1411,3.8558-7.9365,5.8801-11.7603,10.989c-1.703,2.2814-3.9843,3.2131-3.9843,6.0729c0,2.1207-1.703,3.1168-3.406,4.3378
				c-1.478,1.0603-1.5745,2.5383-2.6348,3.9843c-2.442,3.2775-4.3699,5.5588-4.3699,9.6716c0,2.5063,1.8958,3.9844,4.1771,4.9161
				c-0.8676,1.7673-2.1528,2.1849-3.2454,3.7916c-0.514,0.8032-0.514,2.0885-1.5101,2.0885c-1.3174,0-1.7994-1.1246-3.0204-1.5101
				c-3.2131-1.0604-5.3018-1.1246-8.7076-1.1246c-6.0408,0-9.2861,2.0564-14.9734,3.9521
				c-1.7993,0.5784-2.6027,1.8958-4.5626,1.8958c-0.3214,0-0.3856-0.3534-0.6427-0.514c-0.9961-0.6427,5.7837-2.6349,5.9443-2.6991
				c2.1849-0.8033,2.9883-2.3456,5.0447-3.3096c0.3213-0.1285,0.3213-0.0964-0.0321-0.1606L1182.395,1518.9937z"/>
		</defs>
		<clipPath id="SVGID_2_">
			<use xlink:href="#SVGID_1_"  overflow="visible"/>
		</clipPath>
		<g clip-path="url(#SVGID_2_)">
			<rect x="-484.4469" y="1098.4816" fill="#FFFFFF" stroke="#000000" stroke-miterlimit="20" width="2464.1694" height="182.531"/>
			
				<rect x="-484.4469" y="1463.5436" fill="#FFFFFF" stroke="#000000" stroke-miterlimit="20" width="2464.1694" height="182.5311"/>
			<polygon fill="#FFFFFF" stroke="#000000" stroke-miterlimit="20" points="-484.447,3.2951 -484.447,915.9504 1979.7225,915.9504 
				1979.7225,733.4193 428.2085,733.4193 428.2085,550.8883 1979.7225,550.8883 1979.7225,368.3572 428.2085,368.3572 
				428.2085,185.8264 1979.7225,185.8264 1979.7225,3.2951 			"/>
			<rect x="428.2086" y="185.8264" fill="#0038A8" stroke="#000000" stroke-miterlimit="20" width="1551.514" height="182.5308"/>
			<rect x="428.2086" y="550.8883" fill="#0038A8" stroke="#000000" stroke-miterlimit="20" width="1551.514" height="182.531"/>
			<rect x="-484.4469" y="915.9504" fill="#0038A8" stroke="#000000" stroke-miterlimit="20" width="2464.1694" height="182.5311"/>
			
				<rect x="-484.4469" y="1281.0125" fill="#0038A8" stroke="#000000" stroke-miterlimit="20" width="2464.1694" height="182.5311"/>
		</g>
		<use xlink:href="#SVGID_1_"  overflow="visible" fill="none" stroke="#000000" stroke-miterlimit="20"/>
	</g>
	<g id="g10" transform="matrix(1.25,0,0,-1.25,0,2000)">
		<g id="g12">
			<g id="g14">
				<g id="g20" transform="translate(1271.6036,758.979)">
					<path id="path22" fill="#FCD116" stroke="#000000" stroke-width="0.6141" stroke-linecap="square" stroke-miterlimit="20" d="
						M-1028.656,421.9091l11.2986-16.872c-46.4275-33.599-18.0829-53.4679-50.9849-64.2219
						c20.4639,19.9699-3.2223,21.654,14.0194,63.2788"/>
				</g>
				<g id="g24" transform="translate(1261.8582,753.2087)">
					<path id="path26" fill="none" stroke="#000000" stroke-width="0.6141" stroke-miterlimit="20" d="M-1026.9872,422.8972
						c-25.6156-42.2198-8.8164-65.4336-31.6091-76.312"/>
				</g>
				<g id="g28" transform="translate(1280.9283,799.2482)">
					<path id="path30" fill="#FCD116" stroke="#000000" stroke-width="0.6141" stroke-miterlimit="20" d="M-1030.2527,415.0137
						h22.5275l-22.5275-123.8997l-22.5276,123.8997H-1030.2527V291.114"/>
				</g>
				<g id="g32" transform="translate(1245.8601,777.3672)">
					<path id="path34" fill="#FCD116" stroke="#000000" stroke-width="0.6141" stroke-linecap="square" stroke-miterlimit="20" d="
						M-1024.2478,418.7604l-3.9408-19.9194c-56.5873,9.0709-50.5938-25.0213-81.4636-9.3609
						c28.5908-0.3481,13.0332,17.5906,54.658,34.8322"/>
				</g>
				<g id="g36" transform="translate(1234.8888,780.178)">
					<path id="path38" fill="none" stroke="#000000" stroke-width="0.6141" stroke-miterlimit="20" d="M-1022.3691,418.2791
						c-47.9674-11.7411-52.5032-40.0352-76.312-31.6091"/>
				</g>
				<g id="g40" transform="translate(1280.9283,799.2482)">
					<path id="path42" fill="#FCD116" stroke="#000000" stroke-width="0.6141" stroke-miterlimit="20" d="M-1030.2527,415.0137
						l15.9289-15.9289l-103.5386-71.6808l71.6809,103.5386L-1030.2527,415.0137l-87.6097-87.6097"/>
				</g>
				<g id="g44" transform="translate(1240.6592,808.573)">
					<path id="path46" fill="#FCD116" stroke="#000000" stroke-width="0.6141" stroke-linecap="square" stroke-miterlimit="20" d="
						M-1023.3572,413.417l-16.872-11.2986c-33.599,46.4275-53.4679,18.0829-64.2219,50.9849
						c19.97-20.4639,21.6539,3.2223,63.2788-14.0194"/>
				</g>
				<g id="g48" transform="translate(1234.8888,818.3184)">
					<path id="path50" fill="none" stroke="#000000" stroke-width="0.6141" stroke-miterlimit="20" d="M-1022.3691,411.7482
						c-42.2198,25.6155-65.4336,8.8164-76.312,31.6092"/>
				</g>
				<g id="g52" transform="translate(1280.9283,799.2482)">
					<path id="path54" fill="#FCD116" stroke="#000000" stroke-width="0.6141" stroke-miterlimit="20" d="M-1030.2527,415.0137
						v-22.5275l-123.8998,22.5275l123.8998,22.5275V415.0137h-123.8998"/>
				</g>
				<g id="g56" transform="translate(1259.0474,834.3165)">
					<path id="path58" fill="#FCD116" stroke="#000000" stroke-width="0.6141" stroke-linecap="square" stroke-miterlimit="20" d="
						M-1026.506,409.0088l-19.9193,3.9408c9.0717,56.5873-25.0214,50.5937-9.361,81.4636
						c-0.348-28.5908,17.5906-13.0332,34.8322-54.658"/>
				</g>
				<g id="g60" transform="translate(1261.8582,845.2878)">
					<path id="path62" fill="none" stroke="#000000" stroke-width="0.6141" stroke-miterlimit="20" d="M-1026.9872,407.1302
						c-11.7412,47.9673-40.0353,52.5031-31.6091,76.312"/>
				</g>
				<g id="g64" transform="translate(1280.9283,799.2482)">
					<path id="path66" fill="#FCD116" stroke="#000000" stroke-width="0.6141" stroke-miterlimit="20" d="M-1030.2527,415.0137
						l-15.9288-15.9289l-71.6809,103.5386l103.5386-71.6808L-1030.2527,415.0137l-87.6097,87.6097"/>
				</g>
				<g id="g68" transform="translate(1290.2532,839.5175)">
					<path id="path70" fill="#FCD116" stroke="#000000" stroke-width="0.6141" stroke-linecap="square" stroke-miterlimit="20" d="
						M-1031.8494,408.1182l-11.2986,16.872c46.4274,33.599,18.0828,53.4678,50.9848,64.2219
						c-20.4639-19.97,3.2223-21.654-14.0194-63.2788"/>
				</g>
				<g id="g72" transform="translate(1299.9987,845.2878)">
					<path id="path74" fill="none" stroke="#000000" stroke-width="0.6141" stroke-miterlimit="20" d="M-1033.5182,407.1302
						c25.6155,42.2198,8.8164,65.4336,31.6091,76.312"/>
				</g>
				<g id="g76" transform="translate(1280.9283,799.2482)">
					<path id="path78" fill="#FCD116" stroke="#000000" stroke-width="0.6141" stroke-miterlimit="20" d="M-1030.2527,415.0137
						h-22.5276l22.5276,123.8997l22.5275-123.8997H-1030.2527v123.8997"/>
				</g>
				<g id="g80" transform="translate(1315.9967,821.1292)">
					<path id="path82" fill="#FCD116" stroke="#000000" stroke-width="0.6141" stroke-linecap="square" stroke-miterlimit="20" d="
						M-1036.2576,411.2669l3.9408,19.9194c56.5873-9.0709,50.5937,25.0213,81.4636,9.3609
						c-28.5908,0.3481-13.0332-17.5905-54.658-34.8322"/>
				</g>
				<g id="g84" transform="translate(1326.9679,818.3184)">
					<path id="path86" fill="none" stroke="#000000" stroke-width="0.6141" stroke-miterlimit="20" d="M-1038.1362,411.7482
						c47.9673,11.7411,52.5032,40.0352,76.312,31.6092"/>
				</g>
				<g id="g88" transform="translate(1280.9283,799.2482)">
					<path id="path90" fill="#FCD116" stroke="#000000" stroke-width="0.6141" stroke-miterlimit="20" d="M-1030.2527,415.0137
						l-15.9288,15.9289l103.5394,71.6808l-71.6816-103.5386L-1030.2527,415.0137l87.6105,87.6097"/>
				</g>
				<g id="g92" transform="translate(1321.1976,789.9235)">
					<path id="path94" fill="#FCD116" stroke="#000000" stroke-width="0.6141" stroke-linecap="square" stroke-miterlimit="20" d="
						M-1037.1482,416.6104l16.8721,11.2986c33.599-46.4275,53.4678-18.0828,64.2219-50.9849
						c-19.9708,20.4639-21.654-3.2222-63.2788,14.0194"/>
				</g>
				<g id="g96" transform="translate(1326.9679,780.178)">
					<path id="path98" fill="none" stroke="#000000" stroke-width="0.6141" stroke-miterlimit="20" d="M-1038.1362,418.2791
						c42.2198-25.6155,65.4336-8.8164,76.312-31.6091"/>
				</g>
				<g id="g100" transform="translate(1280.9283,799.2482)">
					<path id="path102" fill="#FCD116" stroke="#000000" stroke-width="0.6141" stroke-miterlimit="20" d="M-1030.2527,415.0137
						v22.5275l123.8997-22.5275l-123.8997-22.5275V415.0137h123.8997"/>
				</g>
				<g id="g104" transform="translate(1302.8094,764.18)">
					<path id="path106" fill="#FCD116" stroke="#000000" stroke-width="0.6141" stroke-linecap="square" stroke-miterlimit="20" d="
						M-1033.9995,421.0185l19.9194-3.9408c-9.0717-56.5873,25.0213-50.5937,9.3609-81.4636
						c0.3481,28.5908-17.5906,13.0332-34.8322,54.658"/>
				</g>
				<g id="g108" transform="translate(1299.9987,753.2087)">
					<path id="path110" fill="none" stroke="#000000" stroke-width="0.6141" stroke-miterlimit="20" d="M-1033.5182,422.8972
						c11.7411-47.9673,40.0344-52.5031,31.6091-76.312"/>
				</g>
				<g id="g112" transform="translate(1280.9283,799.2482)">
					<path id="path114" fill="#FCD116" stroke="#000000" stroke-width="0.6141" stroke-miterlimit="20" d="M-1030.2527,415.0137
						l15.9289,15.9289l71.6816-103.5386l-103.5394,71.6808L-1030.2527,415.0137l87.6105-87.6097"/>
				</g>
				<g id="g116" transform="translate(1280.9283,849.0811)">
					<path id="path118" fill="#FCD116" d="M-1030.2527,406.4806c22.8093,0,41.2999-18.4906,41.2999-41.2999
						s-18.4906-41.2999-41.2999-41.2999s-41.2999,18.4906-41.2999,41.2999S-1053.062,406.4806-1030.2527,406.4806"/>
				</g>
				<g id="g120" transform="translate(1280.9283,849.0811)">
					<path id="path122" fill="none" stroke="#000000" stroke-width="0.6141" stroke-miterlimit="20" d="M-1030.2527,406.4806
						c22.8093,0,41.2999-18.4906,41.2999-41.2999s-18.4906-41.2999-41.2999-41.2999s-41.2999,18.4906-41.2999,41.2999
						S-1053.062,406.4806-1030.2527,406.4806z"/>
				</g>
				<g id="g124" transform="translate(1304.4857,815.1041)">
					<path id="path126" d="M-1034.2865,412.2986c2.6281-2.2526,0.3754-7.1332-2.2526-7.1332c-2.6281,0-7.5095,4.5052-5.257,7.5086
						 M-1023.3982,415.6775c-2.6281-3.0034-4.1298,2.2526-13.5164,2.2526s-10.8883-5.6315-12.39-4.5052
						s7.8849,7.8849,10.8883,8.2603S-1026.7771,419.0564-1023.3982,415.6775"/>
				</g>
				<g id="g128" transform="translate(1290.895,809.6678)">
					<path id="path130" d="M-1031.9594,413.2295c1.5017,2.2526,3.3789-2.2526,7.5087-2.2526c4.1306,0,6.3831,1.1263,9.0112,3.0034
						c2.628,1.8772-3.7543-4.5052-7.8841-4.5052C-1027.4541,409.4752-1033.0856,411.7278-1031.9594,413.2295 M-1033.0856,414.3558
						c0.3754,4.5052,4.1296,5.256,10.1375,5.256c6.0069,0,8.6349-4.5052,10.8875-5.6315c-2.628,0-4.8806,3.7543-10.8875,3.7543
						c-6.0078,0-6.0078,0-10.1375-3.7543"/>
				</g>
				<g id="g132" transform="translate(1280.9283,785.6575)">
					<path id="path134" d="M-1030.2527,417.3409c2.6281,0,3.3789,1.8771,6.3832,1.8771c3.0034,0,7.1332-1.1263,9.0103-2.628
						c0.3754-0.3754-1.1263,3.0034-4.1298,3.3789c-3.0034,0.3755-1.8771,5.256-5.2569,6.0078c0-1.5026,1.1272-1.1271,1.5026-3.3797
						c0-1.8771-3.3797-1.8771-4.1306,0c0.7509-3.0034-1.5017-3.0034-3.3789-3.0034 M-1030.2527,403.4491
						c9.3866,0,7.8849,1.8771,20.2749,7.134c-9.0112-1.1271-10.8883-4.1306-20.2749-4.1306h-1.8772 M-1008.476,407.2034
						c-1.5018,2.628-1.1263,1.8772-4.1306,6.0077C-1009.6023,410.9585-1008.8514,409.8314-1008.476,407.2034 M-1030.2527,412.4603
						c2.2526,0,3.0034,0.7509,6.0068,0.7509c3.0043,0,10.1375-4.1306,14.2681-2.628c-8.6357-3.3797-5.2568-1.1271-20.2749-1.1271
						h-1.8772 M-1009.2269,434.987c4.8806,2.628,1.8771,6.3831,0,7.134C-1008.476,441.3701-1005.4726,437.615-1009.2269,434.987"/>
				</g>
				<g id="g136" transform="translate(1257.3711,815.1041)">
					<path id="path138" d="M-1026.2189,412.2986c-2.6281-2.2526-0.3755-7.1332,2.2526-7.1332c2.628,0,7.5095,4.5052,5.256,7.5086
						 M-1037.1072,415.6775c2.6279-3.0034,4.1296,2.2526,13.5163,2.2526c9.3866,0,10.8883-5.6315,12.3901-4.5052
						c1.5017,1.1263-7.8849,7.8849-10.8884,8.2603S-1033.7284,419.0564-1037.1072,415.6775"/>
				</g>
				<g id="g140" transform="translate(1270.9618,809.6678)">
					<path id="path142" d="M-1028.5461,413.2295c-1.5017,2.2526-3.3788-2.2526-7.5085-2.2526c-4.1306,0-6.3832,1.1263-9.0112,3.0034
						c-2.6279,1.8772,3.7544-4.5052,7.884-4.5052C-1033.0513,409.4752-1027.4198,411.7278-1028.5461,413.2295 M-1027.4198,414.3558
						c-0.3754,4.5052-4.1298,5.256-10.1375,5.256c-6.007,0-8.6349-4.5052-10.8875-5.6315c2.6279,0,4.8805,3.7543,10.8875,3.7543
						c6.0077,0,6.0077,0,10.1375-3.7543"/>
				</g>
				<g id="g144" transform="translate(1280.9283,785.6575)">
					<path id="path146" d="M-1030.2527,417.3409c-2.6281,0-3.3789,1.8771-6.3823,1.8771c-3.0043,0-7.134-1.1263-9.0112-2.628
						c-0.3754-0.3754,1.1263,3.0034,4.1298,3.3789c3.0034,0.3755,1.8772,5.256,5.2568,6.0078c0-1.5026-1.1262-1.1271-1.5017-3.3797
						c0-1.8771,3.3789-1.8771,4.1298,0c-0.7509-3.0034,1.5017-3.0034,3.3789-3.0034 M-1030.2527,403.4491
						c-9.3866,0-7.8849,1.8771-20.2742,7.134c9.0104-1.1271,10.8876-4.1306,20.2742-4.1306h1.8772 M-1052.0286,407.2034
						c1.5017,2.628,1.1263,1.8772,4.1298,6.0077C-1050.9022,410.9585-1051.6531,409.8314-1052.0286,407.2034 M-1030.2527,412.4603
						c-2.2526,0-3.0034,0.7509-6.007,0.7509c-3.0043,0-10.1375-4.1306-14.2672-2.628c8.635-3.3797,5.2561-1.1271,20.2742-1.1271
						h1.8772 M-1051.2777,434.987c-4.8813,2.628-1.8779,6.3831,0,7.134C-1052.0286,441.3701-1055.0328,437.615-1051.2777,434.987"/>
				</g>
				<g id="g148" transform="translate(1280.9283,764.8182)">
					<path id="path150" d="M-1030.2527,420.9093c-1.8772,0-6.7578-1.1263,0-1.1263
						C-1023.4941,419.783-1028.3755,420.9093-1030.2527,420.9093"/>
				</g>
			</g>
		</g>
	</g>
</g>
</svg>
