<svg xmlns="http://www.w3.org/2000/svg" xmlns:cc="http://web.resource.org/cc/" xmlns:ns1="http://sozi.baierouge.fr" xmlns:svg="http://www.w3.org/2000/svg" xmlns:xlink="http://www.w3.org/1999/xlink" id="svg378" x="0" y="0" version="1.0" viewBox="0 0 210 140"><rect id="rect171" style="fill-rule:evenodd;stroke-width:1pt;fill:#dc0000" width="209.82" height="46.54" x=".198" y="93.476"/><rect id="rect256" style="stroke-width:1pt;fill:#ffcb00;fill-rule:evenodd" width="209.82" height="46.54" x=".198" y=".397"/><rect id="rect255" style="fill-rule:evenodd;stroke-width:1pt;fill:#0000ba" width="209.82" height="46.54" x=".198" y="46.936"/><g id="g595" transform="translate(.22163 .73177)"><path id="path575" style="fill-rule:evenodd;stroke-width:.11287;fill:#fff" d="m266.19 534.45l-10.41-7.43-10.36 7.5 3.85-12.19-10.33-7.53 12.78-0.11 3.97-12.16 4.05 12.13 12.79 0.02-10.28 7.6 3.94 12.17z" transform="matrix(.35933 0 0 .32494 13.106 -111.63)"/><path id="path576" style="fill-rule:evenodd;stroke-width:.11287;fill:#fff" d="m266.19 534.45l-10.41-7.43-10.36 7.5 3.85-12.19-10.33-7.53 12.78-0.11 3.97-12.16 4.05 12.13 12.79 0.02-10.28 7.6 3.94 12.17z" transform="matrix(.35933 0 0 .32494 31.717 -109.56)"/><path id="path577" style="fill-rule:evenodd;stroke-width:.11287;fill:#fff" d="m266.19 534.45l-10.41-7.43-10.36 7.5 3.85-12.19-10.33-7.53 12.78-0.11 3.97-12.16 4.05 12.13 12.79 0.02-10.28 7.6 3.94 12.17z" transform="matrix(.35933 0 0 .32494 47.847 -100.46)"/><path id="path578" style="fill-rule:evenodd;stroke-width:.11287;fill:#fff" d="m266.19 534.45l-10.41-7.43-10.36 7.5 3.85-12.19-10.33-7.53 12.78-0.11 3.97-12.16 4.05 12.13 12.79 0.02-10.28 7.6 3.94 12.17z" transform="matrix(.35933 0 0 .32494 56.946 -86.815)"/><path id="path579" style="fill-rule:evenodd;stroke-width:.11287;fill:#fff" d="m266.19 534.45l-10.41-7.43-10.36 7.5 3.85-12.19-10.33-7.53 12.78-0.11 3.97-12.16 4.05 12.13 12.79 0.02-10.28 7.6 3.94 12.17z" transform="matrix(-.35933 0 0 .32494 178.28 -109.56)"/><path id="path580" style="fill-rule:evenodd;stroke-width:.11287;fill:#fff" d="m266.19 534.45l-10.41-7.43-10.36 7.5 3.85-12.19-10.33-7.53 12.78-0.11 3.97-12.16 4.05 12.13 12.79 0.02-10.28 7.6 3.94 12.17z" transform="matrix(-.35933 0 0 .32494 162.15 -100.46)"/><path id="path581" style="fill-rule:evenodd;stroke-width:.11287;fill:#fff" d="m266.19 534.45l-10.41-7.43-10.36 7.5 3.85-12.19-10.33-7.53 12.78-0.11 3.97-12.16 4.05 12.13 12.79 0.02-10.28 7.6 3.94 12.17z" transform="matrix(-.35933 0 0 .32494 153.05 -86.815)"/></g><metadata/></svg>